<?xml version="1.0" encoding="UTF-8" standalone="no"?>
<!-- Created with Inkscape (http://www.inkscape.org/) -->

<svg
   version="1.1"
   id="svg1004"
   width="880"
   height="880"
   viewBox="0 0 880 880"
   sodipodi:docname="flowers-top-view-publicdomainvectors.org.svg"
   inkscape:version="1.2 (dc2aedaf03, 2022-05-15)"
   xmlns:inkscape="http://www.inkscape.org/namespaces/inkscape"
   xmlns:sodipodi="http://sodipodi.sourceforge.net/DTD/sodipodi-0.dtd"
   xmlns="http://www.w3.org/2000/svg"
   xmlns:svg="http://www.w3.org/2000/svg">
  <defs
     id="defs1008">
    <clipPath
       clipPathUnits="userSpaceOnUse"
       id="clipPath1022">
      <path
         d="M 0,660 H 660 V 0 H 0 Z"
         id="path1020" />
    </clipPath>
  </defs>
  <sodipodi:namedview
     id="namedview1006"
     pagecolor="#ffffff"
     bordercolor="#000000"
     borderopacity="0.25"
     inkscape:showpageshadow="2"
     inkscape:pageopacity="0.0"
     inkscape:pagecheckerboard="0"
     inkscape:deskcolor="#d1d1d1"
     showgrid="false"
     inkscape:zoom="0.95113636"
     inkscape:cx="440.52569"
     inkscape:cy="440.52569"
     inkscape:window-width="1920"
     inkscape:window-height="1017"
     inkscape:window-x="-8"
     inkscape:window-y="-8"
     inkscape:window-maximized="1"
     inkscape:current-layer="g1012">
    <inkscape:page
       x="0"
       y="0"
       id="page1010"
       width="880"
       height="880" />
  </sodipodi:namedview>
  <g
     id="g1012"
     inkscape:groupmode="layer"
     inkscape:label="Page 1"
     transform="matrix(1.3333333,0,0,-1.3333333,0,880)">
    <path
       d="M 0,0 H 660 V 660 H 0 Z"
       style="fill:#d7c9c4;fill-opacity:1;fill-rule:nonzero;stroke:none"
       id="path1014" />
    <g
       id="g1016">
      <g
         id="g1018"
         clip-path="url(#clipPath1022)">
        <g
           id="g1024"
           transform="translate(270.9248,298.2822)">
          <path
             d="m 0,0 c -18.883,-12.815 -23.259,-38.605 -31.931,-58.515 -25.769,-59.159 -33.775,-65.056 -44.729,-131.283 -7.42,-44.829 -37.088,-55.444 -39.899,-69.132 -1.869,-9.089 36.594,9.547 46.039,66.608 10.658,64.384 18.299,67.391 47.561,121.496 11.405,21.089 21.243,37.707 25.286,61.537 C 2.794,-6.142 4.104,-0.178 0,0"
             style="fill:#769a2a;fill-opacity:1;fill-rule:evenodd;stroke:none"
             id="path1026" />
        </g>
        <g
           id="g1028"
           transform="translate(368.2119,337.3535)">
          <path
             d="m 0,0 c 17.948,-14.092 43.848,-10.429 65.451,-12.641 64.193,-6.577 72.242,-12.41 138.668,-2.728 44.963,6.553 64.091,-18.488 77.987,-17.007 9.225,0.983 -20.213,31.964 -77.448,23.623 -64.577,-9.407 -69.764,-3.04 -130.202,8.401 C 50.9,4.107 32.077,8.429 8.145,5.043 5.005,4.529 -1.077,3.967 0,0"
             style="fill:#769a2a;fill-opacity:1;fill-rule:evenodd;stroke:none"
             id="path1030" />
        </g>
        <g
           id="g1032"
           transform="translate(309.7261,331.7163)">
          <path
             d="m 0,0 c -1.161,-22.789 16.773,-41.833 27.427,-60.756 31.657,-56.23 31.535,-66.171 77.761,-114.844 31.29,-32.951 21.867,-63.018 31.092,-73.515 6.125,-6.968 14.451,34.951 -25.376,76.891 -44.935,47.323 -42.728,55.233 -68.244,111.2 C 32.714,-39.208 25.387,-21.339 8.815,-3.745 6.583,-1.477 2.616,3.168 0,0"
             style="fill:#769a2a;fill-opacity:1;fill-rule:evenodd;stroke:none"
             id="path1034" />
        </g>
        <g
           id="g1036"
           transform="translate(538.4795,520.6719)">
          <path
             d="m 0,0 c -8.569,-21.15 -32.863,-30.842 -50.509,-43.502 -52.431,-37.616 -56.515,-46.68 -118.965,-71.297 -42.274,-16.664 -46.424,-47.9 -59.217,-53.523 -8.493,-3.73 1.649,37.783 55.459,58.998 60.709,23.935 62.046,32.039 108.801,72.009 18.224,15.577 32.408,28.683 54.858,37.642 C -6.592,1.441 -1.037,3.977 0,0"
             style="fill:#769a2a;fill-opacity:1;fill-rule:evenodd;stroke:none"
             id="path1038" />
        </g>
        <g
           id="g1040"
           transform="translate(295.9404,342.9839)">
          <path
             d="m 0,0 c -17.6,14.525 -19.548,40.611 -26.32,61.245 -20.121,61.311 -27.539,67.93 -32.255,134.891 -3.191,45.327 -31.74,58.669 -33.258,72.56 -1.008,9.224 35.541,-12.928 39.609,-70.622 4.588,-65.096 11.915,-68.807 35.989,-125.41 C -6.853,50.603 1.388,33.136 3.187,9.032 3.353,5.854 4.103,-0.207 0,0"
             style="fill:#769a2a;fill-opacity:1;fill-rule:evenodd;stroke:none"
             id="path1042" />
        </g>
        <g
           id="g1044"
           transform="translate(294.5654,365.9863)">
          <path
             d="m 0,0 c -39.082,-29.469 -108.703,51.774 -167.968,56.378 -49.103,3.814 -67.159,-26.604 -102.153,-45.769 -13.839,-7.578 -22.207,-6.251 -4.087,7.696 86.158,66.309 113.807,56.21 206.967,9.091 C -40.659,13.95 -34.677,14.18 -7.433,6.039 -4.385,5.129 1.575,3.795 0,0"
             style="fill:#769a2a;fill-opacity:1;fill-rule:evenodd;stroke:none"
             id="path1046" />
        </g>
        <g
           id="g1048"
           transform="translate(326.396,300.8555)">
          <path
             d="m 0,0 c -4.311,-45.537 -31.746,-94.042 -77.831,-129.154 -46.085,-35.111 -100.132,-48.683 -145.18,-40.753 4.313,45.538 31.745,94.04 77.831,129.153 C -99.094,-5.644 -45.046,7.931 0,0"
             style="fill:#87b027;fill-opacity:1;fill-rule:evenodd;stroke:none"
             id="path1050" />
        </g>
        <g
           id="g1052"
           transform="translate(326.396,300.8555)">
          <path
             d="m 0,0 c -4.311,-45.537 -31.746,-94.042 -77.831,-129.154 -46.085,-35.111 -100.132,-48.683 -145.18,-40.753 z"
             style="fill:#769a2a;fill-opacity:1;fill-rule:evenodd;stroke:none"
             id="path1054" />
        </g>
        <g
           id="g1056"
           transform="translate(603.1289,199.3389)">
          <path
             d="m 0,0 c -43.503,-14.13 -98.912,-8.219 -149.439,20.129 -50.53,28.346 -84.453,72.557 -95.068,117.048 43.503,14.131 98.913,8.22 149.441,-20.128 C -44.537,88.701 -10.613,44.49 0,0"
             style="fill:#87b027;fill-opacity:1;fill-rule:evenodd;stroke:none"
             id="path1058" />
        </g>
        <g
           id="g1060"
           transform="translate(603.1289,199.3389)">
          <path
             d="m 0,0 c -43.503,-14.13 -98.912,-8.219 -149.439,20.129 -50.53,28.346 -84.453,72.557 -95.068,117.048 z"
             style="fill:#769a2a;fill-opacity:1;fill-rule:evenodd;stroke:none"
             id="path1062" />
        </g>
        <g
           id="g1064"
           transform="translate(264.9624,77.6172)">
          <path
             d="M 0,0 C -27.944,36.209 -41.024,90.378 -31.331,147.499 -21.64,204.618 8.575,251.441 46.9,276.408 74.844,240.195 87.924,186.028 78.234,128.908 68.54,71.786 38.326,24.965 0,0"
             style="fill:#87b027;fill-opacity:1;fill-rule:evenodd;stroke:none"
             id="path1066" />
        </g>
        <g
           id="g1068"
           transform="translate(264.9624,77.6172)">
          <path
             d="M 0,0 C -27.944,36.209 -41.024,90.378 -31.331,147.499 -21.64,204.618 8.575,251.441 46.9,276.408 Z"
             style="fill:#769a2a;fill-opacity:1;fill-rule:evenodd;stroke:none"
             id="path1070" />
        </g>
        <g
           id="g1072"
           transform="translate(305.5488,348.5029)">
          <path
             d="M 0,0 C 24.967,38.327 71.789,68.54 128.909,78.233 186.031,87.922 240.199,74.842 276.41,46.897 251.441,8.572 204.62,-21.643 147.498,-31.334 90.379,-41.024 36.209,-27.945 0,0"
             style="fill:#87b027;fill-opacity:1;fill-rule:evenodd;stroke:none"
             id="path1074" />
        </g>
        <g
           id="g1076"
           transform="translate(305.5488,348.5029)">
          <path
             d="m 0,0 c 24.967,38.327 71.789,68.54 128.909,78.233 57.122,9.689 111.29,-3.391 147.501,-31.336 z"
             style="fill:#769a2a;fill-opacity:1;fill-rule:evenodd;stroke:none"
             id="path1078" />
        </g>
        <g
           id="g1080"
           transform="translate(153.5371,495.1396)">
          <path
             d="m 0,0 c 45.656,2.778 97.817,-16.832 139.627,-56.941 41.81,-40.107 63.57,-91.406 62.695,-137.138 -45.657,-2.778 -97.817,16.834 -139.625,56.94 C 20.886,-97.031 -0.876,-45.731 0,0"
             style="fill:#87b027;fill-opacity:1;fill-rule:evenodd;stroke:none"
             id="path1082" />
        </g>
        <g
           id="g1084"
           transform="translate(153.5371,495.1396)">
          <path
             d="m 0,0 c 45.656,2.778 97.817,-16.832 139.627,-56.941 41.81,-40.107 63.57,-91.406 62.695,-137.138 z"
             style="fill:#769a2a;fill-opacity:1;fill-rule:evenodd;stroke:none"
             id="path1086" />
        </g>
        <g
           id="g1088"
           transform="translate(30.1177,334.0811)">
          <path
             d="m 0,0 c 22.568,9.153 52.22,8.115 80.128,-5.022 27.91,-13.138 47.605,-35.332 54.929,-58.556 -22.57,-9.154 -52.222,-8.118 -80.128,5.021 C 27.019,-45.421 7.324,-23.228 0,0"
             style="fill:#ae2721;fill-opacity:1;fill-rule:evenodd;stroke:none"
             id="path1090" />
        </g>
        <g
           id="g1092"
           transform="translate(30.1177,334.0811)">
          <path
             d="m 0,0 c 22.568,9.153 52.22,8.115 80.128,-5.022 27.91,-13.138 47.605,-35.332 54.929,-58.556 z"
             style="fill:#cc2d23;fill-opacity:1;fill-rule:evenodd;stroke:none"
             id="path1094" />
        </g>
        <g
           id="g1096"
           transform="translate(300.23,206.9248)">
          <path
             d="m 0,0 c -22.568,-9.154 -52.22,-8.117 -80.128,5.021 -27.91,13.138 -47.604,35.331 -54.928,58.557 22.568,9.155 52.218,8.117 80.128,-5.02 C -27.017,45.417 -7.323,23.224 0,0"
             style="fill:#ae2721;fill-opacity:1;fill-rule:evenodd;stroke:none"
             id="path1098" />
        </g>
        <g
           id="g1100"
           transform="translate(300.23,206.9248)">
          <path
             d="m 0,0 c -22.568,-9.154 -52.22,-8.117 -80.128,5.021 -27.91,13.138 -47.604,35.331 -54.928,58.557 z"
             style="fill:#cc2d23;fill-opacity:1;fill-rule:evenodd;stroke:none"
             id="path1102" />
        </g>
        <g
           id="g1104"
           transform="translate(42.5859,185.3291)">
          <path
             d="M 0,0 C 3.355,24.121 19.08,49.28 44.413,66.883 69.745,84.484 98.811,90.444 122.588,85.174 119.232,61.053 103.507,35.892 78.174,18.289 52.842,0.689 23.776,-5.269 0,0"
             style="fill:#ae2721;fill-opacity:1;fill-rule:evenodd;stroke:none"
             id="path1106" />
        </g>
        <g
           id="g1108"
           transform="translate(42.5859,185.3291)">
          <path
             d="m 0,0 c 3.355,24.121 19.08,49.28 44.413,66.883 25.332,17.601 54.398,23.561 78.175,18.291 z"
             style="fill:#cc2d23;fill-opacity:1;fill-rule:evenodd;stroke:none"
             id="path1110" />
        </g>
        <g
           id="g1112"
           transform="translate(287.7617,355.6748)">
          <path
             d="m 0,0 c -3.356,-24.121 -19.08,-49.282 -44.414,-66.882 -25.332,-17.599 -54.397,-23.559 -78.173,-18.29 3.356,24.122 19.08,49.281 44.412,66.882 C -52.841,-0.688 -23.777,5.271 0,0"
             style="fill:#ae2721;fill-opacity:1;fill-rule:evenodd;stroke:none"
             id="path1114" />
        </g>
        <g
           id="g1116"
           transform="translate(287.7617,355.6748)">
          <path
             d="m 0,0 c -3.356,-24.121 -19.08,-49.282 -44.414,-66.882 -25.332,-17.599 -54.397,-23.559 -78.173,-18.29 z"
             style="fill:#cc2d23;fill-opacity:1;fill-rule:evenodd;stroke:none"
             id="path1118" />
        </g>
        <g
           id="g1120"
           transform="translate(177.6436,121.7529)">
          <path
             d="m 0,0 c -19.212,14.966 -33.141,41.164 -35.717,71.904 -2.577,30.74 6.797,58.888 23.248,76.846 C 6.742,133.784 20.67,107.585 23.248,76.846 25.823,46.105 16.451,17.954 0,0"
             style="fill:#ae2721;fill-opacity:1;fill-rule:evenodd;stroke:none"
             id="path1122" />
        </g>
        <g
           id="g1124"
           transform="translate(177.6436,121.7529)">
          <path
             d="m 0,0 c -19.212,14.966 -33.141,41.164 -35.717,71.904 -2.577,30.74 6.797,58.888 23.248,76.846 z"
             style="fill:#cc2d23;fill-opacity:1;fill-rule:evenodd;stroke:none"
             id="path1126" />
        </g>
        <g
           id="g1128"
           transform="translate(152.7046,419.2539)">
          <path
             d="m 0,0 c 19.212,-14.966 33.139,-41.165 35.717,-71.904 2.576,-30.739 -6.797,-58.893 -23.247,-76.847 -19.213,14.965 -33.14,41.164 -35.717,71.905 C -25.825,-46.108 -16.451,-17.958 0,0"
             style="fill:#ae2721;fill-opacity:1;fill-rule:evenodd;stroke:none"
             id="path1130" />
        </g>
        <g
           id="g1132"
           transform="translate(152.7046,419.2539)">
          <path
             d="m 0,0 c 19.212,-14.966 33.139,-41.165 35.717,-71.904 2.576,-30.739 -6.797,-58.893 -23.247,-76.847 z"
             style="fill:#cc2d23;fill-opacity:1;fill-rule:evenodd;stroke:none"
             id="path1134" />
        </g>
        <g
           id="g1136"
           transform="translate(240.2017,257.7705)">
          <path
             d="m 0,0 c -8.217,-6.34 -20.508,-9.31 -33.472,-7.109 -12.961,2.2 -23.587,9.057 -29.252,17.753 8.218,6.342 20.511,9.308 33.471,7.108 C -16.29,15.555 -5.666,8.698 0,0 m -150.055,25.462 c 8.216,6.343 20.509,9.308 33.472,7.111 12.96,-2.2 23.585,-9.056 29.25,-17.754 -8.219,-6.34 -20.508,-9.307 -33.469,-7.107 -12.964,2.198 -23.587,9.056 -29.253,17.75"
             style="fill:#fbede9;fill-opacity:1;fill-rule:evenodd;stroke:none"
             id="path1138" />
        </g>
        <g
           id="g1140"
           transform="translate(213.7119,329.1118)">
          <path
             d="m 0,0 c 1.385,-10.287 -2.19,-22.415 -10.576,-32.539 -8.386,-10.126 -19.639,-15.899 -30.002,-16.458 -1.382,10.287 2.193,22.415 10.579,32.541 C -21.614,-6.331 -10.363,-0.559 0,0 m -97.078,-117.218 c -1.382,10.286 2.193,22.415 10.579,32.54 8.384,10.126 19.636,15.898 30.002,16.455 1.382,-10.285 -2.193,-22.415 -10.58,-32.54 -8.385,-10.124 -19.635,-15.898 -30.001,-16.455"
             style="fill:#fbede9;fill-opacity:1;fill-rule:evenodd;stroke:none"
             id="path1142" />
        </g>
        <g
           id="g1144"
           transform="translate(138.687,341.8418)">
          <path
             d="m 0,0 c 9.599,-3.944 18.316,-13.105 22.892,-25.43 4.574,-12.324 3.949,-24.955 -0.749,-34.208 -9.6,3.944 -18.315,13.106 -22.893,25.43 C -5.325,-21.884 -4.7,-9.253 0,0 m 52.974,-142.682 c -9.598,3.948 -18.315,13.108 -22.892,25.432 -4.574,12.327 -3.949,24.955 0.748,34.211 9.601,-3.947 18.317,-13.107 22.894,-25.433 4.575,-12.324 3.95,-24.954 -0.75,-34.21"
             style="fill:#fbede9;fill-opacity:1;fill-rule:evenodd;stroke:none"
             id="path1146" />
        </g>
        <g
           id="g1148"
           transform="translate(138.5361,275.0215)">
          <path
             d="M 0,0 C 2.498,14.712 16.448,24.614 31.158,22.115 45.869,19.622 55.77,5.672 53.273,-9.039 50.778,-23.75 36.828,-33.653 22.117,-31.156 7.407,-28.658 -2.496,-14.71 0,0"
             style="fill:#fab40a;fill-opacity:1;fill-rule:evenodd;stroke:none"
             id="path1150" />
        </g>
        <g
           id="g1152"
           transform="translate(315.9492,333.5884)">
          <path
             d="m 0,0 c 24.346,-0.602 51.125,-13.376 71.482,-36.553 20.357,-23.176 29.569,-51.38 27.026,-75.6 -24.344,0.604 -51.125,13.375 -71.483,36.554 C 6.668,-52.424 -2.544,-24.219 0,0"
             style="fill:#ae2721;fill-opacity:1;fill-rule:evenodd;stroke:none"
             id="path1154" />
        </g>
        <g
           id="g1156"
           transform="translate(315.9492,333.5884)">
          <path
             d="m 0,0 c 24.346,-0.602 51.125,-13.376 71.482,-36.553 20.357,-23.176 29.569,-51.38 27.026,-75.6 z"
             style="fill:#cc2d23;fill-opacity:1;fill-rule:evenodd;stroke:none"
             id="path1158" />
        </g>
        <g
           id="g1160"
           transform="translate(512.9658,109.2783)">
          <path
             d="m 0,0 c -24.348,0.605 -51.127,13.379 -71.481,36.556 -20.359,23.177 -29.572,51.38 -27.028,75.601 24.347,-0.603 51.126,-13.377 71.484,-36.554 C -6.67,52.428 2.543,24.223 0,0"
             style="fill:#ae2721;fill-opacity:1;fill-rule:evenodd;stroke:none"
             id="path1162" />
        </g>
        <g
           id="g1164"
           transform="translate(512.9658,109.2783)">
          <path
             d="m 0,0 c -24.348,0.605 -51.127,13.379 -71.481,36.556 -20.359,23.177 -29.572,51.38 -27.028,75.601 z"
             style="fill:#cc2d23;fill-opacity:1;fill-rule:evenodd;stroke:none"
             id="path1166" />
        </g>
        <g
           id="g1168"
           transform="translate(268.0742,192.2031)">
          <path
             d="M 0,0 C 12.695,20.78 37.149,37.587 67.398,43.627 97.648,49.669 126.68,43.544 146.383,29.232 133.689,8.449 109.235,-8.356 78.987,-14.396 48.736,-20.438 19.705,-14.314 0,0"
             style="fill:#ae2721;fill-opacity:1;fill-rule:evenodd;stroke:none"
             id="path1170" />
        </g>
        <g
           id="g1172"
           transform="translate(268.0742,192.2031)">
          <path
             d="m 0,0 c 12.695,20.78 37.149,37.587 67.398,43.627 30.25,6.042 59.282,-0.083 78.985,-14.395 z"
             style="fill:#cc2d23;fill-opacity:1;fill-rule:evenodd;stroke:none"
             id="path1174" />
        </g>
        <g
           id="g1176"
           transform="translate(560.8398,250.6689)">
          <path
             d="m 0,0 c -12.696,-20.784 -37.147,-37.589 -67.398,-43.629 -30.249,-6.041 -59.283,0.08 -78.985,14.396 12.695,20.784 37.148,37.586 67.399,43.628 C -48.735,20.435 -19.705,14.312 0,0"
             style="fill:#ae2721;fill-opacity:1;fill-rule:evenodd;stroke:none"
             id="path1178" />
        </g>
        <g
           id="g1180"
           transform="translate(560.8398,250.6689)">
          <path
             d="m 0,0 c -12.696,-20.784 -37.147,-37.589 -67.398,-43.629 -30.249,-6.041 -59.283,0.08 -78.985,14.396 z"
             style="fill:#cc2d23;fill-opacity:1;fill-rule:evenodd;stroke:none"
             id="path1182" />
        </g>
        <g
           id="g1184"
           transform="translate(366.582,80.0469)">
          <path
             d="M 0,0 C -11.651,21.386 -13.978,50.966 -4.084,80.183 5.811,109.401 25.629,131.48 47.875,141.389 59.525,120.002 61.853,90.422 51.959,61.205 42.066,31.988 22.248,9.908 0,0"
             style="fill:#ae2721;fill-opacity:1;fill-rule:evenodd;stroke:none"
             id="path1186" />
        </g>
        <g
           id="g1188"
           transform="translate(366.582,80.0469)">
          <path
             d="m 0,0 c -11.651,21.386 -13.978,50.966 -4.084,80.183 9.895,29.218 29.713,51.297 51.959,61.206 z"
             style="fill:#cc2d23;fill-opacity:1;fill-rule:evenodd;stroke:none"
             id="path1190" />
        </g>
        <g
           id="g1192"
           transform="translate(462.3311,362.8213)">
          <path
             d="m 0,0 c 11.652,-21.385 13.978,-50.964 4.085,-80.18 -9.892,-29.218 -29.711,-51.299 -51.959,-61.206 -11.651,21.384 -13.977,50.963 -4.085,80.182 C -42.066,-31.986 -22.246,-9.907 0,0"
             style="fill:#ae2721;fill-opacity:1;fill-rule:evenodd;stroke:none"
             id="path1194" />
        </g>
        <g
           id="g1196"
           transform="translate(462.3311,362.8213)">
          <path
             d="m 0,0 c 11.652,-21.385 13.978,-50.964 4.085,-80.18 -9.892,-29.218 -29.711,-51.299 -51.959,-61.206 z"
             style="fill:#cc2d23;fill-opacity:1;fill-rule:evenodd;stroke:none"
             id="path1198" />
        </g>
        <g
           id="g1200"
           transform="translate(478.1846,179.8457)">
          <path
             d="m 0,0 c -10.062,-2.539 -22.517,-0.361 -33.526,6.825 -11.01,7.185 -18.021,17.708 -19.748,27.943 10.064,2.539 22.518,0.36 33.527,-6.827 C -8.735,20.758 -1.727,10.231 0,0 m -127.456,83.181 c 10.063,2.538 22.52,0.356 33.53,-6.828 11.009,-7.183 18.019,-17.709 19.746,-27.945 -10.063,-2.537 -22.519,-0.357 -33.529,6.826 -11.01,7.187 -18.02,17.71 -19.747,27.947"
             style="fill:#fbede9;fill-opacity:1;fill-rule:evenodd;stroke:none"
             id="path1202" />
        </g>
        <g
           id="g1204"
           transform="translate(482.3398,255.8311)">
          <path
             d="m 0,0 c -2.833,-9.986 -10.948,-19.683 -22.675,-25.625 -11.728,-5.941 -24.346,-6.752 -34.075,-3.13 2.835,9.985 10.95,19.684 22.677,25.623 C -22.346,2.813 -9.728,3.619 0,0 m -135.766,-68.793 c 2.834,9.987 10.949,19.684 22.676,25.626 11.727,5.942 24.348,6.749 34.074,3.129 -2.834,-9.983 -10.947,-19.683 -22.676,-25.625 -11.726,-5.941 -24.345,-6.75 -34.074,-3.13"
             style="fill:#fbede9;fill-opacity:1;fill-rule:evenodd;stroke:none"
             id="path1206" />
        </g>
        <g
           id="g1208"
           transform="translate(418.6113,297.4199)">
          <path
             d="M 0,0 C 7.228,-7.443 11.571,-19.322 10.853,-32.448 10.136,-45.575 4.525,-56.908 -3.473,-63.521 -10.702,-56.076 -15.044,-44.2 -14.327,-31.072 -13.609,-17.947 -8,-6.611 0,0 m -8.307,-151.973 c -7.231,7.45 -11.572,19.325 -10.853,32.452 0.717,13.128 6.325,24.46 14.325,31.073 7.231,-7.445 11.571,-19.323 10.855,-32.448 -0.718,-13.129 -6.33,-24.461 -14.327,-31.077"
             style="fill:#fbede9;fill-opacity:1;fill-rule:evenodd;stroke:none"
             id="path1210" />
        </g>
        <g
           id="g1212"
           transform="translate(391.832,236.1992)">
          <path
             d="M 0,0 C 8.154,12.495 24.896,16.016 37.392,7.861 49.887,-0.294 53.406,-17.036 45.252,-29.531 37.095,-42.026 20.356,-45.546 7.86,-37.389 -4.635,-29.234 -8.154,-12.496 0,0"
             style="fill:#fab40a;fill-opacity:1;fill-rule:evenodd;stroke:none"
             id="path1214" />
        </g>
        <g
           id="g1216"
           transform="translate(331.4053,620.8735)">
          <path
             d="m 0,0 c 20.907,-12.488 37.951,-36.775 44.291,-66.963 6.342,-30.189 0.504,-59.279 -13.611,-79.122 -20.908,12.488 -37.954,36.774 -44.296,66.961 C -19.953,-48.935 -14.117,-19.845 0,0"
             style="fill:#ae2721;fill-opacity:1;fill-rule:evenodd;stroke:none"
             id="path1218" />
        </g>
        <g
           id="g1220"
           transform="translate(331.4053,620.8735)">
          <path
             d="m 0,0 c 20.907,-12.488 37.951,-36.775 44.291,-66.963 6.342,-30.189 0.504,-59.279 -13.611,-79.122 z"
             style="fill:#cc2d23;fill-opacity:1;fill-rule:evenodd;stroke:none"
             id="path1222" />
        </g>
        <g
           id="g1224"
           transform="translate(392.7627,328.7031)">
          <path
             d="m 0,0 c -20.907,12.488 -37.952,36.771 -44.293,66.961 -6.34,30.189 -0.503,59.281 13.615,79.124 C -9.772,133.595 7.274,109.311 13.614,79.121 19.955,48.933 14.118,19.843 0,0"
             style="fill:#ae2721;fill-opacity:1;fill-rule:evenodd;stroke:none"
             id="path1226" />
        </g>
        <g
           id="g1228"
           transform="translate(392.7627,328.7031)">
          <path
             d="m 0,0 c -20.907,12.488 -37.952,36.771 -44.293,66.961 -6.34,30.189 -0.503,59.281 13.615,79.124 z"
             style="fill:#cc2d23;fill-opacity:1;fill-rule:evenodd;stroke:none"
             id="path1230" />
        </g>
        <g
           id="g1232"
           transform="translate(220.2319,521.2627)">
          <path
             d="m 0,0 c 21.269,11.862 50.823,14.481 80.135,4.875 29.316,-9.604 51.59,-29.202 61.718,-51.35 C 120.584,-58.338 91.029,-60.957 61.714,-51.353 32.4,-41.749 10.125,-22.148 0,0"
             style="fill:#ae2721;fill-opacity:1;fill-rule:evenodd;stroke:none"
             id="path1234" />
        </g>
        <g
           id="g1236"
           transform="translate(220.2319,521.2627)">
          <path
             d="m 0,0 c 21.269,11.862 50.823,14.481 80.135,4.875 29.316,-9.604 51.59,-29.202 61.718,-51.35 z"
             style="fill:#cc2d23;fill-opacity:1;fill-rule:evenodd;stroke:none"
             id="path1238" />
        </g>
        <g
           id="g1240"
           transform="translate(503.9375,428.314)">
          <path
             d="m 0,0 c -21.269,-11.862 -50.823,-14.483 -80.137,-4.879 -29.314,9.605 -51.59,29.205 -61.715,51.353 21.267,11.86 50.823,14.481 80.136,4.877 C -32.4,41.747 -10.127,22.147 0,0"
             style="fill:#ae2721;fill-opacity:1;fill-rule:evenodd;stroke:none"
             id="path1242" />
        </g>
        <g
           id="g1244"
           transform="translate(503.9375,428.314)">
          <path
             d="m 0,0 c -21.269,-11.862 -50.823,-14.483 -80.137,-4.879 -29.314,9.605 -51.59,29.205 -61.715,51.353 z"
             style="fill:#cc2d23;fill-opacity:1;fill-rule:evenodd;stroke:none"
             id="path1246" />
        </g>
        <g
           id="g1248"
           transform="translate(250.9087,375.1758)">
          <path
             d="M 0,0 C 0.363,24.352 12.872,51.255 35.845,71.839 58.82,92.424 86.93,101.916 111.176,99.612 110.814,75.261 98.305,48.356 75.331,27.772 52.355,7.187 24.244,-2.303 0,0"
             style="fill:#ae2721;fill-opacity:1;fill-rule:evenodd;stroke:none"
             id="path1250" />
        </g>
        <g
           id="g1252"
           transform="translate(250.9087,375.1758)">
          <path
             d="M 0,0 C 0.363,24.352 12.872,51.255 35.845,71.839 58.82,92.424 86.93,101.916 111.176,99.612 Z"
             style="fill:#cc2d23;fill-opacity:1;fill-rule:evenodd;stroke:none"
             id="path1254" />
        </g>
        <g
           id="g1256"
           transform="translate(473.2578,574.3979)">
          <path
             d="m 0,0 c -0.362,-24.351 -12.869,-51.253 -35.844,-71.84 -22.975,-20.583 -51.085,-30.074 -75.329,-27.77 0.362,24.349 12.87,51.255 35.844,71.839 C -52.353,-7.185 -24.244,2.305 0,0"
             style="fill:#ae2721;fill-opacity:1;fill-rule:evenodd;stroke:none"
             id="path1258" />
        </g>
        <g
           id="g1260"
           transform="translate(473.2578,574.3979)">
          <path
             d="m 0,0 c -0.362,-24.351 -12.869,-51.253 -35.844,-71.84 -22.975,-20.583 -51.085,-30.074 -75.329,-27.77 z"
             style="fill:#cc2d23;fill-opacity:1;fill-rule:evenodd;stroke:none"
             id="path1262" />
        </g>
        <g
           id="g1264"
           transform="translate(397.1494,407.248)">
          <path
             d="M 0,0 C -10.013,2.736 -19.788,10.754 -25.849,22.422 -31.906,34.09 -32.838,46.7 -29.314,56.463 -19.303,53.727 -9.524,45.71 -3.467,34.041 2.592,22.373 3.523,9.763 0,0 m -70.131,135.079 c 10.013,-2.735 19.791,-10.755 25.849,-22.421 6.055,-11.669 6.989,-24.279 3.464,-34.041 -10.01,2.733 -19.788,10.752 -25.846,22.421 -6.058,11.669 -6.992,24.279 -3.467,34.041"
             style="fill:#fbede9;fill-opacity:1;fill-rule:evenodd;stroke:none"
             id="path1266" />
        </g>
        <g
           id="g1268"
           transform="translate(438.1064,471.3843)">
          <path
             d="m 0,0 c -7.374,-7.302 -19.207,-11.761 -32.339,-11.174 -13.135,0.588 -24.523,6.085 -31.216,14.019 7.375,7.303 19.207,11.763 32.342,11.176 C -18.079,13.433 -6.692,7.934 0,0 m -152.045,6.806 c 7.374,7.302 19.207,11.761 32.341,11.173 13.133,-0.588 24.52,-6.085 31.213,-14.018 -7.375,-7.304 -19.207,-11.762 -32.341,-11.175 -13.132,0.588 -24.521,6.086 -31.213,14.02"
             style="fill:#fbede9;fill-opacity:1;fill-rule:evenodd;stroke:none"
             id="path1270" />
        </g>
        <g
           id="g1272"
           transform="translate(403.042,538.9243)">
          <path
             d="m 0,0 c 2.638,-10.038 0.582,-22.514 -6.492,-33.594 -7.077,-11.08 -17.531,-18.195 -27.749,-20.024 -2.638,10.038 -0.582,22.514 6.494,33.596 C -20.671,-8.942 -10.218,-1.829 0,0 m -81.916,-128.274 c -2.64,10.039 -0.582,22.516 6.492,33.596 7.077,11.079 17.531,18.193 27.747,20.022 2.64,-10.039 0.585,-22.514 -6.492,-33.596 -7.076,-11.079 -17.531,-18.193 -27.747,-20.022"
             style="fill:#fbede9;fill-opacity:1;fill-rule:evenodd;stroke:none"
             id="path1274" />
        </g>
        <g
           id="g1276"
           transform="translate(349.6348,498.7642)">
          <path
             d="m 0,0 c 13.242,6.877 29.551,1.715 36.428,-11.527 6.876,-13.244 1.712,-29.552 -11.53,-36.428 -13.243,-6.877 -29.55,-1.713 -36.426,11.531 C -18.405,-23.183 -13.242,-6.875 0,0"
             style="fill:#fab40a;fill-opacity:1;fill-rule:evenodd;stroke:none"
             id="path1278" />
        </g>
        <g
           id="g1280"
           transform="translate(265.1885,497.8711)">
          <path
             d="m 0,0 c 26.461,-15.803 48.034,-46.539 56.055,-84.745 8.025,-38.205 0.64,-75.021 -17.227,-100.137 -26.459,15.807 -48.032,46.541 -56.055,84.747 C -25.25,-61.929 -17.865,-25.112 0,0"
             style="fill:#ec3121;fill-opacity:1;fill-rule:evenodd;stroke:none"
             id="path1282" />
        </g>
        <g
           id="g1284"
           transform="translate(265.1885,497.8711)">
          <path
             d="m 0,0 c 26.461,-15.803 48.034,-46.539 56.055,-84.745 8.025,-38.205 0.64,-75.021 -17.227,-100.137 z"
             style="fill:#cc2d23;fill-opacity:1;fill-rule:evenodd;stroke:none"
             id="path1286" />
        </g>
        <g
           id="g1288"
           transform="translate(342.8428,128.1074)">
          <path
             d="m 0,0 c -26.461,15.806 -48.033,46.54 -56.057,84.746 -8.024,38.207 -0.637,75.023 17.231,100.136 26.46,-15.805 48.032,-46.539 56.055,-84.746 C 25.253,61.929 17.864,25.114 0,0"
             style="fill:#ec3121;fill-opacity:1;fill-rule:evenodd;stroke:none"
             id="path1290" />
        </g>
        <g
           id="g1292"
           transform="translate(342.8428,128.1074)">
          <path
             d="m 0,0 c -26.461,15.806 -48.033,46.54 -56.057,84.746 -8.024,38.207 -0.637,75.023 17.231,100.136 z"
             style="fill:#cc2d23;fill-opacity:1;fill-rule:evenodd;stroke:none"
             id="path1294" />
        </g>
        <g
           id="g1296"
           transform="translate(124.4897,371.8062)">
          <path
             d="M 0,0 C 26.919,15.013 64.322,18.327 101.421,6.174 138.52,-5.982 166.709,-30.785 179.527,-58.817 152.607,-73.83 115.207,-77.144 78.106,-64.987 41.008,-52.835 12.816,-28.029 0,0"
             style="fill:#ec3121;fill-opacity:1;fill-rule:evenodd;stroke:none"
             id="path1298" />
        </g>
        <g
           id="g1300"
           transform="translate(124.4897,371.8062)">
          <path
             d="m 0,0 c 26.919,15.013 64.322,18.327 101.421,6.174 37.099,-12.156 65.288,-36.959 78.106,-64.991 z"
             style="fill:#cc2d23;fill-opacity:1;fill-rule:evenodd;stroke:none"
             id="path1302" />
        </g>
        <g
           id="g1304"
           transform="translate(483.543,254.1719)">
          <path
             d="m 0,0 c -26.92,-15.011 -64.321,-18.327 -101.42,-6.17 -37.101,12.152 -65.29,36.958 -78.106,64.987 26.918,15.013 64.319,18.328 101.418,6.173 C -41.006,52.836 -12.817,28.032 0,0"
             style="fill:#ec3121;fill-opacity:1;fill-rule:evenodd;stroke:none"
             id="path1306" />
        </g>
        <g
           id="g1308"
           transform="translate(483.543,254.1719)">
          <path
             d="m 0,0 c -26.92,-15.011 -64.321,-18.327 -101.42,-6.17 -37.101,12.152 -65.29,36.958 -78.106,64.987 z"
             style="fill:#cc2d23;fill-opacity:1;fill-rule:evenodd;stroke:none"
             id="path1310" />
        </g>
        <g
           id="g1312"
           transform="translate(163.3169,186.9238)">
          <path
             d="M 0,0 C 0.458,30.818 16.289,64.868 45.364,90.92 74.44,116.973 110.017,128.982 140.7,126.065 140.241,95.248 124.412,61.199 95.336,35.148 66.258,9.095 30.684,-2.915 0,0"
             style="fill:#ec3121;fill-opacity:1;fill-rule:evenodd;stroke:none"
             id="path1314" />
        </g>
        <g
           id="g1316"
           transform="translate(163.3169,186.9238)">
          <path
             d="m 0,0 c 0.458,30.818 16.289,64.868 45.364,90.92 29.076,26.053 64.653,38.062 95.336,35.145 z"
             style="fill:#cc2d23;fill-opacity:1;fill-rule:evenodd;stroke:none"
             id="path1318" />
        </g>
        <g
           id="g1320"
           transform="translate(444.7158,439.0542)">
          <path
             d="m 0,0 c -0.458,-30.815 -16.29,-64.866 -45.364,-90.917 -29.075,-26.052 -64.652,-38.064 -95.335,-35.148 0.456,30.819 16.288,64.868 45.363,90.919 C -66.259,-9.093 -30.682,2.915 0,0"
             style="fill:#ec3121;fill-opacity:1;fill-rule:evenodd;stroke:none"
             id="path1322" />
        </g>
        <g
           id="g1324"
           transform="translate(444.7158,439.0542)">
          <path
             d="m 0,0 c -0.458,-30.815 -16.29,-64.866 -45.364,-90.917 -29.075,-26.052 -64.652,-38.064 -95.335,-35.148 z"
             style="fill:#cc2d23;fill-opacity:1;fill-rule:evenodd;stroke:none"
             id="path1326" />
        </g>
        <g
           id="g1328"
           transform="translate(348.3945,227.5137)">
          <path
             d="m 0,0 c -12.673,3.46 -25.045,13.609 -32.711,28.376 -7.669,14.767 -8.849,30.726 -4.388,43.082 12.671,-3.462 25.044,-13.61 32.71,-28.376 C 3.28,28.317 4.461,12.354 0,0 m -88.757,170.954 c 12.671,-3.463 25.047,-13.612 32.713,-28.376 7.666,-14.768 8.847,-30.728 4.386,-43.082 -12.671,3.46 -25.046,13.608 -32.712,28.376 -7.666,14.765 -8.846,30.725 -4.387,43.082"
             style="fill:#fbede9;fill-opacity:1;fill-rule:evenodd;stroke:none"
             id="path1330" />
        </g>
        <g
           id="g1332"
           transform="translate(400.2295,308.6836)">
          <path
             d="m 0,0 c -9.333,-9.242 -24.309,-14.884 -40.931,-14.14 -16.62,0.743 -31.032,7.7 -39.502,17.742 9.332,9.242 24.307,14.883 40.929,14.139 C -22.883,16.998 -8.471,10.042 0,0 m -192.426,8.612 c 9.331,9.244 24.307,14.886 40.93,14.141 16.622,-0.742 31.034,-7.698 39.503,-17.74 -9.333,-9.243 -24.309,-14.886 -40.93,-14.14 -16.621,0.741 -31.034,7.699 -39.503,17.739"
             style="fill:#fbede9;fill-opacity:1;fill-rule:evenodd;stroke:none"
             id="path1334" />
        </g>
        <g
           id="g1336"
           transform="translate(355.8516,394.1606)">
          <path
             d="m 0,0 c 3.338,-12.704 0.736,-28.494 -8.217,-42.517 -8.955,-14.023 -22.186,-23.025 -35.116,-25.341 -3.34,12.706 -0.738,28.496 8.217,42.517 C -26.161,-11.317 -12.93,-2.317 0,0 m -103.671,-162.34 c -3.338,12.704 -0.737,28.493 8.219,42.517 8.954,14.022 22.186,23.026 35.115,25.338 3.337,-12.703 0.737,-28.493 -8.218,-42.515 -8.955,-14.024 -22.187,-23.027 -35.116,-25.34"
             style="fill:#fbede9;fill-opacity:1;fill-rule:evenodd;stroke:none"
             id="path1338" />
        </g>
        <g
           id="g1340"
           transform="translate(288.2612,343.3364)">
          <path
             d="M 0,0 C 16.758,8.7 37.4,2.167 46.1,-14.59 54.803,-31.351 48.27,-51.991 31.511,-60.692 14.75,-69.393 -5.891,-62.862 -14.592,-46.101 -23.293,-29.34 -16.76,-8.701 0,0"
             style="fill:#fbca07;fill-opacity:1;fill-rule:evenodd;stroke:none"
             id="path1342" />
        </g>
        <g
           id="g1344"
           transform="translate(464.3477,334.4912)">
          <path
             d="m 0,0 c -6.138,1.676 -12.129,6.59 -15.842,13.741 -3.713,7.152 -4.285,14.88 -2.124,20.863 6.137,-1.678 12.128,-6.589 15.84,-13.741 C 1.586,13.711 2.159,5.984 0,0 m -42.983,82.786 c 6.137,-1.678 12.129,-6.591 15.841,-13.741 3.713,-7.152 4.285,-14.88 2.127,-20.863 -6.136,1.675 -12.131,6.591 -15.843,13.741 -3.713,7.149 -4.284,14.88 -2.125,20.863"
             style="fill:#fbede9;fill-opacity:1;fill-rule:evenodd;stroke:none"
             id="path1346" />
        </g>
        <g
           id="g1348"
           transform="translate(489.4492,373.7993)">
          <path
             d="m 0,0 c -4.52,-4.477 -11.772,-7.21 -19.82,-6.848 -8.051,0.36 -15.031,3.729 -19.131,8.59 4.518,4.478 11.771,7.21 19.819,6.847 C -11.082,8.232 -4.103,4.862 0,0 m -93.185,4.17 c 4.518,4.477 11.771,7.206 19.822,6.848 8.048,-0.36 15.027,-3.728 19.129,-8.592 -4.522,-4.475 -11.773,-7.208 -19.822,-6.848 -8.048,0.362 -15.028,3.729 -19.129,8.592"
             style="fill:#fbede9;fill-opacity:1;fill-rule:evenodd;stroke:none"
             id="path1350" />
        </g>
        <g
           id="g1352"
           transform="translate(467.957,415.1919)">
          <path
             d="m 0,0 c 1.618,-6.153 0.358,-13.8 -3.977,-20.59 -4.338,-6.791 -10.745,-11.151 -17.008,-12.27 -1.616,6.152 -0.356,13.797 3.981,20.588 C -12.668,-5.48 -6.261,-1.122 0,0 m -50.202,-78.616 c -1.618,6.152 -0.358,13.799 3.979,20.59 4.336,6.79 10.743,11.15 17.006,12.272 1.615,-6.153 0.356,-13.8 -3.981,-20.591 -4.336,-6.789 -10.743,-11.151 -17.004,-12.271"
             style="fill:#fbede9;fill-opacity:1;fill-rule:evenodd;stroke:none"
             id="path1354" />
        </g>
        <g
           id="g1356"
           transform="translate(435.2266,390.5781)">
          <path
             d="m 0,0 c 8.117,4.216 18.111,1.051 22.324,-7.065 4.213,-8.116 1.051,-18.11 -7.065,-22.326 -8.114,-4.212 -18.112,-1.05 -22.325,7.067 C -11.278,-14.207 -8.117,-4.213 0,0"
             style="fill:#fbca07;fill-opacity:1;fill-rule:evenodd;stroke:none"
             id="path1358" />
        </g>
        <g
           id="g1360"
           transform="translate(539.1387,218.8252)">
          <path
             d="m 0,0 c -6.137,1.676 -12.128,6.592 -15.842,13.742 -3.712,7.151 -4.285,14.88 -2.124,20.863 6.134,-1.676 12.128,-6.59 15.841,-13.743 C 1.588,13.712 2.16,5.984 0,0 m -42.982,82.787 c 6.136,-1.676 12.129,-6.592 15.841,-13.742 3.712,-7.15 4.286,-14.88 2.124,-20.863 -6.135,1.676 -12.128,6.59 -15.84,13.743 -3.712,7.15 -4.286,14.878 -2.125,20.862"
             style="fill:#fbede9;fill-opacity:1;fill-rule:evenodd;stroke:none"
             id="path1362" />
        </g>
        <g
           id="g1364"
           transform="translate(564.2393,258.1328)">
          <path
             d="m 0,0 c -4.519,-4.476 -11.77,-7.208 -19.819,-6.847 -8.05,0.359 -15.03,3.729 -19.13,8.589 4.519,4.479 11.77,7.211 19.82,6.85 C -11.079,8.232 -4.101,4.863 0,0 m -93.185,4.172 c 4.52,4.476 11.773,7.208 19.823,6.848 8.048,-0.36 15.027,-3.729 19.13,-8.59 -4.521,-4.479 -11.773,-7.211 -19.821,-6.85 -8.051,0.36 -15.03,3.73 -19.132,8.592"
             style="fill:#fbede9;fill-opacity:1;fill-rule:evenodd;stroke:none"
             id="path1366" />
        </g>
        <g
           id="g1368"
           transform="translate(542.75,299.5264)">
          <path
             d="m 0,0 c 1.617,-6.153 0.357,-13.798 -3.981,-20.588 -4.336,-6.792 -10.742,-11.15 -17.004,-12.272 -1.618,6.152 -0.357,13.796 3.98,20.59 C -12.67,-5.48 -6.262,-1.119 0,0 m -50.204,-78.615 c -1.618,6.153 -0.359,13.798 3.978,20.588 4.337,6.792 10.746,11.151 17.007,12.274 1.615,-6.151 0.356,-13.799 -3.979,-20.591 -4.337,-6.791 -10.745,-11.152 -17.006,-12.271"
             style="fill:#fbede9;fill-opacity:1;fill-rule:evenodd;stroke:none"
             id="path1370" />
        </g>
        <g
           id="g1372"
           transform="translate(510.0176,274.915)">
          <path
             d="m 0,0 c 8.117,4.213 18.111,1.052 22.325,-7.067 4.213,-8.116 1.051,-18.11 -7.066,-22.326 -8.116,-4.212 -18.11,-1.049 -22.324,7.069 C -11.278,-14.21 -8.116,-4.215 0,0"
             style="fill:#fbca07;fill-opacity:1;fill-rule:evenodd;stroke:none"
             id="path1374" />
        </g>
        <g
           id="g1376"
           transform="translate(306.1006,121.3984)">
          <path
             d="m 0,0 c -6.137,1.675 -12.128,6.589 -15.841,13.738 -3.713,7.155 -4.283,14.881 -2.125,20.863 6.137,-1.674 12.129,-6.589 15.842,-13.739 C 1.589,13.711 2.161,5.981 0,0 m -42.98,82.783 c 6.136,-1.674 12.127,-6.588 15.84,-13.74 3.711,-7.15 4.284,-14.878 2.126,-20.862 -6.137,1.675 -12.13,6.59 -15.84,13.741 -3.715,7.151 -4.289,14.88 -2.126,20.861"
             style="fill:#fbede9;fill-opacity:1;fill-rule:evenodd;stroke:none"
             id="path1378" />
        </g>
        <g
           id="g1380"
           transform="translate(331.2041,160.7051)">
          <path
             d="m 0,0 c -4.522,-4.476 -11.773,-7.208 -19.822,-6.849 -8.051,0.362 -15.027,3.73 -19.129,8.592 4.519,4.478 11.772,7.207 19.819,6.847 C -11.082,8.231 -4.103,4.864 0,0 m -93.187,4.17 c 4.52,4.476 11.771,7.21 19.822,6.85 8.049,-0.362 15.027,-3.73 19.129,-8.594 -4.52,-4.475 -11.771,-7.206 -19.82,-6.848 -8.049,0.361 -15.03,3.73 -19.131,8.592"
             style="fill:#fbede9;fill-opacity:1;fill-rule:evenodd;stroke:none"
             id="path1382" />
        </g>
        <g
           id="g1384"
           transform="translate(309.7129,202.0996)">
          <path
             d="m 0,0 c 1.616,-6.153 0.356,-13.801 -3.981,-20.593 -4.337,-6.787 -10.743,-11.148 -17.005,-12.268 -1.618,6.15 -0.356,13.798 3.981,20.587 C -12.668,-5.482 -6.262,-1.123 0,0 m -50.205,-78.617 c -1.615,6.15 -0.356,13.798 3.98,20.589 4.338,6.792 10.745,11.152 17.005,12.27 1.619,-6.151 0.356,-13.799 -3.98,-20.589 -4.335,-6.791 -10.744,-11.149 -17.005,-12.27"
             style="fill:#fbede9;fill-opacity:1;fill-rule:evenodd;stroke:none"
             id="path1386" />
        </g>
        <g
           id="g1388"
           transform="translate(276.98,177.4844)">
          <path
             d="M 0,0 C 8.117,4.216 18.112,1.051 22.324,-7.064 26.54,-15.18 23.375,-25.177 15.261,-29.39 7.144,-33.604 -2.851,-30.439 -7.066,-22.324 -11.279,-14.208 -8.114,-4.212 0,0"
             style="fill:#fbca07;fill-opacity:1;fill-rule:evenodd;stroke:none"
             id="path1390" />
        </g>
        <g
           id="g1392"
           transform="translate(242.4209,346.6943)">
          <path
             d="m 0,0 c -6.137,1.675 -12.13,6.589 -15.842,13.74 -3.715,7.152 -4.285,14.88 -2.124,20.863 6.135,-1.678 12.129,-6.59 15.841,-13.74 C 1.586,13.709 2.158,5.983 0,0 m -42.983,82.784 c 6.137,-1.676 12.129,-6.589 15.843,-13.741 3.711,-7.151 4.284,-14.878 2.126,-20.862 -6.137,1.674 -12.131,6.59 -15.843,13.741 -3.714,7.15 -4.286,14.88 -2.126,20.862"
             style="fill:#fbede9;fill-opacity:1;fill-rule:evenodd;stroke:none"
             id="path1394" />
        </g>
        <g
           id="g1396"
           transform="translate(267.521,386.001)">
          <path
             d="m 0,0 c -4.519,-4.477 -11.771,-7.21 -19.819,-6.848 -8.05,0.36 -15.03,3.729 -19.13,8.59 4.518,4.478 11.771,7.21 19.819,6.85 C -11.08,8.232 -4.101,4.862 0,0 m -93.185,4.171 c 4.52,4.475 11.773,7.207 19.822,6.848 8.049,-0.361 15.028,-3.729 19.131,-8.593 -4.522,-4.475 -11.773,-7.208 -19.824,-6.848 -8.046,0.361 -15.027,3.729 -19.129,8.593"
             style="fill:#fbede9;fill-opacity:1;fill-rule:evenodd;stroke:none"
             id="path1398" />
        </g>
        <g
           id="g1400"
           transform="translate(246.0303,427.3936)">
          <path
             d="m 0,0 c 1.619,-6.152 0.359,-13.797 -3.979,-20.59 -4.337,-6.789 -10.744,-11.151 -17.006,-12.27 -1.616,6.153 -0.357,13.798 3.98,20.588 C -12.667,-5.48 -6.26,-1.122 0,0 m -50.202,-78.616 c -1.617,6.152 -0.359,13.799 3.977,20.59 4.338,6.79 10.745,11.15 17.005,12.272 1.62,-6.153 0.359,-13.8 -3.978,-20.591 -4.336,-6.789 -10.743,-11.151 -17.004,-12.271"
             style="fill:#fbede9;fill-opacity:1;fill-rule:evenodd;stroke:none"
             id="path1402" />
        </g>
        <g
           id="g1404"
           transform="translate(213.3003,402.7803)">
          <path
             d="m 0,0 c 8.117,4.216 18.111,1.051 22.324,-7.063 4.215,-8.118 1.051,-18.112 -7.066,-22.327 -8.116,-4.214 -18.111,-1.051 -22.325,7.065 C -11.279,-14.208 -8.117,-4.212 0,0"
             style="fill:#fbca07;fill-opacity:1;fill-rule:evenodd;stroke:none"
             id="path1406" />
        </g>
      </g>
    </g>
  </g>
</svg>
