<?xml version="1.0" encoding="UTF-8" standalone="no"?>
<!-- Created with Inkscape (http://www.inkscape.org/) -->

<svg
   version="1.1"
   id="svg1"
   width="1293.3333"
   height="698.66669"
   viewBox="0 0 1293.3333 698.66669"
   sodipodi:docname="m4.svg"
   inkscape:version="1.3.1 (6036e22fae, 2023-11-19, custom)"
   xmlns:inkscape="http://www.inkscape.org/namespaces/inkscape"
   xmlns:sodipodi="http://sodipodi.sourceforge.net/DTD/sodipodi-0.dtd"
   xmlns="http://www.w3.org/2000/svg"
   xmlns:svg="http://www.w3.org/2000/svg">
  <defs
     id="defs1" />
  <sodipodi:namedview
     id="namedview1"
     pagecolor="#ffffff"
     bordercolor="#000000"
     borderopacity="0.25"
     inkscape:showpageshadow="2"
     inkscape:pageopacity="0.0"
     inkscape:pagecheckerboard="0"
     inkscape:deskcolor="#d1d1d1"
     showgrid="false"
     inkscape:zoom="0.345"
     inkscape:cx="184.05797"
     inkscape:cy="392.75362"
     inkscape:window-width="1920"
     inkscape:window-height="1031"
     inkscape:window-x="0"
     inkscape:window-y="25"
     inkscape:window-maximized="1"
     inkscape:current-layer="layer1" />
  <g
     inkscape:groupmode="layer"
     id="layer1"
     inkscape:label="Layer 1">
    <path
       style="fill:#000000"
       d="m 219.61757,676.33335 c -2.89042,-5.35463 -5.35719,-37.11317 -5.56654,-71.66667 -0.0405,-6.68843 -0.65809,-12.19089 -1.39521,-12.43128 -3.25838,-1.06258 -8.65583,31.62267 -8.65583,52.41693 0,14.10559 -0.20188,15.34769 -2.49445,15.34769 -2.06068,0 -2.62514,-1.33316 -3.24603,-7.66667 -1.27457,-13.00129 0.83728,-38.11495 4.40079,-52.33333 3.31839,-13.24037 3.31484,-13.33334 -0.50898,-13.33334 -1.91657,0 -3.48467,0.62899 -3.48467,1.39775 0,0.76875 -1.24527,3.91875 -2.76727,7 -3.95265,8.00198 -8.05303,24.2672 -8.11114,32.17489 -0.0629,8.56585 -0.83777,11.42737 -3.09424,11.42737 -3.46388,0 -3.94737,-14.34657 -0.83319,-24.7233 0.87098,-2.90219 2.54543,-8.57671 3.72099,-12.61004 1.17556,-4.03333 2.91387,-9.50375 3.86289,-12.15647 1.64883,-4.6088 1.57722,-4.89071 -1.61133,-6.34351 -2.64855,-1.20676 -3.73183,-1.12537 -5.25177,0.39457 -1.05321,1.05321 -1.92298,2.40779 -1.93282,3.01017 -0.01,0.60238 -1.23031,2.59524 -2.71216,4.42857 -1.48185,1.83334 -4.82005,6.78334 -7.41822,11 -4.55178,7.38726 -7.36569,9.27716 -9.25687,6.21716 -0.49271,-0.79723 -0.22812,-2.11723 0.58798,-2.93333 0.8161,-0.81611 1.48382,-2.26383 1.48382,-3.21716 0,-3.40141 -3.40275,-1.5587 -7.72807,4.18503 -2.4171,3.20975 -7.9671,9.62525 -12.33333,14.25668 -4.36623,4.63142 -7.9386,8.84757 -7.9386,9.36922 0,1.90877 -19.52377,20.59858 -25.92439,24.81704 -5.76558,3.79991 -7.60249,4.31799 -14.66667,4.13653 -4.441579,-0.11409 -12.851499,0.4622 -18.688711,1.28066 -9.474685,1.32847 -11.047922,1.23159 -14.666666,-0.90323 -2.229454,-1.31523 -6.958117,-3.12259 -10.508139,-4.01636 -9.198257,-2.31578 -13.572821,-6.11126 -18.270767,-15.85215 -4.418809,-9.16212 -4.414004,-7.90949 -0.09592,-25.00675 2.600973,-10.29843 12.3487,-15.88944 33.597154,-19.27032 4.826736,-0.76799 12.403461,-1.39635 16.837167,-1.39635 8.707438,0 14.824249,-2.10371 20.927432,-7.19743 3.03854,-2.53597 4.08478,-4.7877 4.85222,-10.44305 0.90244,-6.65005 2.11395,-9.77305 8.59202,-22.1481 2.70627,-5.1698 2.14401,-7.01911 -4.96386,-16.32643 -2.56847,-3.36326 -5.42919,-8.46326 -6.35716,-11.33334 -0.92796,-2.87007 -3.40691,-7.58652 -5.50879,-10.48099 -3.966315,-5.46198 -4.832275,-11.02414 -2.4185,-15.53432 0.7717,-1.44193 1.42032,-6.22594 1.44139,-10.63114 0.035,-7.31652 -0.36825,-8.45947 -4.660986,-13.21101 -5.758854,-6.37437 -8.850152,-12.15492 -8.850152,-16.54929 0,-1.82647 -0.599999,-3.69168 -1.333333,-4.1449 -0.733333,-0.45323 -1.333333,-1.8755 -1.333333,-3.16061 0,-1.28511 -1.074876,-3.4997 -2.388612,-4.92131 -10.511104,-11.37421 -22.741173,-37.59986 -24.446475,-52.42202 -1.329363,-11.55455 -0.61734,-16.58195 3.091664,-21.8294 2.157278,-3.05209 3.575336,-3.66667 8.460328,-3.66667 3.397171,0 7.868096,1.12302 10.616429,2.66667 2.611277,1.46667 5.774331,2.66667 7.029008,2.66667 1.254678,0 5.477501,2.20135 9.384051,4.8919 6.486411,4.46736 17.801701,7.88399 20.586941,6.21619 0.55,-0.32934 1.01431,-3.11339 1.03181,-6.18678 0.0175,-3.07339 0.58996,-7.68798 1.27215,-10.25465 5.75938,-21.66903 9.74019,-35.60852 12.75581,-44.66666 3.20982,-9.64144 4.56452,-21.54838 3.10982,-27.33334 -0.33964,-1.35065 0.68755,-2.13698 3.16374,-2.42189 2.01667,-0.23205 3.66667,0.10327 3.66667,0.74516 0,0.64188 0.89514,2.33173 1.9892,3.75523 1.80117,2.34351 1.91144,1.70591 1.16647,-6.74516 -1.32131,-14.98919 -0.98807,-16.97253 3.47243,-20.66667 3.98047,-3.2966 4.0211,-3.46305 3.68602,-15.10314 -0.21683,-7.53242 0.20483,-12.22099 1.17121,-13.02301 2.48535,-2.06266 5.92839,0.19475 6.77827,4.44414 1.16226,5.81135 2.56208,2.15344 3.67769,-9.61033 0.51945,-5.47745 1.51627,-11.02745 2.21516,-12.33333 2.23238,-4.17124 5.08289,-2.76504 5.9982,2.959 0.78275,4.89508 3.17868,7.61918 3.17868,3.61407 0,-2.07649 7.81243,-17.25447 12.23788,-23.77574 7.77949,-11.46372 25.16374,-25.24606 41.09545,-32.58073 9.32743,-4.29418 14.42533,-7.21033 19.09735,-10.92427 2.07565,-1.65 4.56369,-3 5.52896,-3 0.96528,0 2.0716,-0.82491 2.45849,-1.83313 0.38689,-1.00822 2.40108,-2.17547 4.47598,-2.5939 15.3417,-3.09381 30.13739,-6.44075 35.77255,-8.09212 3.66666,-1.0745 9.06666,-2.62845 12,-3.45321 11.56539,-3.25181 15.98543,-5.91662 37.58888,-22.66204 3.80721,-2.95108 7.44496,-5.3656 8.08387,-5.3656 0.63892,0 2.75328,-1.65 4.69858,-3.66667 1.94531,-2.01666 7.30756,-5.53455 11.91612,-7.81752 13.58549,-6.72991 17.49356,-8.780821 32.12497,-16.858792 8.76347,-4.838299 17.29605,-8.445221 23.07907,-9.756064 5.04634,-1.143862 11.57517,-2.700394 14.5085,-3.45896 7.91633,-2.047177 44.97086,-14.361209 47.64857,-15.834664 1.27338,-0.700699 3.51477,-1.273998 4.98087,-1.273998 1.46609,0 5.22423,-0.578109 8.35142,-1.284687 3.12719,-0.706577 9.8858,-1.881825 15.01913,-2.611662 5.13334,-0.729837 15.93334,-2.283529 24,-3.452649 8.06667,-1.16912 17.66667,-2.377264 21.33333,-2.684765 10.36834,-0.869527 19.42115,-1.802198 26.29931,-2.709501 9.28995,-1.225442 44.37098,1.814462 54.36736,4.711137 4.76666,1.381249 10.97474,2.931203 13.79572,3.444343 2.82098,0.513139 11.82098,3.298471 20,6.189627 8.17901,2.891155 19.37094,6.80938 24.87094,8.707167 5.5,1.897787 12.4,5.37991 15.33333,7.738052 5.5556,4.466213 12.89045,8.619605 15.22213,8.619605 2.87894,0 17.16744,10.383601 25.22786,18.333331 4.64714,4.58334 9.07662,8.33334 9.84328,8.33334 0.76667,0 2.36432,1.05 3.55033,2.33333 2.02931,2.19581 4.50304,3.68574 18.55711,11.17693 3.15372,1.68102 8.62987,6.0789 12.16921,9.77307 3.53934,3.69417 10.93501,11.11782 16.43482,16.49702 5.49981,5.37919 10.79206,11.37919 11.76054,13.33333 0.96849,1.95414 4.0425,6.67724 6.83114,10.49578 2.78863,3.81853 5.07024,7.3619 5.07024,7.87414 0,0.51225 1.3843,2.78799 3.07623,5.05721 1.69192,2.26922 4.75681,7.42586 6.81086,11.45919 2.05405,4.03333 4.81427,8.53333 6.13383,10 1.31956,1.46667 4.14245,6.26667 6.2731,10.66667 2.13065,4.4 4.58612,9.35 5.45661,11 0.87049,1.65 2.28345,4.35 3.13991,6 3.91459,7.54152 9.58835,17.79005 10.51874,19 0.5639,0.73333 3.16451,5.36747 5.77913,10.29808 4.59113,8.65786 11.92814,19.77591 22.24054,33.70192 8.68683,11.73082 33.16963,35.33333 36.65114,35.33333 0.84945,0 4.27101,2.4 7.60345,5.33334 3.33244,2.93333 6.71183,5.33333 7.50975,5.33333 0.79793,0 2.20018,1.2 3.11613,2.66667 0.91595,1.46666 2.38117,2.66666 3.25604,2.66666 0.87487,0 4.48054,1.74636 8.0126,3.8808 3.53206,2.13443 8.88481,5.28443 11.895,7 3.01018,1.71556 8.87183,5.3692 13.02586,8.1192 4.1541,2.75 8.0665,5 8.6944,5 2.2694,0 16.8996,6.96807 20.8067,9.90979 4.7406,3.56937 18.6473,8.27358 28,9.47155 3.6666,0.46965 12.3666,2.25813 19.3333,3.97438 20.7071,5.10125 28.2304,6.50077 36.6667,6.82094 4.4,0.16698 8.9,0.36076 10,0.43062 3.8651,0.24546 24.7599,-2.52773 33.3333,-4.42406 12.109,-2.67836 25.3857,-7.22174 29.3333,-10.03808 3.3304,-2.37595 10.8778,-4.17243 20.3607,-4.84639 5.6691,-0.4029 10.1205,-3.44675 22.5239,-15.40167 9.7446,-9.39223 22.4867,-15.36543 28.9726,-13.58165 5.2549,1.44521 12.1428,7.67285 12.1428,10.97874 0,1.53981 0.98,4.29533 2.1778,6.12337 2.6096,3.9828 2.8469,14.0431 0.5037,21.35711 -1.8756,5.85458 -9.0294,15.98521 -16.6988,23.64742 -5.5638,5.55867 -15.6882,12.91127 -17.7785,12.91127 -0.7234,0 -1.5153,0.48493 -1.7597,1.07762 -0.7942,1.92548 -12.3451,9.16114 -16.0766,10.07061 -3.3154,0.80805 -11.2068,5.37524 -15.3925,8.90855 -2.1686,1.83061 -7.7321,2.78501 -52.9754,9.08774 -50.0014,6.96558 -59.5138,6.73874 -110.6666,-2.63901 -8.0667,-1.47884 -17.7724,-4.14421 -21.5683,-5.92302 -3.796,-1.77882 -10.4997,-4.07358 -14.8972,-5.09945 -8.61509,-2.00976 -10.11124,-2.68112 -14.2012,-6.37247 -7.61573,-6.8735 -10.9301,-9.10746 -13.51425,-9.10894 -2.93732,-0.002 -9.60769,-2.98383 -11.01963,-4.92658 -0.92479,-1.27247 -9.91878,-7.04802 -14.79945,-9.50358 -6.83884,-3.44074 -9.71094,-5.39377 -14.45932,-9.83233 -2.68071,-2.50579 -7.27401,-6.15265 -10.20734,-8.10413 -2.93333,-1.95148 -7.73333,-5.94796 -10.66667,-8.88106 -2.93333,-2.93309 -5.75156,-5.35264 -6.26272,-5.37676 -3.26646,-0.15415 -21.98205,-16.77021 -38.91012,-34.54516 -10.91173,-11.45762 -22.31173,-22.51682 -25.33333,-24.57601 -8.43286,-5.74689 -14.238,-11.7234 -17.08501,-17.58936 -1.42367,-2.93333 -3.40823,-6.83333 -4.41012,-8.66666 -1.00189,-1.83334 -2.9522,-6.33334 -4.33403,-10 -2.20192,-5.84282 -3.02795,-6.71765 -6.68422,-7.07919 -4.04771,-0.40024 -4.15019,-0.27922 -3.44469,4.06824 0.47556,2.93057 -0.18469,6.53296 -1.90842,10.41252 -3.00971,6.77391 -5.62733,20.64165 -5.62733,29.81276 0,4.85353 0.7298,6.97001 3.28416,9.52437 2.87991,2.87991 11.38251,19.1272 11.38251,21.75039 0,1.91991 10.16268,10.84424 12.34899,10.84424 1.23011,0 4.50481,1.27025 7.27712,2.82278 14.7373,8.25308 17.30134,12.30393 19.00752,30.02938 0.69606,7.23131 2.05972,15.84784 3.03036,19.14784 1.09731,3.73062 1.42012,8.26938 0.8535,12 -0.83267,5.48221 0.0134,23.02505 2.2909,47.50239 0.69382,7.45677 0.41494,10.44294 -1.29545,13.87152 -1.19879,2.40302 -2.17961,6.17031 -2.17961,8.37176 0,2.27426 -1.5237,6.00029 -3.52864,8.62891 -1.94076,2.54446 -5.60925,8.60109 -8.1522,13.45919 -5.01503,9.58076 -12.96165,18.80758 -16.25643,18.87531 -1.1345,0.0233 -3.26273,0.95009 -4.7294,2.05948 -1.82874,1.38327 -4.19059,1.76005 -7.5165,1.1991 -2.66741,-0.44989 -7.46741,-0.10322 -10.66667,0.77038 -3.19925,0.87359 -9.96781,1.57161 -15.04124,1.55116 -7.18743,-0.029 -10.02453,0.55436 -12.84774,2.64165 -4.30582,3.18343 -8.0821,2.40058 -11.17264,-2.31617 -1.49122,-2.27589 -3.37225,-3.28134 -6.13887,-3.28134 -3.06996,0 -4.59532,-0.99723 -6.6214,-4.32887 -1.4479,-2.38087 -2.32554,-5.29616 -1.9503,-6.47842 0.37523,-1.18226 -0.23131,-2.90773 -1.34786,-3.83439 -2.51613,-2.0882 -2.5887,-5.72012 -0.20831,-10.42453 1.002,-1.98025 2.21764,-5.78891 2.70143,-8.46369 1.11987,-6.19148 10.11235,-17.31657 18.18353,-22.49583 5.56106,-3.56852 7.28973,-3.97427 16.93209,-3.97427 10.58281,0 10.7533,-0.0532 11.74224,-3.66667 1.0767,-3.93412 1.04777,-7.15431 -0.21101,-23.48753 -0.78481,-10.18318 -0.99684,-10.70554 -7.30662,-18 -3.57409,-4.13186 -7.8555,-9.15186 -9.51424,-11.15556 -1.65874,-2.00369 -3.68587,-3.65369 -4.50475,-3.66666 -2.33183,-0.0369 -14.91061,-5.13939 -25.3891,-10.29884 -5.24955,-2.58479 -10.2193,-4.28266 -11.04389,-3.77304 -0.82458,0.50962 -3.57949,-0.3008 -6.12203,-1.80093 -4.94966,-2.92037 -4.84154,-2.99557 -4.59576,3.19653 0.0149,0.37435 -0.9232,2.51814 -2.08457,4.76398 -1.39165,2.69116 -1.80822,5.5276 -1.22181,8.31937 1.6485,7.84811 8.47081,20.18655 15.24396,27.56935 6.10382,6.65321 9.34127,13.13775 9.3613,18.75046 0.004,1.14609 -1.4164,5.04609 -3.15663,8.66667 -1.74023,3.62058 -3.60258,8.68287 -4.13854,11.24953 -1.27818,6.12104 -8.47942,21.33334 -10.09884,21.33334 -0.69587,0 -1.26522,0.63599 -1.26522,1.41332 0,0.77733 -2.09411,4.15589 -4.65357,7.50791 -2.55946,3.35202 -5.62663,9.46603 -6.81593,13.58668 -4.04449,14.01316 -7.42688,19.81267 -18.11026,31.0521 -5.80644,6.10866 -13.07133,14.40666 -16.14421,18.43999 -6.71149,8.80924 -9.85395,11.8224 -14.27603,13.68862 -4.56904,1.92825 -19.51331,6.2033 -26.00569,7.43936 -2.93647,0.55907 -7.37865,2.03398 -9.87152,3.27758 -5.90323,2.94492 -8.50741,2.85273 -11.45612,-0.40556 -2.84684,-3.14572 -4.37664,-3.32019 -7.22834,-0.82437 -4.56971,3.99942 -7.482,3.7268 -12.69345,-1.18823 -4.16381,-3.92697 -5.71969,-4.60518 -9.21083,-4.01496 -7.0524,1.19229 -9.55419,-1.91303 -9.42348,-11.69676 0.27841,-20.83993 2.5662,-30.30608 9.20532,-38.08881 3.80464,-4.46 16.17783,-12.16929 19.71,-12.28058 1.63576,-0.0516 4.17411,-0.56244 5.64078,-1.13531 1.46667,-0.57288 3.56667,-0.60436 4.66667,-0.07 4.53571,2.20353 11.82177,3.96565 16.39726,3.96565 3.85872,0 5.36472,-0.76415 7.2264,-3.66667 1.2935,-2.01667 3.73553,-5.16667 5.42674,-7 2.85824,-3.09844 4.55728,-6.25331 7.8987,-14.66667 0.72811,-1.83333 2.12016,-7.3715 3.09342,-12.30703 1.901,-9.64017 1.12067,-12.93523 -4.50578,-19.0263 -1.35479,-1.46667 -3.87018,-5.81308 -5.58976,-9.65869 -3.28342,-7.34291 -18.11557,-22.96196 -21.90029,-23.06217 -1.12568,-0.0298 -4.12403,-1.8298 -6.66299,-4 -2.53897,-2.17019 -5.9155,-3.94581 -7.50341,-3.94581 -3.52543,0 -5.00621,-1.74784 -7.34246,-8.66667 -0.99049,-2.93333 -3.09188,-6.94045 -4.66976,-8.9047 -1.57788,-1.96426 -3.28461,-5.78742 -3.79272,-8.49592 -0.57092,-3.04325 -2.41722,-6.18112 -4.83294,-8.21382 -2.14999,-1.8091 -3.90908,-4.43594 -3.90908,-5.83742 0,-1.40147 -0.88459,-2.54814 -1.96576,-2.54814 -2.37736,0 -6.03424,-6.66587 -6.03424,-10.99938 0,-2.77071 -0.51778,-3.07137 -4.49055,-2.60757 -4.71946,0.55097 -8.43758,-1.09113 -17.50945,-7.73303 -6.31271,-4.62181 -7.30637,-4.84495 -6.41618,-1.44085 1.01947,3.89846 -3.53928,5.7792 -8.17662,3.37331 -4.79224,-2.48624 -4.74053,-2.5016 -4.74053,1.40752 0,5.07156 -5.48881,4.39051 -11.99616,-1.48848 l -5.33717,-4.82182 v 3.39325 c 0,5.46837 -6.3388,10.01695 -8.68011,6.22864 -1.16132,-1.87907 -3.2523,-0.32962 -4.70247,3.4846 -1.48999,3.91899 -5.09354,4.11962 -9.64791,0.53714 -1.86457,-1.46666 -3.90115,-2.66666 -4.52575,-2.66666 -0.6246,0 -1.88505,-1.2 -2.80099,-2.66667 -2.42677,-3.88586 -3.93512,-3.26305 -3.25872,1.34555 0.93039,6.33912 -1.7418,8.41086 -9.665,7.49325 -3.69547,-0.42798 -8.16545,-0.94179 -9.93327,-1.14181 -2.53246,-0.28652 -3.43198,0.43216 -4.24082,3.38826 -1.686,6.16183 -3.84207,7.88499 -8.72077,6.96974 -3.50444,-0.65744 -4.62826,-0.2896 -5.79908,1.8981 -1.01375,1.8942 -1.03439,3.49437 -0.0684,5.29938 0.76113,1.42219 1.25555,5.53502 1.09871,9.13961 -0.23596,5.42313 0.33849,7.29499 3.3297,10.84984 4.01332,4.76955 4.66024,8.7383 1.61486,9.90692 -2.67717,1.02733 -2.52026,3.26685 0.6669,9.51828 1.46679,2.87703 2.32347,6.31298 1.90374,7.63546 -0.4208,1.32581 0.49892,4.44658 2.05014,6.95651 2.5994,4.20591 2.64162,4.64811 0.55528,5.81568 -2.07909,1.16352 -2.03025,1.58356 0.61629,5.30027 1.58087,2.22014 2.87432,4.694 2.87432,5.49746 0,0.80346 0.53002,1.46084 1.17782,1.46084 1.66782,0 3.18709,5.07257 3.4193,11.41643 0.11829,3.23165 1.41987,7.13202 3.22683,9.66966 2.88382,4.04995 3.50017,8.49254 2.97531,21.44576 -0.0713,1.75918 0.38312,3.85918 1.00979,4.66667 1.66652,2.14735 4.19095,13.27571 4.19095,18.4748 0,2.47086 1.2,6.97618 2.66667,10.01183 1.46666,3.03565 2.66666,7.93974 2.66666,10.89797 0,2.95824 0.72444,8.08722 1.60988,11.39775 1.76785,6.60982 -0.0952,17.43243 -3.44627,20.01913 -1.1974,0.92429 -1.55368,3.78762 -1.16132,9.33333 0.43429,6.13836 -0.0958,9.53209 -2.27811,14.58379 -2.81597,6.5186 -11.66597,16.39196 -19.39084,21.63304 -5.29688,3.59377 -18.46598,6.0139 -32.1769,5.91325 -13.8332,-0.10154 -22.60847,-2.19683 -27.94598,-6.67273 -2.26759,-1.90154 -5.41759,-4.3398 -7,-5.41836 -2.1647,-1.47543 -2.86536,-3.29129 -2.82962,-7.33333 0.0999,-11.2981 6.49928,-29.77476 12.04903,-34.78855 2.38069,-2.15077 4.70246,-2.55619 13.85446,-2.41919 l 10.99448,0.16458 1.20041,-4.83125 c 1.43251,-5.76541 -0.70574,-20.27321 -3.8563,-26.16458 -1.17651,-2.2 -3.82296,-5.82608 -5.88101,-8.05794 -5.03838,-5.46392 -7.07524,-9.25785 -7.07524,-13.17861 0,-1.80001 -0.55926,-3.61838 -1.2428,-4.04083 -0.68354,-0.42245 -2.00696,-4.18275 -2.94095,-8.35623 -1.87759,-8.38998 -12.95091,-31.14763 -17.695,-36.36639 -1.66659,-1.83334 -4.38442,-5.59925 -6.03964,-8.3687 -1.65521,-2.76945 -3.72923,-5.76945 -4.60894,-6.66667 -4.09413,-4.17564 -12.60102,-18.07949 -19.95937,-32.62208 -1.94956,-3.85298 -12.6036,-6.86159 -21.30261,-6.01566 -3.79185,0.36873 -7.06563,0.0181 -7.93333,-0.84955 -2.53418,-2.53417 -4.94402,-1.62952 -4.94402,1.85599 0,3.31328 -4.11799,8.66667 -6.66666,8.66667 -0.73334,0 -1.33334,0.90396 -1.33334,2.00881 0,1.10485 -1.5,3.31306 -3.33333,4.90712 -1.83333,1.59406 -3.35369,3.84009 -3.37858,4.99118 -0.0249,1.15109 -1.20452,4.49289 -2.62142,7.42622 -1.4169,2.93333 -2.59654,6.72278 -2.62142,8.42099 -0.0249,1.69821 -0.73588,4.37812 -1.57999,5.95535 -0.84411,1.57723 -1.74171,4.98778 -1.99467,7.57901 -0.90452,9.26547 -1.31212,11.40559 -2.5494,13.38587 -1.51461,2.42416 -10.59598,9.32545 -12.2713,9.32545 -1.45371,0 -9.64988,16.01413 -9.64988,18.85446 0,2.19049 2.98577,3.96904 11.28815,6.72407 2.90849,0.96514 12.44245,5.5048 21.18658,10.08814 8.74413,4.58333 16.36843,8.33333 16.94287,8.33333 0.57445,0 2.75667,1.44073 4.84938,3.20163 2.0927,1.76089 5.28874,3.41089 7.1023,3.66667 3.55636,0.50156 4.91351,4.35463 2.72506,7.73675 -1.0723,1.65719 -1.74712,1.6746 -4.65179,0.12007 -1.86865,-1.00007 -4.63053,-2.96701 -6.13751,-4.37098 -2.35961,-2.1983 -42.55154,-22.35414 -44.57549,-22.35414 -2.32743,0 -0.0768,2.67257 3.79971,4.5121 2.4911,1.1821 7.50635,4.40047 11.145,7.15192 10.45044,7.90236 33.65906,29.87314 33.65906,31.86384 0,3.36932 -5.30331,1.82525 -10.97205,-3.19453 -3.10552,-2.75 -7.75724,-6.88761 -10.33717,-9.1947 -2.57993,-2.30709 -7.69077,-6.41339 -11.35744,-9.12512 -3.66667,-2.71172 -7.57124,-5.92411 -8.67682,-7.13863 -2.56053,-2.81281 -13.33896,-8.73466 -13.27505,-7.29353 0.0265,0.59693 3.02647,4.33249 6.66666,8.30127 3.6402,3.96877 6.61854,7.67472 6.61854,8.23545 0,0.56074 3.0291,5.95501 6.73133,11.98729 6.48196,10.56146 7.44137,14.56131 3.49268,14.56131 -1.02283,0 -6.2755,-6.75 -11.67261,-15 -11.12002,-16.99803 -20.63032,-27.80851 -23.49642,-26.70869 -1.45807,0.55952 -1.00727,1.69864 1.93354,4.88582 2.10921,2.28591 5.22917,6.9774 6.93325,10.42554 1.70407,3.44813 4.78886,7.56493 6.85509,9.14844 3.51505,2.69385 3.62843,3.07496 1.7622,5.92319 -3.06326,4.67513 -6.12211,2.77225 -11.24259,-6.99388 -5.17605,-9.87212 -9.07015,-15.0589 -11.20358,-14.92271 -0.78442,0.0501 -4.42622,3.64371 -8.09288,7.98585 -3.66667,4.34213 -8.0325,8.27018 -9.70184,8.72898 -1.66934,0.45881 -3.68666,2.05152 -4.48292,3.53935 -1.35878,2.53889 -2.33355,2.65843 -15.85987,1.94485 -10.44237,-0.55088 -14.56217,-0.32828 -14.95688,0.80814 -1.2464,3.58853 0.45753,55.23689 2.50407,75.90179 0.70068,7.07509 0.54948,7.66666 -1.95962,7.66666 -1.49539,0 -2.9618,-0.45 -3.25869,-1 z"
       id="path1" />
    <path
       style="fill:#ffff00"
       d="m 250.60346,478.11568 c 4.18238,-7.65619 4.7008,-18.78233 0.87517,-18.78233 -1.38674,0 -3.18674,1.08204 -4,2.40454 -1.1755,1.91158 -1.00028,2.67688 0.85469,3.73292 2.68226,1.52702 3.13487,7.861 0.73333,10.26254 -2.16574,2.16573 -5.72762,2.01674 -7.66756,-0.32075 -2.10652,-2.5382 -5.3991,-1.16622 -5.3991,2.24974 0,3.39466 3.62813,6.23976 8.02784,6.29527 2.61862,0.033 4.07133,-1.25759 6.57563,-5.84193 z"
       id="path40" />
    <path
       style="fill:#ffff00"
       d="m 180.07513,507.85962 c 1.90717,-3.5636 0.50575,-11.35139 -2.23173,-12.40186 -2.8519,-1.09438 -4.85838,0.37807 -3.90406,2.865 0.95102,2.47832 -2.6319,8.34392 -5.09677,8.34392 -2.61578,0 -6.51532,-4.84075 -6.68992,-8.30463 -0.11539,-2.28924 -1.07537,-3.13436 -3.93196,-3.46147 -2.07861,-0.23802 -4.72388,-0.0703 -5.87838,0.37273 -5.39404,2.06989 13.88785,15.13147 22.61077,15.31656 2.36773,0.0502 4.13937,-0.89411 5.12205,-2.73025 z"
       id="path9" />
  </g>
</svg>
