<?xml version="1.0" encoding="UTF-8" standalone="no"?>
<!-- Created with Inkscape (http://www.inkscape.org/) -->

<svg
   xmlns:dc="http://purl.org/dc/elements/1.1/"
   xmlns:cc="http://creativecommons.org/ns#"
   xmlns:rdf="http://www.w3.org/1999/02/22-rdf-syntax-ns#"
   xmlns:svg="http://www.w3.org/2000/svg"
   xmlns="http://www.w3.org/2000/svg"
   xmlns:sodipodi="http://sodipodi.sourceforge.net/DTD/sodipodi-0.dtd"
   xmlns:inkscape="http://www.inkscape.org/namespaces/inkscape"
   width="210mm"
   height="297mm"
   viewBox="0 0 744.09448819 1052.3622047"
   id="svg2"
   version="1.1"
   inkscape:version="0.91 r13725"
   sodipodi:docname="gravure-winter-anime-drink-coffee-4.svg">
  <title
     id="title4149">Winter Anime Drink Coffee</title>
  <defs
     id="defs4" />
  <sodipodi:namedview
     id="base"
     pagecolor="#ffffff"
     bordercolor="#666666"
     borderopacity="1.0"
     inkscape:pageopacity="0.0"
     inkscape:pageshadow="2"
     inkscape:zoom="0.35"
     inkscape:cx="-146.42857"
     inkscape:cy="402.85714"
     inkscape:document-units="px"
     inkscape:current-layer="layer1"
     showgrid="false"
     inkscape:window-width="1538"
     inkscape:window-height="877"
     inkscape:window-x="-8"
     inkscape:window-y="-8"
     inkscape:window-maximized="1" />
  <metadata
     id="metadata7">
    <rdf:RDF>
      <cc:Work
         rdf:about="">
        <dc:format>image/svg+xml</dc:format>
        <dc:type
           rdf:resource="http://purl.org/dc/dcmitype/StillImage" />
        <dc:title>Winter Anime Drink Coffee</dc:title>
      </cc:Work>
    </rdf:RDF>
  </metadata>
  <g
     inkscape:label="Calque 1"
     inkscape:groupmode="layer"
     id="layer1">
    <path
       style="fill:#000000"
       d="m 409.39608,1023.3817 c -24.86399,-0.2882 -118.82403,-0.8433 -208.80009,-1.2335 -116.811382,-0.5065 -163.656386,-0.8052 -163.81508,-1.0446 -0.122232,-0.1843 -0.853238,-1.8602 -1.624459,-3.7243 -4.660991,-11.266 -7.853647,-22.65115 -9.676951,-34.5086 -0.644889,-4.19392 -0.90299,-15.60531 -0.440446,-19.47323 1.375037,-11.49834 5.694046,-20.852 12.466656,-26.99902 l 1.756031,-1.59384 0.613948,-20.18103 c 0.49266,-16.19378 1.032034,-26.93817 2.729971,-54.38147 l 2.116012,-34.20045 4.66839,-30.8112 c 3.38931,-22.36931 5.124902,-32.94633 6.334551,-38.60395 l 1.66615,-7.79274 -16.34818,-49.20799 -16.34818,-49.20799 0.485608,-4.68388 c 0.62177,-5.99734 1.654152,-11.76431 3.353455,-18.73264 12.341082,-50.60718 45.971947,-95.53599 94.679684,-126.48628 l 3.65762,-2.32415 -3.53045,-10.31196 c -1.94175,-5.67157 -3.85983,-11.00521 -4.26239,-11.85252 -0.63505,-1.33661 -0.73046,-1.96883 -0.72077,-4.77573 0.0116,-3.36572 0.42178,-5.64815 1.83825,-10.22959 3.07634,-9.95009 10.71202,-25.2823 18.06954,-36.28299 l 2.15549,-3.22278 0.4723,-4.12399 0.47228,-4.12399 -1.59494,-11.29397 c -0.87721,-6.21169 -3.16104,-20.24906 -5.07517,-31.19409 -2.84799,-16.28496 -3.58473,-21.12666 -4.05545,-26.6517 l -0.57522,-6.7516 3.30964,-16.17589 c 1.8203,-8.89672 4.12537,-19.8501 5.12236,-24.34084 2.23485,-10.06632 2.76675,-13.14201 5.08686,-29.41461 1.83251,-12.85279 1.85617,-12.9724 3.93046,-19.87323 1.14778,-3.81845 3.66555,-12.48863 5.59505,-19.26709 3.16348,-11.11352 6.9731,-22.73362 11.11151,-33.89233 0.81702,-2.20301 3.16587,-9.00466 5.21966,-15.11481 5.29159,-15.74279 9.9112,-27.51772 16.93181,-43.15761 l 6.1032,-13.59615 3.55661,-4.96528 c 1.95613,-2.7309 3.69833,-5.05453 3.87157,-5.16362 0.17322,-0.10908 1.35254,-0.43411 2.62071,-0.72228 2.51894,-0.57239 1.87005,-0.046 7.4691,-6.05857 0.65277,-0.70096 7.1898,-6.056109 14.52675,-11.900307 13.25872,-10.561169 13.39029,-10.655778 21.62086,-15.548847 12.07905,-7.180974 39.58225,-22.188576 47.31155,-25.816371 4.7937,-2.249945 7.7765,-3.879147 10.58365,-5.780743 11.06357,-7.494615 24.79792,-12.467624 39.42617,-14.275644 4.93637,-0.61012 16.51432,-0.694274 21.18065,-0.153951 1.7463,0.202207 6.27153,0.85144 10.05606,1.442739 l 6.881,1.075092 3.24905,1.742461 c 1.78701,0.958353 4.5842,2.689652 6.21599,3.84733 l 2.9669,2.10487 4.13925,-0.603068 c 8.96489,-1.306134 16.35131,-1.533395 20.9219,-0.643714 0.91472,0.178056 3.3857,1.15511 5.49103,2.171233 4.12521,1.990996 7.83819,3.149894 8.04698,2.51163 0.0717,-0.219184 0.73717,-0.366585 1.65504,-0.366585 0.84433,0 3.58768,-0.218323 6.09631,-0.485163 2.52116,-0.268171 6.26043,-0.440424 8.36049,-0.385139 l 3.79932,0.100019 6.03022,3.523681 c 3.80319,2.222323 7.6117,4.752798 10.31234,6.851757 4.20053,3.264705 4.42663,3.392566 11.87442,6.715259 6.70334,2.990569 7.93691,3.440301 10.53502,3.84081 3.25776,0.502199 6.23013,1.403438 8.10317,2.456945 0.67619,0.380324 4.77158,3.539681 9.10086,7.020789 7.78569,6.260338 7.95186,6.372962 15.25082,10.337647 7.70458,4.185001 13.20022,7.396792 21.11949,12.342702 3.38419,2.113596 5.10714,3.005008 6.1353,3.174288 5.17056,0.85132 13.6252,8.23757 19.32996,16.88732 2.98362,4.52382 5.23999,9.29311 8.10223,17.12564 1.77061,4.84526 2.72583,7.04208 3.3493,7.7028 0.70838,0.75068 2.01905,4.31047 6.97692,18.94889 3.35755,9.9135 6.26847,18.23253 6.46866,18.48673 0.38034,0.48288 8.93229,73.15129 8.93809,75.94963 0.003,0.8473 -0.42111,7.84915 -0.93968,15.55965 l -0.94285,14.01909 -1.51582,3.38923 c -1.71268,3.82936 -6.48879,13.12681 -9.30462,18.11275 l -1.87684,3.32338 0.51391,6.07404 c 0.45597,5.38899 0.51857,11.98151 0.55501,58.45311 l 0.0411,52.37905 -1.14884,17.65722 c -1.27076,19.53138 -1.27723,19.5747 -3.88712,25.98248 -5.04692,12.39106 -16.80897,24.76106 -31.77545,33.41785 -1.87351,1.08368 -3.2023,1.9715 -2.95283,1.97291 0.24947,0 9.77475,0.69483 21.16728,1.54084 11.39253,0.84601 21.24012,1.53874 21.88352,1.5394 0.98708,0 2.54582,-0.85945 9.97885,-5.50847 4.84499,-3.03028 9.95707,-6.09513 11.36021,-6.81082 l 2.55115,-1.30118 4.10142,0.81866 c 2.88687,0.57622 5.31031,1.31008 8.18367,2.47811 3.50268,1.42384 4.53306,1.70448 7.25736,1.97654 1.7463,0.17439 10.97762,1.15819 20.51406,2.18623 l 17.33895,1.86916 2.16518,1.24339 c 1.19084,0.68386 2.31815,1.40712 2.50511,1.60728 0.18695,0.20011 0.57316,1.62081 0.85825,3.15706 0.4274,2.30325 0.45521,3.03195 0.1586,4.15437 -1.37067,5.18661 -5.77376,9.64874 -13.30118,13.4796 -2.24525,1.14263 -4.5529,2.2469 -5.12811,2.45392 l -1.04585,0.37636 1.34824,0.87695 c 4.30712,2.80151 6.49999,7.80925 5.75586,13.14449 -0.16522,1.18471 -0.20398,2.24271 -0.086,2.35107 0.11788,0.10835 3.41208,0.91812 7.32046,1.79948 3.90839,0.88135 9.01121,2.15654 11.33962,2.83372 10.64121,3.09493 18.69101,7.72488 21.87345,12.58085 1.54645,2.35962 1.99042,3.85365 1.96941,6.62708 -0.0303,3.9899 -2.05738,7.71837 -6.79937,12.50606 l -2.92637,2.95454 2.8578,0.38099 c 16.06699,2.14183 18.86984,11.07777 8.05091,25.66777 l -1.99265,2.68722 -13.17972,4.4816 c -7.24886,2.46485 -14.84262,5.07395 -16.87501,5.79795 l -3.69527,1.31638 3.7203,3.41983 3.72031,3.41983 0.65533,3.54664 c 0.36045,1.95066 0.65534,3.79625 0.65534,4.10131 0,0.30506 -1.24445,3.05734 -2.76541,6.11618 -2.27859,4.58246 -3.23157,6.13747 -5.41335,8.83321 l -2.6479,3.27169 1.02582,3.50677 c 0.5642,1.92873 1.02713,3.75037 1.0287,4.0481 0.003,0.29773 -1.9244,4.45724 -4.2799,9.24336 l -4.28275,8.70203 -1.13245,5.70009 -1.13242,5.70007 -1.6723,1.5865 c -2.03738,1.93285 -3.90047,2.63669 -6.94716,2.62452 -3.01178,-0.012 -5.72179,-0.77592 -9.52008,-2.68343 -1.77902,-0.89344 -3.26421,-1.5956 -3.3004,-1.56034 -0.0361,0.0353 0.40608,1.91932 0.98276,4.18681 0.57672,2.26745 1.04857,4.36116 1.04857,4.65267 0,0.29147 -0.61209,2.86602 -1.36021,5.7212 -1.54209,5.88545 -1.6258,7.1459 -0.89733,13.51027 1.67121,14.60074 3.97294,26.4226 5.33357,27.39369 0.54022,0.38553 0.53716,0.44774 -0.0923,1.89775 -1.48046,3.41022 -8.5012,22.83874 -8.50997,23.54977 -0.005,0.42366 1.76853,5.90034 3.94171,12.17043 2.17316,6.27008 4.77945,13.80539 5.79176,16.74513 l 1.84059,5.345 0,3.94177 0,3.94179 -3.76893,12.63861 -3.76892,12.63863 5.28958,34.45911 5.28959,34.45912 0.854,15.06533 0.85401,15.06532 -2.22348,10.03158 c -1.22292,5.51736 -2.22347,10.35636 -2.22347,10.75329 0,0.39695 0.96445,4.14692 2.14322,8.33326 1.17878,4.18635 3.00688,10.81831 4.06248,14.73771 l 1.91928,7.12613 -0.42469,2.57941 c -0.23356,1.41863 -0.9052,6.73885 -1.49252,11.82275 -0.58731,5.0838 -1.14848,9.9018 -1.24706,10.7069 l -0.17923,1.4635 -24.69196,0.017 c -66.84576,0.045 -135.66298,0.573 -156.08034,1.1973 -11.22621,0.3434 -20.75149,0.6047 -21.16728,0.5805 -0.41578,-0.023 -21.09924,-0.2796 -45.96324,-0.5678 z m 167.07034,-3.8458 c 30.60184,-0.2467 59.94912,-0.4516 65.21614,-0.4553 l 9.57648,-0.011 1.08152,-4.6987 c 0.59487,-2.5843 1.46212,-6.5038 1.92726,-8.7098 l 0.84568,-4.0112 -3.22023,-14.49726 c -1.77116,-7.97345 -3.27379,-14.64948 -3.33918,-14.8356 -0.0654,-0.18613 -3.50725,7.51871 -7.64857,17.12184 -4.1413,9.60315 -7.64297,17.58972 -7.7815,17.74782 -0.13852,0.1582 -0.33002,0.2079 -0.42555,0.1107 -0.0956,-0.098 2.96348,-9.39726 6.79782,-20.66633 l 6.97156,-20.48921 0.91824,-27.37871 0.91823,-27.37873 -3.5548,-29.35053 c -1.95516,-16.14279 -3.66632,-29.31268 -3.80261,-29.2664 -0.13629,0.0463 -2.62057,3.75648 -5.52067,8.24487 -2.9001,4.48839 -5.27576,7.98783 -5.27926,7.7765 -0.003,-0.2113 3.79202,-10.48524 8.43451,-22.83098 l 8.44088,-22.44674 -5.37814,-21.8453 c -3.69464,-15.00691 -5.45113,-21.65236 -5.61119,-21.22904 -1.29996,3.438 -2.51502,6.18499 -3.4821,7.87217 -5.32802,9.29547 -13.51102,14.75906 -24.43076,16.31192 -2.05625,0.29239 -3.52466,0.99646 -20.61889,9.88614 -10.12275,5.26425 -18.52615,9.7348 -18.67427,9.93461 -0.27034,0.36471 -5.22565,19.57467 -5.2903,20.50859 -0.0191,0.274 3.38791,6.19342 7.57087,13.15426 4.18295,6.9608 7.67976,12.85345 7.77066,13.09476 0.13961,0.37054 -0.78694,0.43977 -5.9615,0.44541 -6.45844,0.007 -8.45962,0.28497 -12.09462,1.67964 -5.59699,2.14745 -9.06374,6.76626 -9.51064,12.67117 l -0.18174,2.40115 2.18583,3.41564 c 9.08908,14.20298 14.93826,39.68958 17.39676,75.80262 0.6377,9.36735 1.44131,30.97487 1.22032,32.81302 -0.61491,5.1154 -0.9255,4.166 -0.8095,-2.47403 0.11219,-6.42259 -0.35746,-10.65618 -2.22253,-20.03495 -3.31084,-16.64914 -11.40197,-45.15321 -19.05343,-67.12296 -2.45788,-7.05733 -3.5611,-13.21107 -3.56775,-19.90099 -0.005,-5.73217 0.63333,-8.90483 2.54948,-12.65763 2.22662,-4.36081 6.536,-7.70691 11.63995,-9.03799 2.76575,-0.72132 7.83649,-1.20446 10.47893,-0.99851 1.28893,0.10048 2.34352,0.11704 2.34352,0.0368 0,-0.17641 -6.40637,-10.63157 -10.29299,-16.79807 l -2.80512,-4.45059 1.29922,-13.71098 c 0.71455,-7.54104 1.3143,-13.7206 1.33281,-13.73237 0.0602,-0.0383 32.57021,-11.47286 36.92518,-12.9875 l 4.23345,-1.47238 -4.00049,-0.0605 c -11.01715,-0.16682 -23.17793,-3.20995 -38.18287,-9.55496 -5.62149,-2.37712 -14.17132,-6.63473 -19.32408,-9.62296 -2.06305,-1.19644 -3.77839,-2.17531 -3.81187,-2.17531 -0.0334,0 0.12701,1.07455 0.35661,2.38787 0.75852,4.33887 1.5617,12.45787 1.89738,19.17999 0.45367,9.08517 0.44783,9.0254 1.47865,15.09749 4.75645,28.01733 1.32566,58.05784 -9.30725,81.49563 l -1.258,2.77301 0.54339,4.46763 c 0.77037,6.33377 0.7695,27.74278 0,34.97072 -2.44536,22.92656 -7.78333,44.7737 -16.22925,66.4229 -2.46774,6.3255 -3.09357,8.5947 -2.3751,8.6121 0.25943,0.01 0.19399,0.1722 -0.1824,0.4623 -0.72001,0.5548 -7.32255,0.5559 62.87927,-0.011 z m -514.150229,-1.4943 c 10.429556,-0.3789 19.013232,-0.7523 19.07482,-0.8297 0.06162,-0.077 2.399976,-14.8377 5.196417,-32.80063 l 5.084448,-32.65988 2.021433,-41.90325 c 1.111794,-23.04678 2.008339,-41.92869 1.992337,-41.9598 -0.01606,-0.0311 -1.455599,-0.35091 -3.199089,-0.71067 -9.148252,-1.88777 -16.851179,-5.92323 -23.236762,-12.17346 -4.828321,-4.72599 -7.769082,-8.79863 -10.829178,-14.9973 -1.802442,-3.65109 -4.22353,-10.69624 -3.937125,-11.45672 0.211625,-0.56192 0.491912,-0.41175 10.522888,5.63812 3.373102,2.0344 6.178753,3.65217 6.234786,3.59508 0.136987,-0.13961 -6.156448,-40.14179 -6.733782,-42.80117 -0.250376,-1.1533 -0.37582,-2.22785 -0.278746,-2.38787 0.390954,-0.64454 0.678118,-0.20997 0.876606,1.32664 0.429661,3.32625 6.035583,18.89767 11.656183,32.37712 7.780701,18.65986 13.7302,30.13965 17.846968,34.43645 1.081048,1.12835 2.134183,2.10305 2.340308,2.16603 0.262234,0.0802 2.13465,14.59342 6.235767,48.33406 l 5.86099,48.21954 10.65065,28.80849 c 5.85785,15.84472 10.74404,28.90972 10.85818,29.03322 0.2266,0.2455 63.21626,-2.7189 63.47977,-2.9875 0.14221,-0.1448 10.59326,-46.97932 10.65931,-47.76763 0.0846,-1.0098 1.07241,3.15159 5.42326,22.84663 2.66358,12.0573 4.84287,21.9927 4.84287,22.0786 0,0.086 1.36862,1.2706 3.04137,2.6324 l 3.04137,2.476 5.19875,-0.1342 c 2.85931,-0.074 8.32849,-0.203 12.15371,-0.2871 3.82523,-0.084 8.86002,-0.3648 11.18842,-0.6241 3.97105,-0.4421 6.93255,-0.4038 47.77758,0.6192 41.85617,1.0481 45.05165,1.0871 82.43467,1.0066 l 38.89055,-0.083 -6.41387,-24.18674 c -3.52765,-13.30275 -8.25245,-30.35675 -10.49957,-37.89779 l -4.08571,-13.71098 -0.52739,-22.8003 c -0.29005,-12.54015 -0.6151,-24.77987 -0.72232,-27.19936 l -0.19493,-4.39908 -12.35672,18.20004 -12.35671,18.20002 -2.50052,6.07227 c -1.3753,3.33976 -4.95242,12.03424 -7.94916,19.3211 -11.92782,29.0036 -12.9988,31.44662 -13.54258,30.89254 -0.42849,-0.43659 -7.41276,-30.12069 -7.18003,-30.51618 0.0777,-0.13191 5.40294,-5.23631 11.83401,-11.34312 l 11.69284,-11.10328 17.19479,-26.70873 17.19478,-26.70869 -0.19422,-37.88278 c -0.10686,-20.83549 -0.22356,-37.91036 -0.2594,-37.94413 -0.0358,-0.0337 -4.71059,-0.48345 -10.38841,-0.99936 -9.73147,-0.88422 -10.4651,-0.99372 -12.79707,-1.91004 -7.16691,-2.81615 -18.31825,-9.79566 -32.96501,-20.63243 -8.56704,-6.33854 -22.22154,-17.20959 -23.37102,-18.60691 -3.92238,-4.76797 -9.02881,-21.84671 -14.01215,-46.8643 -1.14216,-5.73399 -4.20525,-22.89203 -4.52454,-25.34441 -0.30783,-2.36446 -0.41359,-2.43702 -2.37202,-1.62712 -9.27034,3.83379 -22.46365,19.33592 -32.06103,37.67177 -2.73641,5.22791 -3.15832,7.57783 -5.29792,29.50838 -0.98371,10.08296 -2.43689,26.33973 -3.22928,36.12614 -0.79239,9.7864 -1.5365,17.79347 -1.65357,17.79347 -0.37783,0 -0.54882,-3.27406 -0.92156,-17.64607 -0.20115,-7.75654 -0.46834,-13.99581 -0.59374,-13.86504 -0.1254,0.13075 -5.19068,11.32976 -11.25616,24.8867 l -11.02817,24.64897 -6.86331,20.17465 -6.86333,20.17468 1.08582,3.27212 c 2.21444,6.67328 3.00485,12.5321 2.98961,22.16047 -0.0121,7.68737 -0.51987,13.55973 -1.93137,22.33813 -1.9726,12.26794 -6.58021,29.11658 -7.96254,29.11658 -0.43029,0 -0.63222,-6.85626 -0.96973,-32.92627 l -0.2009,-15.51791 -1.27134,0.17753 c -9.77232,1.36482 -26.68127,19.65232 -46.90729,50.73155 -2.48137,3.81288 -5.11729,7.93774 -5.8576,9.16634 -0.74029,1.22859 -1.51942,2.23381 -1.73138,2.23381 -0.43083,0 4.41786,-10.0521 8.91721,-18.48672 18.06702,-33.86908 33.68376,-54.71978 45.26549,-60.43628 1.32173,-0.65236 2.64845,-1.18614 2.9483,-1.18614 0.29986,0 0.54518,-0.17651 0.54518,-0.39226 0,-0.21571 0.8014,-5.93504 1.78089,-12.70962 l 1.7809,-12.31737 3.62065,-10.32175 c 1.99135,-5.67696 3.60105,-10.34917 3.5771,-10.38269 -0.024,-0.0335 -2.28454,0.91524 -5.02354,2.10835 -30.58923,13.32466 -73.55694,31.70629 -73.72185,31.53828 -0.0895,-0.0912 -0.0357,-0.29345 0.11952,-0.44944 0.15522,-0.156 14.50211,-7.8633 31.88195,-17.12737 17.37986,-9.26403 31.77689,-16.94271 31.99342,-17.06373 0.23813,-0.13308 -3.048,-1.87315 -8.31571,-4.40333 -4.79018,-2.30079 -26.67137,-12.80578 -48.62486,-23.34438 -21.95348,-10.53862 -40.04244,-19.28569 -40.19766,-19.43796 -0.15524,-0.15227 -0.2081,-0.35238 -0.11751,-0.4447 0.0906,-0.0924 21.98967,7.81896 48.66459,17.58063 26.67491,9.76166 52.49394,19.20736 57.37559,20.99047 4.88167,1.78309 8.98175,3.1244 9.1113,2.9807 0.12955,-0.1437 2.01926,-3.28669 4.19934,-6.98444 l 3.9638,-6.72315 -0.50511,-0.97964 c -1.28491,-2.49198 -22.41558,-51.2057 -22.2735,-51.34835 0.0885,-0.089 7.2279,7.08281 15.86522,15.93719 8.63732,8.85437 15.76887,16.09885 15.84792,16.09885 0.079,0 0.1437,-0.13086 0.1437,-0.29083 0,-0.15994 2.66735,-6.7805 5.92744,-14.71235 l 5.92746,-14.42152 -2.16925,-10.47581 c -1.19309,-5.7617 -2.32959,-10.63336 -2.52557,-10.82589 -0.19597,-0.19255 -11.44646,-9.04488 -25.00108,-19.67191 -13.55462,-10.627 -24.89662,-19.56894 -25.20444,-19.87092 -0.30783,-0.30198 -0.44391,-0.61826 -0.3024,-0.70283 0.14151,-0.0845 9.63015,5.79636 21.08586,13.06873 11.45571,7.27236 20.86505,13.18269 20.90963,13.1341 0.0446,-0.0486 -2.12499,-6.29741 -4.82126,-13.88624 l -4.90233,-13.79787 -19.40918,-19.44283 c -10.67505,-10.69355 -19.40919,-19.5776 -19.40919,-19.74228 0,-0.16468 0.18893,-0.22556 0.41986,-0.13529 0.23092,0.0903 8.20102,6.30973 17.71133,13.82098 9.51031,7.51125 17.39808,13.69633 17.52838,13.7446 0.13029,0.0483 0.33177,-1.33822 0.44773,-3.08111 0.27591,-4.14682 1.34514,-15.85055 1.5562,-17.03395 0.156,-0.87469 0.007,-1.04015 -2.78673,-3.08111 -4.20574,-3.07325 -10.81268,-9.88239 -14.49963,-14.94345 -3.1002,-4.25561 -5.5828,-8.08726 -6.72327,-10.37672 -1.164,-2.3367 -7.08656,-6.88892 -9.70788,-7.46174 -0.78721,-0.17201 -8.83489,-2.59562 -17.88372,-5.38579 -45.31068,-13.97135 -57.18503,-17.62592 -77.61529,-23.88784 l -22.154575,-6.79041 -5.060494,2.80265 c -2.78327,1.54148 -9.368165,5.21187 -14.633102,8.15643 -5.264937,2.94456 -9.75542,5.34761 -9.978859,5.3401 -0.425811,-0.0142 -4.367654,-3.61551 -4.156561,-3.79738 0.06694,-0.0577 7.995635,-4.16312 17.619417,-9.1233 l 17.497792,-9.01853 26.953492,7.75435 c 27.61078,7.94346 30.30519,8.80384 79.67212,25.44081 8.71016,2.93539 9.46405,3.13954 9.31803,2.52313 -0.0873,-0.36887 -1.47018,-7.25656 -3.07291,-15.30599 -6.61061,-33.2008 -6.03862,-30.68885 -7.32459,-32.16702 -5.08926,-5.84991 -27.73159,-30.99595 -27.90978,-30.99595 -0.12469,0 -5.82577,-0.90123 -12.66905,-2.00273 -6.84329,-1.10151 -12.50561,-2.00273 -12.5829,-2.00273 -0.0773,0 -0.14057,-0.12313 -0.14057,-0.27364 0,-0.1505 3.2318,-0.36024 7.18176,-0.46608 3.94997,-0.10583 9.57884,-0.2752 12.50863,-0.37636 l 5.32687,-0.18394 -3.11931,-5.18346 c -5.66384,-9.41174 -10.10946,-17.34631 -10.4284,-18.61262 -1.21043,-4.80589 -2.6307,-7.26096 -5.03278,-8.69967 -1.32618,-0.79427 -1.70046,-0.86684 -4.47123,-0.86684 -2.38967,0 -3.46786,0.15376 -5.14063,0.73297 -4.91512,1.70201 -10.89955,5.28425 -17.41101,10.42214 -3.83487,3.02591 -7.60802,6.71549 -33.704496,32.95779 l -18.155037,18.25651 -2.226365,4.09413 c -5.279724,9.70903 -16.502763,30.07392 -17.170217,31.15638 -0.704686,1.14285 -2.396482,7.31809 -10.667511,38.93748 l -3.07932,11.77201 2.327854,7.48499 c 4.405419,14.1652 9.173628,29.06066 10.582349,33.05829 1.979558,5.61757 5.149019,15.41885 13.15176,40.6708 6.478719,20.443 7.188548,22.48143 10.83636,31.11932 2.146931,5.08385 3.794844,9.28607 3.662035,9.33826 -0.13281,0.0522 -2.519041,-0.88443 -5.302745,-2.08136 -2.783694,-1.19692 -5.087149,-2.14086 -5.118784,-2.09762 -0.03168,0.0432 -1.713982,10.79997 -3.738539,23.90385 l -3.681009,23.82521 -3.307207,33.17552 -3.307208,33.17552 -0.425376,28.65441 -0.425366,28.65442 -4.331061,6.77848 c -2.382087,3.72815 -4.332515,6.98643 -4.334305,7.24063 -0.0022,0.25418 5.744307,11.19254 12.769105,24.30742 7.024808,13.11488 12.733424,23.95311 12.685831,24.08481 -0.04763,0.1318 -6.615478,-7.15815 -14.595295,-16.19986 -7.979818,-9.04167 -14.54422,-16.4033 -14.587549,-16.35915 -0.0434,0.0442 -0.222832,4.46893 -0.398873,9.83279 l -0.32008,9.75249 5.435836,15.02763 c 2.989699,8.2653 5.528376,15.2703 5.641495,15.5669 0.13768,0.3609 0.519901,0.5334 1.156089,0.5217 0.522721,-0.011 9.483693,-0.3276 19.91326,-0.7067 z m 450.344619,-0.8934 c 0.48132,-1.0797 3.29865,-14.0487 8.47172,-38.99826 l 7.75059,-37.38062 0.2064,-18.38766 c 0.15978,-14.2353 0.11845,-19.0668 -0.183,-21.39515 -0.36991,-2.85693 -1.28098,-5.31768 -18.19587,-49.14387 -16.3407,-42.33848 -17.85981,-46.42806 -18.45413,-49.67966 -2.74119,-14.9977 -6.85303,-25.65892 -11.62461,-30.14045 -1.70233,-1.59881 -4.16658,-2.82843 -5.61726,-2.80287 -2.2794,0.0402 -2.44853,-0.88744 2.77624,15.22689 l 4.79518,14.78937 9.96943,47.30044 9.96939,47.30041 2.83022,40.35747 2.83021,40.35744 -1.11735,11.63561 c -0.61455,6.39957 -1.17213,11.68965 -1.23904,11.75571 -0.0669,0.066 -1.41443,-0.11589 -2.99442,-0.40437 l -2.87271,-0.5245 0,-21.24484 0,-21.24489 -6.27352,-55.15834 -6.27356,-55.15832 -9.6863,-37.58341 c -5.32746,-20.67087 -9.81796,-38.0817 -9.97886,-38.69078 -0.23519,-0.8902 -0.88545,-1.58499 -3.31573,-3.54267 -1.66275,-1.33943 -3.13164,-2.47217 -3.26423,-2.51719 -0.13258,-0.0451 -0.62399,4.3915 -1.09203,9.85898 l -0.85095,9.94085 8.51236,53.61151 8.51233,53.61151 3.92037,56.3845 c 2.15618,31.01147 3.88504,56.86236 3.84191,57.44636 -0.0778,1.0532 -0.11183,1.0765 -4.13668,2.8488 -2.23206,0.9829 -4.12406,1.7199 -4.20449,1.638 -0.0804,-0.082 0.16147,-7.1872 0.53755,-15.78953 l 0.68377,-15.64054 -3.37292,-29.57876 c -3.17489,-27.84189 -3.90588,-33.30574 -12.44881,-93.04984 l -9.07584,-63.47109 -1.31376,-18.72818 c -0.86619,-12.34805 -1.4381,-18.88086 -1.67878,-19.17634 -0.51076,-0.62711 0.43593,-0.98522 1.02305,-0.38696 0.23556,0.24002 4.5317,2.69558 9.54696,5.45682 8.18865,4.50839 9.17117,4.9748 9.63392,4.57331 0.2834,-0.24588 7.55445,-6.50964 16.15793,-13.91946 8.60344,-7.40983 15.6946,-13.56763 15.7581,-13.684 0.12957,-0.23746 -4.77994,-24.64443 -5.00304,-24.87173 -0.21621,-0.22029 -9.0103,6.59551 -9.0103,6.98339 0,0.35843 -2.90117,22.72391 -3.20219,24.68632 -0.0975,0.63548 -0.30717,1.15541 -0.46592,1.15541 -0.18186,0 -0.21047,-4.15193 -0.0772,-11.22307 l 0.21137,-11.22308 -1.03009,-0.17627 c -0.56656,-0.0969 -6.33706,-0.80633 -12.82333,-1.57643 -6.48626,-0.77009 -12.74143,-1.52586 -13.90036,-1.67949 -1.15894,-0.15362 -2.14134,-0.24449 -2.18313,-0.2019 -0.0418,0.0426 -2.47975,7.27992 -5.41768,16.08293 l -5.34166,16.00549 -0.55954,7.70281 c -0.48721,6.70695 -0.86495,9.46175 -2.92175,21.30811 l -2.36217,13.60526 2.35449,7.80852 2.35449,7.80848 7.11711,56.813 c 3.91443,31.24718 7.04638,56.88514 6.95989,56.97325 -0.0865,0.0882 -2.25468,-0.16403 -4.81818,-0.56033 l -4.66097,-0.72055 -1.53975,-5.41421 c -4.66333,-16.39753 -5.42462,-18.93071 -5.56248,-18.50894 -0.0831,0.25419 -1.38746,14.0366 -2.89859,30.62754 -1.51117,16.59097 -2.81734,30.23649 -2.90261,30.32338 -0.0853,0.0869 -0.22362,0.0882 -0.3074,0.003 -0.0838,-0.0853 -0.65129,-9.15544 -1.26115,-20.15568 l -1.10887,-20.00045 2.02807,-47.60332 c 1.11546,-26.18182 2.23838,-51.90147 2.49544,-57.15478 l 0.46734,-9.55147 -1.49737,-7.79274 -1.49741,-7.79271 2.66463,-10.53997 c 1.46554,-5.79694 2.80431,-10.94149 2.97503,-11.43224 0.27306,-0.78486 0.19526,-1.04056 -0.64587,-2.12265 l -0.9563,-1.23029 -0.95912,2.12261 c -0.52752,1.16748 -3.29696,7.11406 -6.1543,13.21468 l -5.19518,11.09204 -3.77924,3.86936 -3.7792,3.86936 6.66597,1.32708 c 3.66629,0.72987 6.66597,1.36305 6.66597,1.40704 0,0.11096 -3.35417,7.3747 -3.4509,7.47329 -0.0431,0.0439 -4.01319,-1.57288 -8.82243,-3.59279 -4.80927,-2.01992 -8.90683,-3.7187 -9.10575,-3.77505 -0.19891,-0.0563 -1.99546,1.14537 -3.99239,2.67053 l -3.63076,2.77301 -0.009,1.54056 c -0.004,0.84731 0.18361,5.4921 0.41814,10.32174 0.23457,4.82967 0.64954,16.89225 0.92217,26.80575 0.27267,9.91352 0.59156,18.43268 0.70867,18.93152 0.1577,0.67175 1.10101,-3.48309 3.63754,-16.02183 1.88356,-9.31084 3.47954,-16.98655 3.54667,-17.05717 0.067,-0.0707 0.21043,-0.0383 0.31851,0.0719 0.10805,0.11011 -2.05933,14.24091 -4.81646,31.40173 l -5.01296,31.20155 -0.16138,20.48945 -0.16139,20.48946 3.84389,14.11485 c 3.25664,11.95851 3.85689,13.88844 3.92901,12.6326 0.0468,-0.81524 0.82477,-16.10988 1.72882,-33.98809 l 1.64368,-32.50583 3.83272,-30.34903 c 2.10799,-16.69197 3.84972,-30.37449 3.8705,-30.40561 0.0903,-0.13507 7.29717,-1.24485 7.40906,-1.14094 0.0682,0.0634 -0.0903,0.35882 -0.35244,0.65644 -2.24857,2.55294 -5.27201,41.63166 -8.86189,114.54253 -0.72516,14.72826 -0.77193,17.2874 -0.57953,31.69694 l 0.20934,15.67514 3.3154,12.05497 c 1.82348,6.6302 3.33467,12.2975 3.3582,12.5942 0.0331,0.4165 0.3205,0.54 1.2636,0.5432 2.90054,0.01 19.68773,-1.0107 19.8966,-1.2093 0.12652,-0.1202 2.28519,-3.8152 4.79702,-8.2108 l 4.56699,-7.99229 0.25008,-21.87596 c 0.13756,-12.03177 0.25815,-26.27809 0.268,-31.65851 0.0127,-6.89156 0.11613,-9.78255 0.3502,-9.78255 0.56693,0 2.09816,1.88887 2.98393,3.68089 1.77974,3.60069 3.59269,10.35863 4.97636,18.55007 2.41863,14.3184 4.40222,38.32794 4.40627,53.33345 l 0.003,5.7772 1.13396,0.026 c 0.62367,0.015 8.34596,0.2717 17.16061,0.5708 8.81467,0.2991 18.24541,0.5643 20.95721,0.5893 l 4.93056,0.045 0.72116,-1.6176 z m 19.49873,-121.45709 c 1.81104,-4.30491 4.41842,-18.81498 6.03781,-33.60033 1.46656,-13.38966 2.1125,-23.68698 2.32907,-37.12749 l 0.1762,-10.93799 -0.92165,-4.00546 c -2.03448,-8.84189 -5.26176,-18.97924 -8.87702,-27.88414 -2.2203,-5.46889 -6.90289,-15.4056 -7.25977,-15.4056 -0.55791,0 -3.04527,-2.65403 -4.30149,-4.58967 -3.87246,-5.96702 -8.32939,-16.83981 -13.96922,-34.0784 -1.7187,-5.2533 -3.12914,-9.41652 -3.1343,-9.25159 -0.005,0.16493 0.67762,3.89127 1.51736,8.28077 0.83973,4.38948 1.48609,8.15341 1.43635,8.36424 -0.0498,0.21084 -7.47444,6.77346 -16.49932,14.58351 l -16.40891,14.20015 1.28942,0.34034 c 3.67083,0.96891 4.96324,1.34475 5.41236,1.57393 0.27187,0.13873 3.63529,4.737 7.47431,10.21838 l 6.98,9.96613 2.73022,11.63585 2.73024,11.63582 14.18054,38.25697 c 7.7993,21.04135 15.04579,40.71783 16.10337,43.72552 1.05755,3.0077 2.02973,5.46875 2.16036,5.46899 0.13066,2.5e-4 0.49698,-0.61622 0.81407,-1.36993 z m 86.46205,-103.70202 10.10188,-6.92632 4.06944,-7.94141 c 5.12684,-10.00495 9.5469,-20.4375 9.46985,-22.35156 -0.0293,-0.73173 -0.61706,-5.37652 -1.30581,-10.32175 l -1.25223,-8.99133 -0.10686,-11.86231 -0.10686,-11.86231 1.22121,-4.13403 c 0.67167,-2.27372 1.16743,-4.18882 1.10169,-4.25582 -0.0657,-0.067 -4.52212,3.36898 -9.90305,7.63543 l -9.78357,7.75722 -1.93433,3.12302 c -10.2035,16.47389 -23.02546,26.13804 -38.30446,28.87084 -4.7406,0.84789 -12.34909,0.90681 -17.51765,0.13563 -12.64528,-1.88676 -26.3085,-7.68737 -39.95594,-16.96302 -4.59137,-3.12058 -10.29002,-7.498 -11.57394,-8.89057 -0.486,-0.52709 -1.02423,-2.111 -1.84059,-5.41645 -0.63456,-2.56936 -1.20061,-4.71114 -1.25791,-4.75953 -1.12501,-0.95044 -5.27038,-3.48669 -5.34184,-3.26831 -0.3253,0.99443 2.62602,12.10937 4.95635,18.66593 12.77954,35.95612 36.38439,59.25716 67.26066,66.39501 8.34326,1.92874 13.30082,2.41855 23.73759,2.34528 l 8.16451,-0.0574 10.10188,-6.92633 z m -229.33442,0.74883 c 6.54036,-0.46752 19.11357,-0.438 22.98162,0.0541 l 1.20956,0.15384 5.33845,-10.10376 5.33845,-10.10373 0.78584,-3.98232 0.78589,-3.98232 6.80854,-10.49895 c 3.7447,-5.77442 7.41393,-11.33086 8.15382,-12.34763 1.56266,-2.14734 3.06874,-5.01729 5.73273,-10.9241 1.62435,-3.60165 2.01229,-4.81365 2.60219,-8.13 0.38132,-2.14354 0.62609,-3.96581 0.544,-4.04949 -0.0821,-0.0836 -10.20904,4.29814 -22.50427,9.7373 -12.29522,5.43919 -22.71252,10.02078 -23.14956,10.18134 -0.73535,0.27016 -2.3412,-0.86075 -21.52314,-15.15748 l -20.72848,-15.44939 -12.48926,-18.38184 -12.48925,-18.38181 -0.65775,-2.98163 c -0.87047,-3.94581 -1.81565,-10.8982 -2.35955,-17.35595 -0.24264,-2.88085 -0.74758,-7.17901 -1.12212,-9.55148 -0.57329,-3.63165 -0.68336,-5.55563 -0.69633,-12.17043 -0.0139,-7.1425 0.0458,-8.10131 0.6576,-10.54568 2.03781,-8.1411 6.39702,-11.96024 13.62977,-11.94113 1.78095,0.004 2.82006,0.16558 6.86448,1.06273 0.83675,0.18562 0.76632,0.0672 -0.90716,-1.52641 -5.26074,-5.00945 -11.82604,-7.80454 -16.44946,-7.00324 -4.22605,0.73245 -8.07637,3.7864 -10.91766,8.65952 -2.8467,4.88235 -5.58771,13.77114 -6.94653,22.52666 -0.35503,2.28774 -0.75969,4.67949 -0.89921,5.31498 -0.1395,0.63551 -2.92384,6.00352 -6.18738,11.92895 l -5.93374,10.77351 -1.22349,5.78748 c -0.67294,3.1831 -1.16427,6.06479 -1.09184,6.40371 0.33774,1.58077 14.71609,75.61785 14.86941,76.56585 0.50731,3.13671 -2.12707,1.10702 31.8528,24.54098 27.15356,18.72627 31.46268,21.59794 32.25339,21.49451 0.50197,-0.0657 4.04242,-0.34315 7.86764,-0.61661 z m 193.98301,-51.09997 c 10.71688,-1.45528 19.57789,-5.44546 27.21635,-12.25563 2.16109,-1.92674 6.33506,-6.56583 7.06059,-7.84737 0.11361,-0.20064 -0.0251,-0.95471 -0.30823,-1.67569 -0.3749,-0.95472 -0.41772,-1.34386 -0.15758,-1.4322 0.83853,-0.28482 7.5377,-4.83054 10.39375,-7.05269 4.04234,-3.1452 9.19951,-8.22564 11.51115,-11.33997 1.01059,-1.36151 2.45226,-3.79264 3.2037,-5.40253 l 1.36629,-2.92706 0.41098,-7.96322 0.41098,-7.96319 2.4245,-4.93349 c 1.33348,-2.71342 2.37399,-4.98494 2.31228,-5.04782 -0.0617,-0.063 -1.87285,-0.50121 -4.02469,-0.97407 l -3.91243,-0.85973 -0.35924,-1.11564 c -0.19756,-0.61357 -0.52755,-1.94597 -0.73327,-2.96087 -0.37391,-1.84447 -0.37311,-1.84869 1.83545,-9.81663 1.21521,-4.38427 2.33076,-8.40988 2.47895,-8.94588 0.25256,-0.9134 0.5958,-1.11435 5.47873,-3.20723 2.86512,-1.22801 5.36253,-2.38399 5.54976,-2.56879 0.18727,-0.18484 0.75289,-1.60925 1.25692,-3.16536 l 0.91639,-2.82927 -1.70237,-4.18029 -1.70239,-4.18023 -3.53421,0 -3.53421,0 -1.58773,-3.0041 c -0.87327,-1.65226 -1.75915,-3.35072 -1.96867,-3.77438 -0.2095,-0.42365 -0.5366,-2.58663 -0.72689,-4.8066 l -0.34596,-4.0363 2.51446,-5.76639 2.51446,-5.76638 7.48414,-7.24494 c 6.12091,-5.92527 7.48467,-7.39482 7.4869,-8.06779 0,-0.45259 0.67714,-8.43701 1.50137,-17.74313 l 1.49864,-16.92025 -0.93336,-3.87731 -0.93332,-3.87731 -2.76553,-2.78771 c -11.52804,-11.62042 -35.09496,-19.28609 -67.16421,-21.84665 -3.15997,-0.25231 -8.39887,-0.53465 -11.64201,-0.62738 -3.24312,-0.0928 -14.07735,-0.54286 -24.07608,-1.00026 l -18.17947,-0.83162 -21.2824,2.85175 c -11.7053,1.56848 -21.62256,2.92827 -22.03834,3.02176 -0.56227,0.12645 4.93871,2.49716 21.46966,9.25261 l 22.22564,9.08264 2.11673,-0.17054 c 1.16422,-0.0938 4.0218,-0.37509 6.3502,-0.62507 13.23321,-1.4208 23.36569,-2.03461 33.58627,-2.03467 8.87602,-3e-5 12.86917,0.3183 16.06591,1.28085 1.13106,0.34056 13.04146,3.58189 26.46756,7.20295 13.42608,3.62103 24.52019,6.65242 24.65354,6.73641 0.13335,0.0841 0.63726,0.99431 1.11978,2.02297 l 0.87732,1.87027 4.94384,-2.62511 4.94379,-2.62511 0.90826,2.06259 c 0.49952,1.13443 0.80073,2.17216 0.66931,2.30606 -0.13142,0.13391 -2.37872,1.00743 -4.994,1.9412 l -4.75507,1.69773 -19.73206,1.87276 -19.73204,1.87281 -22.22994,-0.34293 -22.22996,-0.34294 -15.87546,-2.92139 c -8.73151,-1.60678 -17.23623,-3.1775 -18.89938,-3.49051 -1.66314,-0.313 -3.09194,-0.4654 -3.17509,-0.33864 -0.0831,0.12676 -3.07681,1.3831 -6.65257,2.7919 -3.57575,1.4088 -6.54339,2.5929 -6.5947,2.63133 -0.0513,0.0384 0.12056,0.59145 0.38195,1.22891 0.26142,0.63741 0.40399,1.2316 0.31688,1.32041 -0.0871,0.0888 -5.20836,-1.30804 -11.38047,-3.10401 l -11.22208,-3.26541 -6.05877,4.31752 c -3.33233,2.37465 -6.2637,4.39765 -6.51411,4.49556 -0.65945,0.25783 -0.43094,-0.0618 3.97353,-5.55785 2.1485,-2.681 3.85174,-4.93019 3.78498,-4.99821 -0.0668,-0.068 -1.02592,-0.21815 -2.13148,-0.33354 l -2.01009,-0.20985 -3.33614,2.12011 -3.33617,2.12012 0.18197,5.70007 c 0.10014,3.13505 0.20028,5.72636 0.22263,5.75849 0.0224,0.0322 7.92989,-0.90039 17.57229,-2.07223 9.64242,-1.17188 18.21205,-2.12743 19.04362,-2.12342 0.83157,0.004 3.08561,0.3194 5.00899,0.70083 3.87836,0.76917 3.57912,0.59192 10.29581,6.09883 l 2.90683,2.38325 0.81912,2.67694 c 0.45049,1.47229 0.8241,2.90206 0.83021,3.17723 0.007,0.27518 -1.36701,3.61994 -3.05132,7.43283 l -3.06237,6.93253 4.9777,4.92978 4.97773,4.92979 0.0931,6.47035 0.0931,6.47037 -2.41911,1.62957 c -1.33051,0.89626 -4.49745,2.90245 -7.03761,4.45817 -3.49375,2.13976 -4.48789,2.8814 -4.08226,3.04538 0.29492,0.11919 4.16357,1.79653 8.59697,3.72738 l 8.06075,3.51066 4.41283,5.21091 c 2.42708,2.86602 4.41284,5.38688 4.41284,5.60191 0,0.21504 -1.64981,3.84792 -3.66623,8.07306 l -3.66621,7.68214 -6.08588,2.8368 c -3.34721,1.56023 -6.19941,2.94028 -6.33821,3.0668 -0.13882,0.12649 0.0312,1.26006 0.37799,2.519 0.81948,2.97571 0.78987,3.69473 -0.41602,10.10657 l -1.0141,5.39196 1.9434,4.43669 1.94343,4.43672 -0.0816,6.31709 -0.0816,6.31714 -5.47564,3.91863 -5.47565,3.91864 -8.20749,-3.41556 c -7.37474,-3.06897 -9.02482,-3.8915 -7.8295,-3.90294 0.20789,-0.003 3.80031,0.92027 7.98318,2.0495 l 7.60519,2.0531 3.12964,-1.95284 c 1.7213,-1.07405 3.72596,-2.36224 4.45481,-2.86261 l 1.32516,-0.9098 -0.21735,-5.81783 -0.21737,-5.81784 -1.4303,-3.61374 c -0.78667,-1.9876 -1.55733,-3.57355 -1.71258,-3.52437 -0.15525,0.0492 -6.46074,5.10994 -14.0122,11.24608 -7.55142,6.13618 -13.85701,11.24181 -14.01241,11.34586 -0.16334,0.10938 -0.19116,0.93411 -0.066,1.9552 0.21101,1.72067 0.26348,1.80118 2.04498,3.13746 2.56723,1.92564 6.50588,4.37304 10.55618,6.55933 3.14845,1.69953 3.86575,1.95141 7.97269,2.79995 8.78639,1.81531 19.63827,3.51704 29.30892,4.59607 10.70762,1.19474 14.93346,1.40638 27.97104,1.40102 13.07543,-0.005 18.30429,-0.32126 25.6611,-1.55027 3.12976,-0.52283 3.06593,-0.51944 3.06593,-0.16296 0,0.85917 -14.23757,4.09807 -23.12595,5.26092 -22.35129,2.92417 -44.65598,0.0569 -63.65991,-8.18342 -2.90233,-1.25848 -7.01589,-2.5996 -7.97369,-2.5996 -0.13477,0 1.08126,6.91954 1.33485,7.59557 0.32527,0.86725 12.26879,6.96857 18.73443,9.57045 11.07458,4.45663 21.74313,7.37886 31.14615,8.53123 4.63322,0.56782 14.13403,0.59352 18.14338,0.0492 z M 426.08476,723.77868 c 14.90053,-6.04321 19.85749,-8.17596 19.2957,-8.30208 -0.41578,-0.0933 -1.69014,-0.25887 -2.83194,-0.36784 -11.11705,-1.06109 -24.73106,-6.97742 -36.01954,-15.65327 -2.10028,-1.6142 -2.96726,-2.08536 -4.33905,-2.35817 -2.74982,-0.54684 -5.78672,-1.52435 -8.08167,-2.60136 -12.79369,-6.00396 -24.42078,-23.09943 -33.01726,-48.5458 -3.14528,-9.31034 -7.07275,-24.4228 -6.499,-25.00741 0.15005,-0.15289 0.8948,1.3608 1.72761,3.51112 10.35426,26.73531 26.55699,52.3789 42.64403,67.49145 2.16209,2.0311 4.34168,4.01298 4.84353,4.40412 0.63666,0.49622 8.41145,2.94975 25.71864,8.1162 l 24.80615,7.40499 9.0562,0.75933 c 4.98091,0.41765 11.5376,0.93349 14.57037,1.14634 l 5.51423,0.38692 2.6503,-2.6025 c 1.45771,-1.43136 6.29034,-6.18732 10.73926,-10.56883 l 8.08892,-7.96632 -0.008,-1.73877 c -0.009,-2.00936 -0.86605,-4.3789 -2.41664,-6.67603 -1.35022,-2.00029 -5.46523,-6.35845 -7.29817,-7.72935 -1.26891,-0.94912 -1.52598,-1.03446 -2.1349,-0.70867 -1.57522,0.84273 -10.5206,7.08369 -16.96162,11.83363 -3.79236,2.79671 -7.01937,5.08493 -7.17111,5.08493 -0.21058,0 2.93189,-9.76824 4.0721,-12.65795 0.15489,-0.3925 -1.56363,-1.28862 -8.81663,-4.59744 -4.95492,-2.26043 -9.14504,-4.24222 -9.31136,-4.40399 -0.19207,-0.1868 6.60392,-0.22948 18.62736,-0.11696 l 18.92975,0.17717 5.11023,-3.25582 c 2.81062,-1.79072 5.27425,-3.41281 5.47473,-3.60466 0.20046,-0.19184 1.10264,-4.85469 2.00483,-10.36185 l 1.64034,-10.01303 -4.19581,-4.50638 c -2.30769,-2.47852 -4.37928,-4.66156 -4.60353,-4.8512 -0.3143,-0.26577 -3.62274,1.10424 -14.44046,5.97987 -7.71799,3.47857 -14.3266,6.4011 -14.68574,6.49455 -0.44582,0.11599 -5.53105,-2.04444 -16.02666,-6.80888 -14.33895,-6.50911 -17.21266,-7.90921 -15.18981,-7.40061 0.4337,0.10904 4.47789,0.9949 8.98707,1.96859 l 8.19848,1.77036 18.228,-1.73804 18.22799,-1.738 9.82766,-6.17983 c 11.35462,-7.14 10.75075,-6.47621 9.89897,-10.88144 -0.83974,-4.34303 -4.15532,-10.21215 -8.6894,-15.38172 l -1.66315,-1.89625 -23.5864,4.34278 c -12.97252,2.38855 -23.84061,4.42012 -24.15135,4.51461 -0.38694,0.11769 -0.52263,0.0403 -0.43061,-0.24563 0.0805,-0.25 8.85192,-3.20651 21.86708,-7.37052 21.55726,-6.89694 21.73477,-6.96039 21.98778,-7.85687 0.54693,-1.93815 0.6121,-7.60026 0.11497,-9.99309 -1.60297,-7.71562 -7.7224,-13.47682 -16.92787,-15.93691 l -1.95032,-0.5212 -19.19389,3.31002 -19.19388,3.31001 -3.99614,-1.15612 c -2.79061,-0.80735 -3.82769,-1.22447 -3.43778,-1.38272 0.30708,-0.12463 4.50452,-0.87633 9.32763,-1.67048 l 8.76931,-1.44392 7.17864,-3.88556 c 3.94824,-2.13708 7.18003,-3.95814 7.18176,-4.04684 0.003,-0.0887 -2.56022,-2.60404 -5.69319,-5.58965 l -5.69627,-5.42838 -2.98497,-6.79936 -2.98498,-6.79935 -0.9196,0.70795 c -0.50581,0.38939 -17.31671,13.01425 -37.35759,28.05526 l -36.43796,27.3473 -5.40035,5.43943 c -5.46763,5.50717 -11.52667,12.50085 -11.23988,12.97368 0.19676,0.32434 -0.56093,0.6307 -1.55983,0.6307 -1.28304,0 -4.32576,0.91691 -6.30382,1.89963 -8.56897,4.25713 -12.93131,14.05367 -13.35432,29.98996 l -0.15539,5.85414 1.10224,4.92979 c 1.21207,5.42096 1.8537,7.92704 3.27391,12.78666 l 0.94546,3.23518 11.96041,17.23243 c 9.85966,14.20562 12.22396,17.42567 13.46067,18.33266 0.82513,0.60514 10.14671,7.23669 20.71463,14.73682 14.78599,10.49373 19.36695,13.60018 19.87638,13.47872 0.36413,-0.0868 9.6853,-3.81744 20.7137,-8.29025 z m 176.00919,-1.00457 c -0.2079,-0.0854 -0.54809,-0.0854 -0.75598,0 -0.2079,0.0854 -0.0378,0.15542 0.37799,0.15542 0.41578,0 0.58588,-0.0699 0.37799,-0.15542 z M 276.74064,693.59936 c -0.11365,-0.19469 -15.96595,-20.28355 -35.22734,-44.64189 -19.2614,-24.35836 -35.02071,-44.44286 -35.02071,-44.6322 0,-0.18936 0.19011,-0.26993 0.42246,-0.1791 0.30703,0.12004 0.47735,-0.20773 0.62331,-1.19949 0.11046,-0.75055 0.32587,-1.36465 0.47867,-1.36465 0.15282,0 9.34347,9.87884 20.42367,21.95299 l 20.14582,21.95298 16.06621,21.56785 c 9.36625,12.57358 16.05748,21.8248 16.04526,22.18405 -0.0115,0.33893 -0.13434,0.89354 -0.27291,1.23246 -0.23719,0.58012 -0.21795,0.58689 0.3285,0.1153 4.87879,-4.21042 14.50907,-12.71644 14.56753,-12.86692 0.0424,-0.10919 -1.04617,-0.60284 -2.41912,-1.097 -3.64433,-1.31164 -9.07269,-4.15901 -12.18008,-6.38889 -3.57661,-2.5666 -10.07784,-9.15839 -12.96816,-13.1488 -5.40575,-7.46328 -9.69512,-16.21474 -13.16496,-26.86004 -2.60767,-8.00026 -4.95889,-18.68389 -5.76141,-26.17908 -0.19052,-1.77935 -0.40382,-3.53356 -0.47402,-3.89824 -0.0702,-0.36472 -11.94267,-14.95847 -26.38325,-32.43058 l -26.2556,-31.76749 0.13231,-5.1591 c 0.0728,-2.83752 0.2206,-5.70323 0.32849,-6.36827 l 0.19615,-1.20915 27.36181,34.78515 27.36181,34.78514 4.20044,1.29261 c 2.31026,0.71097 4.43408,1.54658 4.71963,1.8569 0.66568,0.72351 37.19414,52.73831 37.37639,53.22224 0.10675,0.28346 -4.24505,6.59492 -5.27692,7.6531 -0.12292,0.12607 -7.83774,-10.83689 -17.14404,-24.36215 -9.3063,-13.52522 -16.96035,-24.4306 -17.00901,-24.23415 -0.0486,0.19646 0.7934,3.46433 1.87123,7.26193 8.4873,29.90399 19.29366,50.76155 30.32582,58.53238 2.39258,1.68529 5.1745,2.95998 5.54148,2.5391 0.11853,-0.13592 0.91292,-3.11391 1.76532,-6.61772 l 1.54981,-6.37059 7.12572,-14.88915 7.12575,-14.88915 -0.19227,-2.46489 c -0.15167,-1.94478 0.14437,-8.12933 0.55523,-11.59944 0.0395,-0.33323 -13.33267,-11.79432 -38.94819,-33.3821 l -39.00827,-32.87466 -5.77172,-10.83199 c -33.84054,-63.50986 -44.57617,-83.74936 -44.57617,-84.03784 0,-0.18712 2.50686,2.10907 5.57079,5.10259 l 5.5708,5.44277 12.69438,23.78151 c 16.20372,30.35583 24.8173,46.57085 27.9363,52.58994 l 2.47471,4.77574 2.73749,2.13097 c 5.43278,4.22908 41.20201,31.77735 57.54563,44.31973 9.18887,7.05167 16.70704,12.65394 16.70704,12.44948 0,-0.95076 2.99169,-5.43903 4.9523,-7.42966 2.41738,-2.45436 5.38722,-4.14878 8.61038,-4.91257 1.05638,-0.25034 1.97527,-0.51078 2.04198,-0.57875 0.0667,-0.0679 -10.73111,-7.68413 -23.99514,-16.92485 l -24.11642,-16.80125 -3.47748,-1.08194 c -6.89261,-2.14444 -12.07746,-4.13911 -13.82504,-5.31867 -3.80772,-2.57005 -8.24487,-7.25637 -13.09238,-13.8276 -1.71606,-2.32625 -3.18305,-3.79652 -7.24284,-7.25911 -3.84048,-3.27552 -5.05576,-4.47904 -4.94776,-4.89985 0.33702,-1.31318 -3.03916,-11.87193 -4.75104,-14.85856 -2.85875,-4.98746 -7.60092,-14.05355 -11.91767,-22.78421 l -4.6493,-9.4032 0.31418,-1.39899 0.31419,-1.39895 -2.35618,-3.06285 c -8.3873,-10.90282 -14.14466,-22.78581 -16.20317,-33.4427 -0.81081,-4.19756 -0.95392,-11.39354 -0.29963,-15.06667 1.20928,-6.78876 4.26715,-13.20662 8.88778,-18.65364 0.95369,-1.12423 1.64148,-2.19659 1.52844,-2.38296 -0.51518,-0.84936 -4.92817,-6.60849 -5.28921,-6.90261 -0.22256,-0.18132 -3.1942,-1.37109 -6.60365,-2.64394 l -6.19898,-2.31423 -0.63856,3.73906 c -1.50098,8.78897 -3.49336,13.44549 -6.34229,14.82296 -1.85345,0.89615 -2.85916,0.4724 -5.82786,-2.45559 -4.49623,-4.43453 -7.59298,-6.60919 -11.15072,-7.83039 -2.77876,-0.95379 -5.00008,-0.86123 -7.28808,0.30374 -1.9142,0.97465 -3.9809,3.11338 -3.9809,4.11971 0,0.29489 -1.06876,1.84562 -2.37503,3.44602 -1.68864,2.06884 -2.34576,3.10684 -2.27375,3.59156 5.72889,38.56617 16.83917,68.84238 30.87323,84.13158 1.06512,1.16037 1.52905,1.46091 2.08724,1.3522 0.47108,-0.0918 0.71773,0.004 0.71773,0.27965 0,0.23069 -0.19984,0.41943 -0.4441,0.41943 -0.27051,0 -0.37606,0.18065 -0.27004,0.46217 0.1825,0.48461 -0.34347,0.65385 -0.6192,0.19925 -0.0876,-0.14459 -1.17961,-0.34151 -2.42647,-0.43758 -3.24,-0.24969 -5.61362,-1.51566 -9.00211,-4.80124 -1.46674,-1.42221 -3.52732,-3.7818 -4.57906,-5.24349 -7.65807,-10.6432 -15.80508,-29.52804 -23.07848,-53.49614 l -0.84151,-2.773 -0.19906,2.00272 c -0.33299,3.35004 -0.29049,12.23399 0.0762,15.9188 0.27258,2.73954 0.26617,3.57422 -0.0303,3.93815 -0.31267,0.38389 2.29543,5.80607 15.45397,32.12864 13.65518,27.31605 15.84406,31.87851 15.93161,33.2074 0.0559,0.84731 0.007,3.82169 -0.11049,6.60974 -0.16305,3.89918 -0.29117,4.95799 -0.55507,4.58736 -0.18871,-0.26501 -8.30351,-16.02522 -18.0329,-35.0227 l -17.6898,-34.54085 -0.54271,1.60718 c -1.01717,3.0122 -1.4962,7.41941 -1.31334,12.08302 0.363,9.25821 1.75122,15.04 6.64488,27.67527 l 3.67808,9.49669 21.65297,28.43249 21.65295,28.43249 0.20555,3.97409 c 1.00434,19.41753 5.07989,36.43332 12.12749,50.63326 1.1891,2.39587 1.64369,2.94533 4.93926,5.97023 10.17058,9.33514 31.79207,33.08328 52.79045,57.9828 3.28695,3.89762 6.31284,7.399 6.7242,7.78088 l 0.74792,0.69426 3.0048,-2.65114 c 1.80506,-1.5926 2.92229,-2.79248 2.79816,-3.00511 z m 384.87645,3.16543 c 1.34657,-1.14875 1.40152,-1.26213 1.58845,-3.279 0.10643,-1.14901 0.19459,-2.97397 0.19578,-4.0555 l 0.003,-1.9664 5.29182,-8.4569 c 4.463,-7.13237 5.29182,-8.63978 5.29182,-9.62446 0,-1.54226 -0.80753,-6.24014 -1.40929,-8.19853 l -0.47879,-1.55831 2.00241,-3.90951 c 1.30546,-2.54877 2.0024,-4.26855 2.0024,-4.94101 0,-0.68397 -1.10907,-3.35724 -3.29202,-7.93506 -1.81062,-3.79698 -3.2526,-6.94792 -3.2044,-7.00212 0.24025,-0.27008 2.56402,1.28418 3.67939,2.46098 2.25643,2.38073 3.39109,5.42567 3.42514,9.19176 0.01,1.1015 0.1935,2.32486 0.40789,2.71857 0.38724,0.71124 0.40055,0.70397 2.06695,-1.13001 1.91619,-2.10887 2.82448,-3.83276 3.34069,-6.34033 0.3059,-1.4859 0.28245,-2.05652 -0.15401,-3.75215 -0.2831,-1.09984 -0.88376,-2.65205 -1.33478,-3.44935 -1.05827,-1.87068 -4.89511,-5.79697 -7.14414,-7.31067 -1.29216,-0.86967 -1.64234,-1.24632 -1.32622,-1.42656 1.61543,-0.92116 26.68097,-10.64614 30.45839,-11.81732 5.31008,-1.64637 5.6455,-1.88035 8.83105,-6.16024 2.10421,-2.82712 3.39154,-5.40786 3.87074,-7.75984 1.17645,-5.77409 -4.33485,-9.83574 -14.82871,-10.92836 -1.7463,-0.18185 -3.49012,-0.4818 -3.87515,-0.66657 -0.69562,-0.33382 -0.69604,-0.33748 -0.0652,-0.57524 1.77058,-0.66739 5.82384,-5.0434 7.748,-8.36497 1.74597,-3.01399 2.32235,-5.19268 2.1737,-8.2163 -0.10295,-2.09461 -0.29885,-2.95825 -0.97823,-4.31357 -1.92704,-3.84444 -5.66025,-7.09154 -11.54168,-10.03885 l -3.56296,-1.78548 -7.56017,-1.00879 c -4.15807,-0.55485 -7.58342,-0.97934 -7.6119,-0.94335 -1.32468,1.67565 -4.52378,5.33456 -4.73606,5.41686 -0.16102,0.0624 -0.21941,-0.14555 -0.12975,-0.46216 0.15729,-0.55541 1.09151,-5.38204 1.20542,-6.22781 0.0362,-0.26881 -0.7936,-0.66574 -2.36276,-1.13035 -1.33022,-0.39379 -2.45105,-0.68296 -2.49072,-0.6425 -0.0397,0.0405 -0.27345,4.36196 -0.51945,9.60338 -0.24599,5.24146 -0.53227,10.77056 -0.63616,12.28693 l -0.18891,2.75705 1.31256,-1.18894 c 0.72189,-0.6539 4.6196,-4.30202 8.66159,-8.10695 4.04194,-3.80491 7.38236,-6.86761 7.42312,-6.80601 0.0408,0.0616 0.66311,0.84546 1.38298,1.74191 0.71987,0.89645 1.25761,1.67323 1.19496,1.72613 -0.0626,0.0529 -1.67876,1.32457 -3.59137,2.82592 -19.97723,15.68145 -32.04784,28.88273 -35.41129,38.72824 -1.10251,3.22732 -1.19979,6.70738 -0.24751,8.85535 0.75048,1.69283 2.4507,3.5399 4.01602,4.36284 l 1.16646,0.6133 2.00863,-1.37554 c 1.10472,-0.75654 9.67571,-6.77607 19.04665,-13.37672 l 17.03809,-12.00119 1.62347,0.46042 c 0.89292,0.25324 1.56876,0.55063 1.5019,0.66085 -0.0668,0.11023 -7.83038,5.94449 -17.2523,12.965 -9.42192,7.02055 -17.27721,13.04344 -17.4562,13.38419 -0.17896,0.34077 -0.37944,1.59093 -0.44545,2.77815 -0.13241,2.38047 0.37424,3.64419 1.85824,4.63496 1.05674,0.70548 3.93573,0.9089 6.40967,0.45282 2.35562,-0.43424 4.34967,-0.65895 3.89683,-0.43908 -0.16631,0.0807 -2.34352,0.95212 -4.83823,1.93636 l -4.53584,1.78954 -0.79551,2.90017 c -0.43752,1.5951 -0.75569,2.94571 -0.70707,3.00135 0.0486,0.0556 1.05126,-0.25271 2.22807,-0.68524 l 2.13965,-0.78642 0.18067,0.73358 c 0.0994,0.40343 0.0221,1.0355 -0.17175,1.40456 -0.69883,1.33049 -3.78541,2.01718 -4.99984,1.11238 -0.51703,-0.38523 -0.89909,-0.26677 -3.61086,1.11955 -7.12295,3.64142 -11.13919,7.53759 -12.40832,12.03733 -0.65664,2.32812 -0.39755,4.24859 0.94095,6.9747 0.56525,1.15123 1.73042,2.82051 2.5893,3.70957 1.85978,1.92511 0.37085,2.00572 13.35283,-0.72289 l 9.32177,-1.95932 0.25703,0.68891 c 0.6838,1.83254 1.0089,1.66457 -6.80498,3.51553 l -7.25735,1.71912 -2.87467,5.85412 c -3.89251,7.92692 -5.44105,12.92623 -5.44105,17.566 0,6.50788 4.25284,10.02226 11.48779,9.49306 2.07763,-0.152 2.3802,-0.26406 3.65967,-1.35557 z m -141.74498,-13.498 c 5.12966,-4.09132 9.56913,-7.57102 9.86544,-7.73262 0.8019,-0.43727 1.72361,-2.68721 1.95861,-4.78098 0.26368,-2.34942 -0.46837,-7.10747 -1.29363,-8.40805 -0.20417,-0.32178 -1.66704,-0.27411 -7.71366,0.2513 -4.10394,0.35662 -7.81868,0.60464 -8.25499,0.55119 -0.51231,-0.0629 0.74696,-0.57037 3.55574,-1.43319 2.39196,-0.73479 9.38548,-3.41794 15.54113,-5.96261 l 11.19212,-4.62664 1.7505,-5.08108 1.75051,-5.08107 -3.68308,-5.75914 -3.68308,-5.75914 -9.99507,-4.47148 c -5.49729,-2.45929 -10.03641,-4.60357 -10.08694,-4.76502 -0.0506,-0.16148 3.65919,-2.63605 8.24384,-5.49908 5.92282,-3.69874 8.41624,-5.42139 8.61393,-5.95122 1.28798,-3.45175 -2.5843,-11.11773 -7.70394,-15.25149 l -1.4808,-1.19565 -8.42247,0.2157 c -5.1767,0.13262 -8.42246,0.10467 -8.42246,-0.0725 0,-0.15852 3.59566,-1.11582 7.99032,-2.12736 l 7.99031,-1.83911 1.20131,-2.00289 c 6.53974,-10.90356 6.22514,-17.91438 -0.95985,-21.38782 -6.88653,-3.32911 -19.17958,-3.32822 -36.2554,0.003 -2.28683,0.44609 -4.15668,0.89938 -4.15523,1.00738 0,0.10796 0.83278,0.74132 1.84739,1.40742 1.01458,0.66611 2.91739,2.23932 4.22846,3.49602 6.55375,6.28198 8.60661,13.43314 6.01393,20.9494 -0.32667,0.94704 -0.56167,1.73443 -0.52217,1.74981 2.77924,1.08128 6.61217,3.64225 9.25905,6.18643 5.9031,5.67407 8.22192,12.85902 6.95379,21.5467 -0.18651,1.27787 -0.46671,2.32342 -0.62262,2.32342 -0.15592,0 -0.20904,0.12268 -0.11809,0.27267 0.14279,0.23539 -3.80862,2.19736 -11.39371,5.65726 -1.12262,0.51207 -2.04113,1.04322 -2.04113,1.18036 0,0.13711 0.75725,1.15882 1.6828,2.27043 1.3463,1.61699 1.81489,1.98898 2.34352,1.86034 3.10031,-0.75429 21.37441,-4.33097 21.37441,-4.18348 0,0.10467 -4.11628,1.97924 -9.14728,4.16577 -5.03101,2.18651 -9.2142,4.03242 -9.29597,4.10199 -0.0818,0.0696 0.6364,0.844 1.59595,1.72096 0.95951,0.87697 1.74082,1.84735 1.7362,2.15638 -0.007,0.46479 -3.24879,19.01923 -3.82087,21.86847 -0.15135,0.75374 -0.72287,1.1418 -4.53053,3.07619 -2.39654,1.21754 -4.35684,2.28521 -4.35623,2.37264 0,0.0874 0.64699,0.42739 1.43635,0.75544 2.32036,0.9643 4.88402,3.82219 6.53993,7.29051 1.49015,3.12118 2.81855,7.80201 3.11764,10.98562 0.12634,1.34484 0.28186,1.8451 0.51516,1.65718 0.18382,-0.14808 4.53119,-3.61669 9.66086,-7.70804 z M 357.04689,597.80765 c -0.0765,-2.13973 -0.42561,-2.61396 -5.86083,-7.96016 -20.41536,-20.08102 -46.41682,-45.96571 -46.41682,-46.20834 0,-0.15966 0.10209,-0.28775 0.2268,-0.28463 0.12473,0.003 11.31693,8.30448 24.87155,18.44744 24.00409,17.96235 24.65069,18.42075 24.87237,17.63375 0.12519,-0.44443 0.15089,-1.17767 0.0572,-1.62943 -0.0937,-0.45179 -0.0293,-1.0757 0.14351,-1.3865 0.17266,-0.31082 0.52553,-2.08977 0.78413,-3.95324 0.25856,-1.86346 0.63589,-3.54568 0.83844,-3.73826 0.20253,-0.19256 1.93314,-1.63589 3.84575,-3.20735 1.91261,-1.57149 3.45281,-2.9457 3.42263,-3.05382 -0.0303,-0.10811 -1.61327,-3.10214 -3.518,-6.65334 -1.90472,-3.55121 -4.61594,-8.65552 -6.02494,-11.3429 l -2.56178,-4.88617 -15.08749,-7.85242 c -8.29812,-4.31883 -15.10926,-7.87405 -15.13591,-7.90049 -0.1023,-0.10161 1.39538,-7.68544 1.54857,-7.84153 0.089,-0.0906 4.91474,2.21511 10.72404,5.12384 5.80927,2.90873 10.64466,5.28859 10.7453,5.28859 0.10067,0 -0.842,-2.06189 -2.09478,-4.58196 -1.25277,-2.52012 -2.27775,-4.73852 -2.27775,-4.9298 0,-0.61564 0.49743,-0.37079 0.85045,0.41859 0.18847,0.42156 8.45436,13.88206 18.36859,29.91227 9.91425,16.03018 17.95485,29.2182 17.86801,29.30669 -0.0868,0.0885 -2.58172,-1.98717 -5.54414,-4.61256 -2.9624,-2.62539 -5.52227,-4.77759 -5.68859,-4.78264 -0.48122,-0.0146 -9.95013,9.1624 -10.24699,9.93104 -0.2062,0.53396 0.34446,2.57314 2.38492,8.83162 1.45915,4.47552 2.69278,8.18528 2.74138,8.24386 0.0957,0.11532 42.54456,-32.33386 43.49628,-33.24982 0.56035,-0.53929 0.3485,-0.67111 -7.40855,-4.60856 l -7.98542,-4.05336 -4.95856,-5.2869 c -6.68625,-7.12901 -14.03829,-14.68434 -14.28918,-14.68434 -0.11245,0 2.02906,4.16878 4.75898,9.26394 2.72992,5.09519 4.96091,9.42801 4.9578,9.62851 -0.009,0.53118 -5.18904,2.79457 -5.6626,2.47391 -0.21177,-0.14339 -6.85754,-9.75825 -14.76839,-21.36636 -7.91087,-11.60812 -14.47719,-21.08193 -14.59181,-21.05287 -0.11464,0.0289 -1.41795,-0.83754 -2.89621,-1.9257 l -2.68772,-1.97851 -10.81338,0 -10.81332,0 -0.17563,1.15542 c -0.0966,0.63548 -0.31754,2.37721 -0.49099,3.8705 -0.30197,2.59963 -0.36314,2.75539 -1.4385,3.66259 -0.61773,0.52111 -3.06729,2.97356 -5.44347,5.44989 -4.1073,4.28038 -4.45166,4.73787 -6.98448,9.27811 -6.57405,11.78445 -13.10282,25.9461 -13.77842,29.88688 l -0.18488,1.07839 3.86476,2.45343 c 2.12561,1.34938 14.05704,9.09762 26.51425,17.21832 12.45722,8.12069 22.89541,14.83039 23.19598,14.9105 0.80623,0.21481 13.63584,2.47759 14.25448,2.51404 0.40843,0.0239 0.52102,-0.19729 0.49341,-0.97016 z m -71.33337,-37.531 c -1.67079,-5.93593 3.7944,-16.34556 16.92116,-32.23009 1.4235,-1.72253 3.74479,-4.96594 5.15846,-7.20755 1.47626,-2.34085 3.50612,-5.06435 4.76887,-6.39843 l 2.19853,-2.32284 1.96272,-53.0164 1.96272,-53.01642 1.63289,-9.85958 c 1.24682,-7.52833 1.59324,-10.29612 1.46505,-11.70577 -0.14544,-1.59937 -0.10855,-1.79598 0.27591,-1.47086 0.37965,0.32102 0.50039,0.02 0.83547,-2.08228 0.21543,-1.35163 0.47753,-2.45397 0.58249,-2.44962 0.10491,0.004 4.1783,9.10167 9.05188,20.21621 7.78554,17.75545 9.52199,22.05607 8.11256,20.09202 -0.2004,-0.27923 -4.30555,-7.85137 -9.12259,-16.82698 -5.35421,-9.97657 -8.79715,-16.08527 -8.85838,-15.71713 -0.0551,0.33118 0.25998,5.13053 0.7002,10.66524 0.73521,9.24366 1.03427,11.46808 3.6729,27.31737 3.82821,22.99508 7.92728,47.04332 8.03673,47.14974 0.0486,0.0473 2.65637,-10.68077 5.79508,-23.84002 3.13871,-13.15928 5.82621,-24.05767 5.9722,-24.21866 0.39256,-0.43289 0.33402,2.75717 -0.34536,18.81971 -0.54152,12.80317 -0.86635,17.07929 -2.86403,37.70346 -1.23928,12.79435 -2.33242,23.84432 -2.42921,24.55555 -0.16368,1.20265 -0.11249,1.32651 0.7323,1.77163 0.49951,0.26319 0.9677,0.47857 1.04033,0.47857 0.0727,0 2.50878,-2.62265 5.41357,-5.82814 l 5.28148,-5.82812 0.19159,-5.03282 c 0.10535,-2.76805 0.34228,-11.8267 0.52643,-20.13032 0.30868,-13.91874 0.4385,-16.2161 1.66254,-29.4247 2.48555,-26.82088 3.44253,-37.7372 3.7545,-42.82758 0.37206,-6.0711 0.64192,-9.54383 3.19614,-41.13295 1.31796,-16.29991 2.31104,-31.00773 3.00611,-44.5222 3.33543,-64.84893 3.07936,-60.77385 4.68517,-74.56313 1.35712,-11.65372 1.63998,-15.36641 3.19248,-41.90323 l 1.70342,-29.1166 8.16934,-30.19498 c 8.55481,-31.61978 8.77951,-32.33988 13.69761,-43.892952 3.97727,-9.343078 7.79613,-17.021526 9.31569,-18.730827 0.86063,-0.968095 1.62266,-0.895568 1.77602,0.169036 0.19886,1.38053 -0.52186,5.708051 -1.86006,11.168933 -1.33939,5.465701 -3.95262,14.020919 -18.4415,60.37403 l -9.38975,30.03983 -2.58153,46.37197 c -1.41984,25.50457 -2.54213,46.83482 -2.49395,47.40057 0.0681,0.79941 0.68355,-0.67673 2.76196,-6.62441 1.47089,-4.20916 6.95923,-19.92183 12.19632,-34.91701 5.23705,-14.9952 9.6246,-27.4509 9.75007,-27.67937 0.30136,-0.54869 0.58693,19.07443 0.79293,54.48119 0.16404,28.19864 0.14865,29.28132 -0.72671,51.14659 -0.49184,12.28598 -1.989,41.33324 -3.32701,64.54948 l -2.43276,42.21135 -0.25802,26.95982 c -0.14191,14.82789 -0.26088,28.20765 -0.26442,29.73281 -0.01,4.25463 -1.34469,8.48906 -4.38041,13.89524 -4.82551,8.59349 -16.79805,21.16594 -29.82014,31.31432 l -3.39777,2.64797 3.91338,3.58849 c 4.31906,3.96047 4.13542,3.9012 5.99212,1.93405 l 0.99318,-1.05226 1.64049,0.56431 c 6.7503,2.32198 13.42568,0.49164 18.47752,-5.06644 3.16488,-3.48204 5.39041,-7.55929 7.50504,-13.74938 2.00857,-5.87971 2.51976,-8.81789 4.40077,-25.29512 l 1.81144,-15.86777 4.71328,-19.71917 4.71326,-19.71917 -0.0335,-4.66891 c -0.0184,-2.5679 0.17224,-15.60104 0.42368,-28.96254 0.25143,-13.3615 0.51488,-29.14638 0.58543,-35.07753 0.0705,-5.93116 0.20553,-10.9919 0.29991,-11.2461 0.0944,-0.25419 1.0645,-13.70327 2.1558,-29.88687 1.09125,-16.18359 2.72078,-39.68483 3.62111,-52.22499 1.52858,-21.29073 1.69949,-24.80966 2.58153,-53.14933 0.93765,-30.1274 0.95882,-30.53716 2.89771,-56.10323 l 1.95314,-25.75417 4.53131,-12.37117 4.53131,-12.37116 3.61129,-15.794271 c 2.73324,-11.954073 3.91722,-17.816947 4.86962,-24.113297 0.6921,-4.575463 1.29985,-8.364592 1.35056,-8.420287 0.68882,-0.756539 0.46499,30.468195 -0.27571,38.461214 -1.98598,21.430871 -5.66842,35.269341 -11.44122,42.995441 l -1.62184,2.1706 -3.24727,24.32704 -3.2473,24.32705 -1.17047,27.57603 c -0.64378,15.16682 -1.14409,27.60445 -1.11186,27.63919 0.0322,0.0347 4.01822,-5.31655 8.85773,-11.89174 l 8.79912,-11.9549 7.29721,-13.38862 c 4.0135,-7.36373 7.35045,-13.6591 7.41553,-13.98967 0.0651,-0.33059 0.66078,-1.77959 1.32389,-3.22001 1.15292,-2.50446 7.63978,-20.77462 18.21447,-51.30067 2.7004,-7.79523 5.03854,-14.3118 5.19588,-14.48126 0.31189,-0.33595 0.2524,0.37228 -0.71167,8.47308 -4.96068,41.68298 -22.10149,83.40018 -46.46128,113.07713 -2.86916,3.49542 -7.68632,8.47816 -9.23411,9.55148 -0.6397,0.44362 -1.11657,1.03162 -1.12443,1.3865 -0.008,0.33893 -0.32945,3.94384 -0.71546,8.01092 -0.38596,4.06707 -0.68494,7.4198 -0.66441,7.45049 0.0206,0.0307 5.87268,-6.00059 13.00475,-13.40287 7.13205,-7.40228 13.09638,-13.50931 13.25405,-13.5712 0.1577,-0.0619 0.23967,0.11166 0.18222,0.38565 -0.0575,0.27398 -5.89932,8.85161 -12.98189,19.06139 l -12.87742,18.56326 -1.43955,12.69784 c -0.79175,6.98381 -1.38619,12.86095 -1.32096,13.0603 0.36162,1.10549 37.63966,-32.45473 42.12288,-37.92192 1.47645,-1.8005 1.96553,-2.18273 1.96553,-1.53615 0,0.28916 -4.18597,7.15799 -14.91304,24.47093 -2.09556,3.38211 -3.7705,6.18966 -3.72208,6.23899 0.0484,0.0493 1.57363,-0.12472 3.38936,-0.38675 4.689,-0.67667 10.1886,-0.66453 11.86959,0.0261 0.72095,0.29626 1.40133,0.78042 1.51195,1.0759 0.17487,0.46724 1.28361,0.0202 8.50788,-3.43052 l 8.3068,-3.96776 2.42803,-2.43283 c 1.33542,-1.33805 7.56044,-7.47826 13.83339,-13.64491 l 11.40539,-11.21209 11.48071,-14.99349 c 7.90695,-10.32623 12.13719,-16.12626 13.58969,-18.63247 6.69791,-11.55713 16.15107,-30.17934 19.9904,-39.37998 2.61812,-6.27418 4.93149,-13.13893 5.88024,-17.44902 0.70408,-3.1988 0.78726,-4.22414 0.78706,-9.70196 -1.6e-4,-3.36882 -0.13989,-7.65029 -0.31056,-9.51437 -1.43399,-15.66253 -6.46503,-31.57102 -14.02375,-44.34404 -1.88151,-3.17942 -2.24455,-4.10998 -1.28783,-3.30095 1.38301,1.16952 8.21087,11.70919 11.69963,18.05993 8.49132,15.457 11.61397,30.25406 8.33005,39.47244 -0.67926,1.90669 -0.68343,1.97494 -0.12129,1.97494 1.08984,0 2.34126,0.92466 3.14669,2.32504 1.16612,2.02748 2.41982,6.26354 3.00503,10.1535 0.28041,1.86407 2.53996,13.80092 5.02119,26.52633 3.50548,17.97852 4.8392,25.53503 5.98206,33.89232 1.36692,9.99597 1.54636,10.92925 2.54146,13.22013 2.46562,5.67626 3.40874,13.39946 3.13838,25.70011 -0.19453,8.84936 -0.61582,13.76485 -2.0613,24.04961 -0.64373,4.58038 -0.82716,6.64879 -0.59656,6.7271 0.47458,0.16118 0.4118,2.89815 -0.11388,4.96512 -0.24575,0.96641 -0.86453,2.78888 -1.37499,4.04993 -0.89553,2.21218 -2.60739,9.12851 -2.32949,9.4117 0.28147,0.28675 5.4585,-5.5916 8.11118,-9.20999 8.64451,-11.79156 14.05513,-25.1766 16.34238,-40.42838 0.77154,-5.14496 1.07406,-16.0869 0.59195,-21.41379 -0.54318,-6.00213 -3.17073,-21.34281 -6.57026,-38.35995 -10.79776,-54.05057 -23.25996,-91.0249 -35.17064,-104.34856 -2.3562,-2.63571 -4.24897,-4.00084 -6.51953,-4.70207 -8.22337,-2.53965 -26.30601,-13.647417 -48.77492,-29.961397 -2.87696,-2.088849 -5.30156,-3.797916 -5.38801,-3.797916 -0.0865,0 0.12422,0.402693 0.46815,0.894871 0.34397,0.492179 0.62538,1.048108 0.62538,1.235394 0,0.187285 1.08673,1.730447 2.41498,3.429244 6.82478,8.728768 12.29053,19.37968 14.61872,28.486874 1.73542,6.78847 1.87098,8.17387 1.79393,18.33266 -0.0392,5.16859 -0.28555,12.82639 -0.54741,17.01735 l -0.47612,7.61992 -3.74582,15.37974 -3.7458,15.37973 -9.56498,24.14149 c -5.26073,13.27782 -9.7735,24.47235 -10.02841,24.87673 -0.25492,0.40436 -4.17622,5.19881 -8.71401,10.6543 -4.53777,5.45549 -8.59844,10.6187 -9.02369,11.47379 -0.74017,1.48827 -1.24909,1.93969 -2.18674,1.93969 -0.67985,0 -0.52461,-0.34449 1.04207,-2.31213 1.1248,-1.41271 4.11114,-7.32075 12.69215,-25.10984 l 11.22126,-23.26246 9.83586,-27.20772 c 5.40974,-14.96425 9.83588,-27.63814 9.83588,-28.16423 0,-0.52608 -0.7537,-9.27745 -1.6749,-19.44751 -1.78674,-19.72546 -1.962,-20.88709 -4.39121,-29.103107 -3.81792,-12.912809 -8.51445,-21.514747 -13.70403,-25.099669 -1.01791,-0.703141 -2.19091,-1.604585 -2.60669,-2.003201 -1.36326,-1.306978 -5.77516,-3.84873 -13.30515,-7.665299 -6.27259,-3.179261 -9.86589,-4.710202 -23.4352,-9.984689 -8.81467,-3.426319 -16.2491,-6.293266 -16.52098,-6.370986 -0.27188,-0.07773 -2.27898,0.574846 -4.46025,1.450159 l -3.96593,1.591473 -5.39862,-2.951332 -5.39866,-2.951328 -10.4651,0 c -9.50629,0 -10.70861,0.05818 -13.12275,0.634895 -1.46168,0.349194 -3.98277,0.907125 -5.6024,1.239853 -3.71525,0.763233 -7.1637,2.000587 -11.49516,4.124613 -12.82795,6.290478 -31.27472,19.654952 -53.60478,38.83606 -10.54397,9.057091 -11.73448,10.214707 -14.35181,13.955308 -5.34665,7.64131 -11.64796,17.65692 -16.14293,25.6584 -2.15049,3.82808 -2.66064,5.49837 -3.37757,11.0585 -1.01673,7.88532 -0.83788,20.07924 0.48818,33.2832 0.80944,8.05994 1.11283,9.8907 1.7132,10.33802 0.79884,0.59518 3.75149,1.4481 4.03014,1.16417 0.14012,-0.14276 4.0817,-12.94531 8.75903,-28.45009 4.67737,-15.50477 8.6296,-28.32222 8.78273,-28.48321 0.172,-0.18084 0.27651,-0.004 0.27342,0.46217 -0.003,0.41517 -2.21924,13.01466 -4.92554,27.99885 l -4.92051,27.244 -3.1275,1.1319 -3.12749,1.13189 5.64767,6.02226 5.6477,6.02224 2.48093,0.34861 c 1.3645,0.19173 2.96106,0.42172 3.54787,0.51112 0.97748,0.14886 1.2409,0.44435 3.14045,3.52271 1.14036,1.8481 3.4838,5.11858 5.2076,7.2677 1.85305,2.31025 3.12768,4.17344 3.11827,4.55812 -0.009,0.35785 -0.199,1.69051 -0.42277,2.96147 -0.22376,1.27096 -0.32407,2.44949 -0.22292,2.61896 0.10111,0.16946 2.99124,4.41098 6.42243,9.42559 l 6.23851,9.11749 0.51515,4.59351 c 2.21984,19.79314 3.80887,34.67583 3.81147,35.69741 0.003,0.71161 0.11273,1.09547 0.26707,0.92434 0.14521,-0.16099 1.16538,-3.06573 2.26705,-6.45496 4.44876,-13.68614 11.51197,-34.35449 11.74034,-34.35449 0.13384,0 0.24333,0.22707 0.24333,0.50459 0,0.27752 -2.51894,17.41444 -5.59763,38.08205 l -5.59759,37.57745 -3.81846,12.21724 c -2.10015,6.71948 -4.03768,12.64683 -4.30567,13.17185 -0.26794,0.52502 -1.7799,3.05256 -3.35987,5.61679 l -2.87271,4.6622 -2.11673,0.7248 -2.11673,0.72483 -0.87659,6.55019 -0.8766,6.55016 -1.35438,-0.20693 c -0.74493,-0.11381 -1.53281,-0.27672 -1.75086,-0.36198 -0.43484,-0.17001 -0.40312,-0.27097 -2.11528,6.73549 l -1.10653,4.52814 -8.24738,6.33984 -8.24738,6.33983 -0.18905,2.22679 c -0.55207,6.50228 -2.30854,42.57222 -2.1565,44.28406 0.0979,1.1015 -0.0211,12.63268 -0.2644,25.62488 -0.39519,21.10487 -0.49731,23.73044 -0.95831,24.63879 -0.4329,0.85301 -0.48838,1.58755 -0.34457,4.56281 0.0943,1.95037 0.29737,3.58893 0.45135,3.64123 0.15395,0.0523 0.22431,0.4022 0.1563,0.77758 -0.068,0.37538 0.0695,1.89906 0.30563,3.38593 0.2361,1.4869 0.31149,2.77758 0.16758,2.86822 -0.14394,0.0906 -0.26169,0.73424 -0.26169,1.43019 0,0.84372 -0.81718,3.43038 -2.45207,7.76166 -7.20775,19.09528 -9.45943,24.77015 -11.38182,28.68558 -3.05249,6.21715 -4.93755,12.03353 -4.48951,13.85246 0.10198,0.41398 0.0348,0.77556 -0.15619,0.84041 -0.44409,0.15086 0.16448,4.24166 0.83157,5.5898 0.48,0.97006 1.94821,2.74419 2.12334,2.56574 0.0509,-0.0518 -0.0412,-0.56939 -0.20476,-1.15015 z m 85.75543,-40.886 c -0.4086,-0.4163 -0.10187,-1.30151 0.96,-2.77051 1.64645,-2.27779 20.94514,-25.78564 21.2676,-25.9062 0.37449,-0.14 0.0603,1.50843 -0.81206,4.26132 -0.89613,2.82767 -2.66033,6.15906 -5.26046,9.93343 -2.24911,3.26485 -9.8687,11.22797 -12.40104,12.96018 -1.6687,1.14146 -3.42758,1.85444 -3.75404,1.52178 z m -88.05158,41.33695 c 0.41295,-0.16145 0.39694,-0.32888 -0.13262,-1.38654 -0.33125,-0.66159 -0.77203,-2.41353 -0.9795,-3.89316 l -0.3772,-2.6903 -10.3874,-5.73245 c -5.71308,-3.15285 -10.4859,-5.92841 -10.60628,-6.16792 -0.27616,-0.54938 -1.00124,-7.07856 -0.80797,-7.27549 0.0788,-0.0803 4.74668,3.07593 10.37307,7.01379 5.62638,3.93788 10.4339,7.18205 10.68338,7.20931 0.24947,0.0271 0.73454,0.2054 1.07794,0.39597 0.58649,0.32553 0.67496,0.18816 1.45918,-2.26548 0.45915,-1.43661 1.86092,-4.72068 3.11504,-7.29795 2.07435,-4.26288 4.4352,-10.20075 11.55109,-29.05268 2.19444,-5.81371 2.88967,-8.44721 2.22995,-8.44721 -0.12217,0 -5.03544,1.62914 -10.91836,3.62033 l -10.69623,3.62032 -3.21836,2.85202 c -1.77009,1.56864 -3.25645,2.96756 -3.30299,3.10874 -0.0465,0.14121 2.92488,2.73705 6.60316,5.7686 l 6.68781,5.51187 -0.19138,1.5471 c -0.10523,0.85087 -0.35519,2.28302 -0.55538,3.18255 l -0.36399,1.63545 -8.75087,-6.33416 c -4.81297,-3.48383 -8.85427,-6.3342 -8.98066,-6.3342 -0.12639,0 -1.54528,1.16189 -3.15311,2.58197 -2.48146,2.19173 -3.13005,2.61089 -4.2911,2.77302 -3.11337,0.4348 -3.81809,0.2839 -6.17186,-1.32187 -7.05407,-4.81228 -14.2693,-13.63325 -20.76291,-25.38359 -1.10454,-1.99873 -2.04856,-3.51087 -2.09782,-3.36034 -0.0493,0.15054 0.71352,2.40978 1.69504,5.02054 0.98153,2.61075 2.83572,7.65849 4.12044,11.21719 2.02036,5.59642 2.72652,7.13622 5.2282,11.40014 4.98349,8.49401 10.17698,16.29445 11.77058,17.67902 1.01688,0.88347 28.98932,20.67626 29.63059,20.96606 0.028,0.0127 0.26222,-0.0596 0.52052,-0.16065 z m 131.26775,-8.25907 c 3.42911,-3.14634 4.95887,-4.74631 4.86071,-5.08385 -0.0788,-0.27088 -0.90916,-4.09475 -1.84539,-8.49744 -0.93623,-4.40268 -1.77237,-8.12051 -1.8581,-8.26187 -0.17955,-0.29603 0.26371,-0.81254 -10.89419,12.69359 -4.69158,5.67897 -8.47629,10.3803 -8.41043,10.4474 0.27847,0.28375 11.85912,3.3876 12.47176,3.34271 0.39828,-0.0292 2.70896,-1.91846 5.67564,-4.64054 z m 62.89985,-1.45637 c 3.65891,-2.8949 7.14719,-5.60331 7.75173,-6.0187 l 1.09918,-0.75525 4.94861,0.96026 c 2.72175,0.52817 6.8537,1.4348 9.18209,2.01476 13.192,3.28582 22.64923,3.31629 29.14726,0.0939 2.68624,-1.33217 5.93268,-4.69576 7.02055,-7.27404 l 0.55401,-1.31295 -0.67112,0.14755 c -0.3691,0.0811 -2.30028,0.37735 -4.29152,0.65813 -6.9761,0.98376 -11.01037,0.18927 -15.92632,-3.1365 -3.36759,-2.27823 -8.39216,-7.65723 -7.75715,-8.30429 0.0903,-0.092 1.27089,0.58763 2.6236,1.51018 7.10543,4.84595 14.70965,7.61976 21.05161,7.67911 3.83002,0.0359 4.55799,-0.13813 4.80689,-1.14855 0.0989,-0.40184 0.25433,-0.92809 0.34524,-1.16947 0.12243,-0.32509 -0.2887,-0.54172 -1.58625,-0.83579 -3.06914,-0.69553 -10.00898,-3.08697 -15.64338,-5.39066 -8.45007,-3.45492 -15.63188,-6.83713 -28.27522,-13.31599 -6.89775,-3.53463 -11.97298,-5.95739 -12.4796,-5.95739 -2.67602,0 -10.03966,4.6106 -17.92687,11.22453 -3.41543,2.86406 -11.9444,10.72037 -11.9444,11.00237 0,0.14245 0.73899,0.75895 1.6422,1.36997 0.99849,0.67553 1.62689,1.3177 1.60317,1.63837 -0.0623,0.84206 4.36906,9.7655 6.44075,12.96992 3.46061,5.35281 7.42147,8.62773 10.4228,8.6179 1.10206,-0.004 1.80083,-0.47178 7.86214,-5.26741 z m 148.62456,1.28185 c 5.03757,-0.34631 16.32995,-1.42855 19.05055,-1.82573 l 1.66314,-0.2428 -4.38465,-2.16763 c -13.00551,-6.42946 -28.79152,-10.94642 -45.50965,-13.02198 -8.39601,-1.04235 -13.33745,-1.32708 -22.98163,-1.32419 -11.52549,0.003 -19.72517,0.62862 -29.97183,2.28493 l -3.96636,0.64113 -0.51337,2.66231 c -0.28237,1.46426 -0.93796,3.59572 -1.45689,4.73654 -0.51893,1.14084 -0.88437,2.12975 -0.81209,2.1976 0.17995,0.16898 9.79994,1.8773 14.7973,2.62777 12.5977,1.89178 24.15031,2.94793 42.18336,3.85645 4.05271,0.20419 27.24707,-0.10439 31.90212,-0.4244 z m -216.9491,-19.0563 c 8.09108,-10.05181 14.66337,-18.3231 14.60509,-18.3806 -0.28276,-0.27902 -27.8145,-19.26563 -27.93636,-19.26563 -0.0774,0 -0.14061,0.26925 -0.14061,0.59832 0,1.05608 -2.11485,7.77052 -3.51458,11.1584 -3.36077,8.13423 -8.89837,13.93731 -14.79258,15.50158 -2.53563,0.67295 -7.06194,0.6133 -9.67042,-0.12746 l -2.1102,-0.59925 -1.27324,1.26773 -1.27328,1.26773 3.95115,3.85938 c 3.82605,3.73718 26.80365,23.19652 27.23201,23.06234 0.11658,-0.0366 6.83195,-8.29067 14.92302,-18.34254 z m 27.85109,2.17167 13.04955,-8.85264 -9.67748,-4.62168 c -5.3226,-2.54192 -10.19495,-4.85283 -10.82739,-5.13534 l -1.14993,-0.51368 -4.33887,5.22062 c -2.38636,2.87133 -4.33887,5.32088 -4.33887,5.44345 0,0.58263 3.94169,17.32236 4.07773,17.3175 0.0856,-0.003 6.02802,-3.98925 13.20526,-8.85823 z m 225.35952,-7.29904 c 3.03085,-1.5649 8.123,-5.30912 10.47475,-7.70198 3.73222,-3.79744 5.04543,-7.02994 4.04452,-9.9555 -0.39099,-1.14281 2.4086,-0.73397 -23.79928,-3.47549 l -20.6449,-2.15956 -7.37568,-2.95517 -7.37568,-2.95517 -8.48481,5.96777 c -4.66669,3.28228 -8.48853,6.04134 -8.49301,6.13121 -0.004,0.0899 6.9657,1.17403 15.48931,2.40919 13.66233,1.97987 15.96298,2.39264 19.42854,3.48585 10.40919,3.28365 19.26559,7.23957 22.95997,10.25568 1.15231,0.94072 2.14336,1.71042 2.20239,1.71042 0.059,0 0.76726,-0.34078 1.57388,-0.75725 z m -189.53795,-19.65545 4.17129,-2.75819 7.19527,2.65067 c 6.39442,2.35565 7.31302,2.6185 8.2536,2.36181 0.58211,-0.1589 1.63095,-0.44017 2.33077,-0.6251 1.11304,-0.29409 3.54418,-2.58315 19.40982,-18.27535 l 18.13742,-17.93916 4.18668,-6.6244 c 12.30168,-19.46448 14.34696,-23.08604 15.6433,-27.69931 1.97911,-7.04304 2.41691,-10.4209 2.42005,-18.67156 0.003,-6.57344 -0.0718,-7.71657 -0.66934,-10.29294 -0.3697,-1.59402 -0.73172,-2.95889 -0.80445,-3.03302 -0.0728,-0.0741 -3.73841,3.20587 -8.14592,7.28885 -4.40752,4.08297 -8.10624,7.42362 -8.21932,7.42362 -0.11313,0 -0.11077,-0.38129 0.005,-0.84732 0.116,-0.46601 0.34255,-1.6792 0.50351,-2.69597 l 0.29262,-1.84868 8.78389,-8.7619 8.78388,-8.76191 -0.21652,-2.94635 c -0.15494,-2.10823 -0.37662,-3.17555 -0.77923,-3.7521 -0.30949,-0.44315 -2.95464,-2.64009 -5.87812,-4.88203 -7.8199,-5.99694 -11.21437,-9.59963 -13.57848,-14.41142 -1.7917,-3.64674 -2.14189,-5.29234 -2.11556,-9.94172 0.0206,-3.60741 0.13333,-4.52758 0.8503,-6.93252 2.23752,-7.50543 7.47084,-15.63131 15.50195,-24.07034 l 2.67476,-2.81063 4.63993,-0.96636 c 7.8946,-1.64424 11.59305,-2.24943 13.09236,-2.14243 l 1.44151,0.10286 2.10192,-3.69735 c 1.15606,-2.03354 2.31661,-4.13643 2.57901,-4.67307 0.46554,-0.95197 2.51157,-11.41333 2.27162,-11.61476 -0.0665,-0.0558 -4.81543,-2.05014 -10.55328,-4.43186 -6.19739,-2.57247 -10.46822,-4.50964 -10.52053,-4.77189 -0.15093,-0.75637 2.57189,-4.17762 4.4399,-5.57879 0.98023,-0.73526 2.41183,-1.51644 3.18128,-1.73596 2.06397,-0.58881 4.91916,-0.2675 6.77668,0.76261 1.38308,0.767 4.53905,3.70692 5.60894,5.22491 1.44065,2.04409 0.85612,-27.27663 -0.87506,-43.8929 -2.61005,-25.05215 -8.52947,-51.66156 -16.15771,-72.63359 -1.99344,-5.48041 -2.29638,-6.18142 -2.55383,-5.90932 -0.0668,0.0707 -2.44924,6.13306 -5.29424,13.4721 l -5.17276,13.34371 -11.10125,19.00805 -11.10125,19.00806 -20.1713,23.57057 -20.1713,23.57057 -9.53785,5.85414 c -5.24583,3.21977 -9.54227,5.9319 -9.54765,6.02696 -0.005,0.095 0.70459,0.35875 1.57774,0.58599 3.02135,0.78626 11.2652,3.45218 11.55343,3.73616 0.45384,0.44711 -0.32043,0.9807 -3.55256,2.44822 l -2.96076,1.34432 5.52197,5.63265 c 5.80419,5.92049 6.43519,6.96034 3.42613,5.64611 -2.83946,-1.24017 -1.88533,-0.4229 3.39231,2.90575 2.93798,1.85298 5.21301,3.41089 5.05565,3.462 -0.15737,0.0511 -4.90997,-1.42153 -10.56132,-3.27255 -5.65137,-1.851 -10.29779,-3.33958 -10.3254,-3.30795 -0.0276,0.0316 0.30453,3.0385 0.7381,6.68194 1.11718,9.38767 1.06375,11.58096 -0.38905,15.96815 -1.16505,3.51814 -4.76482,11.3725 -6.38237,13.92568 -0.65669,1.03658 -0.91276,1.87745 -1.02996,3.38227 -0.17615,2.2616 -0.0325,2.18725 -3.2786,1.69779 l -1.61068,-0.24289 1.09078,1.73745 c 0.67476,1.07476 0.93943,1.73744 0.69395,1.73744 -0.21823,0 -2.02544,-0.46959 -4.01594,-1.04351 -1.99052,-0.57395 -4.65,-1.12473 -5.91,-1.22401 -6.44897,-0.50798 -18.88164,-5.25161 -29.96174,-11.4317 -2.21879,-1.2376 -4.10194,-2.1858 -4.18481,-2.10717 -0.0829,0.0786 -0.51293,17.42827 -0.95572,38.55479 l -0.80508,38.41184 -7.58678,33.8605 c -4.17268,18.62329 -7.58672,33.96148 -7.58672,34.08486 0,0.12341 2.41534,1.79442 5.36742,3.71336 2.95208,1.91891 10.67508,6.98023 17.16225,11.2473 l 11.79483,7.75836 11.17384,5.0763 11.17382,5.07631 7.5458,-6.16345 c 4.15017,-3.38991 9.42286,-7.40464 11.71703,-8.92162 z m 12.9676,-41.0344 c -6.97293,-1.47685 -14.17664,-5.56083 -18.89936,-10.71466 -3.88874,-4.24372 -7.43483,-8.57911 -7.25699,-8.8723 0.10252,-0.16915 0.0424,-0.30753 -0.13372,-0.30753 -0.73602,0 -0.24412,-0.55537 0.66254,-0.74803 0.90009,-0.19128 1.09827,-0.079 2.35597,1.33482 l 1.37322,1.54368 4.55689,0.0417 4.55686,0.0417 8.01965,-2.64754 8.01961,-2.64754 3.77171,0 3.77168,0 7.30665,4.77572 c 4.01863,2.62667 7.42819,4.77574 7.57682,4.77574 0.14862,0 0.61373,-0.41595 1.03354,-0.92434 0.41983,-0.50837 0.88152,-0.92432 1.02595,-0.92432 0.14442,0 0.71279,0.47329 1.26308,1.05177 1.06846,1.12325 1.0645,1.16728 -0.25821,2.87666 -0.72831,0.94118 -0.8929,1.00246 -2.74038,1.02015 l -1.96553,0.0189 -3.47749,4.67294 -3.47747,4.67296 -2.26793,0.57986 c -2.98804,0.764 -11.92165,0.9929 -14.81709,0.37966 z m 12.02062,-2.08586 c 2.17941,-0.82213 4.2859,-2.59982 5.77731,-4.87554 0.68893,-1.05121 1.25262,-2.03412 1.25262,-2.1843 0,-0.38634 -0.41963,-0.3384 -0.8467,0.0968 -0.35466,0.36139 -0.39882,0.32179 -0.47625,-0.42717 -0.0208,-0.20106 -0.44604,-0.47267 -0.94498,-0.60359 -1.2032,-0.31572 -14.32507,-2.7698 -21.16728,-3.95877 l -5.44302,-0.94585 -2.95681,0.52715 -2.95681,0.52712 1.14246,1.20324 c 2.47736,2.60907 7.71058,6.41871 11.42374,8.3162 6.14087,3.13802 11.04929,3.88894 15.19572,2.32476 z m 7.925,-10.49097 c -0.01,-0.56098 -1.02812,-1.33453 -5.33703,-4.05417 l -5.32496,-3.36095 -7.43225,1.30008 c -4.08777,0.71503 -7.47247,1.341 -7.52158,1.39103 -0.049,0.05 1.58083,0.58809 3.62202,1.19567 8.80571,2.62101 15.71383,4.04317 20.26716,4.17229 1.61911,0.046 1.73789,0.003 1.72664,-0.64395 z m 17.79273,-38.92265 c -1.04457,-0.65789 -1.66392,-1.24363 -1.57224,-1.48702 0.0832,-0.22086 0.85873,-1.01183 1.72346,-1.75774 2.68744,-2.31812 2.48519,-2.21863 3.44051,-1.69216 1.74965,0.96423 1.75153,0.84947 -0.0575,3.5253 -0.93459,1.38244 -1.72434,2.50981 -1.75498,2.50526 -0.0307,-0.004 -0.83129,-0.49669 -1.77923,-1.09364 z m 23.50274,-91.93611 c -0.26242,-0.43266 3.31153,-4.17309 5.53494,-5.79277 2.49393,-1.81679 4.94631,-2.83077 6.85587,-2.83469 1.61313,-0.003 2.87322,0.24398 2.87192,0.56362 0,0.10733 -3.23221,1.9206 -7.18176,4.02951 -3.94954,2.10889 -7.22632,3.94602 -7.28176,4.08248 -0.13776,0.3391 -0.58049,0.31243 -0.79921,-0.0482 z M 264.40021,514.98485 c 2.99366,-3.72291 5.60671,-6.99266 5.80677,-7.26608 0.26185,-0.35787 20.16436,-7.97569 26.92132,-10.30434 0.2048,-0.0707 -1.9724,-0.98988 -4.83824,-2.04291 l -5.21061,-1.91455 -15.11949,2.4507 c -8.31571,1.34786 -15.20362,2.45207 -15.30646,2.45374 -0.10284,0.003 -3.13829,-4.16121 -6.74545,-9.25089 l -6.55849,-9.25396 2.12359,-9.00167 c 7.32109,-31.03318 11.07189,-50.96797 9.74682,-51.80243 -0.18889,-0.11892 -2.52648,0.21239 -5.19467,0.73627 -2.66819,0.52388 -5.01585,0.854 -5.21703,0.73355 -0.20118,-0.1204 -1.15909,-0.835 -2.1287,-1.588 -0.96962,-0.753 -1.86763,-1.24847 -1.99556,-1.10105 -0.12795,0.14744 -2.09313,11.60681 -4.36704,25.46526 l -4.1344,25.19719 0.76787,0.68421 c 1.06558,0.94952 1.35478,2.22368 0.90991,4.00892 -0.49115,1.97096 -2.73757,4.77407 -3.3367,4.1636 -0.10404,-0.10599 0.0604,-1.97213 0.36554,-4.147 l 0.55469,-3.95427 -1.19341,-0.92748 c -4.42631,-3.43995 -8.2772,-15.49622 -10.87938,-34.0609 -0.95778,-6.83316 -1.24909,-9.98586 -0.90199,-9.76197 0.14865,0.0959 1.90091,3.51334 3.89391,7.59431 1.99301,4.081 3.6991,7.41999 3.79134,7.41999 0.29057,0 2.62172,-3.78095 3.71058,-6.01826 1.7073,-3.50811 2.1734,-5.25574 2.17665,-8.16137 0.002,-2.34559 -0.10241,-2.84345 -0.98519,-4.67058 -1.16904,-2.4196 -3.59752,-4.85856 -6.29607,-6.32321 -3.00346,-1.63011 -7.16531,-2.92021 -10.17881,-3.15521 -0.12474,-0.0103 -0.22982,-0.191 -0.23352,-0.40283 -0.003,-0.21183 -0.27584,-0.73176 -0.60478,-1.15542 l -0.59805,-0.77028 -0.60654,0.77028 c -1.12324,1.42644 -3.87796,7.52419 -4.80214,10.62987 -1.6501,5.54498 -1.9943,8.05109 -1.98899,14.48126 0.004,4.8585 0.12279,6.45437 0.69832,9.38338 2.11125,10.74463 7.17154,21.17189 15.25836,31.44148 3.02852,3.84597 7.9852,9.24336 8.48862,9.24336 0.19637,0 0.61077,1.00521 0.9209,2.23381 1.45515,5.76463 5.0895,13.14054 9.25497,18.78294 2.47846,3.35725 7.32947,8.35333 10.53806,10.85321 1.84671,1.4388 7.54855,5.11818 7.8877,5.0899 0.0895,-0.007 2.61214,-3.05962 5.60579,-6.78257 z m 93.11986,-1.32353 c 5.68964,-4.35448 11.27536,-9.32257 16.65772,-14.81575 4.74026,-4.83791 9.83298,-10.78389 9.80652,-11.44957 -0.01,-0.25853 -26.36726,-19.85825 -26.51564,-19.71768 -0.0372,0.0352 -0.21637,6.76675 -0.39819,14.95895 l -0.3306,14.89488 -5.45805,6.03669 -5.45804,6.03666 0.8257,0.61877 c 0.45416,0.34031 2.27301,1.82163 4.04189,3.29182 1.76892,1.47015 3.27238,2.68334 3.34105,2.69597 0.0687,0.0127 1.6381,-1.13523 3.48764,-2.55074 z m 168.14486,-5.30845 c 27.88222,-3.15867 48.17426,-17.41514 58.07244,-40.79958 2.41559,-5.70683 2.14361,-2.65479 3.31995,-37.25498 l 1.06416,-31.29996 -0.60236,-33.12206 c -0.3313,-18.21712 -0.68984,-37.03465 -0.79677,-41.81674 l -0.19443,-8.69468 -1.97058,2.83678 c -2.44622,3.52154 -5.03634,6.7639 -7.49522,9.3827 l -1.88585,2.00852 1.87663,5.72734 1.87663,5.72738 2.90814,1.24529 c 3.43932,1.47275 3.80875,1.7599 2.01341,1.56496 -0.73529,-0.0798 -4.03805,-0.22208 -7.33952,-0.31612 l -6.00265,-0.17097 0.1877,1.77833 c 0.45225,4.28491 4.74836,64.07091 5.05402,70.33326 1.15117,23.58574 -1.82495,44.23753 -8.39138,58.22949 -2.27859,4.85531 -4.87436,8.71112 -9.20072,13.66702 -6.75983,7.74337 -11.59644,10.52982 -18.91729,10.89851 -2.54441,0.12813 -3.91614,0.0425 -5.66391,-0.35375 -1.26851,-0.28753 -2.36397,-0.61795 -2.4344,-0.73423 -0.0704,-0.11625 1.59384,-0.22911 3.69838,-0.25077 6.07972,-0.0627 11.52886,-1.77975 16.83956,-5.30656 3.63505,-2.41402 5.34457,-4.02163 7.05837,-6.63753 7.61774,-11.62773 11.75492,-28.9502 13.06959,-54.7228 0.386,-7.5668 0.20556,-27.16593 -0.32762,-35.58694 -0.99008,-15.63721 -3.48993,-41.58493 -4.17866,-43.37349 -0.13737,-0.35673 -1.89864,4.61791 -5.08265,14.35586 l -4.87244,14.90175 3.60201,3.31991 c 1.9811,1.82594 3.52856,3.39474 3.43877,3.48623 -0.0898,0.0914 -1.73989,-0.6181 -3.66686,-1.57689 -1.92702,-0.95879 -3.53158,-1.74323 -3.56572,-1.74323 -0.0342,0 0.0904,1.07453 0.2766,2.38785 0.18629,1.31334 0.27931,2.5009 0.20674,2.63902 -0.18994,0.36144 -1.04972,-0.50854 -2.20007,-2.22623 -0.96692,-1.44371 -1.05677,-1.49754 -2.81146,-1.68442 -0.99695,-0.10617 -1.84869,-0.15633 -1.89276,-0.11144 -0.044,0.0449 1.5412,2.02094 3.52275,4.39117 1.98156,2.37028 3.80068,4.58687 4.04244,4.92579 0.25767,0.36117 0.56142,1.95522 0.7339,3.85141 l 0.29429,3.23517 -1.75786,1.84867 -1.75785,1.84868 0.57006,3.52563 c 2.9102,17.99855 -0.35322,36.49126 -8.58959,48.67426 -1.25727,1.85969 -1.70209,2.83733 -1.98776,4.36862 -1.74481,9.35329 -5.01088,18.22818 -8.97919,24.39936 -2.89548,4.50282 -10.56398,12.30027 -13.57373,13.802 -1.97522,0.98554 -2.30442,1.05298 -5.14063,1.05274 -2.70272,-2.2e-4 -3.19632,-0.0894 -4.56681,-0.82618 l -1.53656,-0.82593 -4.34314,4.43322 c -2.97545,3.03721 -4.2056,4.48638 -3.90645,4.60203 0.24019,0.0929 2.2737,0.29322 4.51895,0.44525 4.92831,0.3337 12.05146,0.14576 17.3874,-0.45872 z M 135.56878,495.20634 c 0.0821,-0.38129 2.27639,-15.38672 4.87616,-33.34537 4.63837,-32.04091 4.71707,-32.6706 4.20477,-33.63992 l -0.52209,-0.98778 2.43883,-5.1097 c 6.69615,-14.02936 13.76155,-22.66568 20.82604,-25.45648 1.34423,-0.53104 2.40961,-0.69829 4.55208,-0.71459 1.5384,-0.0117 2.79418,-0.0938 2.79062,-0.18234 -0.0319,-0.79304 4.10811,-27.60586 4.27346,-27.67714 0.12008,-0.0518 -0.43718,-1.17105 -1.23839,-2.4873 -7.26316,-11.93226 -11.87049,-29.03029 -13.90674,-51.60873 -0.5801,-6.43234 -0.98442,-19.18441 -0.79064,-24.93689 l 0.19526,-5.79636 5.48198,-11.1498 5.48198,-11.14981 4.02627,-13.40286 c 3.84769,-12.80843 4.07229,-13.44179 5.06397,-14.28011 l 1.03771,-0.87724 -0.72261,-1.08498 c -1.06578,-1.60025 -1.33263,-2.94388 -1.33295,-6.71203 -9e-4,-8.97142 3.66735,-24.75101 10.61693,-45.672 5.3883,-16.2209 11.62735,-31.71329 13.98452,-34.72541 l 0.70758,-0.90418 2.00873,1.0584 c 1.10479,0.58211 2.00526,1.19704 2.00101,1.3665 -0.004,0.16946 -2.92053,12.16016 -6.48065,26.646 -3.56012,14.48585 -6.42219,26.38959 -6.36018,26.45279 0.062,0.0632 4.44163,-2.75802 9.73246,-6.26934 l 9.6197,-6.38422 1.88994,0.17822 1.88994,0.17822 0.003,-0.98977 c 0.008,-2.37479 0.66127,-10.33396 1.23344,-15.00887 2.21135,-18.06781 7.26071,-35.29714 15.22145,-51.9384 6.61334,-13.82464 14.37683,-25.834691 24.51213,-37.920005 3.96074,-4.72279 12.8483,-14.007158 17.24204,-18.011848 1.73167,-1.578351 3.11106,-2.907875 3.06529,-2.954502 -0.2059,-0.209794 -5.72423,3.000235 -25.93056,15.083878 l -21.6537,12.949183 -5.41019,4.921949 c -2.9756,2.707067 -9.70467,8.568875 -14.95348,13.026225 -8.93983,7.5918 -9.7047,8.16908 -12.09559,9.12895 l -2.55232,1.02468 -4.70143,9.55146 c -3.06258,6.222 -8.03336,17.33818 -14.25995,31.8896 l -9.55854,22.33813 -7.30752,22.64624 -7.30754,22.64623 -4.82592,20.79757 c -4.39047,18.92095 -13.78223,62.67504 -16.89771,78.72264 -0.6909,3.5587 -1.52104,7.60827 -1.84478,8.99906 -0.54976,2.36173 -0.56908,3.06352 -0.2928,10.62986 l 0.29582,8.10117 3.04579,15.09748 3.04579,15.0975 2.0932,18.48671 c 1.15127,10.16771 2.15439,18.9103 2.22917,19.42798 0.12974,0.89822 0.0543,0.97426 -1.6498,1.66397 -1.7208,0.69642 -1.78575,0.76334 -1.78575,1.84022 0,0.61462 -0.20068,1.40943 -0.44594,1.76622 -0.95098,1.3834 -5.94434,14.71945 -8.41903,22.48513 -4.32169,13.56165 -6.15157,23.50682 -5.85978,31.84724 0.17566,5.02092 0.61224,7.092 2.18857,10.38213 1.14184,2.38329 2.75619,4.07399 4.82524,5.05353 1.61073,0.76255 2.22429,0.73523 2.4057,-0.10709 z m 164.53041,-3.38923 c -0.18073,-1.90903 -0.57265,-9.27307 -0.96494,-18.13097 -0.11207,-2.52995 -0.23578,-4.56353 -0.27494,-4.51909 -0.0392,0.0445 -0.7147,3.54711 -1.50121,7.78366 -0.78648,4.23653 -1.53324,7.81753 -1.65945,7.95779 -0.23351,0.25949 -2.69016,-1.29703 -2.71113,-1.71776 -0.007,-0.12667 1.87812,-11.01072 4.18762,-24.18679 l 4.19912,-23.95649 0.36504,-7.39469 c 0.20078,-4.06708 0.74608,-14.32722 1.21179,-22.80029 0.46572,-8.47308 0.7988,-15.45764 0.7402,-15.52124 -0.35231,-0.38224 -4.99309,3.78805 -9.13892,8.21238 -5.58743,5.96281 -7.45344,8.67608 -10.95979,15.93599 -7.72133,15.98714 -9.91908,34.92134 -6.45491,55.61066 0.8775,5.2407 2.44217,11.73703 3.88536,16.13151 0.56519,1.72099 1.11466,3.40636 1.22103,3.7453 0.45259,1.44198 -2.98557,-2.95905 -4.19612,-5.37129 -2.14579,-4.27583 -3.34127,-8.68582 -4.30713,-15.88845 -0.41699,-3.10958 -0.53982,-6.17623 -0.54915,-13.71099 -0.0151,-12.16993 0.48003,-18.56147 2.72967,-35.2394 0.5914,-4.38427 0.96258,-8.07527 0.82487,-8.20221 -0.13771,-0.12691 -0.6246,-0.32062 -1.08196,-0.43043 -0.69007,-0.16574 -0.83157,-0.0974 -0.83157,0.40162 0,0.33073 -0.27215,0.68934 -0.60478,0.7969 -0.55598,0.17978 -0.60478,0.46618 -0.60478,3.54828 0,9.02353 -2.31098,18.85423 -6.28977,26.75621 -1.94133,3.85549 -1.96317,3.92686 -2.10355,6.8736 -0.35396,7.42995 1.7971,24.78027 3.58192,28.89145 0.3307,0.76178 1.07228,1.82462 1.64797,2.3619 1.23602,1.15357 1.33344,2.07464 0.29293,2.76931 -4.02387,2.68643 -8.90135,-10.48416 -10.0658,-27.18047 l -0.21766,-3.12087 -2.8444,2.75006 -2.8444,2.75002 0.89839,12.38722 c 0.49411,6.81293 0.79451,12.51177 0.66757,12.66411 -0.37663,0.45184 0.52539,1.87363 2.07158,3.26522 3.26607,2.93955 8.55114,5.39199 13.68021,6.34812 l 2.71047,0.50527 5.83305,-1.12371 5.83305,-1.12369 6.50137,1.51372 c 3.57577,0.83256 6.68231,1.5296 6.90345,1.54898 0.31287,0.0274 0.36162,-0.39186 0.2197,-1.89045 z m 87.34038,-15.55741 1.98047,-6.54516 0.61488,-28.42556 c 1.26825,-58.63074 2.15601,-98.62378 2.36387,-106.49391 l 0.21467,-8.12689 -2.15434,0.18579 c -5.79406,0.49973 -13.71021,4.59593 -20.03651,10.3679 l -1.85736,1.69462 -1.66768,25.84377 -1.66768,25.84376 -3.59889,22.83795 -3.59889,22.83794 -0.33804,15.05701 c -0.18594,8.28136 -0.25301,15.14456 -0.14901,15.25154 0.5771,0.59385 27.54231,16.55132 27.71135,16.39901 0.11146,-0.10038 1.09389,-3.12794 2.18316,-6.72777 z M 254.79065,415.59576 c 1.8254,-1.15021 3.69514,-3.94895 4.60943,-6.89969 0.39249,-1.26667 0.75874,-2.35995 0.81389,-2.42951 0.0551,-0.0696 0.33925,0.0791 0.63132,0.33035 0.29207,0.25128 1.42141,1.09198 2.50965,1.86823 l 1.97863,1.41141 1.64011,-3.08384 c 2.34091,-4.40149 1.95238,-4.08423 4.24402,-3.46569 2.3604,0.63708 6.48593,0.7114 8.75559,0.15771 7.70946,-1.88064 14.80935,-8.39254 20.84838,-19.1217 l 1.82093,-3.23519 7.49279,-4.5753 7.4928,-4.57534 1.45131,-7.2803 c 0.79819,-4.00419 1.50098,-7.33093 1.56173,-7.39283 0.0608,-0.0619 1.1534,0.67342 2.42819,1.63401 1.27478,0.96057 2.39156,1.67132 2.48174,1.57944 0.0901,-0.0919 -0.097,-2.146 -0.41588,-4.56471 l -0.57986,-4.39766 1.06855,-1.94562 1.06853,-1.94564 4.20421,-2.1656 4.20422,-2.16559 -4.12861,-4.21483 c -3.60562,-3.68086 -4.63383,-4.97711 -3.94798,-4.97711 0.0994,0 1.39568,0.97659 2.88078,2.17021 l 2.70013,2.17025 2.34536,-2.16834 2.34533,-2.1683 1.79768,-10.55475 1.79771,-10.55475 3.05843,-3.54329 3.05846,-3.54329 0.84742,-6.39032 0.84744,-6.39034 -3.44555,-3.31192 c -1.89504,-1.82157 -4.22797,-4.07598 -5.18428,-5.00983 l -1.73872,-1.69788 -1.3638,-23.05598 -1.36381,-23.056 -2.16805,-2.97948 c -1.19244,-1.6387 -4.50842,-5.69172 -7.36881,-9.00667 l -5.20075,-6.02721 1.01238,-2.74164 c 0.75541,-2.0457 0.91879,-2.80068 0.64366,-2.97417 -0.20278,-0.12787 -1.97272,-0.81093 -3.9332,-1.51792 -1.96052,-0.70699 -3.52539,-1.38172 -3.47749,-1.49942 0.0478,-0.11772 0.61258,-1.40164 1.25489,-2.85318 l 1.16789,-2.63917 -1.5949,-2.0279 c -1.24037,-1.57715 -1.7352,-1.99629 -2.22622,-1.88565 -0.34724,0.0782 -2.44415,0.56051 -4.65979,1.07172 -2.21565,0.51121 -4.14259,0.92948 -4.28211,0.92948 -0.13949,0 -1.2187,-2.0052 -2.3982,-4.456 -2.39976,-4.98624 -1.68461,-4.36271 -6.37627,-5.55959 -1.81404,-0.46278 -2.16365,-0.70036 -4.53585,-3.08245 l -2.57032,-2.58102 -4.38301,-1.11865 -4.38303,-1.11865 -0.43185,0.66272 c -0.23752,0.3645 -0.92127,1.37649 -1.51944,2.24892 l -1.0876,1.58621 -7.70507,2.54912 c -4.23778,1.40201 -7.8342,2.50553 -7.99202,2.45228 -0.15783,-0.0533 1.27096,-1.0459 3.17509,-2.20586 1.90413,-1.15997 3.50286,-2.1398 3.55274,-2.17742 0.0499,-0.0375 -0.002,-0.77782 -0.11456,-1.64491 l -0.20524,-1.57653 -5.63085,0.002 -5.63086,0.002 -1.16008,2.17036 c -1.26751,2.37136 -1.02709,2.31701 -3.02097,0.68284 -0.94849,-0.77736 -3.21927,-0.99855 -3.23813,-0.3154 -0.005,0.21183 0.56754,7.07134 1.27419,15.24337 l 1.28482,14.85823 1.67411,0.35102 c 6.14022,1.28742 12.68984,5.29432 16.41943,10.04498 2.11669,2.69621 3.01968,4.31161 4.57873,8.19107 0.6965,1.73316 2.94872,6.05779 5.00492,9.61029 4.27476,7.38549 4.95707,8.82475 6.50541,13.72215 3.8462,12.16569 4.05215,21.44282 0.58904,26.53465 -0.84107,1.23663 -3.08593,2.93874 -4.27781,3.24355 -0.37758,0.0966 -0.68437,0.26451 -0.68176,0.37324 0.003,0.10872 1.22729,1.01275 2.72151,2.00896 3.00402,2.00281 2.93329,1.85384 2.52469,5.31903 l -0.18682,1.58429 -2.09427,0.85905 c -1.15185,0.47247 -2.13951,0.93806 -2.19479,1.03466 -0.0553,0.0966 1.10847,3.41229 2.58612,7.3682 1.47763,3.95592 2.68662,7.36207 2.68662,7.56921 0,0.20712 -0.85513,0.93208 -1.90028,1.611 -1.80001,1.16928 -2.02112,1.45268 -4.19078,5.37151 -1.25978,2.2754 -3.27689,6.0544 -4.48247,8.39774 l -2.19197,4.26061 0.9613,3.70186 c 0.52872,2.03604 0.8934,3.88222 0.8104,4.10261 -0.087,0.23097 -0.93269,0.49317 -1.99627,0.61894 -1.01493,0.12004 -2.02012,0.39632 -2.23373,0.61397 -0.21361,0.21765 -0.70474,1.97134 -1.09139,3.89709 -0.38667,1.92574 -0.73943,3.54625 -0.78393,3.60109 -0.0445,0.0549 -0.48837,-0.11494 -0.98639,-0.37735 -1.07462,-0.56621 -0.92595,-0.74088 -3.3836,3.97497 -2.10838,4.04567 -2.4246,4.45632 -6.10735,7.93114 l -3.13495,2.95797 -2.97271,0.33776 c -1.635,0.18575 -4.69246,0.71186 -6.79435,1.16912 -3.50911,0.76344 -4.39039,0.83231 -10.7766,0.84213 -6.37093,0.0103 -7.18349,-0.0506 -9.67646,-0.71996 -5.88019,-1.57867 -10.02924,-3.94744 -14.28581,-8.15603 -7.27592,-7.19393 -11.66382,-18.3856 -13.2467,-33.78684 -0.27145,-2.64111 -0.94596,-6.70377 -1.50906,-9.0893 -2.58794,-10.96355 -2.71239,-11.90141 -2.67803,-20.18134 0.0669,-16.13492 3.19014,-33.1372 8.48964,-46.21681 2.58841,-6.38844 6.77316,-13.70773 10.40529,-18.19929 2.83022,-3.49989 9.09577,-10.07795 10.15034,-10.65663 0.55616,-0.30517 1.01118,-0.64671 1.01118,-0.75898 0,-0.11228 -0.26054,-1.50191 -0.57898,-3.08809 -1.43985,-7.17193 -2.15724,-14.30356 -2.40418,-23.90012 l -0.19193,-7.45941 -10.73484,7.86316 c -5.90416,4.32474 -10.8495,7.97847 -10.98963,8.11939 -0.14014,0.14094 -1.57476,6.25494 -3.18803,13.58669 l -2.93322,13.33046 -2.70858,0.99117 -2.70857,0.99118 -4.10261,9.07255 -4.10261,9.07256 1.01087,1.51894 c 1.04967,1.57724 1.90376,3.98078 1.90084,5.34924 -0.007,3.30356 -2.80673,6.02891 -5.41145,5.26776 l -0.86568,-0.25298 -5.52606,11.84025 -5.52607,11.84025 0.20002,5.45913 c 0.95994,26.19896 6.13703,53.05123 13.07493,67.81637 5.1843,11.03315 11.79992,17.37737 19.18512,18.39808 1.32618,0.18329 1.40419,0.25487 2.41911,2.21924 1.60815,3.11254 6.67254,10.78873 9.33515,14.14945 2.69847,3.40597 7.43958,8.22635 9.25219,9.40688 0.66526,0.43327 3.28382,1.58363 5.81903,2.55634 l 4.60948,1.76858 2.01071,-0.50559 2.01073,-0.50558 1.24193,1.16455 c 2.95217,2.76822 4.52195,3.67701 10.16245,5.88327 6.34526,2.48193 7.2048,2.57815 9.59217,1.0738 z m 296.61791,-33.23698 c 0.83598,-0.42445 1.79253,-1.08304 2.12568,-1.46352 0.34355,-0.39238 3.2457,-8.52532 6.70631,-18.79359 5.17298,-15.3494 6.04538,-18.19197 5.73733,-18.69457 -0.72927,-1.18986 -3.91483,-2.4986 -7.47925,-3.07273 -0.84499,-0.13611 -1.53475,-0.23348 -1.53276,-0.21646 0.003,0.017 0.18803,0.73676 0.41347,1.59935 0.29818,1.14107 0.75464,1.89653 1.67533,2.77301 1.98669,1.89126 2.19942,4.38471 0.63982,7.49957 -0.52725,1.0531 -2.23859,2.86532 -2.96889,3.14395 -0.16242,0.062 -3.03778,5.4928 -6.38968,12.06856 l -6.09442,11.95595 0.68424,1.24046 c 0.79033,1.43282 2.70262,2.72468 4.03945,2.72889 0.50786,0.003 1.60739,-0.34438 2.44337,-0.76887 z m -4.89394,-13.85523 c 1.20527,-1.86864 2.5646,-4.06767 3.02076,-4.88673 l 0.82936,-1.48919 -1.76625,0.21481 c -1.22085,0.14848 -1.99971,0.43524 -2.52224,0.92861 -1.13804,1.07458 -4.89019,3.22148 -5.63017,3.22148 -0.69707,0 -0.69689,0 -1.19886,-5.31495 l -0.1964,-2.07974 -1.15395,0 c -0.83862,0 -1.19613,0.14734 -1.30829,0.53919 -0.56302,1.96699 -0.84957,4.76742 -0.74264,7.25811 0.10718,2.49715 0.25951,3.17515 1.10771,4.93074 0.58658,1.21405 1.49696,2.48631 2.25592,3.15267 l 1.27246,1.11721 1.9206,-2.09734 c 1.05634,-1.15358 2.90672,-3.62627 4.11199,-5.49487 z M 241.2674,367.68568 c 2.06494,-0.38282 4.92898,-1.29813 7.75513,-2.47835 l 2.16092,-0.90246 2.36404,0.61709 c 1.30022,0.33938 2.3835,0.58894 2.40727,0.55462 0.0238,-0.0344 0.88782,-1.61641 1.92011,-3.51567 1.67754,-3.08649 2.07983,-3.60082 3.78786,-4.84269 1.97591,-1.43668 2.10583,-1.66873 2.45293,-4.38135 0.17992,-1.40605 0.39952,-1.78354 1.94245,-3.33927 l 1.73959,-1.75402 1.22575,0.63718 1.22575,0.63714 0.21565,-3.09936 0.21565,-3.09935 1.6225,-1.09766 c 0.89237,-0.60371 1.62249,-1.13086 1.62249,-1.17141 0,-0.0406 -0.34018,-0.99464 -0.75597,-2.1202 -0.41578,-1.12554 -0.75377,-2.28592 -0.75109,-2.57861 0.003,-0.2927 0.80075,-2.11163 1.7735,-4.04211 l 1.76863,-3.50995 -0.96273,-3.11446 c -0.52952,-1.71295 -1.10463,-3.39175 -1.27803,-3.73069 -0.39819,-0.77825 -0.76438,-3.54392 -0.4689,-3.54138 0.12156,9.3e-4 0.49316,0.92259 0.82579,2.0479 1.03522,3.50222 2.8591,4.03926 4.37635,1.28862 0.46839,-0.84918 0.72159,-1.94462 0.8333,-3.60527 l 0.16046,-2.38544 1.5484,0.22526 c 0.85162,0.12389 1.93318,0.23538 2.40347,0.24775 l 0.85507,0.0226 -1.66729,-3.15815 c -0.91699,-1.73699 -2.89166,-5.37656 -4.38813,-8.08794 -1.49647,-2.71139 -2.6278,-5.01599 -2.51408,-5.12132 0.11373,-0.10533 1.83969,-0.70995 3.83547,-1.3436 l 3.62867,-1.15207 -2.6606,-1.36324 -2.66062,-1.36322 1.54615,-1.76081 c 3.08568,-3.51403 4.76265,-7.32884 5.44687,-12.39065 0.76523,-5.66101 -0.67867,-13.73975 -3.82399,-21.3957 l -1.0984,-2.67358 -0.53127,0.89013 c -0.59494,0.9968 -2.00185,1.71423 -3.0584,1.55954 -0.38489,-0.0563 -1.00896,-0.57252 -1.38947,-1.14922 -1.04716,-1.58708 -0.92288,-5.10858 0.36108,-10.23118 0.17983,-0.71741 -0.0507,-1.01621 -2.17854,-2.82464 -2.37775,-2.02073 -2.38007,-2.02419 -2.91198,-4.3231 -1.57207,-6.79458 -9.49619,-13.99525 -19.3201,-17.55624 l -1.89076,-0.68536 -0.50552,-4.62063 c -3.36417,-30.75028 -2.26584,-61.85203 2.81186,-79.6242 2.22759,-7.79667 4.02807,-11.20413 10.99412,-20.80684 22.83876,-31.483262 45.79837,-59.279165 59.05474,-71.494193 1.83892,-1.69448 3.29538,-3.129901 3.23659,-3.189819 -0.0929,-0.09464 -3.39347,0.903302 -4.6814,1.415427 -0.24948,0.0992 -0.52163,0.204312 -0.60479,0.233582 -0.0832,0.02928 -0.35531,0.144881 -0.60478,0.256911 -0.24947,0.112029 -2.07886,0.758217 -4.06533,1.435974 -2.79946,0.955144 -5.33349,2.202619 -11.26733,5.546803 -4.2106,2.372983 -7.89225,4.312358 -8.18148,4.309723 -0.91852,-0.0083 -8.53204,2.916845 -8.53568,3.279527 -0.002,0.191221 -0.74423,0.929963 -1.64958,1.641655 -2.45955,1.933434 -9.60178,9.541245 -12.89213,13.732511 -11.4969,14.644855 -23.48472,34.804149 -36.27278,60.998059 l -6.0169,12.32449 -1.9989,12.32448 -1.9989,12.32449 0.206,25.88141 0.206,25.88142 -2.82311,2.16564 c -3.52689,2.70553 -4.54711,4.07052 -7.36259,9.85074 -6.93414,14.23587 -12.69331,35.05446 -15.40904,55.70152 -1.20671,9.17436 -1.51582,13.77868 -1.52484,22.71299 l -0.009,8.47309 1.14831,3.77797 c 4.77209,15.7005 10.46751,26.56844 17.65154,33.6825 7.15205,7.08245 14.52694,9.58876 23.38351,7.94677 z m 309.38649,-6.3923 c 0.23295,-0.23275 2.28038,-4.96391 2.85504,-6.59744 0.40006,-1.13719 0.39053,-1.17444 -0.37551,-1.47122 -2.24863,-0.87109 -3.59109,-2.773 -3.2356,-4.58402 0.26532,-1.35169 2.15232,-3.39136 4.29433,-4.64175 l 1.84497,-1.077 0.009,-1.46354 c 0.01,-1.69047 -0.0716,-1.72039 -2.43838,-0.88979 -2.67969,0.94043 -6.89936,3.23906 -9.77677,5.32584 -2.64532,1.91846 -2.72509,2.01364 -4.02158,4.79798 -1.19505,2.56658 -2.80485,6.89115 -2.80485,7.53504 0,0.13976 0.54154,0.25413 1.20342,0.25413 1.1121,0 1.25277,-0.0994 1.85419,-1.30948 0.96816,-1.9481 3.58699,-5.72599 4.44714,-6.41538 0.68787,-0.5513 0.79867,-0.56159 1.27892,-0.11875 0.82326,0.75915 1.21029,2.73095 1.40439,7.15516 l 0.17932,4.08727 1.54448,-0.19713 c 0.84947,-0.10843 1.63134,-0.2839 1.73747,-0.38992 z m -104.84742,-6.06876 1.62629,-1.10024 1.58493,0.81835 1.58492,0.81835 2.79726,-1.28773 2.79722,-1.28772 2.1841,0.45791 c 2.06479,0.43287 2.21504,0.4264 2.74948,-0.11816 0.98776,-1.00645 5.55282,-10.77502 6.74405,-14.43123 0.70841,-2.17441 1.20345,-4.35304 1.2952,-5.70006 0.1335,-1.96056 0.0428,-2.45049 -0.89891,-4.85903 -1.11111,-2.84153 -2.68453,-5.86424 -3.97855,-7.64313 -1.55999,-2.14448 -4.90122,-5.33007 -7.27,-6.93132 -2.32202,-1.56963 -4.64941,-2.76117 -4.8982,-2.50768 -0.0651,0.0663 0.0489,1.93989 0.25332,4.16355 l 0.37163,4.04301 1.22946,0.007 c 1.79949,0.0103 3.61395,0.94905 4.08837,2.11609 0.87718,2.15774 -0.3769,5.49887 -2.61479,6.96644 -0.72722,0.4769 -1.15819,1.20841 -1.90593,3.23518 -1.48229,4.01762 -4.58541,10.32381 -6.59518,13.40287 -2.29823,3.52095 -5.2625,6.78388 -5.9269,6.52409 -0.26511,-0.10366 -0.70898,-0.0997 -0.98636,0.008 -0.39677,0.15513 -0.026,0.64371 1.73874,2.2906 1.23368,1.15135 2.27919,2.09816 2.32335,2.10397 0.0442,0.006 0.81206,-0.48453 1.7065,-1.08963 z m -9.41234,-5.58457 c 2.9064,-1.92668 8.49253,-7.63889 8.28005,-8.46691 -0.0848,-0.33037 0.0394,-1.07278 0.27604,-1.64985 0.64796,-1.58015 0.55543,-3.58886 -0.20356,-4.41897 -0.89175,-0.97527 -1.83675,-1.27168 -4.05454,-1.27168 -1.82562,0 -2.00399,0.0675 -3.3766,1.27799 -1.81246,1.59833 -3.00049,2.11124 -4.89031,2.11124 -2.39006,0 -3.36832,-0.32748 -4.62938,-1.54979 -0.65295,-0.6329 -1.35195,-1.13626 -1.55334,-1.11861 -0.20139,0.0176 -1.1625,-0.15008 -2.13581,-0.37276 -2.22056,-0.50797 -3.55719,-0.26031 -4.85344,0.89933 -1.06034,0.94861 -1.69263,2.70159 -1.69263,4.69261 0,2.24318 4.03443,6.10909 8.92049,8.54785 2.4562,1.22595 6.30144,2.63422 7.49392,2.74454 0.13009,0.012 1.21869,-0.62919 2.41911,-1.42499 z m 11.01969,-11.80195 c 1.47385,-2.25393 4.31682,-7.39428 4.31682,-7.80516 0,-0.11317 -0.18977,-0.20576 -0.42174,-0.20576 -0.23193,0 -1.34814,-0.29156 -2.48044,-0.64789 -3.91477,-1.23205 -5.03624,-3.50548 -3.19135,-6.46958 0.47378,-0.76122 1.4263,-1.83989 2.11672,-2.39708 0.69041,-0.55717 1.25531,-1.19329 1.25531,-1.41362 0,-0.64718 -2.34234,-5.15849 -3.24909,-6.25773 l -0.83318,-1.01003 -4.38486,0.48816 -4.38489,0.48818 -8.21505,-1.86066 -8.21505,-1.86063 -2.27276,0.83288 -2.27277,0.83289 -0.49851,2.01178 c -2.39602,9.66905 -2.06324,17.94402 0.9958,24.76279 l 1.08984,2.42924 0.37158,-1.85609 c 0.20435,-1.02084 0.60687,-2.22201 0.89446,-2.66924 1.09259,-1.69905 3.50201,-2.30456 6.42376,-1.61438 1.75057,0.41351 1.89182,0.40923 1.70768,-0.0515 -1.30096,-3.25591 -1.45162,-3.99947 -1.47508,-7.28075 -0.0288,-3.9954 0.53604,-5.66286 2.41099,-7.12001 0.98106,-0.76244 1.41133,-0.88884 2.98425,-0.87661 3.7467,0.0291 7.82684,2.69984 9.24069,6.04861 0.57614,1.36466 0.65906,2.00606 0.54857,4.24275 -0.082,1.65927 -0.32144,3.00587 -0.64666,3.63642 l -0.51652,1.00136 2.13421,0 c 3.97165,0 5.30574,1.15614 5.06702,4.39124 -0.0781,1.05877 -0.25004,2.20236 -0.38207,2.54129 -0.37768,0.96949 0.20533,0.25378 1.88232,-2.31084 z m -71.75158,-9.2636 c 6.88947,-3.34431 11.89547,-4.76311 16.0263,-4.54223 1.87025,0.10009 2.78425,0.30597 3.63925,0.81999 0.62798,0.37753 1.20867,0.61826 1.2904,0.53495 0.12564,-0.128 -2.83007,-94.09666 -3.02907,-96.30103 -0.0413,-0.45788 -4.29581,9.31456 -10.73106,24.64896 l -10.66259,25.40762 -0.45404,5.20835 c -0.24974,2.86457 -0.39069,5.27291 -0.31324,5.35184 0.0775,0.0789 1.80995,-0.77576 3.84997,-1.8993 2.04003,-1.12355 3.82401,-2.0038 3.96441,-1.95611 0.14043,0.0477 -1.7444,2.85494 -4.18849,6.23833 l -4.44377,6.15161 -1.34826,16.13665 c -0.74156,8.87514 -1.26303,16.59951 -1.15888,17.16527 l 0.18938,1.02863 1.86182,-1.11186 c 1.02401,-0.61147 3.50255,-1.90825 5.50787,-2.88167 z M 251.20069,187.0211 c 2.3902,-1.50308 6.38657,-3.16968 9.41966,-3.92822 3.3274,-0.83216 8.39347,-0.89477 11.15792,-0.13792 1.06427,0.29138 1.97666,0.48737 2.02754,0.43554 0.0509,-0.0518 5.74863,-16.07364 12.66169,-35.60397 l 12.5692,-35.50971 2.03469,-1.94569 c 1.1191,-1.07014 4.25516,-3.97437 6.96901,-6.45388 3.97431,-3.63105 5.52886,-5.303402 7.99027,-8.595516 13.66849,-18.281765 28.58777,-32.954419 42.04344,-41.348448 9.66516,-6.029409 18.03295,-9.077647 28.15006,-10.254577 l 2.07763,-0.241693 -10.39334,-3.655122 c -6.01701,-2.11606 -11.41198,-3.827998 -12.81247,-4.065688 -2.93414,-0.497977 -12.76078,-0.569966 -17.12856,-0.125482 -6.57749,0.669352 -10.56798,1.495757 -15.16766,3.14112 l -4.47636,1.601255 -30.54742,37.601071 -30.54743,37.60107 -8.14018,15.96743 -8.14021,15.96743 -0.90909,18.69517 c -0.94744,19.48367 -1.02871,21.93037 -0.72833,21.93037 0.0997,0 0.95014,-0.48355 1.88994,-1.07454 z"
       id="path4147"
       inkscape:connector-curvature="0" />
  </g>
</svg>
