<?xml version="1.0" encoding="UTF-8" standalone="no"?>
<!-- Created with Inkscape (http://www.inkscape.org/) -->

<svg
   version="1.1"
   id="svg1791"
   width="1248"
   height="710.66669"
   viewBox="0 0 1248 710.66669"
   sodipodi:docname="riba2.svg"
   inkscape:version="1.2.2 (732a01da63, 2022-12-09, custom)"
   xmlns:inkscape="http://www.inkscape.org/namespaces/inkscape"
   xmlns:sodipodi="http://sodipodi.sourceforge.net/DTD/sodipodi-0.dtd"
   xmlns="http://www.w3.org/2000/svg"
   xmlns:svg="http://www.w3.org/2000/svg">
  <defs
     id="defs1795" />
  <sodipodi:namedview
     id="namedview1793"
     pagecolor="#ffffff"
     bordercolor="#000000"
     borderopacity="0.25"
     inkscape:showpageshadow="2"
     inkscape:pageopacity="0.0"
     inkscape:pagecheckerboard="0"
     inkscape:deskcolor="#d1d1d1"
     showgrid="false"
     inkscape:zoom="0.76282051"
     inkscape:cx="648.90756"
     inkscape:cy="565.0084"
     inkscape:window-width="1920"
     inkscape:window-height="1031"
     inkscape:window-x="0"
     inkscape:window-y="25"
     inkscape:window-maximized="1"
     inkscape:current-layer="layer2" />
  <g
     inkscape:groupmode="layer"
     id="layer2"
     inkscape:label="Layer 1">
    <path
       style="fill:#000000;stroke-width:1.33333"
       d="m 544.34245,656.58762 c -12.4805,-6.21929 -14.36861,-14.80524 -16.19214,-73.63183 -0.62022,-20.00766 -1.40176,-36.65168 -1.73679,-36.98671 -0.33503,-0.33502 -13.06716,-4.53996 -28.29361,-9.34429 l -27.68448,-8.73516 -46.2946,19.253 c -80.35679,33.4188 -99.30607,39.83035 -118.36706,40.0499 -10.45472,0.1204 -12.77301,-0.26372 -16,-2.6512 -5.00005,-3.69928 -9.40281,-11.66399 -10.98638,-19.87464 -0.70718,-3.66667 -2.58475,-13.43682 -4.17238,-21.71145 -2.9715,-15.48741 -5.08281,-23.03222 -11.26488,-40.25558 -1.96762,-5.48187 -3.97634,-13.54922 -4.46382,-17.92742 -0.79106,-7.10486 -1.33742,-8.22361 -5.08383,-10.40972 -6.35032,-3.70553 -22.48564,-6.63461 -33.80248,-6.13622 -13.09049,0.57649 -18.02277,3.13524 -49.8724,25.8725 -57.59847,41.11924 -80.666963,51.42943 -114.9781,51.38811 -18.611804,-0.0224 -23.796177,-1.37264 -31.580832,-8.22496 C 2.8859687,519.05631 2.3529756,482.58552 22.064315,434.32453 25.431899,426.07937 35.896217,404.18049 45.318356,385.66035 L 62.449517,351.98734 51.665453,332.32701 C 23.72986,281.39788 16.351693,259.77566 10.014137,210.26505 c -3.6630813,-28.61692 -2.2323667,-35.8184 9.097326,-45.79119 18.33219,-16.13664 52.164768,-11.93095 85.555207,10.63527 12.73813,8.6088 35.20821,31.42398 59.31326,60.22421 35.35483,42.24123 47.86778,54 57.46335,54 7.21867,0 32.76177,-6.80144 60.32459,-16.06282 23.82688,-8.00607 33.27436,-11.97544 34.94802,-14.6835 3.04686,-4.92991 -19.82582,-17.02839 -50.52226,-26.72371 -22.22159,-7.01857 -36.8603,-12.80612 -36.8603,-14.57306 0,-2.03538 13.82712,-9.79616 33.34112,-18.71347 68.78951,-31.43473 178.31319,-91.21181 233.99222,-127.710944 29.61217,-19.411593 49.71525,-31.258559 61.75369,-36.392127 9.25493,-3.946596 11.5426,-4.374397 23.64412,-4.421528 12.81941,-0.04993 13.82675,0.160788 23.33333,4.880895 10.17656,5.052751 31.83855,20.788271 61.1313,44.406479 24.74965,19.955196 22.58642,18.539288 25.89452,16.948805 4.86298,-2.338048 15.02594,-4.286882 22.50013,-4.31459 3.89193,-0.01443 11.87624,-0.893495 17.74291,-1.953483 28.42876,-5.136498 95.59292,-0.375349 123.94596,8.786311 6.57026,2.123042 12.4659,3.860072 13.10141,3.860072 0.63551,0 18.35983,8.59999 39.38739,19.11109 61.63958,30.81194 89.07208,47.46162 152.89857,92.79919 23.4667,16.66898 50.8654,36.09203 60.8862,43.16237 21.954,15.49012 37.3108,27.68469 66.4471,52.76461 15.9257,13.70845 24.5991,20.17085 31.4133,23.40548 10.0674,4.77895 21.9201,16.10949 21.9201,20.95459 0,4.85184 -5.3518,13.06251 -14.4344,22.14504 -13.9145,13.91453 -25.8645,22.29936 -45.5656,31.97165 l -18,8.83711 23.9807,2.46465 c 26.9467,2.7695 32.0848,4.45902 35.6352,11.71756 5.5791,11.40607 8.0992,35.48239 4.4522,42.53497 -5.7879,11.19253 -25.9982,21.34146 -72.0681,36.19024 -46.042,14.83973 -93.8625,31.3225 -133.4063,45.9824 l -33.40623,12.38456 -67.26041,2.15223 c -159.68647,5.10973 -181.88504,6.6765 -210.02236,14.8233 -15.95688,4.62012 -27.60673,10.37999 -57.90473,28.62902 -41.68988,25.11054 -85.77035,45.30329 -98.89646,45.30329 -2.51898,0 -7.66146,-1.53557 -11.42776,-3.4124 z"
       id="path1909" />
    <g
       id="layer1"
       inkscape:label="01"
       style="fill:#668000">
      <path
         style="fill:#668000;stroke-width:1.33333"
         d="m 786.13328,154.81477 c 2.86003,-2.11855 9.10005,-7.22843 13.86672,-11.35531 8.93264,-7.73368 24.96549,-16.79279 29.71996,-16.79279 5.61112,0 15.61337,-10.54321 15.61337,-16.4578 0,-1.05796 -0.94108,-2.28469 -2.09128,-2.72606 -3.72094,-1.42786 -42.27536,-6.13984 -52.61852,-6.43084 -13.50942,-0.38009 -17.39682,1.44145 -23.91836,11.20751 -11.23829,16.82947 -10.6813,28.0506 2.00431,40.37961 7.29963,7.09442 10.28095,7.4667 17.4238,2.17568 z"
         id="path2118" />
      <path
         style="fill:#668000;stroke-width:1.33333"
         d="m 692.17911,156.73959 c 2.63896,-1.79322 7.01501,-6.60031 9.72456,-10.6824 6.29148,-9.47852 15.87066,-30.9848 14.91282,-33.48088 -1.14584,-2.98601 -11.22233,-2.31894 -18.81649,1.24566 -7.87176,3.69491 -19.69799,15.75606 -23.35999,23.82403 -3.79185,8.35406 -3.42242,13.77672 1.25743,18.45657 4.84085,4.84086 9.80909,5.03525 16.28167,0.63702 z"
         id="path2114" />
      <path
         style="fill:#668000;stroke-width:1.33333"
         d="m 867.31357,154.46169 c 7.9973,-10.61095 11.8243,-13.90581 23.79314,-20.4847 4.99374,-2.74491 8.58762,-5.43726 7.98641,-5.983 -2.91179,-2.64312 -23.68692,-9.30597 -31.23676,-10.01803 -6.76013,-0.63758 -9.48125,-0.30455 -13.15571,1.6101 -6.59524,3.43657 -11.91425,11.6755 -12.89753,19.97772 -1.08681,9.17652 0.008,12.81552 5.78091,19.20481 7.22549,7.99775 11.09184,7.15374 19.72954,-4.3069 z"
         id="path2112" />
      <path
         style="fill:#668000;stroke-width:1.33333"
         d="m 900,181.41034 c 10.63333,-2.14491 30.13333,-5.7508 43.33333,-8.01309 29.62456,-5.07724 30,-5.16118 30,-6.7063 0,-2.02284 -14.93989,-11.597 -28.06378,-17.98453 -36.86898,-17.9445 -63.83655,-10.78627 -71.87852,19.07932 -1.72427,6.40343 -0.87827,12.53655 2.14649,15.56132 2.5636,2.56359 1.88651,2.6172 24.46248,-1.93672 z"
         id="path2108" />
      <path
         style="fill:#668000;stroke-width:1.33333"
         d="m 741.77889,192.11554 c 15.1298,-17.18445 19.55444,-23.40964 19.55444,-27.51188 0,-1.66332 -1.65,-6.2084 -3.66666,-10.10016 -3.54759,-6.84615 -3.65782,-7.69338 -3.3942,-26.08867 0.31018,-21.64383 -0.5285,-23.95409 -8.10408,-22.32395 -6.81168,1.46575 -10.80707,4.07802 -17.32486,11.32737 -15.37574,17.10153 -22.82881,43.99697 -17.61714,63.57385 3.4675,13.02515 11.40258,25.67457 16.10588,25.67457 0.8994,0 7.40038,-6.54801 14.44662,-14.55113 z"
         id="path2102" />
      <path
         style="fill:#668000;stroke-width:1.33333"
         d="m 652.99623,206.33334 c 0.72749,-0.91667 1.7285,-3.91851 2.22444,-6.67076 0.49593,-2.75225 4.47417,-10.345 8.84052,-16.87276 C 668.70544,175.84659 672,169.47486 672,167.43605 c 0,-1.91682 -1.57668,-6.50046 -3.50372,-10.18587 -4.16056,-7.95692 -5.32009,-16.05386 -3.33077,-23.25859 0.79646,-2.88454 0.96945,-5.72329 0.38444,-6.30831 -1.91171,-1.9117 -16.86572,9.06183 -23.32154,17.11376 C 634.52651,154.40313 624,174.84102 624,180.18866 c 0,7.36852 8.55705,20.41671 16.60984,25.32745 4.67741,2.85238 10.46799,3.23443 12.38639,0.81723 z"
         id="path2100" />
      <path
         style="fill:#668000;stroke-width:1.33333"
         d="m 565.3448,213.98619 c 0.91921,-1.10758 2.17757,-4.85758 2.79635,-8.33333 0.61877,-3.47573 5.62233,-15.20429 11.11902,-26.06347 11.23351,-22.19276 11.62739,-21.30685 -5.92684,-13.33058 -11.84409,5.38172 -19.147,11.93654 -23.47968,21.07453 -5.00216,10.54996 -4.15938,17.08231 3.22539,25 3.81557,4.09092 9.59589,4.86984 12.26576,1.65285 z"
         id="path2096" />
      <path
         style="fill:#668000;stroke-width:1.33333"
         d="m 814.38448,216.19062 c 19.01656,-12.78527 33.30069,-18.85728 44.36093,-18.85728 2.82187,0 5.66019,-0.88215 6.64107,-2.06404 2.69563,-3.24803 -0.78089,-8.83053 -15.32131,-24.60263 -7.09869,-7.7 -15.61344,-18.05 -18.92166,-23 -3.30823,-4.95 -6.88082,-9 -7.93907,-9 -3.02605,0 -12.45493,6.43735 -20.30939,13.86578 -12.19664,11.53506 -16.78961,24.83301 -13.68585,39.62433 1.75353,8.35659 10.96685,31.79728 12.50861,31.8246 0.57814,0.0107 6.27814,-3.4956 12.66667,-7.79076 z"
         id="path2094" />
      <path
         style="fill:#668000;stroke-width:1.33333"
         d="m 890.17889,237.44187 c 9.96779,-6.07805 16.7202,-21.75258 16.9911,-39.44186 l 0.16334,-10.66667 -4.84242,0.13811 c -10.97452,0.313 -30.42846,14.62376 -33.13759,24.37677 -2.98205,10.73549 -0.69972,25.25368 4.28529,27.2594 3.96698,1.59609 12.62011,0.72465 16.54028,-1.66575 z"
         id="path2090" />
      <path
         style="fill:#668000;stroke-width:1.33333"
         d="m 701.88681,238.89819 c 7.577,-7.206 15.65215,-13.87878 17.94478,-14.82842 2.29262,-0.94964 4.16841,-2.51891 4.16841,-3.48727 0,-0.96836 -3.06325,-5.24556 -6.80723,-9.50491 -8.35812,-9.50862 -13.91113,-18.87009 -16.62644,-28.02942 -1.13349,-3.82351 -3.16888,-8.32015 -4.52309,-9.99252 l -2.4622,-3.0407 -6.14709,2.9865 c -8.85627,4.3027 -17.31967,12.66556 -20.94464,20.69582 -2.61095,5.78392 -3.13879,9.12399 -3.10315,19.63607 0.0372,10.97056 0.52232,13.65488 3.62299,20.04676 1.96901,4.05905 5.24746,8.97111 7.28544,10.91568 3.60594,3.44068 10.6342,7.67945 12.76064,7.69601 0.58037,0.004 7.25458,-5.8876 14.83158,-13.0936 z"
         id="path2084" />
      <path
         style="fill:#668000;stroke-width:1.33333"
         d="m 609.39412,254.63414 c 1.40368,-0.75122 8.61061,-8.87911 16.0154,-18.06195 l 13.46327,-16.69609 -8.61715,-9.13464 c -14.18836,-15.0404 -16.34467,-28.93224 -8.24365,-53.10904 2.03352,-6.06883 3.34402,-11.38752 2.91224,-11.8193 -1.5864,-1.5864 -13.36348,5.40094 -20.9648,12.43843 -17.62047,16.31344 -27.69498,40.23978 -26.36003,62.6034 0.72492,12.14418 3.58135,18.71003 11.28763,25.94599 9.72262,9.12926 14.6025,10.99324 20.50709,7.8332 z"
         id="path2082" />
      <path
         style="fill:#668000;stroke-width:1.33333"
         d="m 524.82123,255.17064 c 8.4843,-4.02607 21.84544,-21.44262 21.84544,-28.47605 0,-1.50973 -1.85982,-6.18364 -4.13291,-10.38645 -3.98236,-7.36312 -4.10765,-8.09107 -3.4396,-19.98476 0.90117,-16.04417 -0.22113,-16.91911 -13.29564,-10.36508 -32.20601,16.14432 -42.52187,41.21349 -25.33583,61.57012 3.75679,4.44985 13.22098,9.80212 17.3358,9.80387 1.35584,5.9e-4 4.51607,-0.97216 7.02274,-2.16165 z"
         id="path2080" />
      <path
         style="fill:#668000;stroke-width:1.33333"
         d="m 765.30153,258.66582 c 6.33316,-8.14123 11.6152,-13.23064 18.75708,-18.07305 6.37007,-4.31911 10.09132,-7.76792 10.35876,-9.60036 0.23215,-1.59062 -2.00636,-6.87839 -5.044,-11.91486 C 783.30001,209.00777 780,199.41169 780,191.82074 c 0,-11.62427 -5.33952,-15.32532 -15.21373,-10.54529 -21.08455,10.20685 -32.33464,47.9722 -22.26004,74.72456 3.11294,8.26619 8.66204,15.01852 11.8394,14.40661 1.16613,-0.22457 6.08729,-5.50793 10.9359,-11.7408 z"
         id="path2078" />
      <path
         style="fill:#668000;stroke-width:1.33333"
         d="m 449.30387,271.18414 c 1.89304,-3.66352 8.01282,-12.44852 13.59952,-19.52224 12.01718,-15.21584 17.80012,-24.91851 19.58409,-32.85844 1.91379,-8.51764 0.97129,-9.89169 -6.06155,-8.83705 -22.10932,3.3155 -49.98521,20.90554 -57.0195,35.98004 -7.05318,15.11496 -1.51903,28.23665 13.51938,32.05505 9.16371,2.32676 12.33515,1.00664 16.37806,-6.81736 z"
         id="path2076" />
      <path
         style="fill:#668000;stroke-width:1.33333"
         d="m 831.31595,278.76778 c 4.09494,-6.96549 10.57481,-12.8544 20.88268,-18.97818 13.43089,-7.97915 14.08268,-9.32951 10.67441,-22.11506 -1.51616,-5.68765 -3.17197,-13.58032 -3.67956,-17.53924 -0.53901,-4.20395 -1.94976,-8.22491 -3.39152,-9.66667 -6.74691,-6.7469 -29.95353,1.77295 -38.12221,13.99582 -8.86352,13.26256 -12.37155,35.4208 -7.52527,47.53284 4.75608,11.8866 16.03269,15.49449 21.16147,6.77049 z"
         id="path2074" />
      <path
         style="fill:#668000;stroke-width:1.33333"
         d="m 575.12651,297.86648 c 3.3714,-7.1267 9.23297,-13.06338 19.87929,-20.134 12.27972,-8.15543 13.87712,-14.98452 3.51927,-15.04539 -4.69314,-0.0276 -13.20763,-6.7942 -24.96654,-19.84139 -5.86266,-6.50495 -10.81284,-10.84569 -12.36842,-10.84569 -3.95275,0 -14.31086,11.21693 -18.22678,19.738 -7.10162,15.45321 -3.7394,31.54915 9.32894,44.66033 11.69757,11.73594 17.79154,12.12775 22.83424,1.46814 z"
         id="path2072" />
      <path
         style="fill:#668000;stroke-width:1.33333"
         d="m 643.15735,304.96388 c 1.66986,-1.66987 4.95554,-6.63734 7.3015,-11.03879 2.34595,-4.40147 8.15242,-13.18185 12.90326,-19.51199 5.3762,-7.16337 8.63789,-12.79688 8.63789,-14.91913 0,-2.06607 -4.29708,-9.7595 -10.90407,-19.52247 l -10.90408,-16.11265 -12.48913,12.4039 c -16.24049,16.12968 -21.0512,25.12501 -20.05748,37.50461 0.81675,10.17488 7.50739,24.62698 14.06783,30.38717 5.28437,4.63977 7.45998,4.79364 11.44428,0.80935 z"
         id="path2070" />
      <path
         style="fill:#668000;stroke-width:1.33333"
         d="m 722.21485,308.17402 c 5.48344,-3.97218 16.29924,-16.01565 18.9369,-21.08636 2.39521,-4.60464 1.83702,-7.66646 -3.16404,-17.35576 -2.6352,-5.10553 -5.45747,-13.28822 -6.46126,-18.73325 -2.12786,-11.54263 -4.75696,-15.00056 -11.39977,-14.99366 -11.75973,0.012 -19.53321,11.21674 -21.00272,30.27279 -1.69887,22.03046 6.2512,45.72223 15.34265,45.72223 1.35664,0 4.84335,-1.72169 7.74824,-3.82599 z"
         id="path2068" />
      <path
         style="fill:#668000;stroke-width:1.33333"
         d="m 486.61193,312.20326 c 1.46022,-5.42282 9.1117,-16.11492 22.56822,-31.53658 4.4792,-5.13334 8.14606,-9.67234 8.14858,-10.08666 0.003,-0.41433 -5.5454,-5.17237 -12.32873,-10.57344 -6.78333,-5.40106 -14.83961,-11.84852 -17.90285,-14.32768 l -5.56951,-4.50757 -10.28727,12.36004 c -16.34956,19.64381 -18.17469,26.2616 -11.26872,40.85953 4.86923,10.29263 16.93875,22.94244 21.89,22.94244 2.7799,0 3.61042,-0.89692 4.75028,-5.13008 z"
         id="path2066" />
      <path
         style="fill:#668000;stroke-width:1.33333"
         d="m 784.93813,317.00001 c 6.23766,-6.54807 14.44372,-20.03 16.36206,-26.88159 1.51574,-5.41374 1.3969,-7.10948 -1.05878,-15.1083 -1.52138,-4.95556 -3.13994,-13.00499 -3.5968,-17.88763 -0.60034,-6.41634 -1.56269,-9.54003 -3.47117,-11.26719 -2.53883,-2.2976 -2.81301,-2.29679 -7.11763,0.0215 -5.43556,2.92724 -11.46905,11.08648 -17.10108,23.12621 -5.6324,12.04052 -5.78121,24.5193 -0.45645,38.27499 5.85851,15.13457 9.32892,17.18689 16.43985,9.72209 z"
         id="path2064" />
      <path
         style="fill:#668000;stroke-width:1.33333"
         d="m 412.01564,319.82128 c 6.78045,-8.57792 15.53872,-23.32542 16.70963,-28.1363 0.77268,-3.17469 0.30813,-3.95368 -3.57811,-6 -7.80704,-4.11084 -15.40288,-12.5414 -17.15595,-19.04122 -1.50084,-5.56464 -1.38378,-8.85638 0.84076,-23.64375 1.1374,-7.56067 -1.02168,-7.44599 -9.30818,0.49438 -8.24628,7.90183 -14.62371,17.9179 -18.23579,28.64019 -2.27388,6.74992 -2.7626,10.83428 -2.375,19.84876 0.5892,13.70311 2.86043,18.93128 12.19503,28.07187 9.40146,9.20605 13.48181,9.1604 20.90761,-0.23393 z"
         id="path2062" />
      <path
         style="fill:#668000;stroke-width:1.33333"
         d="m 298.23068,331.88834 c 3.15661,-1.52809 8.14789,-5.51466 11.09176,-8.85908 5.38715,-6.12012 6.59116,-9.20036 9.17507,-23.47282 0.77437,-4.2773 2.92921,-11.0998 4.78854,-15.16112 1.85934,-4.06132 3.38062,-8.8953 3.38062,-10.74215 0,-3.25144 -0.21408,-3.33259 -6.75,-2.55849 -9.71139,1.15016 -25.31602,9.09833 -33.05324,16.83556 -15.49846,15.49845 -17.84439,36.3715 -4.97015,44.2222 5.29889,3.23125 9.24885,3.16741 16.3374,-0.2641 z"
         id="path2060" />
      <path
         style="fill:#668000;stroke-width:1.33333"
         d="m 348.195,334.15268 c 7.77373,-5.9357 16.68983,-17.63139 19.91817,-26.12768 1.56032,-4.10643 3.10771,-13.15547 3.89283,-22.76512 0.78824,-9.64774 2.38601,-18.97415 4.04388,-23.6047 4.46848,-12.48079 4.44092,-12.32184 2.13607,-12.32184 -3.86067,0 -19.44556,6.48784 -25.36014,10.55718 -17.68989,12.17096 -30.10069,35.46777 -28.4707,53.4435 1.0926,12.04946 8.96778,25.33266 15.0189,25.33266 1.60006,0 5.5695,-2.03131 8.82099,-4.514 z"
         id="path2058" />
      <path
         style="fill:#668000;stroke-width:1.33333"
         d="m 246.12591,336.46157 c 7.7793,-5.0972 25.24994,-35.46329 24.28858,-42.21651 -0.33945,-2.38456 -1.42685,-2.98528 -6.0062,-3.31805 -6.50976,-0.47305 -11.64266,1.85032 -19.22838,8.70357 -13.02316,11.76564 -16.5437,27.49587 -8.21379,36.70032 2.6374,2.9143 4.86299,2.94604 9.15979,0.13067 z"
         id="path2056" />
      <path
         style="fill:#668000;stroke-width:1.33333"
         d="m 854.34944,343.66668 c 0.73845,-0.91667 1.75196,-3.58192 2.25224,-5.92279 0.96855,-4.53188 5.94364,-12.05525 14.28259,-21.59827 5.21217,-5.96476 6.97121,-13.50814 3.6313,-15.57232 -3.02564,-1.86994 -6.28245,-12.22781 -7.1862,-22.85473 -1.00873,-11.86133 -2.5932,-14.52707 -7.85037,-13.20759 -5.532,1.38844 -15.98817,10.73651 -19.67781,17.59242 -8.06922,14.99381 -8.17368,32.79673 -0.28499,48.5653 4.09711,8.18964 9.61649,14.66464 12.50035,14.66464 0.54465,0 1.59445,-0.75 2.33289,-1.66666 z"
         id="path2054" />
      <path
         style="fill:#668000;stroke-width:1.33333"
         d="m 711.63624,327.40142 c 1.25103,-1.09777 -0.3632,-3.89414 -6.85681,-11.87818 -10.47232,-12.87598 -15.06527,-21.15119 -16.79152,-30.25364 -1.67784,-8.84726 -3.16947,-10.60292 -9.00831,-10.60292 -3.82889,0 -5.85189,1.16712 -10.97776,6.33333 -10.63124,10.71492 -15.58179,30.36931 -12.00901,47.67747 2.19889,10.65237 5.61318,17.02734 13.69774,25.57557 l 6.72943,7.11539 16.79,-16.26562 c 9.23451,-8.94609 17.52631,-16.91172 18.42624,-17.7014 z"
         id="path2052" />
      <path
         style="fill:#668000;stroke-width:1.33333"
         d="m 850.66667,361.90539 c 0,-2.4619 -2.39588,-5.7498 -8.50147,-11.66667 -11.96432,-11.59454 -16.23927,-20.73592 -18.10497,-38.71512 -1.28243,-12.35834 -4.07614,-16.47798 -10.14198,-14.95555 -8.79422,2.20721 -20.75165,22.89887 -21.6827,37.52069 -0.48902,7.67974 -0.25816,8.45939 3.91057,13.20731 2.43664,2.77519 7.08383,6.18324 10.32708,7.57347 7.93276,3.40037 34.46372,10.32352 39.86013,10.40135 3.78144,0.0545 4.33334,-0.37411 4.33334,-3.36548 z"
         id="path2050" />
      <path
         style="fill:#668000;stroke-width:1.33333"
         d="m 614.06283,365.64627 c 0.76789,-0.53878 2.99528,-4.27959 4.94974,-8.31292 1.95447,-4.03334 7.23312,-11.83334 11.73035,-17.33334 13.101,-16.02227 13.11045,-16.11975 2.23705,-23.07537 -8.0394,-5.14275 -14.13349,-12.77602 -22.32677,-27.96582 l -5.55961,-10.30716 -8.54083,7.49843 c -6.20276,5.44572 -9.72871,9.91137 -12.88012,16.3128 -4.06337,8.25387 -4.33931,9.70644 -4.33931,22.84241 0,12.64851 0.35216,14.69546 3.58104,20.81474 6.80526,12.89716 24.65158,24.0846 31.14846,19.52623 z"
         id="path2048" />
      <path
         style="fill:#668000;stroke-width:1.33333"
         d="m 527.73333,365.06668 c 0.88,-0.88 1.60587,-2.83 1.61303,-4.33333 0.0321,-6.74954 7.44565,-18.20151 23.59888,-36.45435 l 6.94524,-7.848 -17.3252,-18.54883 c -9.52885,-10.20185 -17.91752,-18.75327 -18.64147,-19.00313 -2.60442,-0.89888 -21.19253,19.32426 -24.59698,26.76057 -6.40579,13.99207 -5.23882,33.64656 2.81354,47.38687 6.2851,10.72471 20.31031,17.32285 25.59296,12.0402 z"
         id="path2046" />
      <path
         style="fill:#668000;stroke-width:1.33333"
         d="m 451.40699,368.52011 c 3.63796,-2.7748 23.39638,-25.22131 32.37701,-36.78182 1.56515,-2.01477 0.87843,-2.70523 -6.28912,-6.3234 -10.26013,-5.17929 -16.92656,-11.04955 -20.39057,-17.95531 -5.71287,-11.38904 -10.8757,-13.97852 -17.49263,-8.77364 -4.89303,3.84886 -15.23649,17.98022 -19.84964,27.11879 -6.26131,12.40359 -5.6772,15.23313 6.06779,29.3938 5.57486,6.7215 17.40112,16.80148 19.7122,16.80148 0.71641,0 3.35564,-1.56596 5.86496,-3.4799 z"
         id="path2044" />
      <path
         style="fill:#668000;stroke-width:1.33333"
         d="m 763.07583,374.95121 c 1.18569,-1.31017 3.1362,-4.76017 4.33445,-7.66666 2.81745,-6.83402 6.98511,-11.28454 10.56729,-11.28454 1.56535,0 3.95144,-0.80825 5.30243,-1.79612 3.48892,-2.55117 1.66571,-6.96047 -10.00715,-24.20147 -9.75097,-14.40236 -14.60618,-24.63088 -14.60618,-30.77104 0,-4.89734 -2.33798,-8.5647 -5.46006,-8.5647 -4.20574,0 -16.52854,12.5529 -20.02369,20.39761 -4.35168,9.76716 -4.35657,28.85995 -0.0107,39.91921 7.91586,20.14187 22.6662,31.96443 29.90314,23.96771 z"
         id="path2042" />
      <path
         style="fill:#668000;stroke-width:1.33333"
         d="m 380.22835,380.46003 c 1.34108,-1.21366 2.43832,-3.53822 2.43832,-5.1657 0,-4.55142 3.50698,-13.46725 8.58604,-21.82827 7.73309,-12.73002 7.96593,-14.07793 3.34177,-19.34456 -5.07793,-5.78344 -15.92348,-12.78816 -19.80017,-12.78816 -4.7744,0 -11.7826,6.36231 -15.59779,14.16027 -3.15501,6.44861 -3.4702,8.36419 -2.92521,17.77844 0.72452,12.51559 4.81988,21.77703 11.67158,26.39463 5.28806,3.56381 8.96198,3.80105 12.28546,0.79335 z"
         id="path2040" />
      <path
         style="fill:#668000;stroke-width:1.33333"
         d="m 273.89928,377.21101 c 8.29375,-8.95824 15.40216,-20.3362 15.42155,-24.68425 0.0141,-3.17134 -11.75603,-14.95959 -18.33196,-18.36014 -6.24643,-3.23014 -9.04075,-2.67693 -13.4407,2.66098 -6.75712,8.19756 -8.60298,20.89155 -4.86717,33.47141 2.10372,7.08398 8.29629,15.03434 11.71033,15.03434 1.09346,0 5.37203,-3.65506 9.50795,-8.12234 z"
         id="path2038" />
      <path
         style="fill:#668000;stroke-width:1.33333"
         d="m 323.69571,381.00001 c 2.94433,-3.85 8.48316,-11.95916 12.3085,-18.02034 5.7715,-9.14483 6.67154,-11.36215 5.28846,-13.02865 -2.59078,-3.1217 -21.15103,-15.19798 -24.744,-16.09977 -10.60674,-2.66212 -15.84239,6.2148 -14.95012,25.34759 0.60182,12.90505 2.54082,18.44124 8.80312,25.13451 1.88681,2.01666 4.44536,3.66666 5.68564,3.66666 1.24029,0 4.66406,-3.15 7.6084,-7 z"
         id="path2036" />
      <path
         style="fill:#668000;stroke-width:1.33333"
         d="m 250.65661,402.01212 c 2.2549,-2.71697 0.87708,-10.91465 -4.53414,-26.97716 -5.87094,-17.42707 -9.50838,-24.36828 -12.76984,-24.36828 -4.29182,0 -11.70274,7.69641 -16.19235,16.81612 -3.97013,8.06445 -4.12789,8.93124 -2.58809,14.21925 2.75669,9.4671 7.57145,15.51007 15.1803,19.05271 7.98692,3.71867 18.34439,4.34167 20.90412,1.25736 z"
         id="path2030" />
      <path
         style="fill:#668000;stroke-width:1.33333"
         d="m 415.72184,415.62033 c 2.33473,-2.40882 8.18163,-10.95882 12.99311,-19 l 8.74814,-14.62032 -16.18641,-15.74102 c -9.34276,-9.08568 -17.07044,-15.56866 -18.27728,-15.33334 -1.14999,0.22423 -4.24529,4.6077 -6.87847,9.74103 -4.59801,8.96373 -4.7876,9.88773 -4.7876,23.33333 0,15.6938 2.03871,22.06222 9.94567,31.06775 5.37623,6.12317 8.91247,6.25848 14.44284,0.55257 z"
         id="path2028" />
      <path
         style="fill:#668000;stroke-width:1.33333"
         d="m 309.4902,414.82355 c 6.35989,-6.35991 6.66993,-10.64388 1.36753,-18.89583 -5.22668,-8.13409 -13.76569,-17.46571 -18.49054,-20.20687 -3.517,-2.0404 -4.22686,-2.0702 -6.77628,-0.28452 -6.2762,4.39603 -7.02407,21.97792 -1.42744,33.5585 3.67557,7.60553 8.25981,11.00518 14.83988,11.00518 4.39084,0 6.20672,-0.89634 10.48685,-5.17646 z"
         id="path2026" />
      <path
         style="fill:#668000;stroke-width:1.33333"
         d="m 571.60079,416.18993 c 6.08122,-4.80693 12.09054,-11.29701 27.50533,-29.7058 l 6.29351,-7.51589 -9.3093,-6.90125 c -12.34369,-9.15076 -21.98452,-19.89975 -24.85413,-27.71095 -5.28643,-14.38994 -5.6598,-15.0227 -8.86437,-15.0227 -4.15202,0 -12.29923,6.90515 -16.24079,13.76483 -6.23136,10.84475 -7.74797,27.85287 -4.07099,45.65427 4.02626,19.49237 12.29248,31.99407 21.48688,32.49639 0.85082,0.0465 4.47506,-2.23002 8.05386,-5.0589 z"
         id="path2024" />
      <path
         style="fill:#668000;stroke-width:1.33333"
         d="m 499.15352,418.56991 c 2.55497,-2.00975 3.51315,-3.99026 3.51315,-7.26159 0,-2.64121 2.20172,-8.75285 5.33333,-14.80456 2.93333,-5.66852 5.33333,-11.61079 5.33333,-13.20503 0,-3.87304 -6.13137,-12.11948 -17.91776,-24.09861 -6.06233,-6.16148 -10.77825,-9.86678 -12.55794,-9.86678 -4.03987,0 -12.36438,7.98086 -16.77256,16.08015 -5.52356,10.1486 -6.15102,21.29042 -1.74142,30.92227 5.49,11.99172 14.5081,20.56607 24.98106,23.7518 5.18284,1.57655 6.06916,1.43969 9.82881,-1.51765 z"
         id="path2022" />
      <path
         style="fill:#668000;stroke-width:1.33333"
         d="m 725.67687,423.00001 c 1.14958,-1.28333 3.55745,-5.66549 5.3508,-9.73814 3.61526,-8.21014 10.41297,-16.69303 14.38778,-17.95459 3.22202,-1.02263 3.36584,-5.57851 0.31606,-10.01059 -1.24768,-1.81317 -6.0396,-7.95473 -10.64871,-13.64792 -8.88976,-10.98065 -13.65757,-19.11603 -15.01813,-25.62567 -0.4843,-2.31706 -2.26118,-4.77952 -4.25739,-5.89996 -3.11659,-1.74929 -4.01565,-1.6309 -9.95005,1.31024 -5.58811,2.76951 -7.14832,4.47644 -10.8771,11.89996 -8.4971,16.91663 -8.80213,41.39198 -0.70133,56.27582 4.29103,7.88403 5.05356,8.53269 14.68716,12.49421 9.21292,3.78854 13.89535,4.03976 16.71091,0.89664 z"
         id="path2018" />
      <path
         style="fill:#668000;stroke-width:1.33333"
         d="M 653.27633,426.88748 C 661.32517,418.4264 676,387.66221 676,379.24979 c 0,-6.23936 -5.04743,-13.30302 -19.34867,-27.07758 l -14.24784,-13.72313 -3.19524,3.00177 c -5.99765,5.63449 -12.45113,16.53858 -14.49772,24.49596 -5.78068,22.47599 1.7702,55.76734 14.39464,63.46511 6.0765,3.70515 8.68756,3.24001 14.17116,-2.52444 z"
         id="path2016" />
      <path
         style="fill:#668000;stroke-width:1.33333"
         d="m 369.349,417.33335 12.26301,-15.33334 -10.47268,-9.89094 c -15.61112,-14.74398 -25.64204,-22.77572 -28.44481,-22.77572 -3.56971,0 -10.43936,8.88814 -12.68397,16.41086 -3.5358,11.85006 0.27849,20.7165 15.7373,36.58191 5.89108,6.04603 10.85215,10.84603 11.0246,10.66667 0.17244,-0.17936 5.8319,-7.22611 12.57655,-15.65944 z"
         id="path2014" />
      <path
         style="fill:#668000;stroke-width:1.33333"
         d="m 245.08248,451.43584 c 0.47825,-7.54987 -2.81636,-23.42864 -6.17224,-29.74776 -1.31608,-2.47817 -5.37911,-6.16391 -9.55387,-8.66667 -13.08757,-7.846 -21.79596,-23.07038 -21.93902,-38.35473 -0.0977,-10.44871 1.10562,-13.58545 8.41802,-21.94174 7.79599,-8.9089 11.0466,-18.82308 11.11604,-33.90317 0.0604,-13.11211 -1.61369,-17.48843 -6.68981,-17.48843 -8.84791,0 -31.93441,21.72728 -40.5914,38.20156 -10.85133,20.65013 -9.76948,50.6583 2.82048,78.23361 9.33193,20.43936 38.06373,41.43564 55.50932,40.56443 l 6.66667,-0.33292 z"
         id="path2010" />
      <path
         style="fill:#668000;stroke-width:1.33333"
         d="m 275.0644,461.63052 c 1.1794,-1.30322 3.80907,-5.95323 5.84371,-10.33333 2.91621,-6.27792 3.70561,-9.93968 3.72896,-17.29718 0.0264,-8.32842 -0.42164,-9.97934 -4.16143,-15.33333 -5.77659,-8.26992 -13.78656,-16 -16.57933,-16 -3.3242,0 -8.89958,7.16449 -10.68252,13.72729 -1.89138,6.96192 -0.83627,21.93822 2.1965,31.17723 4.48994,13.67814 13.90442,20.41266 19.65411,14.05932 z"
         id="path2008" />
      <path
         style="fill:#668000;stroke-width:1.33333"
         d="m 472.77531,468.31299 c 0.79309,-0.53877 2.1199,-5.17959 2.94846,-10.31292 1.1379,-7.04971 2.2979,-10.02007 4.741,-12.14006 8.35928,-7.25366 6.8546,-15.28438 -4.0356,-21.5387 -9.61221,-5.52035 -18.184,-14.68274 -20.26734,-21.66378 -4.42376,-14.82345 -8.58751,-16.94162 -16.36298,-8.32413 -6.51894,7.22491 -9.92284,13.27039 -12.50106,22.20249 -2.766,9.58263 -1.96228,17.34651 2.80706,27.11598 4.41406,9.0417 12.20888,15.32711 26.10758,21.05201 11.45916,4.72006 14.0852,5.29228 16.56288,3.60911 z"
         id="path2006" />
      <path
         style="fill:#668000;stroke-width:1.33333"
         d="m 308.02512,468.24779 2.98721,-2.41891 -2.30017,-9.91443 c -3.76448,-16.22612 -3.86463,-16.45328 -7.87471,-17.86354 -3.29302,-1.15811 -4.16932,-0.87931 -6.78152,2.15754 -6.59772,7.67031 -5.29058,23.19159 2.34516,27.84739 5.30518,3.23475 7.81514,3.2762 11.62403,0.19195 z"
         id="path2004" />
      <path
         style="fill:#668000;stroke-width:1.33333"
         d="m 539.02492,472.33335 c 1.15768,-1.28333 3.3704,-5.72083 4.91713,-9.86109 2.44532,-6.54554 8.02171,-15.94333 15.46608,-26.06475 2.89658,-3.93819 1.55456,-7.37768 -4.52153,-11.58842 -8.49507,-5.88708 -13.69481,-12.20029 -19.48668,-23.65949 -3.05475,-6.04381 -6.21299,-11.20839 -7.01832,-11.47683 -2.68255,-0.89418 -10.67063,7.54027 -13.86604,14.64087 -2.78408,6.18657 -3.15013,8.96683 -3.11724,23.67637 0.0469,21.0024 2.74244,28.98135 13.38644,39.62535 7.42627,7.42626 10.786,8.53703 14.24016,4.70799 z"
         id="path2002" />
      <path
         style="fill:#668000;stroke-width:1.33333"
         d="M 776.72727,472.72728 C 779.21811,470.23646 780,468.0418 780,463.54124 c 0,-11.10949 -8.44307,-49.3826 -13.35541,-60.54123 -2.12106,-4.81805 -3.08232,-5.66666 -6.41894,-5.66666 -5.97101,0 -16.35898,7.62804 -19.97328,14.66666 -2.60905,5.08099 -3.00164,7.5317 -2.56312,16 0.64887,12.52992 4.5893,22.91834 12.77691,33.68459 6.11351,8.03891 15.08881,14.31542 20.47083,14.31542 1.38465,0 3.99028,-1.47274 5.79028,-3.27274 z"
         id="path2000" />
      <path
         style="fill:#668000;stroke-width:1.33333"
         d="m 363.19068,477.89096 c 1.45512,-3.79198 0.76755,-11.76102 -1.60119,-18.55761 -6.04629,-17.34866 -30.00986,-43.31214 -39.99086,-43.32835 -4.03572,-0.007 -6.86724,6.70573 -7.86892,18.65381 -1.75566,20.94134 6.37705,34.07793 26.1269,42.20227 9.1134,3.74891 22.07122,4.32083 23.33407,1.02988 z"
         id="path1996" />
      <path
         style="fill:#668000;stroke-width:1.33333"
         d="m 623.60069,479.87059 c 8.00066,-3.87305 23.06598,-23.79319 23.06598,-30.49899 0,-1.97992 -3.91796,-6.85025 -11.67206,-14.50929 -13.32214,-13.15883 -19.04382,-22.69002 -22.35166,-37.23351 l -2.19578,-9.65408 -3.5982,2.56215 c -6.59342,4.69493 -16.33706,16.14085 -19.15953,22.50684 -5.89805,13.30288 -4.24643,32.73745 3.98891,46.9368 6.5069,11.21923 18.78284,22.37768 24.90069,22.63399 0.68513,0.0287 3.84488,-1.20606 7.02165,-2.74391 z"
         id="path1994" />
      <path
         style="fill:#668000;stroke-width:1.33333"
         d="m 709.51041,485.33335 c 2.2419,0 5.15626,-8.98204 5.15626,-15.89155 0,-10.62332 2.54517,-19.87729 6.79969,-24.72292 6.98753,-7.95837 5.35887,-10.257 -9.8316,-13.87593 -7.8942,-1.8807 -14.85212,-6.2097 -25.05155,-15.58632 -4.34136,-3.99114 -8.49008,-7.25662 -9.21937,-7.25662 -2.56477,0 -8.01231,10.16438 -10.20105,19.0338 -2.05622,8.33232 -2.05763,9.59432 -0.0201,17.85094 1.2059,4.8866 4.04403,11.77004 6.30698,15.29653 7.95121,12.39091 27.5945,27.74866 32.99273,25.79479 0.97667,-0.35349 2.35728,-0.64272 3.06805,-0.64272 z"
         id="path1992" />
      <path
         style="fill:#668000;stroke-width:1.33333"
         d="m 408.42928,488.33335 c -0.60277,-4.21667 -1.09595,-13.66667 -1.09595,-21 0,-11.02956 0.54451,-14.61886 3.15143,-20.77339 2.97032,-7.01248 3.03009,-7.67469 1.04013,-11.52284 -3.74448,-7.24101 -18.90541,-17.69067 -25.67841,-17.69879 -5.71692,-0.007 -10.27287,3.98343 -13.73384,12.0287 -6.35225,14.76622 -4.45633,30.49105 5.46817,45.35312 7.0219,10.51536 21.68242,21.0594 29.51514,21.22768 2.1984,0.0472 2.32512,-0.67641 1.33333,-7.61448 z"
         id="path1988" />
      <path
         style="fill:#668000;stroke-width:1.33333"
         d="m 602.36999,513.92442 c 2.38942,-1.67363 2.96334,-3.36494 2.96334,-8.73288 0,-7.92603 -2.36524,-12.93476 -10.27534,-21.75948 -7.35382,-8.2041 -11.96307,-16.00707 -15.96004,-27.01859 -4.1963,-11.56066 -6.82535,-16.41346 -8.89219,-16.41346 -3.24157,0 -12.63291,9.32995 -15.63628,15.53408 -6.15067,12.70562 -2.98556,29.93243 7.67885,41.79383 6.99511,7.78024 14.70846,12.65299 25.48194,16.0977 9.47562,3.02972 10.95438,3.0801 14.63972,0.4988 z"
         id="path1982" />
      <path
         style="fill:#668000;stroke-width:1.33333"
         d="m 483.82776,516.87423 c 1.90631,-2.29697 -6.73285,-28.05411 -10.96009,-32.67684 -1.57722,-1.72477 -7.66767,-5.54363 -13.53434,-8.48635 -5.86666,-2.9427 -17.9126,-10.08153 -26.76873,-15.86404 -8.85615,-5.78251 -16.48104,-10.51365 -16.94423,-10.51365 -1.5029,0 0.55923,27.15252 2.54262,33.47905 3.10577,9.90672 9.79821,16.46471 23.6381,23.16323 11.87066,5.7454 31.98107,12.47696 37.70232,12.62008 1.5602,0.0391 3.50616,-0.73563 4.32435,-1.72148 z"
         id="path1980" />
      <path
         style="fill:#668000;stroke-width:1.33333"
         d="m 777.96057,522.29111 c 8.29626,-4.69884 11.732,-10.77612 11.03028,-19.51077 -0.49538,-6.16622 -1.25364,-7.837 -5.19653,-11.4504 -3.24656,-2.97526 -6.47415,-4.48535 -10.87636,-5.08874 -9.32315,-1.27788 -16.18051,-5.39529 -25.34908,-15.22054 -20.61696,-22.09358 -19.61727,-21.24845 -21.72493,-18.36606 -6.17615,8.4464 -5.86944,27.95379 0.64765,41.19188 12.02256,24.42128 35.58304,37.44212 51.46897,28.44463 z"
         id="path1976" />
      <path
         style="fill:#668000;stroke-width:1.33333"
         d="m 694.13969,526.79906 c 4.9932,-3.04479 8.55316,-8.66367 12.57139,-19.84216 3.64425,-10.13811 2.46087,-14.94859 -3.68249,-14.96939 -6.06983,-0.0205 -16.86623,-7.25677 -30.84404,-20.67301 -8.41076,-8.07286 -14.22803,-12.64782 -16.08226,-12.64782 -3.64189,0 -5.7774,4.83144 -8.95165,20.25243 -3.27445,15.90775 -2.01123,19.59648 11.35717,33.16392 10.4667,10.62252 21.2403,17.21563 28.15886,17.23231 1.83333,0.004 5.1962,-1.12791 7.47302,-2.51628 z"
         id="path1974" />
      <path
         style="fill:#668000;stroke-width:1.33333"
         d="m 537.97531,529.66668 c -2.60142,-29.2543 -7.14428,-41.89821 -20.41167,-56.81062 -9.38953,-10.55376 -14.88819,-20.67243 -14.91739,-27.45117 -0.0375,-8.67917 -1.70514,-8.90962 -8.48744,-1.17286 -8.24912,9.41004 -11.66936,16.81684 -12.49076,27.04981 -1.87837,23.4006 16.49462,50.5249 42.99862,63.4794 5.86666,2.86748 11.46785,5.21927 12.44709,5.22619 1.41137,0.009 1.58996,-2.12931 0.86155,-10.32075 z"
         id="path1970" />
      <path
         style="fill:#668000;stroke-width:1.33333"
         d="m 862.46621,560.16261 c 2.26255,-1.25082 2.9377,-2.53259 2.43028,-4.61395 -1.12182,-4.60167 -15.61272,-50.70931 -16.08581,-51.1824 -0.23573,-0.23575 -5.46459,1.7279 -11.61965,4.36365 -13.68135,5.85871 -26.93804,9.07275 -32.84834,7.96396 -4.14032,-0.77672 -4.55633,-0.50821 -6.52957,4.21443 -2.55565,6.11654 -1.73184,15.64528 2.27957,26.36674 3.12788,8.36002 7.61068,12.24638 16.20136,14.04581 8.52934,1.78657 42.38151,0.93738 46.17216,-1.15824 z"
         id="path1950" />
      <path
         style="fill:#668000;stroke-width:1.33333"
         d="m 781.14757,562.63406 c 7.59783,-1.3666 14.07143,-2.74193 14.38578,-3.05628 0.81494,-0.81495 -5.55919,-17.36023 -8.2991,-21.54186 -3.60844,-5.50716 -8.74341,-7.3153 -24.33393,-8.56854 -17.06489,-1.37176 -24.08665,-4.02386 -33.81756,-12.77278 -9.19531,-8.26736 -12.24671,-8.0872 -16.46441,0.97208 -1.79243,3.85 -3.25166,8.5 -3.24271,10.33334 0.0556,11.38548 18.15181,30.85035 34.22793,36.81655 5.93008,2.20077 16.63382,1.57854 37.544,-2.18251 z"
         id="path1948"
         inkscape:label="path1948" />
      <path
         style="fill:#668000;stroke-width:1.33333"
         d="m 723.22428,571.1907 c 7.94121,-3.04732 -9.88665,-21.10775 -29.89095,-30.28087 -4.03333,-1.84951 -12.47757,-5.73244 -18.76498,-8.62873 -18.70999,-8.61875 -35.90168,-27.26674 -35.90168,-38.94287 0,-6.57373 -5.73863,-8.59892 -13.29443,-4.69167 -5.56231,2.87639 -9.13995,8.65028 -11.64181,18.78855 -1.82972,7.41449 -1.9427,10.17739 -0.66524,16.26769 0.84633,4.03496 2.44845,8.7246 3.56025,10.42143 2.92516,4.46435 12.35955,9.58711 29.94004,16.25705 16.96304,6.4357 19.12681,7.73394 16.09004,9.65385 -5.8294,3.68546 -27.73228,-1.96987 -40.76007,-10.5243 -4.34249,-2.8514 -10.97284,-8.50857 -14.73408,-12.57149 -7.46684,-8.06574 -13.60518,-11.72095 -26.24225,-15.62652 -9.80879,-3.03147 -18.98163,-8.62278 -28.69324,-17.48999 -3.90909,-3.56921 -7.67395,-6.48948 -8.36633,-6.48948 -2.18842,0 -4.07083,7.12017 -3.16887,11.98612 2.25333,12.15636 21.38823,37.34721 28.36881,37.34721 1.61964,0 10.3081,2.96906 19.3077,6.59788 21.00005,8.46769 46.57128,13.67209 87.63281,17.83551 8.38344,0.85004 45.06185,0.92043 47.22428,0.0907 z"
         id="path1946" />
    </g>
    <g
       id="layer4"
       inkscape:label="02">
      <path
         style="fill:#668000;stroke-width:1.33333"
         d="m 952.66667,561.28386 c 34.5269,-2.92468 48.35283,-6.64587 118.66663,-31.93862 22,-7.91366 54.4,-18.99753 72,-24.63081 37.0094,-11.84571 49.0013,-16.43519 59.2715,-22.68409 12.7133,-7.73546 17.3952,-14.16135 17.3952,-23.87482 0,-5.23937 -0.5618,-6.439 -4.3333,-9.25339 -5.1966,-3.87772 -12.9713,-6.39369 -31.6667,-10.24768 -23.8907,-4.92496 -26.7183,-7.65718 -26.8136,-25.90868 -0.063,-12.1477 3.1796,-19.18528 15.1594,-32.8962 14.7697,-16.9041 21.1534,-25.55033 19.8366,-26.86712 -2.2629,-2.26293 -24.7023,10.56503 -34.7441,19.86218 -13.1729,12.19606 -16.7495,19.8877 -16.7944,36.1171 -0.021,7.51452 -0.6361,12.89719 -1.5827,13.84371 -4.1846,4.18463 -9.7286,-4.79963 -9.7268,-15.7626 0,-12.9222 12.3328,-31.74771 28.965,-44.22155 4.9687,-3.72642 16.3937,-10.74289 25.389,-15.59215 l 16.3551,-8.81684 -6.7654,-7.80934 c -3.7209,-4.29514 -10.1807,-10.93299 -14.355,-14.75079 C 1145.3108,285.11086 1028.0561,199.93441 1002,187.33119 c -12.6892,-6.13769 -18.54956,-7.26058 -38.09133,-7.29858 -21.79547,-0.0424 -28.63274,1.89781 -37.32726,10.59233 -11.4886,11.4886 -13.37532,27.16725 -4.53369,37.67495 1.80709,2.1476 3.28561,4.3887 3.28561,4.98024 0,1.44073 -4.92301,2.67933 -10.73821,2.70168 -7.00759,0.0269 -17.38268,5.8119 -25.14705,14.02157 -7.02716,7.43019 -14.77847,21.61059 -14.78035,27.03946 -10e-4,5.50189 3.51717,11.497 11.91033,20.2905 12.02318,12.59667 11.98584,12.41835 3.47264,16.58346 -11.6755,5.7123 -24.91384,22.08468 -27.91097,34.5186 -1.80593,7.49216 7.14901,22.41505 25.94301,43.23251 5.13031,5.68265 11.53922,13.52426 14.24203,17.4258 4.292,6.19553 4.93329,8.13693 5.065,15.33333 0.25944,14.17736 9.89124,31.68052 21.53071,39.1262 3.89374,2.49079 7.07953,4.74615 7.07953,5.01188 0,0.26575 -5.25,0.45368 -11.66667,0.41763 -14.00388,-0.0787 -22.6,2.66552 -37.56276,11.9914 -11.64326,7.25693 -19.51189,14.01347 -22.06117,18.94323 -7.22665,13.97481 -0.44712,40.48 13.75096,53.76064 5.30344,4.96075 7.74992,6.26821 13.03427,6.96591 3.57796,0.4724 7.40537,1.05117 8.50537,1.28616 4.7166,1.00761 37.95755,0.59973 52.66667,-0.64623 z"
         id="path1952" />
      <path
         style="fill:#000000;stroke-width:1.33333"
         d="m 1072.48,435.51331 c -15.119,-11.26196 -18.3654,-16.67406 -20.2831,-33.81443 -1.4221,-12.71148 -3.6553,-17.31729 -11.5219,-23.76343 -11.4471,-9.37998 -12.7653,-26.88259 -3.5136,-46.65288 14.8581,-31.75105 52.4351,-44.36817 82.8456,-27.81675 18.6559,10.15384 24.7314,28.64083 15.4389,46.97874 -1.8541,3.65882 -4.5798,11.01432 -6.0571,16.34552 -2.9537,10.65848 -6.1609,14.86059 -16.3157,21.37693 -9.6008,6.16082 -19.2546,9.4009 -31.4765,10.56435 -13.2066,1.2572 -17.5966,3.59909 -17.5966,9.38704 0,5.05441 1.1465,7.23565 10.8637,20.66763 10.7964,14.92385 10.342,16.20642 -2.3837,6.72728 z"
         id="path1962" />
      <path
         style="fill:#ffff00;stroke-width:1.33333"
         d="m 1100.4307,383.54211 c 16.5715,-9.71154 25.9278,-30.20543 19.9306,-43.65551 -6.2435,-14.00222 -23.2109,-27.06608 -35.1536,-27.06608 -8.7089,0 -19.804,5.97358 -28.4594,15.3225 -9.9477,10.7446 -12.1679,20.3478 -7.9714,34.47882 2.8058,9.44839 13.3916,20.29659 22.7101,23.27307 9.3578,2.98908 21.5148,2.00085 28.9437,-2.3528 z"
         id="path1964" />
      <path
         style="fill:#000000;stroke-width:1.33333"
         d="m 1080.6333,370.58603 c -5.8971,-1.71572 -12.2706,-8.96371 -13.7657,-15.65442 -3.4062,-15.24345 9.9637,-29.43233 24.0647,-25.53884 5.4503,1.50489 13.3749,9.58864 12.2566,12.50276 -0.734,1.91275 -9.6968,6.10448 -13.0526,6.10448 -0.9954,0 -2.5274,0.86463 -3.4044,1.9214 -1.307,1.57487 -0.6254,2.53321 3.7794,5.31387 8.9445,5.64639 10.3746,12.05139 3.4003,15.22905 -3.8635,1.76034 -7.5306,1.79394 -13.2783,0.12174 z"
         id="path1966" />
      <path
         style="fill:#000000;stroke-width:1.33333"
         d="m 1109.8508,441.35992 c -3.3803,-1.3658 -8.5175,-7.60877 -8.5175,-10.35093 0,-1.476 0.9092,-1.73655 3.6548,-1.04744 4.2451,1.06544 15.2098,8.63229 16.0168,11.05332 0.6404,1.9209 -6.6924,2.14776 -11.1541,0.34505 z"
         id="path1960" />
      <path
         style="fill:#000000;stroke-width:1.33333"
         d="m 941.51099,454.00189 c -6.17043,-5.57461 -8.50671,-12.64878 -7.92248,-23.98892 0.72954,-14.16056 5.90634,-10.47221 12.49642,8.9034 3.32555,9.77752 4.29448,19.75031 1.91891,19.75031 -0.73121,0 -3.65301,-2.09916 -6.49285,-4.66479 z"
         id="path1958" />
      <path
         style="fill:#000000;stroke-width:1.33333"
         d="m 1061.5757,473.18726 c -13.5341,-1.57214 -18.7521,-3.16963 -25.9703,-7.95079 -12.4671,-8.25785 -25.4951,-29.04355 -29.6067,-47.23646 -3.0701,-13.58425 -8.32966,-29.09116 -14.20317,-41.87566 -7.18929,-15.64848 -9.12886,-23.04134 -9.12886,-34.79549 0,-13.94277 2.72958,-21.13798 11.69089,-30.81726 C 1004.7063,299.33373 1016,293.15242 1016,298.6662 c 0,0.6465 -3.4145,6.16109 -7.5879,12.25464 -10.27601,15.00414 -12.88013,21.99258 -12.82319,34.4125 0.0788,17.19227 7.58519,38.74667 26.49519,76.07975 11.3622,22.43195 17.3769,29.18295 33.4102,37.50035 11.2195,5.8202 18.5878,8.24239 35.7475,11.75127 7.2829,1.48925 13.5329,2.99893 13.8889,3.35485 1.05,1.05006 -32.9423,0.40048 -43.555,-0.8323 z"
         id="path1956" />
      <path
         style="fill:#000000;stroke-width:1.33333"
         d="m 1032,493.8503 c -20.6448,-4.483 -32.08477,-9.86542 -42.90551,-20.18664 -13.01821,-12.41727 -18.90246,-23.90893 -22.32176,-43.59327 -2.66724,-15.3548 -8.45518,-28.18071 -18.08258,-40.07038 -16.53232,-20.41712 -24.43707,-42.451 -21.03988,-58.64715 2.33801,-11.1466 5.43973,-16.59532 14.62198,-25.68618 13.11943,-12.98886 14.01948,-11.49771 4.87191,8.07136 -4.84713,10.36929 -6.32139,15.15801 -6.79887,22.08445 -0.98786,14.32975 3.19287,22.83868 24.98154,50.84419 10.33246,13.28057 14.57828,22.86956 15.97276,36.07373 1.33077,12.60095 3.5632,19.83998 8.46233,27.4406 7.24853,11.24554 19.81168,22.16958 35.14798,30.56219 26.5165,14.51084 28.2417,17.70015 7.0901,13.1071 z"
         id="path1954" />
    </g>
    <path
       style="fill:#88aa00;stroke-width:1.33333"
       d="m 1180.0122,399.43257 c 22.3124,-9.06634 46.0124,-27.8632 49.4039,-39.18305 2.35,-7.84342 0.6115,-12.45212 -5.4447,-14.4339 -3.6499,-1.19437 -5.3897,-1.13132 -8.1663,0.29598 -9.154,4.70568 -49.1384,49.16445 -49.1384,54.63715 0,2.78501 4.2948,2.36144 13.3455,-1.31618 z"
       id="path2032" />
    <path
       style="fill:#aad400;stroke-width:1.33333"
       d="m 70.389544,536.57299 c 15.175945,-3.09172 33.880106,-11.06187 53.170816,-22.65696 16.78672,-10.09001 68.05955,-44.20151 75.61068,-50.30331 4.51457,-3.64806 4.11089,-6.57804 -1.77429,-12.87815 -6.90538,-7.39224 -15.76384,-5.53746 -38.15848,7.98954 -17.21136,10.39615 -36.74261,19.22824 -58.59499,26.49681 -19.163164,6.3741 -43.138553,12.11243 -50.607047,12.11243 -4.985289,0 -8.764674,-2.28759 -7.825006,-4.73632 0.964541,-2.51356 7.367984,-5.93035 11.114117,-5.93035 11.076321,0 104.629446,-44.87253 118.473686,-56.82561 4.35146,-3.75706 4.62897,-4.38544 2.87172,-6.5028 -1.63979,-1.97583 -3.41538,-2.22676 -11.30799,-1.59812 -11.94927,0.95173 -30.29655,7.05825 -70.696093,23.52972 -35.841594,14.61313 -41.779294,16.73563 -43.089336,15.40265 -0.500866,-0.50962 2.089336,-3.59933 5.756002,-6.866 C 70.270561,440.4988 93.689123,426.74745 122,414.65995 c 21.78875,-9.30284 40.09069,-18.35938 42.17365,-20.86918 1.44214,-1.73766 1.3087,-2.38424 -0.81216,-3.93504 -6.27148,-4.58582 -32.5439,0.35231 -54.42011,10.22874 -24.587479,11.10048 -30.479372,13.40656 -33.209951,12.99833 -2.564436,-0.38339 -2.42734,-0.76476 1.742575,-4.84756 5.501677,-5.38675 23.015736,-16.12653 36.173386,-22.18187 5.32727,-2.45168 16.16836,-6.01289 24.0913,-7.91378 14.96491,-3.59043 19.59464,-5.35908 19.59464,-7.48558 0,-3.6655 -21.29425,-9.31857 -35.11729,-9.32273 -3.8804,-10e-4 -8.91835,-1.019 -11.54937,-2.33333 C 106.66627,356.99952 106,356.00041 106,352.00001 c 0,-5.94796 2.65613,-6.47329 14.39583,-2.84727 11.3408,3.50282 27.69866,5.79572 37.60417,5.27103 l 8,-0.42376 -6.03988,-4.19548 c -3.32193,-2.30752 -14.42193,-8.81903 -24.66667,-14.47003 -22.31789,-12.31054 -41.732398,-24.98064 -50.713855,-33.09634 -6.569366,-5.93612 -16.32618,-20.26934 -14.821718,-21.7738 1.250716,-1.25072 9.234962,3.95141 25.353779,16.51924 34.611154,26.98628 66.068144,45.03661 70.596034,40.50872 1.76546,-1.76546 -11.35702,-15.0018 -32.37436,-32.65527 -31.52882,-26.48257 -82.666663,-76.5742 -82.666663,-80.9754 0,-2.13438 3.938754,-1.2671 9.13089,2.01056 7.553244,4.76816 29.696084,22.67705 45.202443,36.55925 7.51667,6.72938 19.78532,17.70291 27.26367,24.38566 15.70212,14.0316 31.04732,25.18289 34.65394,25.18289 3.49099,0 4.29571,-3.07932 1.9721,-7.54632 -7.95476,-15.29255 -73.540294,-81.46446 -97.754946,-98.62896 -12.49854,-8.85956 -15.212179,-12.49139 -9.333349,-12.49139 10.241,0 34.329781,18.972 76.182115,60 19.07572,18.7 38.49259,36.85 43.14858,40.33334 8.12488,6.07853 13.75736,7.87557 15.55713,4.96348 3.38004,-5.46903 -41.67815,-64.73595 -72.77597,-95.72527 -27.14099,-27.04631 -48.219809,-37.57155 -75.244215,-37.57155 -14.35081,0 -22.301086,3.14316 -26.515304,10.48289 -5.22185,9.0947 -4.214242,42.78022 2.099349,70.18378 6.359435,27.60253 16.305955,50.26307 37.344219,85.079 l 11.931737,19.74567 -22.528853,44.921 c -12.39087,24.70655 -23.884423,49.121 -25.54123,54.25433 -6.510692,20.17229 -6.837482,67.93774 -0.522764,76.40991 5.076774,6.81127 17.589762,11.98022 29.453335,12.16678 3.147583,0.0495 10.347583,-0.85218 16,-2.00371 z"
       id="path1972" />
    <g
       id="layer8"
       inkscape:label="03"
       style="fill:#aad400">
      <path
         style="fill:#aad400;stroke-width:1.33333"
         d="m 381.39955,239.2991 c 2.48749,-1.28633 3.93378,-3.07797 3.93378,-4.87312 0,-7.93664 -35.60857,-31.51345 -60.1478,-39.82451 -9.97257,-3.37754 -23.9487,-3.07638 -27.62025,0.59516 -1.97416,1.97416 -1.93521,2.35936 0.48312,4.7777 1.44672,1.44673 10.72768,6.8995 20.62433,12.11728 9.89667,5.21778 22.19394,12.3409 27.32727,15.82917 19.04328,12.94052 27.267,15.58383 35.39955,11.37832 z"
         id="path2088" />
      <path
         style="fill:#aad400;stroke-width:1.33333"
         d="m 345.94737,249.35335 c 8.25231,-3.13753 4.50254,-8.95913 -13.00417,-20.18921 -15.503,-9.94476 -31.54911,-17.99727 -42.47719,-21.31657 -8.85672,-2.69015 -10.55709,-2.81276 -18.9785,-1.36866 -19.7891,3.39346 -26.47194,9.66559 -14.14271,13.27355 20.2088,5.91377 26.38113,8.30991 41.98853,16.30017 25.1362,12.86856 38.05512,16.55482 46.61404,13.30072 z"
         id="path2086" />
      <path
         style="fill:#aad400;stroke-width:1.33333"
         d="m 410.36999,227.25774 c 1.90213,-1.33231 2.96334,-3.45825 2.96334,-5.93651 0,-9.84184 -31.02477,-31.64168 -57.84398,-40.64458 -10.448,-3.50728 -25.25032,-4.5541 -26.88964,-1.90163 -1.6011,2.59063 6.34802,9.20747 30.24269,25.17399 24.33687,16.26198 40.76245,25.38433 45.70673,25.38433 1.57164,0 4.19103,-0.93403 5.82086,-2.0756 z"
         id="path2092" />
      <path
         style="fill:#aad400;stroke-width:1.33333"
         d="m 446.42192,208.99973 c 0.33715,-2.93007 -0.94492,-4.9983 -6.37997,-10.2922 C 426.23433,185.25849 391.37727,164.9763 376,161.44361 c -7.41609,-1.70374 -16.04163,-1.79838 -18.56124,-0.20364 -2.99293,1.8943 0.98261,6.77182 12.93655,15.87158 29.59325,22.52742 56.80657,36.54816 69.62469,35.87175 5.46224,-0.28825 6.03781,-0.64528 6.42192,-3.98357 z"
         id="path2098" />
      <path
         style="fill:#aad400;stroke-width:1.33333"
         d="m 504.72664,188.70202 c 7.25132,-4.24956 8.14631,-6.75089 4.32079,-12.07579 C 502.07749,166.9245 474.58908,146.04402 457.2928,137.31287 446.18951,131.70795 434.25144,128 427.30919,128 c -6.20118,0 -13.97586,2.99164 -13.97586,5.3778 0,3.21208 79.11884,58.62221 83.7053,58.62221 1.13322,0 4.59284,-1.4841 7.68801,-3.29799 z"
         id="path2106" />
      <path
         style="fill:#aad400;stroke-width:1.33333"
         d="m 476,200.00001 c 3.35683,-3.35683 3.33444,-3.94807 -0.3568,-9.42551 -6.94413,-10.30439 -37.81167,-30.91841 -59.6432,-39.83107 -8.45523,-3.45181 -13.36493,-4.6416 -19.33333,-4.68511 -7.16054,-0.0523 -8.04238,0.23868 -8.40386,2.77211 -0.51046,3.57772 7.09452,9.78574 32.40386,26.45155 29.54213,19.45305 43.48922,27.01517 50.33333,27.29075 1.28333,0.0517 3.53333,-1.10606 5,-2.57272 z"
         id="path2104" />
      <path
         style="fill:#aad400;stroke-width:1.33333"
         d="m 537.06621,172.79335 c 1.98026,-1.03032 4.97214,-3.34206 6.64863,-5.13721 l 3.04817,-3.26389 -19.71484,-15.97403 c -40.37064,-32.71044 -50.50976,-39.05883 -62.3815,-39.05883 -7.46766,0 -20.66667,5.33082 -20.66667,8.34686 0,2.82344 4.96044,6.72664 17.33333,13.63902 13.548,7.56888 29.23943,18.30491 42,28.73627 14.68051,12.00085 19.0958,14.58513 24.91895,14.58513 2.86741,0 6.83368,-0.84298 8.81393,-1.87332 z"
         id="path2110" />
      <path
         style="fill:#aad400;stroke-width:1.33333"
         d="m 574.66275,156.33127 c 2.56452,-1.2822 4.85218,-3.34841 5.0837,-4.5916 0.63263,-3.39687 -17.76681,-21.9063 -35.56229,-35.77488 -26.6898,-20.800208 -47.55643,-28.938804 -60.41813,-23.564842 -6.24588,2.609696 -10.12992,8.085072 -7.7605,10.940062 0.90988,1.09633 2.51378,1.99333 3.56422,1.99333 2.59038,0 15.08226,8.51906 35.09692,23.93496 24.20938,18.64681 29.46164,22.29428 37.47381,26.024 8.44713,3.9322 16.03539,4.28225 22.52227,1.03897 z"
         id="path2116" />
      <path
         style="fill:#aad400;stroke-width:1.33333"
         d="m 671.78447,116.10881 c 9.56922,-4.83054 11.5645,-7.00921 9.66672,-10.55525 -2.76602,-5.16834 -44.85612,-39.202664 -65.2081,-52.727668 -15.91276,-10.574893 -20.97177,-12.098584 -39.27001,-11.827459 -8.63148,0.127894 -16.56697,0.721298 -17.63443,1.318678 -1.41082,0.789533 3.04878,4.353643 16.33032,13.051185 25.2325,16.523729 52.53334,37.131023 63.66436,48.055314 18.92584,18.57434 19.97352,18.98387 32.45114,12.6852 z"
         id="path2124" />
      <path
         style="fill:#aad400;stroke-width:1.33333"
         d="M 638.63968,129.85523 C 641.94715,128.53185 644,126.84461 644,125.44961 c 0,-9.53949 -33.10449,-40.458335 -61.81056,-57.729681 -12.68192,-7.63023 -29.69676,-14.386594 -36.23036,-14.386594 -6.22661,0 -19.29241,6.338912 -19.29241,9.359774 0,1.555134 3.84813,4.022093 12.33333,7.906656 18.44593,8.444626 35.28159,19.908641 66.46577,45.258975 12.62642,10.2643 22.00503,16.03753 26.17391,16.11198 0.90183,0.0161 4.05183,-0.93586 7,-2.11549 z"
         id="path2122" />
      <path
         style="fill:#aad400;stroke-width:1.33333"
         d="m 604.84932,143.66667 c 11.26468,-7.52831 10.0028,-10.33651 -13.51599,-30.07864 -22.62105,-18.98857 -47.52024,-33.479941 -65.52578,-38.136141 -10.12147,-2.617391 -13.89404,-2.662856 -17.21938,-0.20752 -2.49428,1.841708 -2.39473,2.110032 2.74412,7.396519 2.93276,3.017017 9.83276,8.56206 15.33334,12.322319 14.41966,9.857463 30.71733,22.544373 46.00104,35.809473 13.23826,11.48982 21.27413,17.21278 24.18265,17.22234 0.83379,0.003 4.43379,-1.94502 8,-4.32835 z"
         id="path2120" />
    </g>
    <g
       id="layer3"
       inkscape:label="04"
       style="display:inline;fill:#aad400">
      <path
         style="fill:#aad400;stroke-width:1.33333"
         d="m 824.23585,505.36946 c 16.58218,-5.12171 57.53162,-28.71816 67.01419,-38.61583 3.34917,-3.49579 3.55011,-4.11941 1.57195,-4.87851 -5.72562,-2.19712 -21.41148,2.27043 -58.743,16.73079 -8.02323,3.1078 -18.11564,6.30664 -22.42759,7.10853 -5.9674,1.10975 -8.61353,2.37739 -11.07899,5.30742 -4.25248,5.05378 -4.08733,8.33502 0.65836,13.08072 4.77634,4.77634 10.60379,5.09725 23.00508,1.26688 z"
         id="path1984" />
      <path
         style="fill:#aad400;stroke-width:1.33333"
         d="m 816.24432,474.86587 c 33.73312,-11.45153 56.06639,-21.75515 53.25291,-24.56863 -1.70728,-1.70728 -13.75427,-0.0915 -43.40595,5.82183 -21.58651,4.30489 -30.38677,7.45037 -32.64392,11.66788 -1.60291,2.99505 -1.94528,9.93737 -0.55847,11.32417 1.93003,1.93004 8.89286,0.66443 23.35543,-4.24525 z"
         id="path1998" />
      <path
         style="fill:#aad400;stroke-width:1.33333"
         d="m 812,448.83085 c 6.96667,-1.10928 23.4452,-2.98392 36.61896,-4.16585 31.30693,-2.80883 40.71437,-4.82392 40.71437,-8.72109 0,-1.53766 -11.18404,-4.87915 -22,-6.57302 -15.57026,-2.43841 -48.32146,-3.27026 -58.55968,-1.48736 -18.54485,3.22946 -26.74718,11.28083 -22.57329,22.15782 0.96596,2.51725 2.98232,2.42265 25.79964,-1.2105 z"
         id="path2012" />
      <path
         style="fill:#aad400;stroke-width:1.33333"
         d="m 883.05793,400.49764 c 0.45964,-0.45965 -0.0591,-2.56589 -1.15253,-4.68055 -4.09348,-7.91592 -23.33289,-17.55382 -49.47595,-24.78478 -11.44654,-3.16602 -15.55508,-3.62711 -32.61798,-3.66062 -17.3568,-0.0341 -19.83368,0.24335 -22.33334,2.50164 -3.99673,3.61079 -3.76349,10.5176 0.46756,13.84575 4.09462,3.22083 12.29794,4.81721 43.05354,8.37835 13.3829,1.54958 30.7829,4.1769 38.66666,5.83849 15.12252,3.18723 22.01204,3.94172 23.39204,2.56172 z"
         id="path2034" />
      <path
         style="fill:#aad400;stroke-width:1.33333"
         d="m 893.26956,423.25649 c -3.32976,-4.01209 -13.38023,-8.8725 -24.93428,-12.05822 -32.35383,-8.92067 -85.67147,-15.44208 -92.2444,-11.28264 -2.54092,1.60793 0.009,10.50358 4.51072,15.73244 l 3.17239,3.68528 15.11301,-0.66667 c 8.31215,-0.36667 25.613,-0.54377 38.44633,-0.39357 19.15228,0.22416 25.96143,0.85701 38,3.53177 18.41606,4.09173 20.25054,4.2402 17.93623,1.45161 z"
         id="path2020" />
    </g>
    <g
       id="layer5"
       inkscape:label="05"
       style="display:inline;fill:#aad400">
      <path
         style="fill:#aad400;stroke-width:1.33333"
         d="m 573.66667,565.25799 c 9.35,-3.19742 17,-6.17217 17,-6.61054 0,-1.40899 -23.29128,-5.3141 -31.69488,-5.3141 -10.12811,0 -13.46356,1.24733 -19.51351,7.29727 -4.86532,4.86532 -6.14753,9.20112 -3.12495,10.567 4.86826,2.19993 21.06828,-0.37744 37.33334,-5.93963 z"
         id="path1944" />
      <path
         style="fill:#aad400;stroke-width:1.33333"
         d="m 568.23383,589.21309 c 22.2674,-6.83532 34.94429,-12.82566 35.51057,-16.78014 0.52872,-3.69221 -3.34596,-4.99541 -11.30411,-3.80201 -4.68866,0.70311 -39.54108,9.84635 -51.37209,13.47703 -3.38367,1.03838 -4.26508,5.55092 -1.81471,9.29066 3.03739,4.63563 7.97115,4.26355 28.98034,-2.18554 z"
         id="path1940" />
      <path
         style="fill:#aad400;stroke-width:1.33333"
         d="m 560.75512,615.93238 c 13.67879,-2.42223 28.63121,-7.94483 47.24488,-17.44965 18.91527,-9.65883 36.67091,-21.6518 35.31167,-23.85111 -1.35716,-2.19593 -12.30319,-1.44176 -20.84667,1.43633 -4.46464,1.50403 -14.19572,5.78587 -21.6246,9.5152 -7.42889,3.72932 -21.53305,9.42264 -31.3426,12.65182 -17.06832,5.61866 -24.23177,8.55716 -27.80312,11.40504 -2.30052,1.83449 0.15889,6.01834 3.96907,6.75198 5.29993,1.0205 7.03058,0.96779 15.09137,-0.45961 z"
         id="path1938" />
      <path
         style="fill:#aad400;stroke-width:1.33333"
         d="m 578,643.31997 c 20.94565,-6.94103 46.02755,-20.2127 91.33333,-48.3275 13.56667,-8.41889 24.96667,-15.60456 25.33334,-15.96816 0.36666,-0.36358 -6.83334,-0.37392 -16,-0.0229 -20.84299,0.79803 -29.1376,3.3458 -45.65858,14.02448 -22.44157,14.50559 -47.80185,26.01213 -68.68626,31.16455 -13.45211,3.31877 -20.98376,6.73041 -22.94391,10.393 -1.86801,3.4904 -1.78101,4.07244 1.38496,9.26556 l 2.75292,4.51558 10.90877,-0.7549 c 6.32391,-0.43763 15.39186,-2.24052 21.57543,-4.28966 z"
         id="path1936" />
    </g>
    <g
       id="layer6"
       inkscape:label="06"
       style="display:inline;fill:#aad400">
      <path
         style="fill:#aad400;stroke-width:1.33333"
         d="M 314.778,546.72675 C 372.51313,530.888 417.70259,510.16768 408,503.98248 c -5.54449,-3.5345 -28.45173,1.6893 -77.29244,17.6259 -39.04941,12.7417 -45.37423,15.3949 -45.37423,19.03401 0,3.04055 6.57568,11.35763 8.97962,11.35763 0.68366,0 9.89294,-2.37298 20.46505,-5.27327 z"
         id="path1968" />
      <path
         style="fill:#aad400;stroke-width:1.33333"
         d="m 315.3564,576.62538 c 22.25607,-3.88113 69.23745,-21.63076 109.61501,-41.41271 11.1676,-5.47128 20.92775,-11.11189 21.68922,-12.53471 2.11076,-3.94397 -3.8112,-7.26162 -12.59482,-7.05598 -9.29542,0.21764 -17.93948,2.85188 -49.39914,15.05421 -34.12974,13.23797 -55.5535,20.35963 -71.90284,23.90185 -19.82688,4.29566 -22.09716,5.95302 -22.09716,16.13145 0,8.45549 4.26558,9.47757 24.68973,5.91589 z"
         id="path1942" />
      <path
         style="fill:#aad400;stroke-width:1.33333"
         d="m 331.8146,513.15836 c 41.92728,-13.8318 47.67233,-16.72502 39.43193,-19.85801 -9.87252,-3.75352 -37.72672,1.29583 -63.04214,11.42815 -18.12307,7.25362 -26.18583,14.0821 -21.87106,18.52296 2.33108,2.3992 18.47202,-1.18275 45.48127,-10.0931 z"
         id="path1978" />
      <path
         style="fill:#aad400;stroke-width:1.33333"
         d="m 306.5304,497.90252 c 15.37283,-4.02096 26.13627,-9.47174 26.13627,-13.23584 0,-6.49936 -22.09363,-2.04246 -43.56954,8.7892 -8.10404,4.08738 -9.78001,5.69386 -8.3515,8.00522 1.15393,1.86712 9.38374,0.73132 25.78477,-3.55858 z"
         id="path1986" />
      <path
         style="fill:#aad400;stroke-width:1.33333"
         d="m 293.51032,481.806 c 7.53757,-4.40218 6.42903,-5.80598 -4.58483,-5.80598 -7.68416,0 -10.65576,0.56064 -12.98993,2.45073 -1.8338,1.48492 -2.62641,3.09809 -2.01127,4.09344 2.70468,4.37625 11.38934,4.04893 19.58603,-0.73819 z"
         id="path1990" />
    </g>
  </g>
</svg>
