<?xml version="1.0" encoding="UTF-8" standalone="no"?>
<!-- Created with Inkscape (http://www.inkscape.org/) -->

<svg
   version="1.1"
   id="svg1791"
   width="421.33334"
   height="501.33334"
   viewBox="0 0 421.33334 501.33334"
   sodipodi:docname="Horse16b.svg"
   inkscape:version="1.2.2 (732a01da63, 2022-12-09, custom)"
   xmlns:inkscape="http://www.inkscape.org/namespaces/inkscape"
   xmlns:sodipodi="http://sodipodi.sourceforge.net/DTD/sodipodi-0.dtd"
   xmlns="http://www.w3.org/2000/svg"
   xmlns:svg="http://www.w3.org/2000/svg">
  <defs
     id="defs1795" />
  <sodipodi:namedview
     id="namedview1793"
     pagecolor="#ffffff"
     bordercolor="#000000"
     borderopacity="0.25"
     inkscape:showpageshadow="2"
     inkscape:pageopacity="0.0"
     inkscape:pagecheckerboard="0"
     inkscape:deskcolor="#d1d1d1"
     showgrid="false"
     inkscape:zoom="1.0824912"
     inkscape:cx="202.31111"
     inkscape:cy="250.34846"
     inkscape:window-width="1920"
     inkscape:window-height="1031"
     inkscape:window-x="0"
     inkscape:window-y="25"
     inkscape:window-maximized="1"
     inkscape:current-layer="layer1" />
  <g
     inkscape:groupmode="layer"
     id="layer1"
     inkscape:label="Layer 1"
     style="display:inline">
    <path
       style="fill:#000000;stroke-width:1.33333"
       d="m 246.66667,408.80526 c 0,-2.05931 9.01073,-17.62515 12.84403,-22.18776 0.94688,-1.12704 1.3982,-3.28588 1.00292,-4.79743 -1.2323,-4.71229 2.82022,-12.28579 7.06518,-13.20364 12.23042,-2.64451 24.28408,-15.82123 27.60324,-30.17509 1.86998,-8.08676 1.83224,-8.63736 -0.89846,-13.108 -3.81334,-6.24311 -5.98816,-8.33996 -7.61028,-7.33743 -0.90292,0.55803 -0.90628,1.6564 -0.0107,3.33069 2.18771,4.08779 1.53244,8.6921 -1.66307,11.6855 -3.47384,3.25414 -9.20561,5.65457 -13.50205,5.65457 -1.64731,0 -4.15825,1.05965 -5.57987,2.3548 -7.27569,6.62843 -20.72737,14.98031 -24.157,14.99861 -6.6929,0.0357 -14.301,3.49734 -16.52737,7.51979 -1.69124,3.05563 -3.24727,3.92313 -8,4.46013 -4.99036,0.56384 -5.83224,1.07795 -5.45863,3.33334 0.24296,1.46666 0.74111,4.46684 1.107,6.66705 1.33475,8.0262 -7.33977,12.34343 -25.48716,12.68471 -17.6241,0.33144 -20.78513,0.0515 -21.53689,-1.90763 -0.44767,-1.16658 4.10868,-6.87433 11.91236,-14.92261 10.15109,-10.46928 12.79464,-14.0173 13.43699,-18.0343 0.43981,-2.75048 1.45896,-5.40833 2.26477,-5.90634 0.8058,-0.49802 5.86165,-1.39854 11.23521,-2.00116 12.04354,-1.35063 17.11256,-3.88683 30.29264,-15.1564 l 10.33334,-8.83547 v -8.33979 c 0,-7.92621 -0.20658,-8.46181 -4.1658,-10.80057 -7.08971,-4.188 -14.3283,-12.97375 -20.13362,-24.43693 -5.0963,-10.06318 -5.96444,-11.06299 -10.29965,-11.86206 -4.84035,-0.89216 -8.66416,-2.70294 -18.0676,-8.55601 -2.93333,-1.82581 -6.98333,-4.15744 -9,-5.18139 C 181.65,253.7205 180,252.38411 180,251.7747 c 0,-0.60942 -0.90814,-1.10803 -2.01809,-1.10803 -1.10995,0 -3.12669,-0.69233 -4.48165,-1.53852 -1.93678,-1.20953 -3.1041,-1.08989 -5.45895,0.55952 -1.86207,1.30424 -4.58053,1.84805 -7.18501,1.43731 -2.3043,-0.3634 -6.58963,-0.12454 -9.52296,0.53082 -5.80431,1.29679 -13.20135,-0.13106 -20.0176,-3.8641 -2.20968,-1.21016 -7.60968,-3.23471 -12,-4.499 -4.39032,-1.26428 -10.45983,-3.66995 -13.4878,-5.34592 -5.42163,-3.00084 -5.5669,-3.0098 -9.54762,-0.58899 -4.559584,2.77285 -5.657973,5.31741 -6.163895,14.27948 -0.283688,5.02536 0.245543,6.84591 2.70507,9.30544 1.681766,1.68176 3.460688,5.20556 3.953157,7.83064 0.49247,2.62509 1.569639,4.97487 2.393708,5.22175 0.82407,0.24686 3.10635,0.79986 5.07174,1.22888 4.72549,1.0315 7.7599,4.2237 7.7599,8.1634 0,4.53452 -6.10925,22.68322 -8.94955,26.58636 -3.772288,5.18388 -6.020672,4.05192 -10.972673,-5.52428 -3.245609,-6.27638 -5.6678,-9.28126 -8.274637,-10.26523 -3.107027,-1.17277 -3.852444,-2.44791 -4.747397,-8.12105 -0.790452,-5.01071 -1.796328,-7.05275 -3.937667,-7.9939 -3.904512,-1.7161 -6.803844,-8.44521 -5.774707,-13.40261 0.456712,-2.2 0.557125,-13.09107 0.22314,-24.20237 l -0.607245,-20.20238 4.520368,-2.31365 c 2.486204,-1.27249 6.796077,-4.10221 9.577499,-6.28824 4.840036,-3.80397 5.305385,-3.90509 10.8402,-2.35544 3.180689,0.89053 6.885999,1.40676 8.234029,1.14715 2.25926,-0.4351 2.21497,-0.69187 -0.56618,-3.28291 -1.906996,-1.77663 -4.851869,-8.64124 -8.003539,-18.65652 -4.944894,-15.71375 -5.028385,-15.85947 -10.030865,-17.50744 -4.841665,-1.59497 -5.176607,-1.50475 -8.331256,2.24433 -1.807734,2.14838 -5.367152,4.59271 -7.90982,5.43187 -2.542668,0.83916 -4.623032,2.17668 -4.623032,2.97227 0,0.7956 -1.95,4.4869 -4.333334,8.2029 -3.545684,5.52831 -4.26003,7.85188 -3.930049,12.7834 0.371181,5.54726 0.07069,6.21278 -3.774719,8.36036 -2.297903,1.28334 -4.832136,2.33334 -5.631631,2.33334 -0.799494,0 -2.40087,0.79832 -3.558613,1.77404 -1.157744,0.97572 -5.005915,2.8448 -8.551491,4.15349 -8.055036,2.97319 -10.217891,1.60532 -7.843635,-4.96057 0.86805,-2.40054 2.089246,-8.10095 2.713771,-12.66759 0.624525,-4.56663 1.384696,-8.48375 1.689267,-8.70471 0.304572,-0.22097 2.203767,-1.434 4.220433,-2.69561 2.393866,-1.4976 3.666667,-3.43895 3.666667,-5.59261 0,-3.92082 8.080804,-13.3661 12.365099,-14.45299 1.632529,-0.41416 7.168235,-5.05632 12.301568,-10.31592 10.866683,-11.13397 14.077562,-12.75892 27.442058,-13.88777 l 9.891276,-0.83547 8.866855,7.77249 c 4.87677,4.27488 11.32375,9.15336 14.32661,10.84107 l 5.45976,3.06855 4.34006,-4.56691 c 2.38702,-2.51179 5.30338,-4.89639 6.48077,-5.29911 1.1774,-0.40272 4.10527,-4.21316 6.50635,-8.46765 2.40109,-4.25451 6.61793,-10.75659 9.37076,-14.44909 6.1341,-8.22799 9.3155,-14.36871 9.3155,-17.98077 0,-2.49651 -0.81297,-2.73288 -9.39954,-2.73288 -5.89116,0 -10.89459,0.77312 -13.40502,2.07131 -5.44806,2.81731 -16.09593,3.94429 -19.59139,2.07357 -2.66694,-1.4273 -6.18148,-10.13188 -4.91694,-12.17794 0.32292,-0.5225 2.96599,-1.33039 5.87349,-1.79532 8.20702,-1.31236 7.40328,-2.88273 -1.47541,-2.88273 -7.12393,0 -8.37872,-0.4159 -11.21975,-3.718792 -4.31292,-5.014071 -4.28069,-11.13431 0.0691,-13.116194 1.86252,-0.848622 3.61189,-3.055329 4.06785,-5.131328 1.06337,-4.841497 7.02028,-7.671877 18.3296,-8.709172 6.15132,-0.5642 9.52641,-1.534372 10.66667,-3.066129 0.91742,-1.232425 3.73018,-3.940368 6.2506,-6.017651 l 4.58256,-3.776877 -4.58256,0.37308 c -4.91046,0.399774 -10.58257,-2.350915 -10.58257,-5.132014 0,-2.876553 8.45419,-9.579912 12.13437,-9.621392 1.90723,-0.02149 5.4132,0.639122 7.79103,1.468038 5.9576,2.076828 14.74127,-0.467559 14.74127,-4.270135 C 173.33334,35.482279 177.06199,28 179.2653,28 c 1.13742,0 2.06804,0.573355 2.06804,1.274122 0,0.700766 1.45658,3.420517 3.23685,6.043889 1.78027,2.623372 3.50131,5.500018 3.82453,6.392546 0.3861,1.06615 1.90556,0.42096 4.42982,-1.880975 9.48421,-8.648924 12.5088,-7.478139 12.5088,4.842032 v 8.13828 l 7.16265,0.105493 c 7.76109,0.114307 18.35973,5.12182 20.90447,9.876701 0.73676,1.376653 4.32306,5.293718 7.96956,8.704586 3.64649,3.410868 6.6409,6.869474 6.65425,7.68579 0.0133,0.816316 1.76875,4.058097 3.90089,7.20396 2.13215,3.145863 4.55348,8.845863 5.38074,12.666667 2.15044,9.932099 3.21928,31.361029 1.6618,33.316919 -0.7139,0.8965 -1.6982,4.39847 -2.18736,7.78213 -0.98766,6.83187 -4.42591,10.85003 -10.78034,12.59858 l -4,1.10068 3.66667,0.4962 c 4.26336,0.57696 4.78709,3.61818 1.66335,9.65882 -1.4068,2.72047 -3.35363,4.12732 -6.53814,4.72474 l -4.53481,0.85073 5.03303,7.18489 c 2.76817,3.9517 5.75481,8.92742 6.63698,11.05718 1.92806,4.65476 13.21658,10.96994 24.07292,13.46722 34.92086,8.03286 47.49922,14.12832 67.33191,32.62908 l 6.66523,6.21762 2.33477,-2.88331 c 2.80056,-3.45856 2.83155,-4.6922 0.40531,-16.13959 -2.49697,-11.78112 -4.36945,-15.17538 -17.86781,-32.3893 -26.14087,-33.3364 -29.00363,-53.26626 -11.90911,-82.90818 7.99719,-13.867148 11.2894,-21.907799 12.194,-29.781768 0.80129,-6.974771 2.28588,-8.632643 6.73121,-7.516934 5.44122,1.365655 7.30562,5.67185 7.57336,17.492111 0.1328,5.860671 1.35882,14.698171 2.72459,19.638891 1.36576,4.94071 2.48321,10.50971 2.48321,12.37555 0,5.07231 7.35676,28.85413 10.54226,34.07939 1.52961,2.50907 2.78336,5.82014 2.78609,7.35792 0.003,1.53779 1.13844,4.10287 2.52377,5.70018 2.77886,3.20404 3.71287,5.51324 8.13264,20.10666 3.19874,10.56171 3.59299,17.82258 1.37855,25.38838 -0.74981,2.56182 -1.36331,7.84613 -1.36331,11.7429 0,8.39962 -2.31777,18.75744 -4.85749,21.70743 -0.99824,1.15951 -1.49532,2.42788 -1.1046,2.8186 0.80785,0.80785 -14.94511,15.73986 -16.60523,15.73986 -0.59509,0 -1.3776,4.35 -1.73889,9.66667 -0.75079,11.04812 -4.55876,20.18386 -13.11959,31.47529 -8.59109,11.33137 -10.19246,17.52471 -4.53124,17.52471 4.13704,0 5.64788,3.44897 5.36846,12.25521 -0.23262,7.33064 -2.74167,10.60424 -13.70528,17.88147 -3.87171,2.56989 -7.03947,5.11648 -7.03947,5.65909 0,1.62487 -15.97228,17.53756 -17.60324,17.53756 -0.82934,0 -1.15787,0.35 -0.7301,0.77777 1.23827,1.23827 -4.08858,5.8889 -6.74516,5.8889 -1.3265,0 -3.56702,0.84471 -4.97894,1.87712 -2.28751,1.67267 -2.38788,2.37284 -0.92151,6.428 2.20769,6.10527 2.03365,9.14471 -0.71737,12.52819 -5.04487,6.20472 -9.23176,7.61728 -24.43446,8.24365 -12.87128,0.53032 -14.53589,0.34652 -14.53589,-1.60504 z"
       id="path1909" />
    <g
       id="layer3"
       inkscape:label="01"
       style="display:inline;fill:#782121">
      <path
         style="fill:#782121;stroke-width:1.33333"
         d="m 196.93292,383.3139 c 9.06775,-1.14968 10.87927,-3.28076 7.97174,-9.37794 -1.20716,-2.53144 -2.85838,-4.60262 -3.66936,-4.60262 -0.81099,0 -2.4809,-1.24284 -3.71092,-2.76186 -2.20656,-2.72498 -2.36072,-2.63186 -11.54707,6.97523 l -9.31064,9.73708 4.66667,0.8331 c 2.56666,0.4582 5.56666,0.66274 6.66666,0.45456 1.1,-0.2082 5.11982,-0.77411 8.93292,-1.25755 z"
         id="path1938" />
      <path
         style="fill:#782121;stroke-width:1.33333"
         d="m 277.96984,400.56382 c 2.74456,-1.79829 3.41555,-3.19003 3.0998,-6.42945 -0.37985,-3.89715 -0.72153,-4.13436 -5.95488,-4.13436 -3.05354,0 -6.00354,-0.45 -6.55556,-1 -1.89213,-1.88526 -3.00421,-0.98886 -7.44362,6 -5.83024,9.17837 -5.72319,8.72649 -2.19242,9.2546 5.0429,0.75426 15.29447,-1.23224 19.04668,-3.69079 z"
         id="path1936" />
      <path
         style="fill:#782121;stroke-width:1.33333"
         d="m 104.70712,292.78116 c 2.68993,-9.05796 2.49814,-11.2795 -1.04045,-12.05156 -8.311564,-1.81341 -9.933941,-1.36952 -12.396029,3.39164 -1.869814,3.61582 -1.893064,4.39252 -0.189589,6.33334 1.067872,1.21665 3.283627,4.87958 4.923902,8.13985 2.81831,5.60179 3.085712,5.78637 4.862466,3.35651 1.03409,-1.4142 2.76195,-5.54059 3.8397,-9.16978 z"
         id="path2006" />
      <path
         style="fill:#782121;stroke-width:1.33333"
         d="m 41.572846,209.6688 c 8.039504,-3.79629 8.590724,-4.64485 6.533016,-10.05702 -1.446875,-3.80558 -10.333487,-6.03704 -12.927716,-3.24622 -1.60558,1.72727 -3.559737,16.96778 -2.175629,16.96778 0.445413,0 4.302061,-1.64904 8.570329,-3.66454 z"
         id="path2008" />
    </g>
    <g
       id="layer4"
       inkscape:label="02"
       style="display:inline;fill:#c8beb7">
      <path
         id="path1940"
         style="fill:#c8beb7;stroke-width:1.33333"
         d="m 198.05469,43.564453 c -2.1161,0.844559 -7.38867,7.766321 -7.38867,10.183594 0,1.059135 -0.81657,2.60346 -1.81446,3.431641 -2.45079,2.033963 -21.31709,4.323063 -27.49023,3.335937 -4.6972,-0.75111 -5.27923,-0.424164 -10.67969,5.980469 -6.52402,7.7371 -7.89103,8.358481 -20.68164,9.40625 l -9.33398,0.763672 -0.42188,4.404296 c -0.30112,3.134249 -1.35885,4.826803 -3.66797,5.878907 -4.0524,1.846403 -4.14209,4.421116 -0.24219,6.880859 2.32045,1.463548 5.41555,1.670299 13.66602,0.908203 6.12993,-0.566221 11.71616,-0.456591 13.13477,0.257813 2.31149,1.164046 2.23829,1.482245 -1.15625,5.025386 -3.64833,3.80804 -7.46914,5.7335 -14.4004,7.25196 -2.60583,0.57088 -3.62273,1.52133 -3.32226,3.10742 0.65872,3.4771 9.10602,3.67309 15.59766,0.36133 6.27391,-3.20072 18.91038,-3.62264 38.09765,-1.26953 l 11.95313,1.46679 3.1875,-3.70703 c 2.74455,-3.19075 3.07242,-4.58829 2.34961,-10.037108 -1.35307,-10.199937 3.80329,-9.549398 5.46484,0.689454 0.61191,3.770814 0.0365,5.907004 -2.70703,10.052734 -3.97105,6.00066 -8.85127,7.57602 -19.55274,6.30859 -7.06084,-0.83626 -8.36251,-0.0105 -9.86328,6.25782 -0.977,4.08062 -8.93924,17.2771 -11.30664,18.74023 -2.3745,1.46754 -10.49241,17.1353 -11.44531,22.08984 -1.16325,6.04832 -4.47855,13.33204 -6.06836,13.33204 -0.71057,0 -0.89658,-2.71812 -0.43359,-6.33204 L 140.33984,162 l -5.97851,5.75586 c -7.22748,6.95865 -11.22514,14.59666 -12.42774,23.74023 -1.13093,8.59869 0.90218,10.18649 4.06446,3.17383 2.33633,-5.18109 7.33593,-10.95763 7.33593,-8.47656 0,0.70033 -0.53638,1.84239 -1.1914,2.53906 C 130.97389,189.9754 128,202.35193 128,205.97266 c 0,2.21417 6.37575,0.73255 11.61328,-2.69922 4.52414,-2.96432 5.62999,-1.21569 1.64844,2.60547 -7.33278,7.03734 -33.27182,12.11331 -45.791017,8.96093 -5.895611,-1.48451 -6.286831,-1.38485 -13.435547,3.42969 l -7.363281,4.95899 0.421875,24.05273 0.421875,24.05273 3.564453,1.73438 c 1.960492,0.95385 4.221512,2.95862 5.023438,4.45703 l 1.457031,2.72461 3.128906,-2.9375 c 4.002977,-3.76062 3.6435,-8.13118 -1.023437,-12.45508 -3.137573,-2.90695 -3.655545,-4.41654 -3.591797,-10.46094 0.107213,-10.16548 3.487464,-17.40203 10.498047,-22.48046 4.397279,-3.18537 6.423464,-3.94004 7.992184,-2.97266 8.05653,4.96811 15.3475,8.36712 22.18164,10.33984 4.35684,1.25766 9.86836,3.4801 12.24805,4.93946 3.67535,2.25391 5.98248,2.55999 15.33203,2.03125 10.34001,-0.58475 11.03553,-0.81332 11.46289,-3.77149 0.52462,-3.63149 3.87331,-7.8164 6.25586,-7.8164 0.89737,0 2.37781,-1.80002 3.28906,-4 1.78778,-4.31609 3.64925,-5.12981 4.81055,-2.10352 0.90556,2.35986 -1.6347,7.25598 -5.33984,10.29102 -2.7783,2.27581 -2.74607,2.32267 3.63476,5.16406 6.25535,2.78551 6.51963,2.79866 9.1543,0.42578 1.49194,-1.34371 3.33698,-3.94403 4.10156,-5.77734 1.19924,-2.87552 1.47039,-2.99378 1.97071,-0.86719 0.33992,1.44488 -0.87145,3.98065 -2.92774,6.12695 -3.08679,3.22191 -3.26497,3.86374 -1.47461,5.34961 2.94308,2.44253 5.90727,0.77402 8.14844,-4.58984 2.21929,-5.31151 3.25391,-5.93549 3.25391,-1.95899 0,1.5 -1.53628,4.26479 -3.41407,6.14258 -1.87775,1.87777 -3.22777,3.56825 -3,3.75781 3.56622,2.96778 6.23017,3.06735 8.69922,0.32227 1.45859,-1.62164 3.02169,-3.99989 3.47461,-5.2832 0.86685,-2.45616 3.57422,-3.24726 3.57422,-1.04493 0,0.70783 -1.81216,3.35008 -4.02734,5.87305 l -4.02735,4.58789 4.51758,2.79297 c 2.48509,1.53586 6.24789,2.83575 8.36133,2.88867 2.11346,0.0529 9.23799,1.41424 15.83203,3.02539 10.65039,2.60224 12.28753,3.40822 14.66602,7.23047 2.3728,3.81312 3.28527,4.26553 8.01171,3.97461 l 5.33204,-0.32812 -0.14649,-10.09571 c -0.1052,-7.18343 -0.8243,-11.12843 -2.48828,-13.66797 -1.93321,-2.95044 -1.99965,-3.56836 -0.39063,-3.56836 4.64511,0 8.74946,7.89632 9.64063,18.54688 0.82816,9.89766 1.7982,14.18544 4.4043,19.45312 3.44643,6.96634 10.93945,15.19641 17.14648,18.83399 3.30004,1.93394 9.22076,7.55196 13.15625,12.48437 l 7.15625,8.96875 -3.36914,11.18946 c -1.8528,6.15438 -5.01205,13.2888 -7.02148,15.85547 -2.00944,2.56665 -4.33684,5.95205 -5.17188,7.52148 -2.0243,3.80456 -13.26709,11.14648 -17.06836,11.14648 -3.42098,0 -7.34441,4.68527 -6.26953,7.48633 0.9716,2.53197 13.75586,2.59178 13.75586,0.0645 0,-0.98026 3.95891,-3.83091 8.79688,-6.33399 4.83795,-2.50307 9.87383,-5.90078 11.1914,-7.55078 1.31758,-1.65 2.98683,-3 3.70899,-3 0.72214,0 2.04848,-1.7755 2.94726,-3.94531 0.89876,-2.16982 5.02191,-6.48646 9.16211,-9.5918 C 328.49682,340.9447 332,337.1754 332,333.03906 c 0,-2.80317 -0.86209,-4.10011 -3.35742,-5.04883 -3.95839,-1.50495 -6.09969,-6.29272 -5.16992,-11.55859 0.36564,-2.07082 4.20716,-9.16564 8.53711,-15.76562 10.59527,-16.15006 11.96602,-19.88754 12.33984,-33.64258 l 0.31641,-11.64844 4.71289,-0.76367 c 5.82248,-0.9437 7.95507,-2.20091 7.95507,-4.68945 0,-1.05672 0.55109,-1.92188 1.22461,-1.92188 4.76861,0 10.85564,-22.97408 11.61133,-43.82422 0.43841,-12.09615 -2.19033,-22.06177 -9.33203,-35.375 -1.92717,-3.59256 -3.50391,-7.36731 -3.50391,-8.38867 0,-1.02136 -1.88933,-5.88139 -4.19726,-10.80078 -2.30794,-4.91943 -5.36107,-13.44533 -6.78516,-18.94531 -1.4241,-5.5 -3.51438,-13.60002 -4.64453,-18 -1.13013,-4.4 -2.20795,-13.699367 -2.39453,-20.66602 -0.18659,-6.966653 -0.42903,-12.96732 -0.54102,-13.333984 -0.112,-0.366667 -1.61937,3.309996 -3.3496,8.169922 -1.73026,4.859923 -6.30479,14.083722 -10.16407,20.496092 -10.69588,17.7717 -13.06378,32.08011 -7.86328,47.51758 3.31923,9.85298 4.8,12.23852 16.01758,25.81641 16.46215,19.926 20.02911,26.65667 22.57227,42.57617 0.85111,5.3279 0.86089,9.81124 0.0254,12.72461 -1.49032,5.19634 -7.52914,12.0332 -10.62891,12.0332 -3.15199,0 -8.04688,-3.84024 -8.04688,-6.3125 0,-4.37038 -21.12744,-20.1108 -34.19726,-25.47852 -9.35578,-3.84238 -17.13521,-6.06753 -29.04883,-8.30859 -8.4444,-1.58845 -25.50272,-9.88645 -28.16992,-13.70312 -1.10109,-1.57565 -4.7522,-7.06395 -8.11328,-12.19727 -3.3611,-5.13331 -7.8411,-11.51923 -9.95703,-14.19141 -4.80014,-6.06198 -5.11433,-10.47461 -0.7461,-10.47461 1.7055,0 4.5101,1.49871 6.23242,3.33204 1.72233,1.83331 4.24557,3.33398 5.60743,3.33398 2.8406,0 5.03004,-4.23151 2.60742,-5.03906 -3.2538,-1.0846 -5.54883,-4.59956 -5.54883,-8.4961 0,-3.75536 0.25191,-3.95459 3.9668,-3.13867 5.72383,1.25717 7.47193,-0.33266 4.19726,-3.81836 -1.48681,-1.58266 -3.6998,-5.27003 -4.91797,-8.19336 -2.18437,-5.24198 -2.17889,-5.28168 0.375,-2.98047 1.42425,1.28333 3.19629,2.33204 3.9375,2.33204 0.74122,0 2.02991,1.50065 2.86524,3.33398 0.83532,1.83334 2.43115,3.33398 3.54687,3.33398 4.45018,0 0.96751,-8.96052 -5.83593,-15.01171 C 241.86105,124.29995 240,122.0422 240,121.30469 c 0,-1.42924 8.51365,1.69017 11.5957,4.24804 2.99515,2.48575 3.28533,0.4127 0.44727,-3.19531 -1.46321,-1.86017 -5.07051,-4.3462 -8.01758,-5.52539 -8.80436,-3.52281 -6.4908,-7.46145 2.55273,-4.3457 4.4095,1.5192 5.42188,1.5421 5.42188,0.12109 0,-2.31362 -5.8091,-6.79149 -11.46289,-8.83594 -4.84963,-1.75363 -6.18441,-5.105464 -2.0332,-5.105464 1.37709,0 4.67775,0.907744 7.33398,2.017574 2.65621,1.10984 4.82813,1.51573 4.82813,0.90039 0,-2.516733 -6.33911,-6.757625 -11.33204,-7.580074 -8.73357,-1.43862 -9.22786,-1.721388 -7.22656,-4.132812 1.3297,-1.602184 3.11053,-1.890468 7.55078,-1.22461 5.62649,0.843744 5.75764,0.783055 4.08789,-1.890625 -1.63279,-2.614539 -5.05478,-4.143789 -13.41211,-5.99414 -2.11745,-0.46882 -3.66796,-1.706545 -3.66796,-2.927735 0,-1.662961 1.13982,-2.005444 5.33398,-1.605468 2.93334,0.279737 5.33398,0.05638 5.33398,-0.496094 0,-1.666118 -6.23872,-5.220555 -12.29882,-7.007813 -5.7108,-1.684232 -8.81716,-6.058593 -4.30274,-6.058593 1.85863,0 1.966,-0.35595 0.60156,-2 -2.39736,-2.888658 -11.4995,-2.570768 -14.81445,0.517578 -1.54707,1.441305 -3.80711,2.230271 -5.28515,1.84375 -1.42014,-0.371376 -3.50371,0.08992 -4.63086,1.02539 -1.62016,1.344618 -2.38724,1.357535 -3.66016,0.0625 -1.2622,-1.284125 -0.91499,-2.207256 1.60937,-4.269531 3.30002,-2.695916 6.2339,-14.06839 4.18946,-16.240234 -0.14897,-0.158247 -0.3852,-0.161667 -0.6875,-0.04102 z m -32.6836,22.546875 c 2.47015,0.0099 4.8878,1.139737 7.38086,3.396484 1.51394,1.370423 4.51524,2.515561 6.66797,2.544922 l 3.91406,0.05469 -4,2.107422 c -2.19999,1.159808 -5.2013,3.164599 -6.66796,4.455078 -4.02468,3.541196 -11.21673,4.113352 -14.20118,1.128906 C 157.10894,78.442915 156,76.824393 156,76.203125 c 0,-0.621268 -1.35,-1.780409 -3,-2.576172 -1.99277,-0.961079 -2.30365,-1.477166 -0.92578,-1.537109 1.14086,-0.04963 4.08984,-1.577456 6.55273,-3.394532 2.34487,-1.72998 4.5646,-2.592735 6.74414,-2.583984 z M 129.9375,77.408203 c 1.04116,0.04873 2.22751,1.010683 2.81055,2.847656 0.70072,2.207775 0.0516,3.674163 -2.65235,6 -4.19613,3.609369 -5.20349,3.758491 -7.41015,1.09961 -1.36048,-1.639275 -1.04682,-2.204759 1.83593,-3.300781 C 126.68959,83.230372 128,81.715997 128,80.033203 c 0,-1.809685 0.89634,-2.673729 1.9375,-2.625 z m 18.43164,11.945313 c 0.54677,-0.02104 1.16547,0.984955 1.7168,3.18164 0.45012,1.793438 -0.0682,4.864507 -1.17774,6.982422 l -1.98047,3.781252 -0.0547,-6.982424 c -0.0341,-4.398964 0.64314,-6.930075 1.49609,-6.96289 z m 66.64844,2.880859 c 0.83254,0.01461 0.86764,1.31935 -0.5625,3.609375 -1.74973,2.80177 -5.14643,4.88033 -5.0918,3.115234 0.0163,-0.526983 1.17402,-2.449109 2.57422,-4.271484 1.3016,-1.694033 2.43254,-2.464491 3.08008,-2.453125 z m 3.28906,8.769535 c 0.2224,-0.0139 0.35253,0.11633 0.35352,0.42968 0.004,1.1555 -1.49285,3.5101 -3.32618,5.23243 -1.83333,1.72231 -3.31152,2.57822 -3.28515,1.90039 0.078,-2.00562 4.89873,-7.47771 6.25781,-7.5625 z m 113.78906,9.66211 c 0.98876,0 1.14,4.70649 0.49024,15.25781 -0.93195,15.13382 -0.90718,15.32312 3.11328,23.66601 4.55721,9.45671 9.96561,24.76966 9.36328,26.51172 -0.21792,0.63028 -1.10051,0.70812 -1.96289,0.17188 -0.8624,-0.53622 -2.2882,-3.96809 -3.16797,-7.625 -0.87979,-3.65693 -3.6518,-10.75412 -6.16016,-15.77149 -5.06233,-10.12594 -7.4296,-24.60596 -4.58203,-28.03711 0.86347,-1.04041 1.4778,-2.40601 1.36524,-3.0332 -0.68048,-3.79117 0.33618,-11.14062 1.54101,-11.14062 z m -111.37304,1.7207 c 0.0727,0.001 0.12841,0.021 0.16796,0.0606 0.91756,0.91753 -6.80456,8.88671 -8.61132,8.88671 -0.693,0 0.78712,-2.17321 3.29101,-4.82812 2.26915,-2.40601 4.44967,-4.13076 5.15235,-4.11914 z M 180.07812,120 c 4.15737,0 6.42976,0.51223 5.92188,1.33398 -0.45322,0.73334 -3.48939,1.33204 -6.74609,1.33204 -3.25672,0 -5.91993,-0.5987 -5.91993,-1.33204 0,-0.73331 3.03421,-1.33398 6.74414,-1.33398 z m 39.58594,3.46289 c 0.80441,0.0279 -0.34881,2.19053 -3.67578,5.67188 -4.10723,4.29783 -5.32226,5.01221 -5.32226,3.12695 0,-0.58948 2.10131,-3.10801 4.66796,-5.5957 2.31342,-2.24226 3.7797,-3.22223 4.33008,-3.20313 z m 99.82422,3.29883 c 0.68632,-0.16889 1.02483,3.12678 0.73438,9.2539 -0.4722,9.96078 1.8843,17.0431 8.68359,26.10938 1.7018,2.26923 3.09375,4.7772 3.09375,5.57227 0,0.79505 1.02559,2.47091 2.2793,3.72461 1.25369,1.25367 2.44984,3.39639 2.6582,4.76171 0.44166,2.89394 0.39798,2.90834 -2.41016,0.76953 -1.17617,-0.89581 -3.44604,-4.02617 -5.04492,-6.95703 -1.5989,-2.93083 -5.06203,-8.86202 -7.69531,-13.17968 -4.99128,-8.18398 -6.09775,-15.62842 -3.84766,-25.87305 0.59986,-2.73116 1.13704,-4.08031 1.54883,-4.18164 z m 22.53516,3.06445 c 1.99624,-0.0556 3.18471,4.54376 3.69336,14.18164 0.85268,16.15672 2.38802,22.00453 10.32422,39.32617 6.8366,14.92171 7.96621,18.21352 7.32031,21.32227 -0.38218,1.8395 -1.00608,4.84441 -1.38672,6.67773 -0.6091,2.93368 -3.40127,4.93699 -3.25,2.33204 0.032,-0.55 0.55352,-3.55739 1.1582,-6.6836 1.13251,-5.85518 0.31557,-8.49998 -6.79883,-22.04492 -4.79772,-9.13429 -9.28055,-25.38762 -10.37109,-37.60352 -0.5892,-6.59998 -0.84561,-12.24573 -0.57031,-12.54492 0.2753,-0.2992 -0.12214,-1.29598 -0.88477,-2.21484 -0.83952,-1.01155 -0.89566,-1.97477 -0.14062,-2.44141 0.3185,-0.19684 0.62107,-0.29869 0.90625,-0.30664 z m -166.61133,0.83985 c 3.71293,0 5.75724,0.51957 5.25391,1.33398 -0.45323,0.73334 -3.18808,1.33398 -6.07813,1.33398 -2.89006,0 -5.25391,-0.60064 -5.25391,-1.33398 0,-0.73333 2.73485,-1.33398 6.07813,-1.33398 z m 43.67578,5.57812 c 0.63576,-0.0776 0.2385,0.97074 -1.56055,3.18945 C 214.43566,143.24651 208,147.335 208,145.48633 208,144.66865 208.48596,144 209.08008,144 c 0.59412,0 3.00822,-1.88506 5.36523,-4.18945 2.33645,-2.28432 4.00682,-3.48883 4.64258,-3.56641 z m -47.00391,5.44336 c 4.44584,-0.0419 7.75118,0.25469 7.34571,0.66016 -1.04854,1.04856 -11.94933,2.5911 -13.84571,1.95898 -3.94813,-1.31605 -0.88663,-2.54957 6.5,-2.61914 z M 219.16016,148 c 1.7342,0 -4.43918,6.53865 -7.82618,8.28906 -1.60952,0.83181 -0.84562,-0.53747 1.92774,-3.45508 C 215.78891,150.17535 218.44286,148 219.16016,148 Z m -51.49414,4.01953 c 5.44185,0.0145 7.08757,0.39704 5.66796,1.31445 -2.64065,1.70653 -13.33398,1.70653 -13.33398,0 0,-0.73665 3.43018,-1.32573 7.66602,-1.31445 z M 217.66016,160 c 0.74377,0 0.59972,0.88435 -0.32618,2 -0.9129,1.1 -2.26081,2 -2.99414,2 -0.74377,0 -0.59973,-0.88434 0.32618,-2 0.9129,-1.1 2.2608,-2 2.99414,-2 z m -57.35938,5.33398 c 6.76994,0 6.20708,0.73122 -1.30078,1.68946 -3.23318,0.41265 -5.34727,0.20397 -4.92188,-0.48438 0.41011,-0.66352 3.21039,-1.20508 6.22266,-1.20508 z M 153.33398,176 c 2.28656,0 3.80916,0.56138 3.38477,1.24805 -0.90347,1.46182 -5.96092,1.3099 -6.89844,-0.20703 C 149.46613,176.46794 151.04744,176 153.33398,176 Z m 31.4004,55.01562 c 0.38254,-0.0401 0.41092,0.68698 -0.0566,2.31836 -1.23258,4.30062 -4.41332,9.33204 -5.89843,9.33204 -0.63739,0 -0.0312,-2.2114 1.34765,-4.91602 2.1185,-4.15531 3.92548,-6.66291 4.60743,-6.73438 z m -25.36329,0.15821 c 0.51042,-0.0223 0.62891,0.75324 0.62891,2.55469 0,6.48126 -1.18626,7.61564 -7.80859,7.46289 -3.40486,-0.0785 -8.81253,-0.72831 -12.01563,-1.44336 -3.34076,-0.74577 -5.32354,-1.79951 -4.65234,-2.47071 0.6712,-0.6712 4.62412,-0.24376 9.27344,1.00196 9.12133,2.44393 13.14572,1.74129 11.93164,-2.08399 -0.45639,-1.43798 0.0675,-3.19497 1.24218,-4.16992 0.64775,-0.53758 1.09415,-0.83821 1.40039,-0.85156 z m 54.78516,19.49219 c 2.38827,0 2.32507,0.77436 -0.44336,5.46093 -2.47469,4.18932 -5.27496,5.35241 -3.70508,1.53907 0.52833,-1.28333 1.26384,-3.38268 1.63281,-4.66602 0.369,-1.28333 1.50116,-2.33398 2.51563,-2.33398 z m 8.91406,4.17382 c 1.45284,-0.0687 1.05124,1.83001 -1.10937,4.57227 -1.97474,2.50637 -2.02678,2.48622 -1.66602,-0.64063 0.20489,-1.77587 1.12241,-3.47544 2.03906,-3.77734 0.2835,-0.0934 0.52878,-0.14448 0.73633,-0.1543 z M 330.25391,256 c 4.01738,0 10.115,13.4983 7.34765,16.26562 -1.2456,1.2456 -1.60156,0.79757 -1.60156,-2.01757 0,-3.63342 -1.72308,-7.57461 -5.20703,-11.91407 C 329.76265,257.05066 329.52057,256 330.25391,256 Z m -99.58789,1.33398 c 0.73331,0 1.33398,0.90002 1.33398,2 0,1.1 -0.60067,2 -1.33398,2 -0.73333,0 -1.33204,-0.9 -1.33204,-2 0,-1.09998 0.59871,-2 1.33204,-2 z M 326.41406,268 c 0.0995,-8e-4 0.20646,0 0.32032,0 2.3154,0 5.44796,9.25301 4.89648,14.46484 -0.46264,4.37212 -0.53898,4.45445 -0.74024,0.81641 C 330.76737,281.05297 329.46666,276.87679 328,274 c -2.91261,-5.7129 -3.07778,-5.98799 -1.58594,-6 z m -5.2539,13.33398 c 1.571,0 4.57382,11.06241 3.84765,14.17383 -0.44263,1.89651 -0.81313,1.53497 -1.55273,-1.50781 -0.53476,-2.2 -1.53226,-5.37799 -2.21485,-7.0625 -1.55097,-3.82761 -1.57564,-5.60352 -0.0801,-5.60352 z m -5.75977,12.375 c 0.40517,-0.055 1.31593,0.81243 2.5957,2.76563 1.21516,1.85456 1.94446,4.75683 1.6211,6.44922 -0.32336,1.6924 -0.67296,2.17617 -0.77735,1.07617 -0.1044,-1.1 -1.09649,-3.73947 -2.20507,-5.86523 -1.4402,-2.76163 -1.75532,-4.35513 -1.23438,-4.42579 z m 4.31641,36.24414 c 0.23601,-0.002 0.54527,0.0756 0.93359,0.22461 3.99125,1.53158 2.07004,6.5276 -5.31641,13.82227 -4.03332,3.98323 -7.33398,6.60895 -7.33398,5.83398 0,-0.77494 2.73838,-4.30958 6.08594,-7.85351 4.71956,-4.99643 5.91319,-7.13201 5.3164,-9.50977 -0.44461,-1.77152 -0.3936,-2.5102 0.31446,-2.51758 z" />
      <path
         id="path2002"
         style="fill:#c8beb7;stroke-width:1.33333"
         d="m 224.2832,270.86523 c -0.18389,0.0183 -0.2832,0.0586 -0.2832,0.125 0,0.29497 1.7396,4.09283 3.86523,8.43946 3.8648,7.90292 7.8281,12.29111 18.46875,20.44922 5.44913,4.17779 5.66602,4.62593 5.66602,11.65429 0,4.01992 0.5717,8.378 1.27148,9.68555 1.04009,1.94344 -0.038,3.51042 -5.91015,8.58008 -3.95083,3.4109 -7.67928,6.20117 -8.28516,6.20117 -0.60588,0 -1.82981,1.16721 -2.7207,2.59375 -2.35904,3.77742 -16.25774,12.86493 -21.68945,14.18164 -2.56667,0.62218 -6.64482,0.95125 -9.0625,0.73242 -2.41771,-0.21882 -5.25959,0.32018 -6.31641,1.19727 -1.6529,1.37179 -1.5379,2.13351 0.82031,5.44531 3.123,4.38585 3.18075,4.39769 11.63477,2.29102 3.44139,-0.85758 7.04469,-2.6612 8.00586,-4.00782 2.86398,-4.01241 8.86143,-6.66639 22.04687,-9.7539 2.85322,-0.6681 10.88103,-5.48558 19.74024,-11.84571 3.4105,-2.44842 8.58127,-4.83139 11.49218,-5.29687 6.83681,-1.09326 7.81765,-2.61356 7.60547,-11.79102 -0.16974,-7.34215 -0.41097,-7.8158 -7.46875,-14.76171 -4.53234,-4.46051 -8.52864,-10.03376 -10.56054,-14.72461 l -3.26954,-7.54688 -8.98242,-0.0234 c -8.94887,-0.0227 -8.98975,-0.0392 -10.8789,-4.56054 -1.04289,-2.496 -3.00129,-4.85179 -4.35157,-5.23438 -4.14274,-1.17374 -9.55062,-2.15751 -10.83789,-2.0293 z m 49.72657,42.94532 c 0.50753,-0.0363 0.66081,1.27519 0.23632,4.02148 C 273.3275,323.77502 270.05628,328 266.37305,328 c -1.40121,0 -3.76215,0.64917 -5.2461,1.44336 -2.28029,1.22038 -2.62764,1.07297 -2.23633,-0.95898 0.28652,-1.48778 2.45903,-2.96394 5.69922,-3.87305 4.06852,-1.14151 5.55292,-2.39324 6.65625,-5.61133 1.15739,-3.37577 2.18848,-5.14833 2.76368,-5.18945 z" />
      <path
         id="path2010"
         style="fill:#c8beb7;stroke-width:1.33333"
         d="m 92.992188,150.06641 c -1.024199,-0.023 -2.006538,0.24001 -3.146485,0.67968 -2.115649,0.816 -5.945055,1.48098 -8.511719,1.47657 -4.075964,-0.007 -5.93376,1.29874 -14.667968,10.32422 -5.499995,5.68339 -12.700003,11.79233 -16,13.57617 -5.249451,2.8376 -6.050445,3.86124 -6.410157,8.18164 -0.359108,4.31313 0.01054,5.04422 2.923829,5.77539 4.636381,1.16367 6.094867,-0.13471 5.902343,-5.25586 -0.222759,-5.92539 0.870247,-7.33605 8.089844,-10.44727 3.388693,-1.46034 8.078606,-4.69074 10.421875,-7.17773 3.858963,-4.09563 4.612924,-4.38539 8,-3.08203 2.056727,0.79144 6.138936,1.852 9.072266,2.35742 4.539515,0.78219 5.396758,1.45924 5.755859,4.55469 0.554446,4.77931 2.341748,4.60506 4.974609,-0.48633 1.172896,-2.26814 2.444666,-3.81314 2.824216,-3.43359 1.05456,1.05455 -0.809,5.95352 -3.156247,8.30078 -1.902231,1.90221 -1.822945,3.02948 0.857422,12.34179 3.915655,13.60402 10.055255,22.83425 15.220705,22.88086 3.17902,0.0287 3.6196,-0.35157 2.66601,-2.29883 -0.62846,-1.28333 -1.13569,-6.53619 -1.12695,-11.67187 0.0129,-7.56769 0.74729,-10.82825 3.86719,-17.20508 3.68917,-7.5404 3.74592,-7.94273 1.39453,-9.66211 -1.3495,-0.98678 -3.02163,-1.79492 -3.7168,-1.79492 -0.69518,0 -4.93078,-3.20192 -9.41211,-7.11523 -9.290685,-8.11308 -12.749666,-10.74949 -15.822262,-10.81836 z m 13.363282,23.46484 c 0.19918,0.0102 0.31055,0.25875 0.31055,0.78125 0,2.84268 -2.59727,8.35352 -3.9375,8.35352 -0.84138,0 -0.75921,-1.35984 0.2207,-3.66602 1.43421,-3.37536 2.8087,-5.4993 3.40625,-5.46875 z m 4.83398,3.99805 c 0.0806,0.002 0.1505,0.0333 0.21094,0.0937 0.2866,0.2866 -0.47486,3.63886 -1.69336,7.44922 -2.42325,7.57769 -5.2234,9.51352 -3.85351,2.66406 0.80553,-4.02769 4.12704,-10.24283 5.33593,-10.20703 z m 2.04102,9.85742 c 0.81038,0.006 0.52461,1.39663 -0.94336,5.35742 -1.95242,5.26788 -4.28711,7.876 -4.28711,4.78906 0,-2.87382 3.03694,-9.38973 4.66797,-10.01562 0.22469,-0.0862 0.41243,-0.13204 0.5625,-0.13086 z" />
      <path
         style="fill:#c8beb7;stroke-width:1.33333"
         d="m 182.66667,40.775717 c 0,-2.767051 -1.45881,-6.10905 -2.66667,-6.10905 -1.5659,0 -2.69104,3.718394 -1.8155,6 0.97418,2.538666 4.48217,2.624014 4.48217,0.109054 z"
         id="path2020" />
      <path
         style="fill:#c8beb7;stroke-width:1.33333"
         d="m 183.66667,53.008133 c 6.29415,-5.04029 -4.86965,-8.426555 -13.80377,-4.187039 -2.89151,1.372108 -5.86966,1.821728 -8.20151,1.238205 -8.33508,-2.085761 -12.44431,-2.289333 -14.34641,-0.710724 -3.28264,2.72435 -2.2539,3.861286 2.75793,3.047978 2.60676,-0.42302 6.05676,-0.129174 7.66667,0.652998 1.6099,0.78217 3.82709,1.734936 4.92709,2.11726 2.97843,1.035203 19.07825,-0.619768 21,-2.158678 z"
         id="path2018" />
    </g>
    <path
       style="fill:#00ffff;stroke-width:1.33333"
       d="m 170.78642,76.522384 c 1.51325,-1.823362 1.3925,-2.427334 -0.80683,-4.035526 -2.28405,-1.670138 -2.69588,-1.614301 -3.52263,0.477618 -2.23562,5.656802 0.63184,8.01326 4.32946,3.557908 z"
       id="path2000" />
  </g>
</svg>
