<?xml version="1.0" encoding="UTF-8" standalone="no"?>
<!-- Created with Inkscape (http://www.inkscape.org/) -->

<svg
   version="1.1"
   id="svg1791"
   width="468"
   height="353.33334"
   viewBox="0 0 468 353.33334"
   sodipodi:docname="Mouse2c.svg"
   inkscape:version="1.3.1 (6036e22fae, 2023-11-19, custom)"
   xmlns:inkscape="http://www.inkscape.org/namespaces/inkscape"
   xmlns:sodipodi="http://sodipodi.sourceforge.net/DTD/sodipodi-0.dtd"
   xmlns="http://www.w3.org/2000/svg"
   xmlns:svg="http://www.w3.org/2000/svg">
  <defs
     id="defs1795" />
  <sodipodi:namedview
     id="namedview1793"
     pagecolor="#ffffff"
     bordercolor="#000000"
     borderopacity="0.25"
     inkscape:showpageshadow="2"
     inkscape:pageopacity="0.0"
     inkscape:pagecheckerboard="0"
     inkscape:deskcolor="#d1d1d1"
     showgrid="false"
     inkscape:zoom="0.88638134"
     inkscape:cx="236.35425"
     inkscape:cy="175.43239"
     inkscape:window-width="1920"
     inkscape:window-height="1031"
     inkscape:window-x="0"
     inkscape:window-y="25"
     inkscape:window-maximized="1"
     inkscape:current-layer="layer1" />
  <g
     inkscape:groupmode="layer"
     id="layer1"
     inkscape:label="Layer 1">
    <path
       style="fill:#917c6f;stroke-width:1.33333"
       d="m 361.33333,334.66391 c 0,-1.82 15.59435,-13.17796 19.40706,-14.13488 1.68666,-0.42333 3.39173,-1.61682 3.78905,-2.65221 0.60388,-1.57371 -1.62231,-1.77317 -13.57019,-1.21588 -7.86092,0.36665 -15.88546,1.00307 -17.83232,1.41425 -1.984,0.41903 -3.9472,0.0883 -4.46685,-0.7525 -1.31761,-2.13194 -0.50328,-2.58304 6.12715,-3.39418 3.23369,-0.39558 8.27944,-1.55714 11.21277,-2.58122 2.93333,-1.0241 8.88103,-2.49387 13.21708,-3.26616 4.33607,-0.7723 8.11404,-1.63447 8.39551,-1.91594 1.29253,-1.29253 -9.78388,-2.2028 -16.94534,-1.39257 -7.47213,0.84537 -16.00058,-0.9124 -16.00058,-3.29784 0,-0.88136 -5.66618,-3.91595 -12.33334,-6.60525 -2.01666,-0.81347 -3.66666,-2.09188 -3.66666,-2.84094 0,-0.74905 -2.07019,-1.36192 -4.60042,-1.36192 -2.97472,0 -5.08066,-0.82454 -5.95945,-2.33333 -0.74748,-1.28333 -1.37729,-1.60973 -1.39959,-0.72535 -0.0223,0.8844 1.79146,4.71508 4.03056,8.51262 4.73512,8.03078 4.99635,14.89388 0.59556,15.64762 -1.46666,0.2512 -3.3688,1.35534 -4.22696,2.45362 -0.85816,1.09828 -3.04962,1.8017 -4.86994,1.56317 -1.91908,-0.25148 -4.51606,0.65807 -6.18096,2.16479 -2.22959,2.01774 -3.38591,2.27713 -5.17382,1.16056 -1.26638,-0.79087 -4.37682,-1.89355 -6.91209,-2.45038 -2.53527,-0.55684 -6.4722,-2.43313 -8.74876,-4.16954 -2.27655,-1.73642 -4.92983,-3.15711 -5.89617,-3.15711 -0.96636,0 -4.20972,-1.42863 -7.20748,-3.17472 -2.99776,-1.74611 -8.15048,-3.605 -11.45048,-4.13089 -4.33239,-0.69042 -7.48234,-2.3606 -11.33334,-6.00927 -2.93333,-2.7792 -7.73333,-5.80344 -10.66666,-6.72052 -2.93334,-0.91709 -6.53334,-2.16805 -8,-2.77992 -9.23378,-3.85216 -16.03266,-5.43288 -26.29192,-6.11276 -8.9804,-0.59513 -12.1367,-1.33556 -13.87331,-3.25449 -3.31589,-3.66402 -16.38372,-3.49456 -20.68707,0.26824 -2.16002,1.88872 -2.62474,2.9695 -1.48104,3.44445 0.91667,0.38065 1.66667,1.86321 1.66667,3.29457 0,1.43135 0.94501,4.04474 2.10004,5.80752 2.07663,3.16935 5.91903,18.876 5.87955,24.03396 -0.0276,3.60555 -1.77019,6.10787 -4.53614,6.51383 -1.25928,0.18483 -3.01429,1.78961 -3.90001,3.56621 -1.97775,3.96696 -6.17301,4.98859 -7.88959,1.92124 -1.14162,-2.03998 -1.43168,-1.95144 -2.82722,0.86302 -2.30944,4.65753 -8.05728,4.88321 -10.97456,0.43088 -1.2732,-1.94315 -5.43396,-4.91239 -9.24614,-6.59832 -3.81217,-1.68592 -7.32801,-3.70734 -7.81298,-4.49204 -1.8986,-3.072 -41.519374,-21.34162 -48.126283,-22.19162 C 59.568115,289.7545 44.920513,283.76591 29.254604,268.08706 23.250705,262.0782 17.927865,255.30467 16.089033,251.33334 14.391272,247.66667 12.132461,242.9992 11.069454,240.96119 8.0875119,235.24416 6.4883344,213.76516 7.0766948,187.33334 7.6550585,161.3506 9.4427429,148.48691 13.430915,141.6101 c 1.400246,-2.41444 4.601876,-10.51445 7.114729,-18 2.512855,-7.48555 5.818071,-16.13111 7.344925,-19.21236 1.526854,-3.08124 2.776098,-6.093043 2.776098,-6.692895 0,-2.984238 12.545089,-17.101967 22,-24.757898 C 58.533333,68.196527 66.333333,61.145133 70,57.277182 97.889705,27.856457 99.324383,27.083966 145.33333,16.7146 c 23.45326,-5.285827 40.30518,-6.32698 73.33334,-4.530712 21.54388,1.171686 32.80518,3.529064 44.66666,9.350275 10.84504,5.322378 15.49638,8.82599 28.0867,21.156283 l 10.75337,10.531274 6.57996,-5.648138 c 9.15905,-7.861976 23.8702,-17.394437 32.57997,-21.111015 6.28566,-2.682175 9.54316,-3.129233 22.8013,-3.129233 8.50737,0 16.90737,0.643501 18.66666,1.430002 17.20052,7.689597 21.86538,10.651897 21.86538,13.885071 0,4.1455 -3.07506,4.885123 -8.94723,2.152012 -7.57464,-3.525508 -17.29028,-5.046128 -26.24396,-4.107512 -11.37257,1.192187 -17.35816,3.458962 -27.13001,10.274274 -15.87434,11.071439 -23.6788,19.692304 -23.6788,26.155756 0,3.884266 8.16658,13.394246 11.57142,13.474913 3.77299,0.08939 7.09524,3.475074 7.09524,7.230724 0,3.553216 2.33474,6.171426 5.50323,6.171426 1.26677,0 3.41956,1.41919 4.78397,3.15376 1.36442,1.73457 3.72755,3.54948 5.2514,4.03313 2.35744,0.74822 7.08128,6.84058 13.27652,17.12278 1.94272,3.22432 6.01022,6.25383 8.51822,6.34447 1.1,0.0398 5.6,1.84539 10,4.01253 9.12041,4.49209 11.33333,4.86644 11.33333,1.9172 0,-2.50699 3.66797,-14.72739 5.67803,-18.9172 0.79158,-1.65 2.50245,-3 3.80192,-3 1.29946,0 2.75538,-0.63543 3.23537,-1.41207 0.48,-0.77663 2.1654,-1.25705 3.74536,-1.06759 1.57996,0.18946 4.23243,-0.40145 5.89436,-1.31313 2.71143,-1.48739 3.43571,-1.20664 7.0536,2.73426 2.21753,2.41552 5.61832,7.08734 7.55729,10.38182 4.35768,7.40407 4.56723,17.76164 0.62062,30.67671 -5.73604,18.77091 -4.87311,29.73649 3.07041,39.01669 5.26103,6.14635 6.61269,11.99528 4.58797,19.85306 -2.46381,9.56182 -3.95742,28.07525 -2.64804,32.8225 0.66126,2.3974 0.71712,6.05058 0.12414,8.11814 -0.76074,2.65254 -0.38498,5.25813 1.27641,8.85077 l 2.35455,5.09156 0.95182,-11.20969 c 1.07555,-12.66671 3.77858,-28.07388 5.88479,-33.54303 0.90517,-2.35048 2.39445,-3.66667 4.14885,-3.66667 2.57824,0 2.68496,0.52144 1.84218,9 -0.49204,4.95 -1.40876,10.38906 -2.03714,12.0868 -0.62837,1.69774 -1.1425,6.47631 -1.1425,10.61906 0,6.46032 0.26202,7.2544 1.84122,5.57986 1.01268,-1.07381 3.46196,-6.90238 5.44284,-12.95238 1.98088,-6.05 4.10832,-11 4.72767,-11 2.47625,0 1.87325,5.34308 -2.18712,19.37977 -2.34083,8.09221 -4.57139,18.59222 -4.95681,23.33334 -0.38543,4.74113 -1.12184,11.20368 -1.63648,14.36121 -0.62884,3.85821 -0.35274,6.83031 0.84192,9.06253 1.38022,2.57898 1.44836,4.42535 0.30477,8.259 -3.29035,11.03024 -5.56237,15.67979 -8.37095,17.13055 -5.42648,2.80304 -19.44806,3.52996 -26.34274,1.36571 -8.75332,-2.74771 -26.08947,-3.93363 -28.10079,-1.92231 -0.85995,0.85995 -1.56353,1.18157 -1.56353,0.71475 0,-1.24072 -22.09318,6.42921 -25.60535,8.88924 -3.44727,2.41457 -5.06131,2.6559 -5.06131,0.75678 z"
       id="path1909-3" />
    <path
       style="fill:#ffff00;stroke-width:1.33333"
       d="m 369.33333,238 c 0,-2.63601 -0.67408,-3.33333 -3.22222,-3.33333 -1.77222,0 -3.48383,0.75 -3.80359,1.66667 -1.02525,2.9392 0.55543,5 3.83513,5 2.51451,0 3.19068,-0.70642 3.19068,-3.33334 z"
       id="path1948" />
    <path
       style="fill:#000000;stroke-width:1.33333"
       d="m 361.33333,334.66391 c 0,-1.82 15.59435,-13.17796 19.40706,-14.13488 1.68666,-0.42333 3.39173,-1.61682 3.78905,-2.65221 0.60388,-1.57371 -1.62231,-1.77317 -13.57019,-1.21588 -7.86092,0.36665 -15.88546,1.00307 -17.83232,1.41425 -1.984,0.41903 -3.9472,0.0883 -4.46685,-0.7525 -1.31761,-2.13194 -0.50328,-2.58304 6.12715,-3.39418 3.23369,-0.39558 8.27944,-1.55714 11.21277,-2.58122 2.93333,-1.0241 8.88103,-2.49387 13.21708,-3.26616 4.33607,-0.7723 8.11404,-1.63447 8.39551,-1.91594 1.29253,-1.29253 -9.78388,-2.2028 -16.94534,-1.39257 -7.47213,0.84537 -16.00058,-0.9124 -16.00058,-3.29784 0,-0.88136 -5.66618,-3.91595 -12.33334,-6.60525 -2.01666,-0.81347 -3.66666,-2.09188 -3.66666,-2.84094 0,-0.74905 -2.07019,-1.36192 -4.60042,-1.36192 -2.97472,0 -5.08066,-0.82454 -5.95945,-2.33333 -0.74748,-1.28333 -1.37729,-1.60973 -1.39959,-0.72535 -0.0223,0.8844 1.79146,4.71508 4.03056,8.51262 4.73512,8.03078 4.99635,14.89388 0.59556,15.64762 -1.46666,0.2512 -3.3688,1.35534 -4.22696,2.45362 -0.85816,1.09828 -3.04962,1.8017 -4.86994,1.56317 -1.91908,-0.25148 -4.51606,0.65807 -6.18096,2.16479 -2.22959,2.01774 -3.38591,2.27713 -5.17382,1.16056 -1.26638,-0.79087 -4.37682,-1.89355 -6.91209,-2.45038 -2.53527,-0.55684 -6.4722,-2.43313 -8.74876,-4.16954 -2.27655,-1.73642 -4.92983,-3.15711 -5.89617,-3.15711 -0.96636,0 -4.20972,-1.42863 -7.20748,-3.17472 -2.99776,-1.74611 -8.15048,-3.605 -11.45048,-4.13089 -4.33239,-0.69042 -7.48234,-2.3606 -11.33334,-6.00927 -2.93333,-2.7792 -7.73333,-5.80344 -10.66666,-6.72052 -2.93334,-0.91709 -6.53334,-2.16805 -8,-2.77992 -9.23378,-3.85216 -16.03266,-5.43288 -26.29192,-6.11276 -8.9804,-0.59513 -12.1367,-1.33556 -13.87331,-3.25449 -3.31589,-3.66402 -16.38372,-3.49456 -20.68707,0.26824 -2.16002,1.88872 -2.62474,2.9695 -1.48104,3.44445 0.91667,0.38065 1.66667,1.86321 1.66667,3.29457 0,1.43135 0.94501,4.04474 2.10004,5.80752 2.07663,3.16935 5.91903,18.876 5.87955,24.03396 -0.0276,3.60555 -1.77019,6.10787 -4.53614,6.51383 -1.25928,0.18483 -3.01429,1.78961 -3.90001,3.56621 -1.97775,3.96696 -6.17301,4.98859 -7.88959,1.92124 -1.14162,-2.03998 -1.43168,-1.95144 -2.82722,0.86302 -2.30944,4.65753 -8.05728,4.88321 -10.97456,0.43088 -1.2732,-1.94315 -5.43396,-4.91239 -9.24614,-6.59832 -3.81217,-1.68592 -7.32801,-3.70734 -7.81298,-4.49204 -1.8986,-3.072 -41.519374,-21.34162 -48.126283,-22.19162 C 59.568115,289.7545 44.920513,283.76591 29.254604,268.08706 23.250705,262.0782 17.927865,255.30467 16.089033,251.33334 14.391272,247.66667 12.132461,242.9992 11.069454,240.96119 8.0875119,235.24416 6.4883344,213.76516 7.0766948,187.33334 7.6550585,161.3506 9.4427429,148.48691 13.430915,141.6101 c 1.400246,-2.41444 4.601876,-10.51445 7.114729,-18 2.512855,-7.48555 5.818071,-16.13111 7.344925,-19.21236 1.526854,-3.08124 2.776098,-6.093043 2.776098,-6.692895 0,-2.984238 12.545089,-17.101967 22,-24.757898 C 58.533333,68.196527 66.333333,61.145133 70,57.277182 97.889705,27.856457 99.324383,27.083966 145.33333,16.7146 c 23.45326,-5.285827 40.30518,-6.32698 73.33334,-4.530712 21.54388,1.171686 32.80518,3.529064 44.66666,9.350275 10.84504,5.322378 15.49638,8.82599 28.0867,21.156283 l 10.75337,10.531274 6.57996,-5.648138 c 9.15905,-7.861976 23.8702,-17.394437 32.57997,-21.111015 6.28566,-2.682175 9.54316,-3.129233 22.8013,-3.129233 8.50737,0 16.90737,0.643501 18.66666,1.430002 17.20052,7.689597 21.86538,10.651897 21.86538,13.885071 0,4.1455 -3.07506,4.885123 -8.94723,2.152012 -7.57464,-3.525508 -17.29028,-5.046128 -26.24396,-4.107512 -11.37257,1.192187 -17.35816,3.458962 -27.13001,10.274274 -15.87434,11.071439 -23.6788,19.692304 -23.6788,26.155756 0,3.884266 8.16658,13.394246 11.57142,13.474913 3.77299,0.08939 7.09524,3.475074 7.09524,7.230724 0,3.553216 2.33474,6.171426 5.50323,6.171426 1.26677,0 3.41956,1.41919 4.78397,3.15376 1.36442,1.73457 3.72755,3.54948 5.2514,4.03313 2.35744,0.74822 7.08128,6.84058 13.27652,17.12278 1.94272,3.22432 6.01022,6.25383 8.51822,6.34447 1.1,0.0398 5.6,1.84539 10,4.01253 9.12041,4.49209 11.33333,4.86644 11.33333,1.9172 0,-2.50699 3.66797,-14.72739 5.67803,-18.9172 0.79158,-1.65 2.50245,-3 3.80192,-3 1.29946,0 2.75538,-0.63543 3.23537,-1.41207 0.48,-0.77663 2.1654,-1.25705 3.74536,-1.06759 1.57996,0.18946 4.23243,-0.40145 5.89436,-1.31313 2.71143,-1.48739 3.43571,-1.20664 7.0536,2.73426 2.21753,2.41552 5.61832,7.08734 7.55729,10.38182 4.35768,7.40407 4.56723,17.76164 0.62062,30.67671 -5.73604,18.77091 -4.87311,29.73649 3.07041,39.01669 5.26103,6.14635 6.61269,11.99528 4.58797,19.85306 -2.46381,9.56182 -3.95742,28.07525 -2.64804,32.8225 0.66126,2.3974 0.71712,6.05058 0.12414,8.11814 -0.76074,2.65254 -0.38498,5.25813 1.27641,8.85077 l 2.35455,5.09156 0.95182,-11.20969 c 1.07555,-12.66671 3.77858,-28.07388 5.88479,-33.54303 0.90517,-2.35048 2.39445,-3.66667 4.14885,-3.66667 2.57824,0 2.68496,0.52144 1.84218,9 -0.49204,4.95 -1.40876,10.38906 -2.03714,12.0868 -0.62837,1.69774 -1.1425,6.47631 -1.1425,10.61906 0,6.46032 0.26202,7.2544 1.84122,5.57986 1.01268,-1.07381 3.46196,-6.90238 5.44284,-12.95238 1.98088,-6.05 4.10832,-11 4.72767,-11 2.47625,0 1.87325,5.34308 -2.18712,19.37977 -2.34083,8.09221 -4.57139,18.59222 -4.95681,23.33334 -0.38543,4.74113 -1.12184,11.20368 -1.63648,14.36121 -0.62884,3.85821 -0.35274,6.83031 0.84192,9.06253 1.38022,2.57898 1.44836,4.42535 0.30477,8.259 -3.29035,11.03024 -5.56237,15.67979 -8.37095,17.13055 -5.42648,2.80304 -19.44806,3.52996 -26.34274,1.36571 -8.75332,-2.74771 -26.08947,-3.93363 -28.10079,-1.92231 -0.85995,0.85995 -1.56353,1.18157 -1.56353,0.71475 0,-1.24072 -22.09318,6.42921 -25.60535,8.88924 -3.44727,2.41457 -5.06131,2.6559 -5.06131,0.75678 z m 73.03843,-20.98906 c -5.61324,-6.39166 -2.88152,-13.39615 3.57465,-9.1659 1.8112,1.18675 4.75991,2.15772 6.55266,2.15772 h 3.25957 l -1.84413,-7 c -1.01427,-3.85 -3.84282,-11.2 -6.28566,-16.33333 -8.65196,-18.18103 -10.29552,-22.09876 -10.29552,-24.54122 0,-1.35842 -1.46233,-5.69237 -3.24962,-9.631 -5.30426,-11.68886 -5.49738,-13.86258 -1.53751,-17.30564 1.89959,-1.65166 3.4538,-3.65372 3.4538,-4.449 0,-0.79529 1.2,-3.6849 2.66667,-6.42138 1.46666,-2.7365 2.66666,-7.02898 2.66666,-9.53888 0,-5.03886 -3.77365,-12.75791 -6.24348,-12.77112 -0.86725,-0.004 -1.96092,-1.21863 -2.43037,-2.69775 -0.46945,-1.47912 -2.86528,-3.52987 -5.32407,-4.55721 -5.2992,-2.21415 -6.36814,-6.56202 -3.62721,-14.75347 0.98153,-2.93333 1.83969,-6.97177 1.90704,-8.97432 0.0731,-2.17431 1.03252,-3.92983 2.38168,-4.35804 4.62679,-1.46848 8.74415,-22.23195 5.96855,-30.09886 -2.98775,-8.46816 -4.59759,-10.13027 -10.0174,-10.34264 -3.4291,-0.13437 -5.25792,0.45614 -5.80174,1.87333 -0.4368,1.13825 -1.33553,1.73497 -1.9972,1.32603 -1.75078,-1.08204 -2.80245,2.50025 -4.27094,14.54795 -1.39642,11.45647 -4.22692,17.074 -8.95826,17.77891 -2.1055,0.31369 -3.2856,-0.69184 -4.6944,-4 -2.56632,-6.02631 -6.7742,-9.43103 -16.22553,-13.12857 -9.75273,-3.81547 -18.20304,-10.73931 -22.23633,-18.21956 -1.7464,-3.23892 -4.28735,-5.91456 -6.03286,-6.35265 -1.6586,-0.41628 -3.93746,-2.5395 -5.06414,-4.71825 -1.15107,-2.22592 -3.56104,-4.34099 -5.50107,-4.8279 -2.24939,-0.56457 -4.11264,-2.44637 -5.34675,-5.39997 -1.0418,-2.493392 -3.22724,-5.061398 -4.85652,-5.706682 -1.62928,-0.645285 -5.06233,-3.901276 -7.629,-7.235537 -5.19121,-6.743715 -6.58174,-7.273704 -9.78814,-3.730675 -2.79039,3.083347 -17.32571,32.484174 -19.56152,39.567434 -0.92591,2.93333 -3.401,8.76623 -5.50023,12.96197 -2.09923,4.19576 -3.81677,8.27475 -3.81677,9.06442 0,0.78966 -1.2,3.91948 -2.66667,6.95513 -1.46667,3.03564 -2.66667,5.98067 -2.66667,6.54448 0,0.56381 -2.39484,6.00111 -5.32185,12.08289 -2.92703,6.08178 -5.32703,11.78754 -5.33333,12.67946 -0.0143,2.00968 -8.54956,15.76526 -16.24584,26.18188 -3.17111,4.29196 -6.96564,9.74778 -8.43231,12.12405 -4.37409,7.08683 -14.15611,19.10771 -22.40355,27.53117 -8.08373,8.25627 -8.74828,10.97158 -2.37313,9.69655 2.13592,-0.42719 4.18201,-0.11747 4.69367,0.71035 0.49888,0.80721 2.12902,1.46765 3.62254,1.46765 1.49351,0 4.30811,1.07163 6.25464,2.38139 3.7167,2.50083 6.55608,3.89107 15.8725,7.77153 3.11666,1.29815 5.66666,3.1166 5.66666,4.041 0,0.92442 2.13444,2.27008 4.7432,2.9904 2.74332,0.75747 6.64388,3.47799 9.2511,6.45236 3.44134,3.92599 6.49894,5.73158 12.92346,7.63166 4.62856,1.36892 10.11162,3.89356 12.18455,5.6103 2.07292,1.71675 4.54043,3.12136 5.48332,3.12136 0.94289,0 3.97936,1.8 6.74771,4 5.64297,4.48447 5.56401,4.45079 6.58018,2.80659 0.93747,-1.51684 -18.52746,-14.80659 -21.68657,-14.80659 -5.81812,0 -7.37791,-6.50236 -2.35004,-9.79673 3.00916,-1.97168 3.48935,-1.90133 7.66667,1.12329 2.45102,1.7747 6.25642,4.22238 8.45642,5.43927 2.2,1.21691 5.61618,3.94241 7.59151,6.05669 3.53451,3.78314 6.40849,4.97851 6.40849,2.66547 0,-1.09377 -2.46444,-3.34843 -14.66574,-13.41729 -5.17503,-4.27058 -4.68946,-7.0355 0.62413,-3.55391 1.85623,1.21625 3.37495,1.85667 3.37495,1.42316 0,-1.01999 7.0261,3.89936 14.75248,10.32899 5.71676,4.75729 9.31424,6.34737 9.19552,4.0644 -0.0507,-0.9737 -7.09154,-6.59644 -17.50306,-13.97764 -2.82725,-2.00436 -8.28397,-4.61743 -12.12604,-5.80682 -13.61361,-4.21434 -25.36366,-10.93776 -32.3189,-18.49297 -8.09663,-8.79504 -13.31991,-10.68495 -15.2803,-5.52876 -0.8225,2.16337 -2.33832,3.47285 -4.02004,3.47285 -2.30457,0 -2.69966,-0.86481 -2.69966,-5.90921 0,-5.04395 0.58569,-6.32626 4,-8.75746 2.2,-1.56653 4,-3.86306 4,-5.1034 0,-1.24032 1.2,-3.00456 2.66666,-3.9205 C 254.8,234.06015 256,231.88002 256,230.13135 c 0,-4.87603 3.94521,-5.53883 7.60652,-1.27788 2.30721,2.68507 3.50387,3.23615 4.61483,2.12519 2.71745,-2.71746 6.00949,-14.22414 5.44313,-19.02544 -0.39564,-3.35403 0.21824,-5.66134 2.12845,-8 3.92762,-4.80856 5.64426,-2.17211 7.30298,11.21609 1.20684,9.74093 1.09709,11.9694 -0.7759,15.75488 -1.19985,2.42504 -2.52413,6.05915 -2.94285,8.07581 -0.41871,2.01667 -1.64479,3.66667 -2.7246,3.66667 -1.07981,0 -2.71271,1.2 -3.62865,2.66667 C 272.10796,246.8 270.56745,248 269.60059,248 c -0.96688,0 -1.36187,0.64091 -0.87775,1.42423 0.48413,0.78333 1.67567,1.119 2.64788,0.74592 0.9722,-0.37307 2.48497,0.18603 3.36172,1.24244 0.87675,1.05641 2.42061,1.92075 3.43081,1.92075 1.01022,0 1.83675,0.9 1.83675,2 0,1.10098 1.18075,2 2.62675,2 1.44472,0 3.9483,1.78749 5.56353,3.97221 2.09609,2.83511 3.39699,3.59028 4.5444,2.638 1.07784,-0.89452 2.8694,-0.84919 5.43647,0.13756 3.66921,1.4104 13.54049,3.44791 22.91409,4.72964 4.77999,0.6536 13.58143,8.30803 13.58143,11.81148 0,1.12444 1.07313,2.04444 2.38474,2.04444 1.31162,0 4.73464,1.19806 7.60675,2.66234 2.87211,1.46428 5.84896,2.56805 6.61525,2.45284 0.7663,-0.1152 3.08231,0.48673 5.14672,1.33766 2.0644,0.85094 4.9778,1.54716 6.47422,1.54716 1.4964,0 6.3269,0.93446 10.73445,2.07656 9.06957,2.35016 35.32399,3.61787 36.47156,1.76106 0.7008,-1.13392 6.96533,2.54006 10.98611,6.44306 0.96422,0.93598 1.62374,3.35572 1.4656,5.37722 -0.57635,7.36724 -0.13294,8.00562 6.44793,9.28202 7.44323,1.44368 8.12179,1.19966 5.37176,-1.93174 z m -23.01987,-25.1801 c -1.19456,-1.19456 -1.83741,-3.04362 -1.42857,-4.10905 0.40884,-1.06541 0.74335,-2.18805 0.74335,-2.49475 0,-1.60348 5.22025,-0.22586 7.12668,1.88071 2.7729,3.06403 2.8047,5.04688 0.0976,6.08569 -3.17451,1.21818 -4.1646,1.01187 -6.53906,-1.3626 z m -7.14901,-9.6252 c -3.85637,-3.85637 -3.86952,-8.53798 -0.0224,-7.96228 1.56596,0.23434 3.66441,1.66351 4.66323,3.17595 1.5228,2.30588 1.52641,3.14592 0.0224,5.20287 -1.72695,2.36174 -1.90043,2.34625 -4.66322,-0.41654 z m -11.16747,-11.38304 c -8.15432,-4.94245 -10.36874,-7.55057 -10.36874,-12.21211 0,-5.57993 4.40148,-11.33802 6.83634,-8.94341 0.93076,0.91537 1.63072,3.83655 1.55546,6.49149 -0.0995,3.511 0.48586,4.99002 2.14692,5.4244 2.9588,0.77374 7.67424,9.41327 6.02442,11.03779 -0.74017,0.72883 -3.20644,0.0133 -6.1944,-1.79816 z m -37.33433,-16.455 c -1.15641,-1.30067 -3.71888,-5.28176 -5.69436,-8.84688 -3.57829,-6.45768 -4.04203,-12.53424 -1.41319,-18.51796 0.83107,-1.89165 0.35922,-2.33333 -2.49273,-2.33333 -1.98205,0 -3.87216,-0.92339 -4.32947,-2.11511 -0.4464,-1.16331 -4.17757,-5.51331 -8.29149,-9.66667 -7.23609,-7.30548 -7.68649,-7.5383 -13.82141,-7.14484 -6.15023,0.39446 -6.5804,0.16939 -14.25654,-7.45924 -9.41789,-9.35961 -14.0648,-18.79804 -15.33889,-31.15512 -0.79569,-7.71716 -0.46828,-9.99092 2.511,-17.43794 1.88431,-4.71 3.426,-9.84319 3.426,-11.4071 0,-3.78957 4.77979,-8.05597 10.15513,-9.06439 5.59663,-1.04993 17.59368,4.27391 24.2918,10.77978 5.49954,5.34168 6.37466,5.54789 9.9189,2.33729 3.42456,-3.10217 15.52598,-5.81839 18.59786,-4.17436 2.60948,1.39654 4.44274,6.89871 3.04963,9.15282 -0.49743,0.80484 -2.1398,1.07125 -3.64972,0.59202 -1.50992,-0.47922 -5.01479,-0.12226 -7.78859,0.79311 -5.95524,1.9654 -7.88894,6.5908 -4.64505,11.11093 1.1284,1.57235 2.93171,4.06235 4.00735,5.53334 1.24865,1.70756 1.53154,3.36085 0.78246,4.57288 -0.96765,1.56569 -1.95132,1.3079 -5.61318,-1.47104 -2.44196,-1.85319 -6.1356,-4.25168 -8.2081,-5.33 -2.07249,-1.07832 -5.09157,-4.31988 -6.70908,-7.20347 -1.6175,-2.88359 -3.52182,-5.25849 -4.23184,-5.27755 -0.71,-0.0191 -2.91652,-1.12209 -4.90338,-2.45117 -2.50028,-1.67253 -4.82159,-2.15096 -7.53974,-1.55396 -2.27054,0.49871 -4.29522,0.26719 -4.79954,-0.54881 -1.58274,-2.56094 -4.00372,-1.45855 -7.24326,3.29816 -2.92438,4.29396 -3.12632,5.58221 -2.384,15.20854 0.73614,9.54591 1.33063,11.27436 6.43716,18.71556 3.09438,4.5091 6.64114,8.74158 7.88171,9.4055 4.39875,2.35414 15.97821,4.59302 26.30199,5.08548 2.88526,0.13762 4.6169,1.00328 5.08498,2.54202 0.3904,1.28334 1.68556,4.31956 2.87814,6.74718 1.19258,2.4276 2.25632,5.60816 2.36386,7.06788 0.2988,4.05588 3.69398,6.64632 9.78107,7.46277 5.07964,0.68132 6.217,1.68252 5.60428,4.93332 -0.37587,1.99425 2.94537,3.4134 8.03917,3.43511 7.14258,0.0304 13.04035,8.28545 8.5701,11.99542 -1.11656,0.92667 -2.03011,3.39596 -2.03011,5.48734 0,5.18198 -6.22983,8.47608 -14.0126,7.40933 -3.05977,-0.41939 -6.15284,-0.17291 -6.87348,0.54773 -0.85813,0.85814 -2.0358,0.49423 -3.41284,-1.05457 z M 369.33333,238 c 0,-2.63601 -0.67408,-3.33333 -3.22222,-3.33333 -1.77222,0 -3.48383,0.75 -3.80359,1.66667 -1.02525,2.9392 0.55543,5 3.83513,5 2.51451,0 3.19068,-0.70642 3.19068,-3.33334 z m -208,76.87789 c 0,-0.61718 -1.35,-2.74704 -3,-4.73304 -9.55126,-11.49624 -13.59757,-15.47818 -15.72842,-15.47818 -1.31384,0 -4.1987,-1.03873 -6.41078,-2.30829 -5.10012,-2.92707 -6.18461,-1.83076 -3.78959,3.83084 2.16829,5.12565 5.36041,8.27297 11.76957,11.60445 2.4709,1.28438 5.99256,3.14948 7.82589,4.14468 8.2928,4.50163 9.33333,4.82935 9.33333,2.93954 z m 5.4291,-11.40538 c -2.25267,-3.27413 -4.09576,-6.53068 -4.09576,-7.23676 0,-0.70608 -0.9,-1.62913 -2,-2.05125 -1.1,-0.42211 -2,-0.50455 -2,-0.1832 0,1.20271 5.72453,10.71783 8.47628,14.08899 4.4647,5.4697 4.17962,2.01018 -0.38052,-4.61778 z M 180,302.61355 c 0,-0.76254 -1.2,-3.73864 -2.66667,-6.61354 -1.46666,-2.87491 -2.66666,-6.151 -2.66666,-7.28022 0,-1.12921 -0.85812,-2.05312 -1.90692,-2.05312 -2.1856,0 -1.28794,4.3408 2.58581,12.50411 2.17963,4.59321 4.65444,6.42377 4.65444,3.44277 z m -34.66667,-23.1113 c 19.36426,-4.30718 38.78352,-14.22027 49.85255,-25.44862 3.58556,-3.63717 7.78556,-6.77812 9.33333,-6.97989 5.52754,-0.7206 30.71924,-31.53072 40.58126,-49.63194 1.83042,-3.35965 4.03876,-7.00846 4.9074,-8.10846 1.96678,-2.49066 14.15092,-30.83136 24.80357,-57.69401 11.40437,-28.7582 18.39784,-42.945355 26.31635,-53.386089 3.78761,-4.99405 7.72237,-10.69405 8.7439,-12.666666 1.02154,-1.972615 3.9535,-5.492151 6.51547,-7.821189 2.56197,-2.329038 4.87295,-4.729038 5.13549,-5.333333 1.85707,-4.274432 32.67832,-20.453296 34.84211,-18.289515 0.32372,0.323715 1.30567,-0.275469 2.18211,-1.331519 1.28377,-1.546856 1.07661,-2.084152 -1.06571,-2.764098 -1.70215,-0.540242 -6.16629,0.880397 -12.40353,3.947212 -16.49642,8.111202 -25.19044,14.160256 -31.7443,22.086776 -2.56666,3.10424 -5.56666,6.626139 -6.66666,7.826444 -5.06996,5.532266 -21.61896,33.328769 -25.06039,42.092647 -7.99737,20.3659 -22.04873,48.85508 -30.01748,60.86052 -2.70717,4.07852 -4.92213,7.81059 -4.92213,8.29347 0,0.83301 -7.18759,12.22844 -16.93292,26.84601 -6.58183,9.87247 -22.69886,27.59582 -31.10463,34.20475 -7.97424,6.26963 -8.95892,6.92417 -19.96245,13.26967 -4.03334,2.32594 -10.03334,5.87265 -13.33334,7.88158 -3.3,2.00895 -7.54386,4.01047 -9.4308,4.44786 -1.88694,0.43737 -5.5243,2.2159 -8.08302,3.95231 -8.97756,6.09233 -40.95128,7.9657 -62.166226,3.64237 -14.822489,-3.02063 -17.301315,-3.8698 -24.448949,-8.37548 C 51.091357,254.64811 48.522193,252.77 44,248.44634 c -12.048127,-11.51919 -16.506512,-15.113 -18.748753,-15.113 -1.334962,0 -2.781827,-0.5738 -3.215258,-1.27511 -0.43343,-0.70131 -1.620153,-0.95579 -2.63716,-0.56553 -3.148562,1.20822 3.453587,13.39062 13.438264,24.79653 7.570786,8.64841 10.933182,11.28756 21.085023,16.54966 C 60.564952,276.28213 69.6,279.88454 74,280.84425 c 10.56668,2.30476 59.03788,1.39286 71.33333,-1.342 z M 126,252.54179 c 17.57983,-5.63805 23.36507,-11.2988 23.63447,-23.12585 0.0861,-3.78114 0.65361,-7.18195 1.26106,-7.55739 0.60746,-0.37543 1.10447,-4.88663 1.10447,-10.02489 0,-5.13827 0.63775,-10.53395 1.41723,-11.9904 1.06241,-1.98515 0.86416,-4.09628 -0.79192,-8.43264 -1.75252,-4.58892 -1.88854,-6.3836 -0.65803,-8.68282 0.98473,-1.84 1.09395,-3.47569 0.29909,-4.47969 -2.1763,-2.74896 -3.12878,-11.39099 -1.57536,-14.2936 1.08874,-2.03432 1.03244,-4.71148 -0.21642,-10.29203 -1.43008,-6.39021 -2.86143,-8.71598 -9.36924,-15.2238 -12.4438,-12.44379 -18.84985,-15.8048 -35.12736,-18.42996 -7.834871,-1.26358 -8.267078,-1.1699 -18.526955,4.01543 -6.818611,3.44612 -12.302671,5.30919 -15.62793,5.30919 -4.526797,0 -5.514797,0.62066 -8.489772,5.33333 -3.669365,5.81265 -9.241417,7.40907 -10.47102,3 -0.357897,-1.28333 -1.006948,-3.58309 -1.442337,-5.11059 -0.755456,-2.65039 0.174367,-3.50975 6.537668,-6.04228 0.710036,-0.28259 2.747651,-1.8638 4.528029,-3.5138 3.072042,-2.84707 5.916866,-3.66812 11.180994,-3.22698 C 74.95,119.88057 76,119.47147 76,118.8639 c 0,-0.60756 3.45,-1.90976 7.666667,-2.89378 4.216666,-0.98402 9.415233,-3.22406 11.552372,-4.97785 2.137137,-1.7538 4.837141,-2.89018 6.000001,-2.5253 1.16286,0.36489 7.38172,2.1199 13.81969,3.90002 7.00471,1.93683 14.05301,4.92252 17.5513,7.4348 3.21525,2.30902 6.38981,4.19821 7.05458,4.19821 0.66476,0 3.56786,2.55 6.45131,5.66667 2.88347,3.11667 6.97344,6.88063 9.08884,8.36435 3.13541,2.19914 4.08708,4.17036 5.14969,10.66666 1.28824,7.87575 1.48808,11.46966 0.99915,17.96899 -0.13792,1.83333 0.44915,9.89912 1.30461,17.92396 1.11512,10.46079 1.15058,15.47904 0.1252,17.7294 -1.6822,3.69204 -1.94961,37.20153 -0.30498,38.21796 1.93386,1.1952 11.34698,-1.9864 15.7859,-5.33559 2.3344,-1.76132 5.46743,-3.2024 6.9623,-3.2024 2.55478,0 4.74406,-1.71104 17.12405,-13.3833 9.52597,-8.9814 29.01509,-35.2308 36.59092,-49.28336 2.56975,-4.76667 5.93439,-10.76667 7.47697,-13.33334 3.04231,-5.06198 8.47084,-15.90657 16.35212,-32.66666 13.07958,-27.814622 16.03734,-33.753412 19.58959,-39.333338 2.10083,-3.3 5.97684,-9.585411 8.61339,-13.967579 l 4.79372,-7.96758 -3.7235,-4.699087 c -3.53806,-4.465138 -13.03653,-13.667626 -22.42406,-21.725379 -5.82295,-4.9981 -18.14871,-10.557638 -26.2665,-11.847507 -3.66666,-0.582612 -14.76666,-1.686163 -24.66666,-2.452335 -9.9,-0.766171 -18.70679,-1.645812 -19.57064,-1.954759 -3.67526,-1.314408 -34.6212,2.16878 -53.09603,5.97634 -22.49243,4.635563 -43.22712,12.86731 -52.583087,20.875672 -5.096281,4.362225 -7.066472,8.42888 -4.08358,8.42888 4.212131,0 -0.04139,7.926659 -11.071656,20.632665 -3.978824,4.58329 -4.889037,5.05981 -6.736369,3.526659 C 69.874467,77.455916 69.710356,76.453551 70.802712,74.412465 72.8505,70.586137 71.35836,69.98552 66.89762,72.840585 47.416024,85.309643 42.58266,91.667286 33.579067,116.66667 30.673836,124.73334 26.979308,134.33334 25.369004,138 c -7.32888,16.68788 -9.807473,29.0302 -9.547272,47.54123 0.291615,20.74571 1.854457,27.38156 7.870632,33.41881 2.735867,2.74546 7.555407,6.27116 10.710089,7.83491 3.154684,1.56376 6.653828,4.24429 7.775878,5.95676 1.12205,1.71247 4.240945,3.82325 6.93088,4.69064 2.689934,0.86739 8.366474,3.59391 12.614534,6.05895 12.70134,7.37024 26.459312,10.68485 45.609585,10.98837 7.83326,0.12413 14.31486,-0.55221 18.66667,-1.94788 z"
       id="path1909" />
  </g>
</svg>
