<?xml version="1.0" encoding="UTF-8" standalone="no"?>
<!-- Created with Inkscape (http://www.inkscape.org/) -->

<svg
   version="1.1"
   id="svg4988"
   width="880"
   height="880"
   viewBox="0 0 880 880"
   sodipodi:docname="regulator-turning-publicdomainvectors.org.svg"
   inkscape:version="1.2 (dc2aedaf03, 2022-05-15)"
   xmlns:inkscape="http://www.inkscape.org/namespaces/inkscape"
   xmlns:sodipodi="http://sodipodi.sourceforge.net/DTD/sodipodi-0.dtd"
   xmlns="http://www.w3.org/2000/svg"
   xmlns:svg="http://www.w3.org/2000/svg">
  <defs
     id="defs4992">
    <clipPath
       clipPathUnits="userSpaceOnUse"
       id="clipPath5006">
      <path
         d="M 0,660 H 660 V 0 H 0 Z"
         id="path5004" />
    </clipPath>
  </defs>
  <sodipodi:namedview
     id="namedview4990"
     pagecolor="#ffffff"
     bordercolor="#000000"
     borderopacity="0.25"
     inkscape:showpageshadow="2"
     inkscape:pageopacity="0.0"
     inkscape:pagecheckerboard="0"
     inkscape:deskcolor="#d1d1d1"
     showgrid="false"
     inkscape:zoom="0.95113636"
     inkscape:cx="440.52569"
     inkscape:cy="440.52569"
     inkscape:window-width="1920"
     inkscape:window-height="1017"
     inkscape:window-x="-8"
     inkscape:window-y="-8"
     inkscape:window-maximized="1"
     inkscape:current-layer="g4996">
    <inkscape:page
       x="0"
       y="0"
       id="page4994"
       width="880"
       height="880" />
  </sodipodi:namedview>
  <g
     id="g4996"
     inkscape:groupmode="layer"
     inkscape:label="Page 1"
     transform="matrix(1.3333333,0,0,-1.3333333,0,880)">
    <path
       d="M 1.907,0 H 659.048 V 656.678 H 1.907 Z"
       style="fill:#769a2a;fill-opacity:1;fill-rule:nonzero;stroke:none"
       id="path4998" />
    <g
       id="g5000">
      <g
         id="g5002"
         clip-path="url(#clipPath5006)">
        <g
           id="g5008"
           transform="translate(285.8716,-0.4639)">
          <path
             d="m 0,0 h -216.865 l 106.246,253.377 c -7.44,9.076 -11.338,21.057 -9.702,33.02 l 14.077,100.624 3.511,25.103 c 1.109,8.111 4.598,15.037 9.647,20.228 l -0.019,0.021 52.475,54.304 c 14.221,14.656 38.331,13.408 53.845,-2.782 15.514,-16.19 16.562,-41.199 2.341,-55.853 l -44.529,-46.081 -4.661,-33.316 25.256,-10.876 61.374,15.595 0.118,-0.367 49.763,12.646 12.484,63.618 c 4.136,20.927 24.222,32.816 44.87,26.548 17.876,-5.427 30.304,-22.689 30.627,-40.811 2.534,-0.234 5.103,-0.735 7.688,-1.516 20.642,-6.268 34.025,-28.312 29.888,-49.242 l -1.395,-7.099 c 12.468,-9.799 19.355,-26.257 16.224,-42.075 l -8.244,-42.038 c 7.439,-9.61 10.971,-22.17 8.564,-34.352 L 227.34,155.884 c -1.777,-14.347 -11.327,-26.351 -25.642,-29.989 l -70.556,-17.931 0.105,-0.328 L 12.216,77.387 Z"
             style="fill:#66862a;fill-opacity:1;fill-rule:evenodd;stroke:none"
             id="path5010" />
        </g>
        <g
           id="g5012"
           transform="translate(267.4297,531.9761)">
          <path
             d="m 0,0 c -9.445,-2.545 -15.042,-12.269 -12.497,-21.716 2.543,-9.448 12.269,-15.042 21.717,-12.497 9.448,2.546 15.042,12.266 12.496,21.714 C 19.171,-3.049 9.45,2.545 0,0 m 43.87,13.808 c 9.786,0.013 17.727,-7.91 17.743,-17.693 0.01,-9.786 -7.909,-17.726 -17.695,-17.742 -9.784,-0.013 -17.727,7.906 -17.74,17.692 -0.013,9.786 7.909,17.729 17.692,17.743 m 45.95,1.979 C 99.272,13.268 104.896,3.56 102.377,-5.893 99.854,-15.349 90.15,-20.972 80.694,-18.45 71.238,-15.931 65.618,-6.223 68.138,3.23 70.656,12.685 80.364,18.309 89.82,15.787 m 44.896,-9.978 c -8.484,4.881 -19.313,1.964 -24.192,-6.516 -4.881,-8.481 -1.965,-19.313 6.517,-24.194 8.479,-4.879 19.311,-1.964 24.191,6.519 4.881,8.478 1.964,19.31 -6.516,24.191 m 40.782,-21.257 c 6.929,-6.91 6.944,-18.128 0.034,-25.056 -6.91,-6.929 -18.125,-6.945 -25.056,-0.035 -6.926,6.911 -6.942,18.128 -0.032,25.057 6.908,6.926 18.125,6.941 25.054,0.034 m 33.893,-31.089 c -4.908,8.465 -15.745,11.357 -24.212,6.449 -8.467,-4.902 -11.357,-15.742 -6.451,-24.209 4.905,-8.468 15.742,-11.354 24.209,-6.452 8.467,4.903 11.356,15.743 6.454,24.212 M 234.08,-85.34 c 2.546,-9.448 -3.051,-19.171 -12.499,-21.716 -9.448,-2.546 -19.168,3.051 -21.717,12.499 -2.542,9.448 3.052,19.168 12.5,21.717 9.447,2.542 19.171,-3.052 21.716,-12.5 m 13.805,-43.87 c 0.013,-9.787 -7.907,-17.729 -17.693,-17.74 -9.786,-0.016 -17.726,7.907 -17.739,17.69 -0.016,9.786 7.906,17.729 17.693,17.742 9.783,0.013 17.726,-7.906 17.739,-17.692 m -317.777,70.63 c -6.91,-6.931 -6.894,-18.146 0.037,-25.056 6.926,-6.91 18.146,-6.894 25.054,0.032 6.907,6.931 6.894,18.148 -0.034,25.056 -6.929,6.91 -18.146,6.894 -25.057,-0.032 m 31.091,33.891 c 8.468,4.902 19.305,2.016 24.212,-6.454 4.903,-8.467 2.013,-19.305 -6.454,-24.21 -8.467,-4.904 -19.305,-2.016 -24.21,6.452 -4.904,8.467 -2.016,19.307 6.452,24.212"
             style="fill:#f9de1c;fill-opacity:1;fill-rule:evenodd;stroke:none"
             id="path5014" />
        </g>
        <g
           id="g5016"
           transform="translate(347.7969,115.0439)">
          <path
             d="m 0,0 c -20.437,-4.873 -40.958,7.747 -45.832,28.187 -4.873,20.437 7.747,40.96 28.189,45.834 l 85.235,20.319 18.185,61.047 c 6.014,20.08 27.166,31.483 47.247,25.472 20.083,-6.01 31.49,-27.166 25.476,-47.247 L 134.833,54.171 C 131.772,40.402 121.143,28.881 106.5,25.392 Z"
             style="fill:#f5a683;fill-opacity:1;fill-rule:evenodd;stroke:none"
             id="path5018" />
        </g>
        <g
           id="g5020"
           transform="translate(354.332,188.3467)">
          <path
             d="m 0,0 c -20.44,-4.876 -40.961,7.743 -45.832,28.184 -4.873,20.439 7.744,40.96 28.186,45.831 l 85.236,20.322 18.184,61.046 c 6.014,20.081 27.17,31.487 47.25,25.473 20.081,-6.014 31.488,-27.169 25.474,-47.25 L 134.831,54.165 C 131.769,40.396 121.142,28.878 106.5,25.389 Z"
             style="fill:#f28f62;fill-opacity:1;fill-rule:evenodd;stroke:none"
             id="path5022" />
        </g>
        <g
           id="g5024"
           transform="translate(314.5088,492.46)">
          <path
             d="M 0,0 C 61.388,14.638 123.018,-23.266 137.657,-84.656 152.293,-146.048 114.392,-207.677 53.001,-222.312 -8.392,-236.951 -70.023,-199.05 -84.658,-137.66 -99.297,-76.27 -61.393,-14.636 0,0"
             style="fill:#ffffff;fill-opacity:1;fill-rule:evenodd;stroke:none"
             id="path5026" />
        </g>
        <g
           id="g5028"
           transform="translate(473.2344,357.7676)">
          <path
             d="m 0,0 v 0 c 5.71,5.597 14.959,5.505 20.556,-0.204 l 9.201,-9.39 c 5.597,-5.71 5.503,-14.959 -0.207,-20.555 -5.71,-5.597 -14.958,-5.503 -20.556,0.207 l -9.201,9.387 C -5.804,-14.845 -5.709,-5.597 0,0"
             style="fill:#dd7b50;fill-opacity:1;fill-rule:evenodd;stroke:none"
             id="path5030" />
        </g>
        <g
           id="g5032"
           transform="translate(428.7266,454.5664)">
          <path
             d="m 0,0 c 10.995,-13.142 19.195,-28.962 23.439,-46.762 1.958,-8.214 2.965,-16.429 3.112,-24.535 L -0.293,-129.18 c -5.016,-13.18 -17.191,-23.047 -32.185,-24.389 l -123.915,-11.032 c -20.557,15.441 -36.055,37.871 -42.483,64.835 -0.603,2.519 -1.104,5.033 -1.531,7.55 0.867,0.136 1.74,0.246 2.627,0.327 l 136.742,12.159 26.799,57.785 C -27.835,-8.187 -14.232,-0.076 0,0"
             style="fill:#e8e8e7;fill-opacity:1;fill-rule:evenodd;stroke:none"
             id="path5034" />
        </g>
        <g
           id="g5036"
           transform="translate(254.2617,306.8848)">
          <path
             d="m 0,0 c -11.487,13.364 -20.044,29.594 -24.411,47.915 -12.086,50.7 11.66,101.56 54.873,125.981 2.38,-1.145 4.679,-2.553 6.853,-4.239 16.557,-12.845 19.566,-36.679 6.721,-53.24 L 3.838,64.389 Z"
             style="fill:#e8e8e7;fill-opacity:1;fill-rule:evenodd;stroke:none"
             id="path5038" />
        </g>
        <g
           id="g5040"
           transform="translate(343.9092,235.5332)">
          <path
             d="m 0,0 c -20.44,-4.873 -40.958,7.746 -45.832,28.187 -4.873,20.436 7.747,40.958 28.187,45.831 l 85.235,20.321 18.187,61.047 c 6.014,20.081 27.166,31.484 47.25,25.47 20.08,-6.011 31.487,-27.164 25.473,-47.247 L 134.831,54.168 C 131.768,40.402 121.143,28.881 106.503,25.392 Z"
             style="fill:#f28f62;fill-opacity:1;fill-rule:evenodd;stroke:none"
             id="path5042" />
        </g>
        <g
           id="g5044"
           transform="translate(309.3892,276.1504)">
          <path
             d="m 0,0 c -20.44,-4.876 -40.961,7.744 -45.832,28.186 -4.876,20.437 7.747,40.959 28.186,45.829 l 85.235,20.322 18.189,61.046 c 6.014,20.081 27.169,31.487 47.249,25.473 20.081,-6.011 31.484,-27.166 25.47,-47.249 L 134.831,54.168 c -3.062,-13.769 -13.69,-25.29 -28.328,-28.779 z"
             style="fill:#f5a683;fill-opacity:1;fill-rule:evenodd;stroke:none"
             id="path5046" />
        </g>
        <g
           id="g5048"
           transform="translate(263.2222,343.7378)">
          <path
             d="m 0,0 62.774,14.968 56.215,-235.792 -121.744,-29.025 -24.344,-94.353 H -249.44 l 139.631,263.229 c -6.627,8.709 -9.451,20.201 -6.743,31.683 l 28.865,120.642 c 1.835,7.78 5.949,14.428 11.462,19.409 l -0.016,0.021 57.342,52.107 c 15.538,14.062 39.535,12.866 53.597,-2.671 14.061,-15.535 12.869,-39.532 -2.669,-53.593 l -48.66,-44.22 -7.649,-31.966 z"
             style="fill:#f5a683;fill-opacity:1;fill-rule:evenodd;stroke:none"
             id="path5050" />
        </g>
        <g
           id="g5052"
           transform="translate(13.7822,-0.4639)">
          <path
             d="m 0,0 139.631,263.228 c -6.627,8.709 -9.451,20.202 -6.743,31.684 l 23.101,96.552 -3.356,-78.354 c -0.781,-18.268 5.933,-34.309 19.496,-46.573 l 5.763,-5.209 L 96.945,0 Z"
             style="fill:#f28f62;fill-opacity:1;fill-rule:evenodd;stroke:none"
             id="path5054" />
        </g>
        <g
           id="g5056"
           transform="translate(356.0439,479.1426)">
          <path
             d="M 0,0 C 11.189,-1.851 18.757,-12.423 16.903,-23.612 15.05,-34.803 4.478,-42.371 -6.711,-40.518 c -11.188,1.854 -18.76,12.426 -16.906,23.615 C -21.764,-5.715 -11.191,1.854 0,0"
             style="fill:#6babbe;fill-opacity:1;fill-rule:evenodd;stroke:none"
             id="path5058" />
        </g>
        <g
           id="g5060"
           transform="translate(340.6865,297.083)">
          <path
             d="m 0,0 c 18.721,4.462 37.514,-7.097 41.976,-25.814 4.465,-18.722 -7.094,-37.513 -25.812,-41.978 -18.723,-4.464 -37.513,7.097 -41.978,25.814 C -30.278,-23.255 -18.72,-4.465 0,0"
             style="fill:#f5a683;fill-opacity:1;fill-rule:evenodd;stroke:none"
             id="path5062" />
        </g>
        <g
           id="g5064"
           transform="translate(352.5098,247.4893)">
          <path
             d="m 0,0 c 18.723,4.465 37.514,-7.091 41.977,-25.813 4.465,-18.72 -7.095,-37.514 -25.816,-41.976 -18.72,-4.464 -37.511,7.094 -41.975,25.814 C -30.278,-23.255 -18.718,-4.461 0,0"
             style="fill:#f5a683;fill-opacity:1;fill-rule:evenodd;stroke:none"
             id="path5066" />
        </g>
        <g
           id="g5068"
           transform="translate(249.3384,481.1665)">
          <path
             d="m 0,0 v 0 c 5.71,5.594 14.958,5.505 20.553,-0.207 l 9.201,-9.388 c 5.597,-5.709 5.505,-14.958 -0.204,-20.555 -5.71,-5.597 -14.959,-5.502 -20.558,0.207 l -9.202,9.388 C -5.804,-14.845 -5.712,-5.597 0,0"
             style="fill:#f28f62;fill-opacity:1;fill-rule:evenodd;stroke:none"
             id="path5070" />
        </g>
        <g
           id="g5072"
           transform="translate(430.8027,441.2412)">
          <path
             d="m 0,0 v 0 c 5.71,5.597 14.959,5.505 20.556,-0.205 l 9.201,-9.39 c 5.597,-5.709 5.503,-14.958 -0.207,-20.552 -5.71,-5.597 -14.958,-5.505 -20.553,0.205 l -9.204,9.39 C -5.804,-14.843 -5.709,-5.594 0,0"
             style="fill:#f28f62;fill-opacity:1;fill-rule:evenodd;stroke:none"
             id="path5074" />
        </g>
        <g
           id="g5076"
           transform="translate(467.3936,399.6328)">
          <path
             d="m 0,0 v 0 c 5.71,5.594 14.959,5.503 20.553,-0.204 l 9.204,-9.391 c 5.595,-5.709 5.503,-14.958 -0.207,-20.554 -5.712,-5.598 -14.958,-5.503 -20.555,0.207 l -9.202,9.387 C -5.804,-14.845 -5.709,-5.599 0,0"
             style="fill:#dd7b50;fill-opacity:1;fill-rule:evenodd;stroke:none"
             id="path5078" />
        </g>
        <g
           id="g5080"
           transform="translate(468.4219,283.7813)">
          <path
             d="m 0,0 v 0 c 5.709,5.598 14.958,5.506 20.558,-0.207 l 9.198,-9.385 c 5.598,-5.71 5.506,-14.958 -0.207,-20.557 -5.709,-5.595 -14.958,-5.503 -20.552,0.207 l -9.202,9.387 C -5.802,-14.845 -5.71,-5.597 0,0"
             style="fill:#f28f62;fill-opacity:1;fill-rule:evenodd;stroke:none"
             id="path5082" />
        </g>
      </g>
    </g>
  </g>
</svg>
