<?xml version="1.0" encoding="UTF-8" standalone="no"?>
<!-- Created with Inkscape (http://www.inkscape.org/) -->

<svg
   version="1.1"
   id="svg5132"
   width="880"
   height="880"
   viewBox="0 0 880 880"
   sodipodi:docname="rescue-from-drawning-publicdomainvectors.org.svg"
   inkscape:version="1.2 (dc2aedaf03, 2022-05-15)"
   xmlns:inkscape="http://www.inkscape.org/namespaces/inkscape"
   xmlns:sodipodi="http://sodipodi.sourceforge.net/DTD/sodipodi-0.dtd"
   xmlns="http://www.w3.org/2000/svg"
   xmlns:svg="http://www.w3.org/2000/svg">
  <defs
     id="defs5136">
    <clipPath
       clipPathUnits="userSpaceOnUse"
       id="clipPath5156">
      <path
         d="M 0,660 H 660 V 0 H 0 Z"
         id="path5154" />
    </clipPath>
  </defs>
  <sodipodi:namedview
     id="namedview5134"
     pagecolor="#ffffff"
     bordercolor="#000000"
     borderopacity="0.25"
     inkscape:showpageshadow="2"
     inkscape:pageopacity="0.0"
     inkscape:pagecheckerboard="0"
     inkscape:deskcolor="#d1d1d1"
     showgrid="false"
     inkscape:zoom="0.95113636"
     inkscape:cx="440.52569"
     inkscape:cy="440.52569"
     inkscape:window-width="1920"
     inkscape:window-height="1017"
     inkscape:window-x="-8"
     inkscape:window-y="-8"
     inkscape:window-maximized="1"
     inkscape:current-layer="g5140">
    <inkscape:page
       x="0"
       y="0"
       id="page5138"
       width="880"
       height="880" />
  </sodipodi:namedview>
  <g
     id="g5140"
     inkscape:groupmode="layer"
     inkscape:label="Page 1"
     transform="matrix(1.3333333,0,0,-1.3333333,0,880)">
    <path
       d="M 1.107,0.273 H 660 V 660 H 1.107 Z"
       style="fill:#ddeaf4;fill-opacity:1;fill-rule:nonzero;stroke:none"
       id="path5142" />
    <path
       d="M 1.107,0.273 H 660 V 423.594 H 1.107 Z"
       style="fill:#4d78b3;fill-opacity:1;fill-rule:nonzero;stroke:none"
       id="path5144" />
    <path
       d="M 1.107,341.147 H 660 v 82.447 H 1.107 Z"
       style="fill:#5885c0;fill-opacity:1;fill-rule:nonzero;stroke:none"
       id="path5146" />
    <path
       d="M 1.107,394.526 H 660 v 29.068 H 1.107 Z"
       style="fill:#6895cf;fill-opacity:1;fill-rule:nonzero;stroke:none"
       id="path5148" />
    <g
       id="g5150">
      <g
         id="g5152"
         clip-path="url(#clipPath5156)">
        <g
           id="g5158"
           transform="translate(332.0732,40.8867)">
          <path
             d="m 0,0 c 79.839,0 144.957,28.29 144.957,62.976 0,34.688 -65.118,62.978 -144.957,62.978 -79.842,0 -144.963,-28.29 -144.963,-62.978 C -144.963,28.29 -79.842,0 0,0"
             style="fill:#5885c0;fill-opacity:1;fill-rule:evenodd;stroke:none"
             id="path5160" />
        </g>
        <path
           d="m 1.107,415.02 h 660.326 v 8.574 H 1.107 Z"
           style="fill:#76a2db;fill-opacity:1;fill-rule:evenodd;stroke:none"
           id="path5162" />
        <g
           id="g5164"
           transform="translate(387.4111,322.0459)">
          <path
             d="m 0,0 c 2.669,-7.751 -1.45,-16.198 -9.199,-18.867 -7.754,-2.669 -16.199,1.451 -18.867,9.202 l -13.063,37.747 c -0.41,1.194 -0.662,2.407 -0.762,3.615 L -41.944,31.692 -43.96,55.4 c -0.209,2.533 0.231,4.966 1.174,7.142 l 5.231,14.978 c 2.701,7.754 11.174,11.845 18.923,9.144 7.751,-2.7 11.844,-11.174 9.142,-18.925 l -4.515,-12.931 1.618,-19.009 z"
             style="fill:#f5a683;fill-opacity:1;fill-rule:evenodd;stroke:none"
             id="path5166" />
        </g>
        <g
           id="g5168"
           transform="translate(363.9805,328.4443)">
          <path
             d="m 0,0 c 4.021,-7.172 1.466,-16.245 -5.706,-20.263 -7.171,-4.02 -16.245,-1.466 -20.263,5.706 l -21.446,38.279 c -0.74,1.317 -1.257,2.697 -1.563,4.102 l -7.006,24.006 c -0.558,1.931 -0.708,3.882 -0.499,5.764 h -0.025 l 2.029,17.895 c 0.899,8.166 8.253,14.059 16.419,13.159 8.168,-0.9 14.062,-8.253 13.162,-16.419 l -1.704,-15.037 5.915,-20.27 z"
             style="fill:#f28f62;fill-opacity:1;fill-rule:evenodd;stroke:none"
             id="path5170" />
        </g>
        <g
           id="g5172"
           transform="translate(340.4092,311.5244)">
          <path
             d="m 0,0 c 4.022,-7.171 1.468,-16.245 -5.706,-20.263 -7.169,-4.019 -16.243,-1.464 -20.263,5.706 l -19.763,35.276 c -0.737,1.315 -1.256,2.698 -1.562,4.102 l -6.432,22.046 c -0.56,1.931 -0.71,3.882 -0.502,5.764 h -0.024 l 1.868,16.488 c 0.902,8.168 8.254,14.061 16.422,13.161 8.169,-0.9 14.059,-8.253 13.162,-16.422 l -1.546,-13.627 5.345,-18.312 z"
             style="fill:#f28f62;fill-opacity:1;fill-rule:evenodd;stroke:none"
             id="path5174" />
        </g>
        <g
           id="g5176"
           transform="translate(399.7217,256.002)">
          <path
             d="m 0,0 -20.326,-149.912 c -4.153,-30.647 -102.195,-28.192 -92.763,1.262 l 43.165,134.821 c -5.619,3.666 -10.469,8.569 -14.072,14.483 l -36.711,34.198 c -1.188,1.107 -2.154,2.361 -2.896,3.707 l -12.311,19.253 c -1.164,1.828 -1.877,3.815 -2.173,5.829 l -0.039,-0.005 -2.504,16.768 c -1.188,8.137 4.443,15.697 12.577,16.885 8.137,1.192 15.696,-4.439 16.888,-12.576 l 2.042,-13.688 9.979,-15.604 7.938,-7.395 c 3.511,6.715 9.491,12.155 17.184,14.784 l 22.497,7.689 C -27.711,78.638 -1.57,65.813 6.567,42 H 6.569 C 11.597,27.29 8.622,11.693 0,0"
             style="fill:#f5a683;fill-opacity:1;fill-rule:evenodd;stroke:none"
             id="path5178" />
        </g>
        <g
           id="g5180"
           transform="translate(329.8311,84.165)">
          <path
             d="m 0,0 c -24.562,0.065 -48.041,8.067 -43.198,23.187 l 43.164,134.821 c -5.618,3.666 -10.469,8.569 -14.071,14.483 l -36.711,34.198 c -1.189,1.107 -2.155,2.361 -2.897,3.707 l -10.313,16.131 59.664,-47.97 c 11.33,-10.069 19.656,-11.908 32.558,-9.765 z"
             style="fill:#f28f62;fill-opacity:1;fill-rule:evenodd;stroke:none"
             id="path5182" />
        </g>
        <g
           id="g5184"
           transform="translate(443.6143,323.2549)">
          <path
             d="m 0,0 c -0.02,-0.018 0,-0.018 0.038,-0.013 z m -56.486,-73.622 c -7.3,-3.729 -16.243,-0.837 -19.974,6.463 -3.73,7.301 -0.835,16.243 6.465,19.974 l 24.297,12.456 15.025,27.817 c 0.546,5.883 1.148,10.65 2.486,15.197 2.165,7.356 5.755,12.634 12.3,16.802 6.915,4.406 16.09,2.371 20.496,-4.544 C 9.015,13.632 6.981,4.454 0.067,0.046 L 0,0 0.038,-0.013 C 0.142,0.007 0.396,0.072 0.344,-0.1 -0.338,-2.424 -0.745,-6.726 -1.247,-12.507 h -0.025 c -0.169,-1.96 -0.73,-3.921 -1.722,-5.764 l -18.681,-34.586 -0.029,0.014 c -1.378,-2.569 -3.525,-4.76 -6.318,-6.186 z"
             style="fill:#f5a683;fill-opacity:1;fill-rule:evenodd;stroke:none"
             id="path5186" />
        </g>
        <g
           id="g5188"
           transform="translate(502.376,660.5967)">
          <path
             d="m 0,0 c 1.179,-8.151 1.802,-16.487 1.802,-24.969 0,-95.495 -77.413,-172.906 -172.906,-172.906 -95.495,0 -172.908,77.411 -172.908,172.906 0,8.482 0.623,16.818 1.802,24.969 h 75.927 c -2.087,-7.972 -3.2,-16.342 -3.2,-24.969 0,-54.334 44.045,-98.377 98.379,-98.377 54.332,0 98.377,44.043 98.377,98.377 0,8.627 -1.116,16.997 -3.202,24.969 z"
             style="fill:#ffffff;fill-opacity:1;fill-rule:evenodd;stroke:none"
             id="path5190" />
        </g>
        <g
           id="g5192"
           transform="translate(450.9795,660.5967)">
          <path
             d="m 0,0 c 1.672,-8.059 2.555,-16.41 2.555,-24.969 0,-67.527 -54.74,-122.264 -122.262,-122.264 -67.527,0 -122.264,54.737 -122.264,122.264 0,8.559 0.883,16.91 2.555,24.969 h 24.529 c -2.086,-7.972 -3.2,-16.342 -3.2,-24.969 0,-54.334 44.045,-98.377 98.38,-98.377 54.332,0 98.377,44.043 98.377,98.377 0,8.627 -1.116,16.997 -3.202,24.969 z"
             style="fill:#f1f7fc;fill-opacity:1;fill-rule:evenodd;stroke:none"
             id="path5194" />
        </g>
        <g
           id="g5196"
           transform="translate(172.7192,566.5674)">
          <path
             d="m 0,0 c -9.229,21.153 -14.355,44.506 -14.355,69.06 0,8.482 0.613,16.818 1.792,24.969 H 63.376 C 61.287,86.058 60.173,77.688 60.173,69.06 c 0,-13.969 2.919,-27.259 8.169,-39.292 z m 227.609,-89.49 c -21.151,-9.229 -44.504,-14.356 -69.056,-14.356 -24.556,0 -47.905,5.129 -69.06,14.356 l 29.767,68.34 c 12.034,-5.25 25.322,-8.166 39.293,-8.166 13.969,0 27.254,2.916 39.29,8.166 z M 329.664,94.029 c 1.183,-8.151 1.794,-16.487 1.794,-24.969 0,-24.554 -5.13,-47.905 -14.357,-69.06 l -68.34,29.768 c 5.25,12.036 8.169,25.323 8.169,39.292 0,8.628 -1.113,16.998 -3.202,24.969 z"
             style="fill:#ed3420;fill-opacity:1;fill-rule:evenodd;stroke:none"
             id="path5198" />
        </g>
        <g
           id="g5200"
           transform="translate(219.1587,586.7959)">
          <path
             d="m 0,0 c -6.526,14.959 -10.15,31.471 -10.15,48.832 0,8.559 0.88,16.91 2.557,24.969 h 24.529 c -2.088,-7.972 -3.202,-16.342 -3.202,-24.969 0,-13.969 2.919,-27.259 8.169,-39.293 z m 160.943,-63.282 c -14.956,-6.523 -31.469,-10.15 -48.829,-10.15 -17.364,0 -33.876,3.629 -48.832,10.15 l 9.539,21.903 c 12.033,-5.25 25.321,-8.166 39.293,-8.166 13.968,0 27.254,2.916 39.29,8.166 z m 70.875,137.083 c 1.677,-8.059 2.557,-16.41 2.557,-24.969 0,-17.361 -3.626,-33.873 -10.15,-48.832 l -21.903,9.539 c 5.25,12.036 8.169,25.324 8.169,39.293 0,8.627 -1.114,16.997 -3.202,24.969 z"
             style="fill:#cc2d23;fill-opacity:1;fill-rule:evenodd;stroke:none"
             id="path5202" />
        </g>
        <g
           id="g5204"
           transform="translate(591.0684,464.9541)">
          <path
             d="m 0,0 c 30.789,0 55.898,25.109 55.898,55.896 0,30.789 -25.109,55.899 -55.898,55.899 -30.787,0 -55.897,-25.11 -55.897,-55.899 C -55.897,25.109 -30.787,0 0,0"
             style="fill:#ffffff;fill-opacity:1;fill-rule:evenodd;stroke:none"
             id="path5206" />
        </g>
        <g
           id="g5208"
           transform="translate(368.7793,408.7104)">
          <path
             d="M 0,0 C 9.063,-1.72 13.424,-10.905 10.469,-19.387 L 6.056,-32.029 7.633,-50.591 18.632,-86.664 4.854,-51.139 c -0.575,6.48 -1.113,12.97 -1.654,19.452 l 4.616,13.225 C 10.192,-11.642 7.113,-2.71 0,0"
             style="fill:#ffffff;fill-opacity:1;fill-rule:evenodd;stroke:none"
             id="path5210" />
        </g>
        <g
           id="g5212"
           transform="translate(379.9033,109.8232)">
          <path
             d="m 0,0 c -0.609,-4.485 -0.583,-7.955 -4.998,-12.632 l 22.273,157.592 2.648,1.359 z"
             style="fill:#ffffff;fill-opacity:1;fill-rule:evenodd;stroke:none"
             id="path5214" />
        </g>
      </g>
    </g>
  </g>
</svg>
