<?xml version="1.0" encoding="UTF-8" standalone="no"?>
<!-- Created with Inkscape (http://www.inkscape.org/) -->

<svg
   version="1.1"
   id="svg5258"
   width="880"
   height="880"
   viewBox="0 0 880 880"
   sodipodi:docname="rope-ladder-publicdomainvectors.org.svg"
   inkscape:version="1.2 (dc2aedaf03, 2022-05-15)"
   xmlns:inkscape="http://www.inkscape.org/namespaces/inkscape"
   xmlns:sodipodi="http://sodipodi.sourceforge.net/DTD/sodipodi-0.dtd"
   xmlns="http://www.w3.org/2000/svg"
   xmlns:svg="http://www.w3.org/2000/svg">
  <defs
     id="defs5262">
    <clipPath
       clipPathUnits="userSpaceOnUse"
       id="clipPath5280">
      <path
         d="M 0,660 H 660 V 0 H 0 Z"
         id="path5278" />
    </clipPath>
  </defs>
  <sodipodi:namedview
     id="namedview5260"
     pagecolor="#ffffff"
     bordercolor="#000000"
     borderopacity="0.25"
     inkscape:showpageshadow="2"
     inkscape:pageopacity="0.0"
     inkscape:pagecheckerboard="0"
     inkscape:deskcolor="#d1d1d1"
     showgrid="false"
     inkscape:zoom="0.95113636"
     inkscape:cx="440.52569"
     inkscape:cy="440.52569"
     inkscape:window-width="1920"
     inkscape:window-height="1017"
     inkscape:window-x="-8"
     inkscape:window-y="-8"
     inkscape:window-maximized="1"
     inkscape:current-layer="g5266">
    <inkscape:page
       x="0"
       y="0"
       id="page5264"
       width="880"
       height="880" />
  </sodipodi:namedview>
  <g
     id="g5266"
     inkscape:groupmode="layer"
     inkscape:label="Page 1"
     transform="matrix(1.3333333,0,0,-1.3333333,0,880)">
    <g
       id="g5268"
       transform="translate(0.0414,659.9997)">
      <path
         d="M 0,0 V -49.018 -660 H 659.958 V 0 Z"
         style="fill:#f1f6df;fill-opacity:1;fill-rule:nonzero;stroke:none"
         id="path5270" />
    </g>
    <path
       d="M 0.041,0 H 659.999 V 176.854 H 0.041 Z"
       style="fill:#e4ecca;fill-opacity:1;fill-rule:nonzero;stroke:none"
       id="path5272" />
    <g
       id="g5274">
      <g
         id="g5276"
         clip-path="url(#clipPath5280)">
        <g
           id="g5282"
           transform="translate(194.4155,281.2988)">
          <path
             d="m 0,0 c -108.909,-4.587 -83.274,119.283 17.835,102.246 -89.87,76.911 -23.514,155.098 64.59,119.228 -48.905,129.931 62.537,150.091 85.718,29.659 -4.837,124.438 136.462,110.918 85.774,-11.77 70.7,98.497 148.05,-6.615 65.673,-87.962 117.364,-70.472 80.299,-185.904 -29.552,-136.706 85.527,-80.443 11.274,-140.969 -57.124,-76.6 36.707,-90.643 -55.376,-129.022 -77.86,-24.879 C 142.501,-194.989 42.536,-177.25 67.215,-53.343 17.469,-171.229 -73.822,-107.614 0,0"
             style="fill:#769a2a;fill-opacity:1;fill-rule:evenodd;stroke:none"
             id="path5284" />
        </g>
        <g
           id="g5286"
           transform="translate(378.5723,471.2153)">
          <path
             d="m 0,0 c 119.884,4.219 91.664,-109.707 -19.632,-94.04 98.925,-70.737 25.886,-142.65 -71.098,-109.655 53.834,-119.506 -68.836,-138.047 -94.354,-27.282 5.324,-114.452 -150.214,-102.017 -94.419,10.824 -38.717,-45.069 -79.238,-43.779 -99.028,-21.898 v 73.119 c 6.241,9.957 15.008,20.002 26.74,29.681 -9.901,4.969 -18.795,10.181 -26.74,15.549 V -2.785 c 16.505,0.947 36.461,-2.194 59.27,-10.731 -94.146,73.987 -12.409,129.657 62.88,70.452 -40.406,83.371 60.954,118.669 85.703,22.884 13.82,99.521 123.858,83.205 96.691,-30.756 C -19.229,157.488 81.26,98.98 0,0"
             style="fill:#87b027;fill-opacity:1;fill-rule:evenodd;stroke:none"
             id="path5288" />
        </g>
        <g
           id="g5290"
           transform="translate(660.5039,423.2793)">
          <path
             d="m 0,0 v -76.621 c -22.823,7.084 -46.85,9.964 -77.262,10.181 -20.936,0.149 -41.594,-1.43 -62.415,-3.444 -16.147,-1.603 -35.407,-5.961 -52.496,-8.304 -25.598,-3.479 -37.463,-4.408 -63.243,-2.607 -29.955,2.093 -72.145,4.134 -100.792,-4.338 -23.177,-6.855 -35.616,-14.69 -61.417,-18.202 -31.048,-4.224 -50.967,-2.348 -81.782,1.161 -8.479,0.967 -52.445,7.841 -56.51,11.491 -6.269,5.628 2.78,9.743 8.065,10.471 11.698,1.608 40.587,-2.973 54.848,-3.527 27.426,-1.066 52.979,-0.952 79.168,8.965 12.004,4.545 40.772,22.627 45.313,34.338 1.677,12.739 -11.308,17.503 -21.831,21.211 -53.148,18.729 -113.097,-19.307 -175.667,22.618 -4.386,2.937 -8.028,5.821 -12.138,9.106 -19.373,16.126 -12.799,23.522 10.494,9.719 58.405,-33.507 75.617,-3.748 134.964,-4.248 45.695,-0.384 45.918,2.659 90.962,-14.226 4.388,-1.647 8.635,-3.073 13.084,-4.534 l 4.155,-1.307 c 7.644,-2.304 15.307,-4.39 23.016,-6.464 33.953,-9.219 37.975,-17.136 75.856,-7.455 l 1.789,0.456 c 35.096,9.197 46.866,17.7 87.588,21.264 40.842,3.275 59.991,-0.396 99.37,-4.526 C -26.981,0.141 -13.997,-0.054 0,0"
             style="fill:#985422;fill-opacity:1;fill-rule:evenodd;stroke:none"
             id="path5292" />
        </g>
        <g
           id="g5294"
           transform="translate(290.334,391.7886)">
          <path
             d="m 0,0 c 0.603,2.777 -0.189,6.093 -2.831,10.068 -19.493,29.333 -78.278,18.299 -107.294,13.41 -37.298,-6.101 -64.044,1.719 -96.384,19.332 3.527,-2.807 6.805,-5.347 10.658,-7.927 62.57,-41.924 122.518,-3.888 175.667,-22.617 C -12.595,9.59 -3.728,6.368 0,0 M 370.17,-4.207 V -45.13 c -22.823,7.084 -46.85,9.964 -77.262,10.181 -20.936,0.149 -41.595,-1.43 -62.415,-3.444 -16.147,-1.604 -35.407,-5.961 -52.496,-8.304 -25.598,-3.479 -37.463,-4.408 -63.243,-2.607 -29.955,2.093 -72.145,4.134 -100.792,-4.339 -23.177,-6.855 -35.616,-14.69 -61.417,-18.201 -31.048,-4.224 -50.967,-2.348 -81.782,1.161 -8.275,0.941 -50.337,7.512 -56.143,11.222 2.568,-0.595 5.475,-1.173 8.855,-1.748 85.842,-14.623 121.132,-7.496 200.578,25.789 50.935,21.209 65.789,10.105 114.4,13.458 28.382,1.955 63.998,2.882 90.825,10.652 48.357,15.095 68.856,10.913 117.643,8.742 10.398,-0.428 17.719,-0.905 23.249,-1.639"
             style="fill:#753d19;fill-opacity:1;fill-rule:evenodd;stroke:none"
             id="path5296" />
        </g>
        <g
           id="g5298"
           transform="translate(632.1504,405.8003)">
          <path
             d="m 0,0 c -14.519,-8.211 -74.692,-3.244 -96.525,-4.041 -34.779,-1.586 -51.561,-6.979 -84.355,-14.438 -81.132,-15.784 -122.432,29.322 -196.929,44.301 -28.621,5.756 -43.23,7.039 -2.971,6.412 57.159,-0.888 121.472,-50.818 173.63,-41.903 7.884,1.347 15.716,3.514 23.406,5.702 l 2.818,0.81 c 36.236,10.653 54.661,17.928 94.357,17.805 24.736,-0.074 48.989,-4.124 73.245,-8.582 C -10.963,5.628 1.439,4.289 0,0"
             style="fill:#b56a33;fill-opacity:1;fill-rule:evenodd;stroke:none"
             id="path5300" />
        </g>
        <g
           id="g5302"
           transform="translate(542.2627,439.5474)">
          <path
             d="m 0,0 c 2.134,2.521 5.911,2.836 8.434,0.702 2.522,-2.134 2.837,-5.91 0.702,-8.434 -33.49,-39.401 -27.997,-62.408 -20.881,-92.207 h 0.022 c 4.945,-20.71 10.617,-44.459 6.202,-78.311 -1.929,-14.801 -4.58,-28.055 -7.183,-41.077 -5.306,-26.526 -10.417,-52.097 -8.167,-83.354 0.87,-12.087 4.365,-26.355 8.146,-41.792 7.19,-29.355 15.369,-62.752 9.838,-95.538 h -12.365 c 5.92,31.416 -2.084,64.111 -9.092,92.725 -3.92,15.996 -7.541,30.781 -8.475,43.759 -2.37,32.914 2.894,59.236 8.353,86.543 2.619,13.095 5.285,26.423 7.091,40.279 4.117,31.57 -1.296,54.236 -6.015,74.002 l 0.023,0.004 C -31.28,-69.564 -37.385,-43.982 0,0 m -140.695,-29.15 c 2.276,2.395 6.063,2.487 8.456,0.211 2.394,-2.275 2.487,-6.064 0.211,-8.457 -33.123,-34.808 -27.7,-55.101 -20.673,-81.385 4.979,-18.63 10.691,-39.992 6.25,-70.417 -1.88,-12.878 -4.578,-24.935 -7.232,-36.784 -5.276,-23.571 -10.363,-46.294 -8.119,-74.123 0.863,-10.725 4.339,-23.395 8.099,-37.11 8.626,-31.453 18.66,-68.073 5.043,-102.796 h -13.208 c 14.95,32.873 5.068,68.921 -3.36,99.657 -3.939,14.37 -7.582,27.648 -8.522,39.313 -2.376,29.491 2.913,53.122 8.4,77.635 2.571,11.486 5.189,23.173 7.046,35.896 4.088,28.013 -1.285,48.112 -5.969,65.638 -8.001,29.933 -14.179,53.044 23.578,92.722"
             style="fill:#f9cc78;fill-opacity:1;fill-rule:evenodd;stroke:none"
             id="path5304" />
        </g>
        <g
           id="g5306"
           transform="translate(36.4185,366.4736)">
          <path
             d="m 0,0 c -22.437,-0.792 -33.926,7.148 -36.377,16.592 v 8.02 c 3.02,12.221 19.501,23.665 45.686,19.979 -46.907,33.54 -12.274,67.638 33.711,51.994 -25.524,56.664 32.642,65.456 44.74,12.935 -2.523,54.269 71.227,48.373 44.769,-5.131 36.904,42.953 77.274,-2.887 34.278,-38.363 61.258,-30.732 41.912,-81.073 -15.425,-59.617 44.641,-35.084 5.886,-61.479 -29.815,-33.406 C 140.727,-66.529 92.665,-83.268 80.93,-37.848 74.378,-85.038 22.201,-77.301 35.082,-23.266 9.116,-74.678 -38.53,-46.935 0,0"
             style="fill:#9ac421;fill-opacity:1;fill-rule:evenodd;stroke:none"
             id="path5308" />
        </g>
        <g
           id="g5310"
           transform="translate(354.8232,195.3994)">
          <path
             d="m 0,0 181.099,2.845 c 15.324,0.239 7.925,-49.98 -7.512,-49.055 L -3.331,-35.621 C -14.264,-34.966 -10.855,-0.172 0,0 m 14.597,-121.135 182.369,15.289 c 15.413,1.291 16.491,-45.44 1.057,-46.388 L 21.104,-163.1 c -10.931,-0.671 -17.424,41.05 -6.507,41.965 M 12.06,102.911 193.158,127.72 c 15.323,2.097 16.493,-45.441 1.056,-46.389 L 17.297,70.466 C 6.363,69.795 1.204,101.426 12.06,102.911"
             style="fill:#753d19;fill-opacity:1;fill-rule:evenodd;stroke:none"
             id="path5312" />
        </g>
        <g
           id="g5314"
           transform="translate(538.7852,197.5908)">
          <path
             d="m 0,0 c 4.785,-22.249 15.939,-38.914 -72.28,-39.366 -2.667,-0.015 -5.334,-0.013 -8.004,-0.01 -23.786,0.062 -46.649,6.02 -71.88,6.092 -15.851,0.046 -26.449,-0.367 -40.82,1.542 1.033,-3.492 2.89,-5.903 5.691,-6.071 L -10.375,-48.401 C 3.99,-49.263 11.391,-5.836 0,0 m 21.26,-113.496 c -14.464,-30.383 -57.48,-35.893 -87.524,-39.769 -34.773,-4.485 -67.929,-6.826 -101.99,-8.746 1.604,-2.142 3.428,-3.402 5.397,-3.28 l 176.919,10.865 c 11.927,0.734 13.989,28.809 7.198,40.93 M 18.337,118.56 c 5.64,-12.818 3.272,-38.722 -8.085,-39.42 L -166.665,68.274 c -3.026,-0.185 -5.609,2.106 -7.533,5.546 30.968,-6.579 51.719,1.221 83.293,6.777 9.976,1.407 19.286,2.022 29.323,2.545 14.256,0.798 26.525,2.027 40.562,4.7 10.038,1.913 32.83,3.748 36.729,13.38 2.228,5.507 2.908,11.371 2.628,17.338"
             style="fill:#582d17;fill-opacity:1;fill-rule:evenodd;stroke:none"
             id="path5316" />
        </g>
        <g
           id="g5318"
           transform="translate(519.0381,185.8789)">
          <path
             d="m 0,0 c 1.07,-5.822 -19.853,-4.304 -24.516,-4.68 -21.441,-1.812 -37.157,-1.894 -58.598,-1.085 -18.963,0.548 -38.392,0.056 -57.285,0.42 -22.06,0.421 -32.576,10.516 -4.123,12.371 14.512,0.947 29.32,0.182 43.952,0.651 19.788,0.759 39.599,-0.306 59.394,0.516 l 2.901,0.121 C -28.036,8.793 -4.235,11.254 0,0 m 17.138,-110.787 c 1.07,-5.752 -19.855,-5.583 -24.518,-6.261 -21.441,-3.194 -37.157,-4.291 -58.597,-4.865 -18.963,-0.676 -38.391,-2.422 -57.285,-3.277 -22.061,-1.002 -32.575,8.413 -4.124,12.105 14.512,1.882 29.321,2.072 43.951,3.487 19.79,2.036 39.602,2.25 59.397,4.35 l 2.9,0.308 c 10.238,1.137 34.04,5.133 38.276,-5.847 m 4.436,233.945 c 1.775,-5.646 -19.178,-6.704 -23.758,-7.648 -21.059,-4.425 -36.645,-6.432 -58.024,-8.258 -18.886,-1.781 -38.108,-4.648 -56.903,-6.606 -21.948,-2.282 -33.621,6.445 -5.61,11.775 14.287,2.717 29.077,3.773 43.54,6.033 19.547,3.178 39.34,4.55 58.884,7.791 l 2.866,0.476 c 10.103,1.728 33.422,7.088 39.005,-3.563"
             style="fill:#985422;fill-opacity:1;fill-rule:evenodd;stroke:none"
             id="path5320" />
        </g>
        <g
           id="g5322"
           transform="translate(507.9912,88.8223)">
          <path
             d="m 0,0 c -0.944,3.169 0.859,6.506 4.031,7.45 3.169,0.944 6.504,-0.859 7.447,-4.029 3.015,-10.051 7.16,-19.264 12.156,-27.842 5.03,-8.634 10.937,-16.652 17.432,-24.247 2.15,-2.508 1.856,-6.284 -0.654,-8.432 -2.511,-2.148 -6.285,-1.854 -8.434,0.656 -6.946,8.119 -13.278,16.72 -18.7,26.028 C 7.822,-21.049 3.295,-10.985 0,0 m -136.14,-11.423 c -0.944,3.169 0.86,6.504 4.029,7.447 3.17,0.945 6.507,-0.859 7.45,-4.028 2.876,-9.619 6.296,-18.565 10.502,-26.532 4.124,-7.81 9.006,-14.696 14.88,-20.373 2.38,-2.289 2.454,-6.076 0.165,-8.456 -2.291,-2.38 -6.078,-2.455 -8.458,-0.166 -6.854,6.624 -12.482,14.533 -17.175,23.421 -4.609,8.729 -8.314,18.387 -11.393,28.687 M -3.128,111.476 c -0.285,3.298 2.159,6.204 5.458,6.489 3.3,0.285 6.205,-2.159 6.49,-5.459 0.907,-10.44 2.316,-20.249 4.322,-29.296 1.994,-9 4.609,-17.427 7.942,-25.186 1.306,-3.041 -0.102,-6.565 -3.141,-7.871 -3.039,-1.305 -6.565,0.099 -7.871,3.141 -3.585,8.342 -6.417,17.495 -8.596,27.34 -2.172,9.793 -3.67,20.104 -4.604,30.842 m -142.061,-1.513 c -0.504,3.261 1.729,6.311 4.99,6.816 3.26,0.504 6.311,-1.729 6.817,-4.99 1.391,-8.98 3.211,-17.216 5.637,-24.404 2.32,-6.882 5.175,-12.735 8.719,-17.259 2.03,-2.602 1.57,-6.358 -1.032,-8.389 -2.601,-2.031 -6.355,-1.568 -8.385,1.031 -4.422,5.649 -7.899,12.694 -10.641,20.822 -2.638,7.824 -4.609,16.719 -6.105,26.373 m 9.227,102.655 c -0.595,3.248 1.554,6.363 4.802,6.956 3.247,0.596 6.363,-1.556 6.958,-4.801 1.63,-8.797 4.378,-15.485 7.857,-20.78 3.452,-5.252 7.692,-9.233 12.307,-12.601 2.666,-1.94 3.252,-5.675 1.312,-8.34 -1.94,-2.665 -5.673,-3.252 -8.338,-1.313 -5.671,4.139 -10.914,9.083 -15.26,15.695 -4.318,6.572 -7.694,14.697 -9.638,25.184 M 3.985,233.176 c -0.631,3.247 1.486,6.391 4.734,7.026 3.248,0.634 6.394,-1.485 7.026,-4.731 1.992,-10.163 4.913,-19.212 8.665,-27.262 3.728,-7.999 8.256,-14.988 13.485,-21.09 2.147,-2.51 1.854,-6.287 -0.657,-8.434 -2.51,-2.148 -6.285,-1.853 -8.433,0.656 -5.967,6.962 -11.093,14.856 -15.264,23.806 -4.144,8.897 -7.368,18.864 -9.556,30.029"
             style="fill:#f9cc78;fill-opacity:1;fill-rule:evenodd;stroke:none"
             id="path5324" />
        </g>
      </g>
    </g>
  </g>
</svg>
