<?xml version="1.0" encoding="UTF-8" standalone="no"?>
<!-- Created with Inkscape (http://www.inkscape.org/) -->

<svg
   version="1.1"
   id="svg1791"
   width="522.66669"
   height="181.33333"
   viewBox="0 0 522.66669 181.33333"
   sodipodi:docname="Snail4c.svg"
   inkscape:version="1.3.1 (6036e22fae, 2023-11-19, custom)"
   xmlns:inkscape="http://www.inkscape.org/namespaces/inkscape"
   xmlns:sodipodi="http://sodipodi.sourceforge.net/DTD/sodipodi-0.dtd"
   xmlns="http://www.w3.org/2000/svg"
   xmlns:svg="http://www.w3.org/2000/svg">
  <defs
     id="defs1795" />
  <sodipodi:namedview
     id="namedview1793"
     pagecolor="#ffffff"
     bordercolor="#000000"
     borderopacity="0.25"
     inkscape:showpageshadow="2"
     inkscape:pageopacity="0.0"
     inkscape:pagecheckerboard="0"
     inkscape:deskcolor="#d1d1d1"
     showgrid="false"
     inkscape:zoom="0.97968464"
     inkscape:cx="132.18539"
     inkscape:cy="90.335192"
     inkscape:window-width="1920"
     inkscape:window-height="1031"
     inkscape:window-x="0"
     inkscape:window-y="25"
     inkscape:window-maximized="1"
     inkscape:current-layer="layer1" />
  <g
     inkscape:groupmode="layer"
     id="layer1"
     inkscape:label="Layer 1">
    <path
       style="fill:#008080;stroke-width:1.33333"
       d="m 338.43954,179.32841 c -0.38966,-0.38965 -28.24795,-0.97911 -61.90733,-1.30991 -88.35055,-0.86826 -94.45344,-1.45453 -107.47876,-10.32482 -2.72062,-1.85275 -9.02062,-4.42498 -14,-5.71607 -16.99843,-4.40748 -29.05122,-8.92415 -31.44994,-11.78555 -1.31807,-1.5723 -3.84225,-5.91384 -5.60929,-9.64785 -1.76703,-3.73401 -3.98861,-7.41026 -4.93683,-8.16944 -1.85055,-1.48159 -14.344703,-7.91175 -23.057386,-11.86655 -2.933333,-1.33147 -7.980664,-4.42973 -11.21629,-6.88502 -3.235625,-2.45528 -8.635626,-5.95071 -12,-7.76762 -3.364375,-1.81691 -9.417045,-5.16483 -13.450378,-7.439826 C 48.894353,95.911952 43.795498,94.174214 40.414514,94.012901 32.588869,93.639522 28.994997,90.818506 26.795649,83.32275 24.522921,75.576901 25.4078,73.738059 33.367216,69.666555 c 7.349499,-3.759511 9.497578,-3.100323 18.017448,5.529081 4.469206,4.526664 10.717703,8.776298 18.666667,12.695296 6.57177,3.240013 13.671967,7.08306 15.778217,8.540104 7.770426,5.375364 31.748822,16.909284 33.267972,16.002324 0.86303,-0.51524 2.35317,-2.02354 3.31142,-3.35175 0.95825,-1.32822 2.90825,-2.41495 4.33334,-2.41495 3.04345,0 3.46874,-2.41356 0.61804,-3.50747 -1.08516,-0.41642 -3.19626,-2.73637 -4.69133,-5.155442 -1.49507,-2.419076 -6.92792,-9.709542 -12.07301,-16.201035 C 105.4509,75.31122 99.911999,68.259853 98.287312,66.133009 96.662627,64.006165 93.533338,60.106166 91.333337,57.466343 87.485099,52.848768 85.515834,49.798882 81.801618,42.704159 80.742337,40.68077 78.13109,38.863871 75.038094,37.998118 c -3.839808,-1.074791 -5.580288,-2.557629 -7.31772,-6.234485 -2.087076,-4.416798 -2.105679,-5.267121 -0.22023,-10.067008 2.223718,-5.661031 7.015785,-8.363292 14.831084,-8.363292 5.471979,0 9.668776,5.233676 9.668776,12.057587 0,3.982926 1.25022,6.566074 6,12.396926 C 101.3,41.838943 104,45.487084 104,45.89483 c 0,0.837262 2.66632,4.237054 9.00001,11.475813 2.38333,2.723907 4.33333,5.377211 4.33333,5.896231 0,0.519019 2.9182,4.346298 6.48489,8.505065 3.56669,4.158766 7.61669,9.0175 9,10.797185 5.54668,7.136041 15.86711,17.430874 17.4742,17.430874 2.75248,0 1.96956,-2.188316 -1.62576,-4.544057 -3.97052,-2.601584 -4.26422,-7.528452 -0.80214,-13.455943 1.99033,-3.407697 3.25746,-4.060103 8.55725,-4.405899 5.24725,-0.342367 6.77193,0.145066 9.74103,3.114149 3.17953,3.179538 3.44848,4.213501 2.78018,10.68862 -1.00466,9.734222 0.9502,13.569002 7.48019,14.673582 2.79943,0.47353 5.34528,0.60553 5.65748,0.29334 0.3122,-0.3122 -0.62824,-3.04278 -2.08984,-6.06797 -1.46161,-3.025186 -2.65748,-6.978463 -2.65748,-8.785059 0,-1.921832 -1.65967,-4.851183 -4,-7.060079 -2.2,-2.076446 -3.99723,-4.977305 -3.99383,-6.446354 0.01,-4.193409 7.4967,-11.337663 11.8816,-11.337663 7.77553,0 13.43674,8.34267 10.64463,15.68648 -1.23728,3.254295 -0.16892,6.486523 3.28598,9.941413 1.0097,1.009707 2.89654,3.887038 4.19298,6.394067 1.29643,2.507025 4.38515,6.527695 6.86382,8.934805 3.67232,3.5663 5.56582,4.37657 10.22757,4.37657 3.14651,0 6.88559,-0.88092 8.30908,-1.9576 1.42349,-1.07668 3.48817,-1.97919 4.58817,-2.00558 1.1,-0.0264 4.9517,-1.54547 8.55931,-3.37574 3.60761,-1.83026 7.65761,-3.32775 9,-3.32775 2.07217,0 2.44069,-1.11725 2.44069,-7.399545 0,-13.596428 7.35787,-21.933786 19.35695,-21.933786 3.93379,0 7.52316,0.6 7.97639,1.333333 0.45323,0.733333 1.86177,1.333333 3.13011,1.333333 2.77624,0 11.68338,-4.412233 15.47213,-7.664262 8.79385,-7.5481 23.32215,-19.002404 24.10207,-19.002404 0.74756,0 9.75934,-6.633256 16.064,-11.824133 3.83347,-3.156249 23.07739,-12.180156 32.56503,-15.270469 30.62705,-9.975849 35.84693,-10.794962 56.25109,-8.827035 27.57632,2.659663 50.42248,12.067884 64.13054,26.409441 7.97787,8.346556 17.40613,22.034703 19.40933,28.178862 4.74439,14.551878 5.54235,18.062132 5.54215,24.379929 -2.5e-4,7.494931 -2.86845,24.062526 -5.47412,31.620066 -3.06348,8.88542 -15.80647,23.737 -30.52566,35.5768 -2.56666,2.06456 -5.67646,4.66152 -6.91065,5.77102 -1.23419,1.10949 -5.13419,2.83529 -8.66667,3.83513 -3.53248,0.99984 -9.12268,3.32229 -12.42268,5.16101 -5.72141,3.18791 -7.42386,3.39254 -36.66666,4.40712 -16.86667,0.58519 -40.30838,1.41388 -52.09269,1.84155 -11.7843,0.42767 -21.74481,0.45877 -22.13446,0.0691 z"
       id="path1909-3" />
    <path
       style="fill:#aa4400;stroke-width:1.33333"
       d="m 349.00218,165.00649 c -0.30436,-0.91309 -4.10436,-2.40399 -8.44444,-3.31309 -14.34965,-3.00582 -30.41765,-8.87619 -40.55773,-14.81759 -20.59758,-12.06881 -25.69085,-16.50753 -33.2838,-29.0064 -3.799,-6.25359 -4.14642,-7.82471 -4.34373,-19.643344 -0.19279,-11.548273 0.0807,-13.160217 2.70653,-15.955349 3.91786,-4.170358 3.6965,-4.937385 -1.42493,-4.937385 -2.9552,0 -4.89922,0.885935 -6.07488,2.768472 -2.91802,4.67248 -3.44199,14.958606 -1.15919,22.755866 1.15008,3.92828 2.41967,8.64233 2.82132,10.47566 0.40165,1.83333 2.49963,5.32222 4.66216,7.75307 2.16255,2.43086 4.11895,4.83086 4.34755,5.33334 0.92108,2.02455 20.40029,17.58026 22.01441,17.58026 0.954,0 1.73456,0.50192 1.73456,1.11536 0,1.51392 20.83472,12.21797 23.78144,12.21797 1.29355,0 2.9219,0.53357 3.61856,1.18572 1.9066,1.78475 21.99467,7.44375 28.37778,7.99428 0.97779,0.0843 1.52876,-0.59375 1.22439,-1.50684 z"
       id="path1940" />
    <path
       style="fill:#aa4400;stroke-width:1.33333"
       d="m 438.59481,168.03846 c 1.66832,-0.89285 7.31697,-2.79802 12.55258,-4.2337 12.07255,-3.3105 20.65284,-8.98234 34.50178,-22.80675 16.3982,-16.36916 20.65869,-25.82441 21.17713,-46.998012 0.25386,-10.367164 -0.18812,-13.159119 -3.24809,-20.518573 -1.94805,-4.685216 -4.98943,-10.985215 -6.75861,-13.999999 -3.06166,-5.217232 -19.89611,-22.770435 -25.5101,-26.599259 -3.40631,-2.32316 -19.93633,-8.420689 -25.97615,-9.581977 -2.56666,-0.493498 -7.36666,-1.708066 -10.66666,-2.699038 -3.3,-0.990974 -13.2652,-2.046446 -22.1449,-2.345495 -13.75079,-0.463096 -16.90015,-0.17636 -21.23808,1.933643 -2.80125,1.362552 -5.8942,2.477366 -6.8732,2.477366 -0.979,0 -2.82187,0.534032 -4.09525,1.186738 -1.27339,0.652705 -7.71524,3.405141 -14.31524,6.116523 -6.6,2.711383 -14.1,6.246431 -16.66667,7.855663 -2.56667,1.609232 -6.36095,3.664109 -8.43175,4.566396 -3.81512,1.662328 -10.36275,6.4406 -20.46195,14.932558 -17.0595,14.344556 -29.94368,22.156824 -41.81228,25.352705 -7.43681,2.002524 -5.16162,4.275504 2.54608,2.54362 9.48907,-2.132145 17.44254,-6.373054 29.48482,-15.721734 6.23796,-4.842666 11.54174,-9.261061 11.78618,-9.818657 0.24446,-0.557598 1.14472,-1.013812 2.0006,-1.013812 0.85588,0 4.04571,-2.25 7.0885,-5 3.0428,-2.75 8.44253,-6.471751 11.99941,-8.270558 3.55688,-1.798806 8.86706,-4.846263 11.80039,-6.772127 9.80795,-6.439355 16.54985,-9.036784 42.24039,-16.273807 2.82109,-0.7947 10.47281,-1.05941 18,-0.622706 35.7496,2.074076 68.32567,20.306791 79.1387,44.293653 2.30881,5.121716 4.79998,10.579182 5.53594,12.127703 0.73595,1.54852 1.08538,8.14852 0.7765,14.666666 -0.44104,9.3067 -1.36611,13.64036 -4.30866,20.18451 -2.06086,4.58333 -4.26509,8.33333 -4.89828,8.33333 -0.63318,0 -1.15125,0.77314 -1.15125,1.71808 0,5.79857 -11.71471,19.82229 -21.66667,25.93724 -2.01667,1.23913 -3.66667,2.7236 -3.66667,3.29883 0,0.57521 -1.10781,1.04585 -2.46181,1.04585 -1.354,0 -4.204,0.83456 -6.33333,1.85459 -19.38891,9.28794 -35.30746,12.85673 -53.62883,12.02306 -6.85319,-0.31184 -13.46136,-1.07961 -14.68484,-1.70617 -1.2235,-0.62657 -4.92452,-1.54563 -8.22452,-2.04235 -10.89763,-1.64033 -26.49203,-11.94014 -26.6308,-17.58914 -0.0197,-0.80302 -1.17462,-2.49056 -2.5664,-3.75012 -2.42859,-2.19784 -3.17032,-4.91886 -4.94042,-18.1236 -0.68858,-5.13683 -0.17333,-7.15168 3.58018,-14 2.41149,-4.39978 5.11466,-8.73369 6.00705,-9.6309 0.89239,-0.89722 2.85875,-3.631564 4.36968,-6.076322 5.46837,-8.847998 22.56151,-17.520039 38.41179,-19.487861 8.63176,-1.071637 11.39245,-0.88145 18.30041,1.260724 11.01698,3.416395 12.9313,5.015615 18.03119,15.063212 l 4.39597,8.660765 -3.28253,7.105392 c -4.01375,8.68815 -10.61004,15.83576 -17.57213,19.0408 -4.1143,1.89404 -7.09952,2.23414 -14.00001,1.59497 -7.80053,-0.72253 -9.17604,-1.29454 -12.43564,-5.17139 -4.87501,-5.79816 -5.56933,-8.97609 -3.37765,-15.45971 2.65372,-7.850471 7.75036,-11.446748 14.65709,-10.342316 4.80947,0.769064 5.25663,0.629241 3.75894,-1.175363 -2.58904,-3.119604 -10.09704,-2.489575 -15.87162,1.331857 -6.14984,4.069782 -8.28392,10.113062 -7.2118,20.422452 0.6087,5.85324 1.608,8.03533 5.55939,12.13963 4.13781,4.29794 5.9132,5.12842 12.58672,5.88782 12.49863,1.42222 18.14276,-1.1217 32.46991,-14.63488 1.92325,-1.81399 7.1014,-17.24463 7.07461,-21.082023 -0.0668,-9.567596 -8.23814,-21.396882 -18.06721,-26.155052 -6.09567,-2.950861 -21.41124,-3.862554 -31.82371,-1.894376 -15.34001,2.899594 -35.23191,18.088219 -46.72191,35.674891 -5.04674,7.72461 -5.05428,7.75714 -4.16374,18 0.97432,11.20641 2.973,18.92808 4.89937,18.92808 0.67647,0 1.22993,0.93913 1.22993,2.08696 0,3.36877 13.38328,15.73288 21.26179,19.64265 5.11621,2.53896 9.44967,3.63292 14.66667,3.70255 4.07268,0.0544 10.08301,0.50436 13.35628,1 8.39717,1.27152 39.00521,-0.4466 42.64339,-2.3937 z"
       id="path1938" />
    <path
       style="fill:#000000;stroke-width:1.33333"
       d="m 338.43954,179.32841 c -0.38966,-0.38965 -28.24795,-0.97911 -61.90733,-1.30991 -88.35055,-0.86826 -94.45344,-1.45453 -107.47876,-10.32482 -2.72062,-1.85275 -9.02062,-4.42498 -14,-5.71607 -16.99843,-4.40748 -29.05122,-8.92415 -31.44994,-11.78555 -1.31807,-1.5723 -3.84225,-5.91384 -5.60929,-9.64785 -1.76703,-3.73401 -3.98861,-7.41026 -4.93683,-8.16944 -1.85055,-1.48159 -14.344703,-7.91175 -23.057386,-11.86655 -2.933333,-1.33147 -7.980664,-4.42973 -11.21629,-6.88502 -3.235625,-2.45528 -8.635626,-5.95071 -12,-7.76762 -3.364375,-1.81691 -9.417045,-5.16483 -13.450378,-7.439826 C 48.894353,95.911952 43.795498,94.174214 40.414514,94.012901 32.588869,93.639522 28.994997,90.818506 26.795649,83.32275 24.522921,75.576901 25.4078,73.738059 33.367216,69.666555 c 7.349499,-3.759511 9.497578,-3.100323 18.017448,5.529081 4.469206,4.526664 10.717703,8.776298 18.666667,12.695296 6.57177,3.240013 13.671967,7.08306 15.778217,8.540104 7.770426,5.375364 31.748822,16.909284 33.267972,16.002324 0.86303,-0.51524 2.35317,-2.02354 3.31142,-3.35175 0.95825,-1.32822 2.90825,-2.41495 4.33334,-2.41495 3.04345,0 3.46874,-2.41356 0.61804,-3.50747 -1.08516,-0.41642 -3.19626,-2.73637 -4.69133,-5.155442 -1.49507,-2.419076 -6.92792,-9.709542 -12.07301,-16.201035 C 105.4509,75.31122 99.911999,68.259853 98.287312,66.133009 96.662627,64.006165 93.533338,60.106166 91.333337,57.466343 87.485099,52.848768 85.515834,49.798882 81.801618,42.704159 80.742337,40.68077 78.13109,38.863871 75.038094,37.998118 c -3.839808,-1.074791 -5.580288,-2.557629 -7.31772,-6.234485 -2.087076,-4.416798 -2.105679,-5.267121 -0.22023,-10.067008 2.223718,-5.661031 7.015785,-8.363292 14.831084,-8.363292 5.471979,0 9.668776,5.233676 9.668776,12.057587 0,3.982926 1.25022,6.566074 6,12.396926 C 101.3,41.838943 104,45.487084 104,45.89483 c 0,0.837262 2.66632,4.237054 9.00001,11.475813 2.38333,2.723907 4.33333,5.377211 4.33333,5.896231 0,0.519019 2.9182,4.346298 6.48489,8.505065 3.56669,4.158766 7.61669,9.0175 9,10.797185 5.54668,7.136041 15.86711,17.430874 17.4742,17.430874 2.75248,0 1.96956,-2.188316 -1.62576,-4.544057 -3.97052,-2.601584 -4.26422,-7.528452 -0.80214,-13.455943 1.99033,-3.407697 3.25746,-4.060103 8.55725,-4.405899 5.24725,-0.342367 6.77193,0.145066 9.74103,3.114149 3.17953,3.179538 3.44848,4.213501 2.78018,10.68862 -1.00466,9.734222 0.9502,13.569002 7.48019,14.673582 2.79943,0.47353 5.34528,0.60553 5.65748,0.29334 0.3122,-0.3122 -0.62824,-3.04278 -2.08984,-6.06797 -1.46161,-3.025186 -2.65748,-6.978463 -2.65748,-8.785059 0,-1.921832 -1.65967,-4.851183 -4,-7.060079 -2.2,-2.076446 -3.99723,-4.977305 -3.99383,-6.446354 0.01,-4.193409 7.4967,-11.337663 11.8816,-11.337663 7.77553,0 13.43674,8.34267 10.64463,15.68648 -1.23728,3.254295 -0.16892,6.486523 3.28598,9.941413 1.0097,1.009707 2.89654,3.887038 4.19298,6.394067 1.29643,2.507025 4.38515,6.527695 6.86382,8.934805 3.67232,3.5663 5.56582,4.37657 10.22757,4.37657 3.14651,0 6.88559,-0.88092 8.30908,-1.9576 1.42349,-1.07668 3.48817,-1.97919 4.58817,-2.00558 1.1,-0.0264 4.9517,-1.54547 8.55931,-3.37574 3.60761,-1.83026 7.65761,-3.32775 9,-3.32775 2.07217,0 2.44069,-1.11725 2.44069,-7.399545 0,-13.596428 7.35787,-21.933786 19.35695,-21.933786 3.93379,0 7.52316,0.6 7.97639,1.333333 0.45323,0.733333 1.86177,1.333333 3.13011,1.333333 2.77624,0 11.68338,-4.412233 15.47213,-7.664262 8.79385,-7.5481 23.32215,-19.002404 24.10207,-19.002404 0.74756,0 9.75934,-6.633256 16.064,-11.824133 3.83347,-3.156249 23.07739,-12.180156 32.56503,-15.270469 30.62705,-9.975849 35.84693,-10.794962 56.25109,-8.827035 27.57632,2.659663 50.42248,12.067884 64.13054,26.409441 7.97787,8.346556 17.40613,22.034703 19.40933,28.178862 4.74439,14.551878 5.54235,18.062132 5.54215,24.379929 -2.5e-4,7.494931 -2.86845,24.062526 -5.47412,31.620066 -3.06348,8.88542 -15.80647,23.737 -30.52566,35.5768 -2.56666,2.06456 -5.67646,4.66152 -6.91065,5.77102 -1.23419,1.10949 -5.13419,2.83529 -8.66667,3.83513 -3.53248,0.99984 -9.12268,3.32229 -12.42268,5.16101 -5.72141,3.18791 -7.42386,3.39254 -36.66666,4.40712 -16.86667,0.58519 -40.30838,1.41388 -52.09269,1.84155 -11.7843,0.42767 -21.74481,0.45877 -22.13446,0.0691 z m -53.47845,-9.18135 c 16.74522,1.25324 24.0841,0.87264 27.35536,-1.41864 2.2395,-1.5686 2.24034,-1.74652 0.0176,-3.73042 -1.28373,-1.14579 -4.81416,-2.74339 -7.8454,-3.5502 -3.03124,-0.80682 -6.2227,-2.32407 -7.09213,-3.37167 -0.86943,-1.0476 -3.33201,-2.28936 -5.4724,-2.75947 -2.1404,-0.4701 -4.94893,-2.17116 -6.2412,-3.7801 C 282.11388,147.09288 268.00104,136 265.91664,136 c -3.55937,0 -15.15323,-13.4273 -15.99622,-18.52584 -1.70065,-10.28608 -3.03542,-10.9171 -13.06057,-6.17445 -10.67787,5.05144 -11.96815,5.28975 -28.85984,5.33022 -13.79937,0.0331 -15.75408,-0.26339 -19.53916,-2.96327 -4.90058,-3.49555 -9.79418,-3.95532 -9.79418,-0.92018 0,1.1439 3.03242,5.28615 6.73871,9.20501 8.65358,9.14987 11.80015,19.38184 5.96039,19.38184 -0.99561,0 -2.0102,0.58843 -2.25465,1.30761 -0.8731,2.56876 -13.93303,-5.24881 -22.77778,-13.63457 -7.33265,-6.95215 -9,-9.29711 -9,-12.65763 0,-3.20048 -1.16331,-5.04602 -5.19187,-8.2367 -6.17865,-4.89359 -9.31518,-5.13619 -14.37744,-1.11204 -5.1707,4.11035 -9.32604,6.33333 -11.83867,6.33333 -1.42523,0 -1.97244,0.97221 -1.68476,2.99326 0.31777,2.23237 2.28155,3.73164 7.72541,5.89801 4.01464,1.59762 7.51289,3.54542 7.7739,4.32846 0.26102,0.78303 -0.22021,3.52893 -1.0694,6.10198 -1.33117,4.03346 -2.127,4.6811 -5.77391,4.6987 -10.9338,0.0528 -8.73285,6.29523 3.68375,10.44803 16.43503,5.49679 20.28903,6.76753 29.41966,9.70023 5.13333,1.64878 13.23333,4.81482 18,7.03562 9.47036,4.41227 6.63607,4.13479 54.49943,5.33536 14.94134,0.37478 27.48613,1.00147 27.87732,1.39264 0.39117,0.39119 1.49892,0.0575 2.46165,-0.74149 1.20603,-1.00091 6.22038,-1.11817 16.12268,-0.37707 z m 153.63372,-2.1086 c 1.66832,-0.89285 7.31697,-2.79802 12.55258,-4.2337 12.07255,-3.3105 20.65284,-8.98234 34.50178,-22.80675 16.3982,-16.36916 20.65869,-25.82441 21.17713,-46.998012 0.25386,-10.367164 -0.18812,-13.159119 -3.24809,-20.518573 -1.94805,-4.685216 -4.98943,-10.985215 -6.75861,-13.999999 -3.06166,-5.217232 -19.89611,-22.770435 -25.5101,-26.599259 -3.40631,-2.32316 -19.93633,-8.420689 -25.97615,-9.581977 -2.56666,-0.493498 -7.36666,-1.708066 -10.66666,-2.699038 -3.3,-0.990974 -13.2652,-2.046446 -22.1449,-2.345495 -13.75079,-0.463096 -16.90015,-0.17636 -21.23808,1.933643 -2.80125,1.362552 -5.8942,2.477366 -6.8732,2.477366 -0.979,0 -2.82187,0.534032 -4.09525,1.186738 -1.27339,0.652705 -7.71524,3.405141 -14.31524,6.116523 -6.6,2.711383 -14.1,6.246431 -16.66667,7.855663 -2.56667,1.609232 -6.36095,3.664109 -8.43175,4.566396 -3.81512,1.662328 -10.36275,6.4406 -20.46195,14.932558 -17.0595,14.344556 -29.94368,22.156824 -41.81228,25.352705 -7.43681,2.002524 -5.16162,4.275504 2.54608,2.54362 9.48907,-2.132145 17.44254,-6.373054 29.48482,-15.721734 6.23796,-4.842666 11.54174,-9.261061 11.78618,-9.818657 0.24446,-0.557598 1.14472,-1.013812 2.0006,-1.013812 0.85588,0 4.04571,-2.25 7.0885,-5 3.0428,-2.75 8.44253,-6.471751 11.99941,-8.270558 3.55688,-1.798806 8.86706,-4.846263 11.80039,-6.772127 9.80795,-6.439355 16.54985,-9.036784 42.24039,-16.273807 2.82109,-0.7947 10.47281,-1.05941 18,-0.622706 35.7496,2.074076 68.32567,20.306791 79.1387,44.293653 2.30881,5.121716 4.79998,10.579182 5.53594,12.127703 0.73595,1.54852 1.08538,8.14852 0.7765,14.666666 -0.44104,9.3067 -1.36611,13.64036 -4.30866,20.18451 -2.06086,4.58333 -4.26509,8.33333 -4.89828,8.33333 -0.63318,0 -1.15125,0.77314 -1.15125,1.71808 0,5.79857 -11.71471,19.82229 -21.66667,25.93724 -2.01667,1.23913 -3.66667,2.7236 -3.66667,3.29883 0,0.57521 -1.10781,1.04585 -2.46181,1.04585 -1.354,0 -4.204,0.83456 -6.33333,1.85459 -19.38891,9.28794 -35.30746,12.85673 -53.62883,12.02306 -6.85319,-0.31184 -13.46136,-1.07961 -14.68484,-1.70617 -1.2235,-0.62657 -4.92452,-1.54563 -8.22452,-2.04235 -10.89763,-1.64033 -26.49203,-11.94014 -26.6308,-17.58914 -0.0197,-0.80302 -1.17462,-2.49056 -2.5664,-3.75012 -2.42859,-2.19784 -3.17032,-4.91886 -4.94042,-18.1236 -0.68858,-5.13683 -0.17333,-7.15168 3.58018,-14 2.41149,-4.39978 5.11466,-8.73369 6.00705,-9.6309 0.89239,-0.89722 2.85875,-3.631564 4.36968,-6.076322 5.46837,-8.847998 22.56151,-17.520039 38.41179,-19.487861 8.63176,-1.071637 11.39245,-0.88145 18.30041,1.260724 11.01698,3.416395 12.9313,5.015615 18.03119,15.063212 l 4.39597,8.660765 -3.28253,7.105392 c -4.01375,8.68815 -10.61004,15.83576 -17.57213,19.0408 -4.1143,1.89404 -7.09952,2.23414 -14.00001,1.59497 -7.80053,-0.72253 -9.17604,-1.29454 -12.43564,-5.17139 -4.87501,-5.79816 -5.56933,-8.97609 -3.37765,-15.45971 2.65372,-7.850471 7.75036,-11.446748 14.65709,-10.342316 4.80947,0.769064 5.25663,0.629241 3.75894,-1.175363 -2.58904,-3.119604 -10.09704,-2.489575 -15.87162,1.331857 -6.14984,4.069782 -8.28392,10.113062 -7.2118,20.422452 0.6087,5.85324 1.608,8.03533 5.55939,12.13963 4.13781,4.29794 5.9132,5.12842 12.58672,5.88782 12.49863,1.42222 18.14276,-1.1217 32.46991,-14.63488 1.92325,-1.81399 7.1014,-17.24463 7.07461,-21.082023 -0.0668,-9.567596 -8.23814,-21.396882 -18.06721,-26.155052 -6.09567,-2.950861 -21.41124,-3.862554 -31.82371,-1.894376 -15.34001,2.899594 -35.23191,18.088219 -46.72191,35.674891 -5.04674,7.72461 -5.05428,7.75714 -4.16374,18 0.97432,11.20641 2.973,18.92808 4.89937,18.92808 0.67647,0 1.22993,0.93913 1.22993,2.08696 0,3.36877 13.38328,15.73288 21.26179,19.64265 5.11621,2.53896 9.44967,3.63292 14.66667,3.70255 4.07268,0.0544 10.08301,0.50436 13.35628,1 8.39717,1.27152 39.00521,-0.4466 42.64339,-2.3937 z m -89.59263,-3.03197 c -0.30436,-0.91309 -4.10436,-2.40399 -8.44444,-3.31309 -14.34965,-3.00582 -30.41765,-8.87619 -40.55773,-14.81759 -20.59758,-12.06881 -25.69085,-16.50753 -33.2838,-29.0064 -3.799,-6.25359 -4.14642,-7.82471 -4.34373,-19.643344 -0.19279,-11.548273 0.0807,-13.160217 2.70653,-15.955349 3.91786,-4.170358 3.6965,-4.937385 -1.42493,-4.937385 -2.9552,0 -4.89922,0.885935 -6.07488,2.768472 -2.91802,4.67248 -3.44199,14.958606 -1.15919,22.755866 1.15008,3.92828 2.41967,8.64233 2.82132,10.47566 0.40165,1.83333 2.49963,5.32222 4.66216,7.75307 2.16255,2.43086 4.11895,4.83086 4.34755,5.33334 0.92108,2.02455 20.40029,17.58026 22.01441,17.58026 0.954,0 1.73456,0.50192 1.73456,1.11536 0,1.51392 20.83472,12.21797 23.78144,12.21797 1.29355,0 2.9219,0.53357 3.61856,1.18572 1.9066,1.78475 21.99467,7.44375 28.37778,7.99428 0.97779,0.0843 1.52876,-0.59375 1.22439,-1.50684 z M 182.83819,131.07143 c -4.0179,-3.14448 -14.36118,-17.50048 -19.17205,-26.60993 -2.00625,-3.79886 -2.11169,-5.249947 -0.75107,-10.337131 1.9021,-7.111745 0.20016,-10.124371 -5.71958,-10.124371 -5.12143,0 -7.00502,5.976843 -2.9248,9.280791 1.46997,1.190315 3.418,4.539084 4.32896,7.441711 2.50728,7.98915 4.60572,12.61083 5.72584,12.61083 0.55432,0 1.00785,0.80701 1.00785,1.79335 0,0.98634 1.2,2.87934 2.66667,4.20665 1.46666,1.32732 2.66666,3.1239 2.66666,3.99241 0,1.63848 6.2099,7.71549 11.99307,11.73643 5.03282,3.49924 5.1923,-0.0668 0.17845,-3.99074 z M 154.91755,88.348644 c 0.66935,-3.47565 5.08246,-3.863268 5.08246,-0.446411 0,1.908132 -0.85631,2.764432 -2.76443,2.764432 -1.90813,0 -2.62616,-0.718021 -2.31803,-2.318021 z M 132.00001,128.9913 c 0,-0.92145 -2.55,-2.4656 -5.66667,-3.43145 -3.11667,-0.96584 -8.96667,-3.43964 -13,-5.49731 C 92.379343,109.37249 82.333824,103.89527 78.379099,101.00411 71.647506,96.082874 55.36482,86.666665 53.586518,86.666665 c -3.414022,0 -1.329428,3.491583 3.413485,5.717399 6.935801,3.254925 18.197808,9.436956 22.628697,12.421536 6.181781,4.16394 8.704163,5.61449 17.037971,9.79804 4.399999,2.20878 8.899999,4.59644 9.999999,5.3059 1.1,0.70947 5.9,2.92456 10.66667,4.92242 4.76667,1.99787 9.23667,4.12799 9.93333,4.7336 1.91253,1.66255 4.73334,1.32033 4.73334,-0.57426 z m 60.35695,-26.56427 c -6.62327,-9.782457 -8.36639,-15.670312 -6.59927,-22.290849 1.35295,-5.068837 1.24729,-5.924582 -0.92788,-7.515112 -1.93816,-1.417213 -3.05531,-1.460981 -5.30892,-0.207993 -5.52638,3.072619 -5.51455,5.921429 0.0464,11.189924 1.70464,1.614984 3.09934,4.025704 3.09934,5.357154 0,1.331451 1.5,4.628267 3.33334,7.32626 1.83333,2.697992 3.33333,5.348606 3.33333,5.890246 0,1.3952 5.6704,7.26405 6.356,6.57845 0.31224,-0.31224 -1.18733,-3.15988 -3.33238,-6.32808 z M 178.67977,78.015776 c -1.33715,-1.611164 -1.22566,-2.145816 0.59302,-2.843709 2.62702,-1.00808 5.42806,1.281925 4.13235,3.378422 -1.23039,1.990815 -2.77437,1.816102 -4.72537,-0.534713 z m -47.53131,13.204638 c -3.56498,-4.176586 -8.93225,-10.359783 -11.92725,-13.740438 -2.99501,-3.380653 -7.47018,-9.146644 -9.94483,-12.813311 -2.47466,-3.666666 -4.98299,-7.266666 -5.57409,-7.999999 -1.37679,-1.708115 -12.815619,-17.353671 -16.772339,-22.940524 -2.492591,-3.519515 -2.748518,-4.719507 -1.450003,-6.79876 0.891705,-1.427846 1.191377,-4.060653 0.689705,-6.059476 -0.737285,-2.937576 -1.636137,-3.534573 -5.321735,-3.534573 -9.944371,0 -11.964296,10.698661 -2.501171,13.2476 3.984698,1.073298 5.845467,2.757209 9.26137,8.381114 2.351128,3.870874 6.302811,9.143688 8.781515,11.717364 2.478704,2.573676 5.284598,6.132861 6.235318,7.9093 0.95072,1.776439 5.24904,7.66001 9.55182,13.074604 4.30278,5.414594 7.82324,10.309017 7.82324,10.876495 0,1.816931 15.8672,18.03743 16.76566,17.138971 0.47551,-0.475515 -2.05224,-4.28178 -5.61721,-8.458367 z M 76.149386,26.557069 c -3.067153,-1.227169 -3.09742,-1.369516 -0.82508,-3.880424 4.121804,-4.554543 11.179707,-1.30036 7.305159,3.368184 -1.850175,2.229325 -2.132639,2.251653 -6.480079,0.51224 z M 47.06191,84.299921 c 1.981182,-2.189181 1.889402,-2.689345 -1.223321,-6.666666 -3.835482,-4.900839 -5.075333,-5.141452 -11.073747,-2.14905 -3.699398,1.845503 -4.186725,2.648134 -3.432473,5.653311 0.483482,1.926341 1.581486,3.94926 2.440011,4.495376 2.98908,1.901384 11.098599,1.08798 13.28953,-1.332971 z m -9.589531,-1.520364 c -2.521041,-1.594609 -0.763416,-5.762 2.190257,-5.193174 1.285551,0.247574 2.337366,1.591918 2.337366,2.987432 0,2.958318 -1.885547,3.876909 -4.527623,2.205742 z"
       id="path1909" />
  </g>
</svg>
