<?xml version="1.0" encoding="UTF-8" standalone="no"?>
<!-- Created with Inkscape (http://www.inkscape.org/) -->

<svg
   version="1.1"
   id="svg1791"
   width="315"
   height="231.24805"
   viewBox="0 0 315 231.24805"
   sodipodi:docname="Well6d.svg"
   inkscape:version="1.2.2 (732a01da63, 2022-12-09, custom)"
   xmlns:inkscape="http://www.inkscape.org/namespaces/inkscape"
   xmlns:sodipodi="http://sodipodi.sourceforge.net/DTD/sodipodi-0.dtd"
   xmlns="http://www.w3.org/2000/svg"
   xmlns:svg="http://www.w3.org/2000/svg">
  <defs
     id="defs1795">
    <inkscape:path-effect
       effect="spiro"
       id="path-effect2899"
       is_visible="true"
       lpeversion="1" />
  </defs>
  <sodipodi:namedview
     id="namedview1793"
     pagecolor="#ffffff"
     bordercolor="#000000"
     borderopacity="0.25"
     inkscape:showpageshadow="2"
     inkscape:pageopacity="0.0"
     inkscape:pagecheckerboard="0"
     inkscape:deskcolor="#d1d1d1"
     showgrid="false"
     inkscape:zoom="2.2563585"
     inkscape:cx="172.40168"
     inkscape:cy="89.967972"
     inkscape:window-width="1920"
     inkscape:window-height="1031"
     inkscape:window-x="0"
     inkscape:window-y="25"
     inkscape:window-maximized="1"
     inkscape:current-layer="layer1" />
  <g
     inkscape:groupmode="layer"
     id="layer2"
     inkscape:label="Layer 1"
     transform="translate(-127,-349.17453)">
    <path
       style="fill:#000000"
       d="m 256,579.95617 c -14.13464,-0.73565 -47.74495,-5.23517 -50.75225,-6.79437 -0.96126,-0.49839 -3.93824,-1.2242 -6.6155,-1.61291 -5.81238,-0.8439 -26.10197,-7.70265 -33.13225,-11.20012 -2.75,-1.36808 -6.35,-3.76536 -8,-5.32728 -1.65,-1.56192 -4.575,-3.48829 -6.5,-4.28082 -5.09081,-2.09591 -10.64524,-8.27471 -11.89295,-13.22983 -0.58484,-2.32259 -1.12925,-11.82518 -1.20981,-21.11686 -0.0806,-9.29169 -0.16778,-18.91898 -0.19382,-21.39398 -0.026,-2.475 -0.004,-5.625 0.0494,-7 0.0532,-1.375 -0.12492,-7.14211 -0.39586,-12.81581 -0.29785,-6.23707 -0.093,-10.79728 0.518,-11.53354 0.63354,-0.76336 0.66456,-1.7649 0.0831,-2.68419 -0.51012,-0.80655 -0.93438,-9.42904 -0.9428,-19.16109 L 137,424.11074 l -5,-4.92175 -5,-4.92176 v -14.17345 c 0,-12.09411 0.28698,-14.73599 1.95615,-18.00783 4.38181,-8.58906 15.62795,-14.53052 37.8897,-20.01755 29.00654,-7.14948 52.23432,-10.27622 90.15415,-12.13585 87.20873,-4.27681 173.69389,10.04385 183.33324,30.35728 1.27105,2.67854 1.66676,6.39246 1.66676,15.64342 0,13.61418 -1.05802,17.45506 -6.30068,22.87308 l -3.19932,3.30633 -0.0943,19.19367 c -0.0519,10.55652 -0.3754,36.01027 -0.71899,56.56388 -0.79413,47.50436 0.54081,43.92661 -21.13486,56.6433 -9.09715,5.33711 -16.41653,8.62807 -30.05188,13.51201 -4.62654,1.65715 -31.0424,6.77649 -53.5,10.3682 -11.01568,1.76177 -50.48252,2.63029 -71,1.56245 z"
       id="path1909" />
    <g
       id="layer1"
       inkscape:label="01"
       style="fill:#ffeeaa">
      <path
         style="fill:#008080"
         d="m 338.19279,358.25324 7.30721,-2.74676 -8,-0.7546 c -4.4,-0.41502 -18.01298,-1.09148 -30.25106,-1.50324 L 284.99787,352.5 l 0.001,3.25 10e-4,3.25 9.75,0.12722 c 8.0349,0.10484 23.12109,0.86149 33.94279,1.70239 1.20603,0.0937 5.48103,-1.06565 9.5,-2.57637 z"
         id="path2059" />
      <path
         style="fill:#ff0000"
         d="m 277.75,359.38603 c 4.98634,-0.50333 5.25,-0.67361 5.25,-3.3906 0,-1.99112 -0.61354,-3.05538 -2.01847,-3.50129 -2.2312,-0.70816 -48.1749,1.26716 -54.40117,2.33894 l -3.91964,0.67472 6.41964,2.69521 c 6.36986,2.67431 6.56309,2.6914 24.91964,2.20409 10.175,-0.27012 20.8625,-0.7296 23.75,-1.02107 z"
         id="path2057" />
      <path
         style="fill:#ff9955"
         d="m 392.59378,366.83535 c 5.21231,-0.64055 9.12352,-1.51616 8.69157,-1.94578 -1.0469,-1.04129 -22.76369,-5.34773 -38.07322,-7.54993 l -12.28786,-1.76755 -7.09032,2.41389 -7.09032,2.41389 14.87819,2.28402 c 8.183,1.25621 17.57818,2.91362 20.87818,3.68314 7.81075,1.82137 8.88086,1.84631 20.09378,0.46832 z"
         id="path2055" />
      <path
         style="fill:#ff9955"
         d="m 196.72062,366.61542 c 5.41642,-1.31152 15.58143,-2.96517 22.58891,-3.67479 7.00748,-0.70962 12.39204,-1.60599 11.96567,-1.99193 C 229.42825,359.27685 218.58235,356 214.89571,356 c -7.10138,0 -54.06463,8.18825 -51.89571,9.04825 0.275,0.10904 5.45,0.98733 11.5,1.95175 6.05,0.96442 11.30883,1.80896 11.68629,1.87675 0.37747,0.0678 5.11791,-0.94981 10.53433,-2.26133 z"
         id="path2053" />
      <path
         style="fill:#008080"
         d="m 329.94968,377.38365 c 0.24958,-0.24958 0.57632,-3.49906 0.72609,-7.22107 l 0.27231,-6.76729 -17.22404,-1.20408 c -9.47322,-0.66225 -19.79993,-1.20119 -22.94824,-1.19765 l -5.72419,0.006 0.10356,8 0.10356,8 11.12064,0.0992 c 6.11634,0.0546 14.94563,0.44276 19.62063,0.86261 7.91056,0.71042 12.86647,0.505 13.94968,-0.57821 z"
         id="path2051" />
      <path
         style="fill:#ff0000"
         d="m 249.5,377.86969 c 5.5,-0.58243 14.78021,-0.97832 20.62269,-0.87975 l 10.62269,0.17922 0.87731,-2.83458 c 0.48252,-1.55902 0.73914,-5.25913 0.57027,-8.22248 l -0.30704,-5.3879 -13.19296,0.65928 c -7.25613,0.3626 -17.35546,1.17744 -22.44296,1.81075 L 237,364.3457 v 7.32715 c 0,5.21408 0.36049,7.31686 1.25,7.29148 0.6875,-0.0196 5.75,-0.51221 11.25,-1.09464 z"
         id="path2049" />
      <path
         style="fill:#ff0000"
         d="m 434,379.60425 c 0,-3.47515 -19.65445,-12.67283 -26.77283,-12.52887 -2.04994,0.0415 -7.55217,0.60575 -12.22717,1.25399 l -8.5,1.17861 6.17433,2.27214 c 4.09052,1.5053 7.12799,3.42019 9,5.67381 l 2.82567,3.40168 14.75,0.0722 c 11.98931,0.0587 14.75,-0.18904 14.75,-1.32355 z"
         id="path2047" />
      <path
         style="fill:#008080"
         d="m 167.31715,377.65962 c 1.75057,-1.83721 5.43285,-4.16159 8.18285,-5.16529 2.75,-1.00369 5.35845,-2.13147 5.79655,-2.50616 1.22466,-1.04742 -19.53552,-3.33405 -24.84068,-2.73609 C 149.68923,368.01478 132,377.56247 132,380.45203 132,380.75342 139.23022,381 148.06715,381 h 16.06715 z"
         id="path2045" />
      <path
         style="fill:#ff9955"
         d="m 379.65053,378.53433 -0.0535,-8.46568 -6.54851,-1.47708 c -5.81438,-1.31149 -19.26643,-3.2658 -34.79852,-5.05551 L 333,362.93111 v 7.93179 7.93179 l 6.74162,1.174 c 3.7079,0.64571 10.1204,1.57121 14.25,2.05668 4.12961,0.48547 10.88338,1.77858 15.00838,2.87359 11.37194,3.01875 10.71233,3.41292 10.65053,-6.36463 z"
         id="path2043" />
      <path
         style="fill:#ff9955"
         d="m 199.5,384.01244 c 3.95749,-1.21316 12.86771,-2.66015 20.5,-3.32914 l 13.5,-1.1833 0.28853,-8.13151 0.28853,-8.1315 -4.78853,0.45034 c -11.82569,1.11214 -27.53886,3.48468 -31.95737,4.82525 -2.65714,0.80617 -5.84366,1.47064 -7.08116,1.4766 -2.16546,0.0104 -2.25,0.34815 -2.25,8.98938 0,8.91093 0.017,8.97179 2.25,8.07914 1.2375,-0.49469 5.4,-1.86506 9.25,-3.04526 z"
         id="path2041" />
      <path
         style="fill:#ff0000"
         d="m 396.69567,389.044 c 1.75761,-1.07168 3.94687,-3.095 4.86501,-4.49626 1.54568,-2.35901 1.54862,-2.73198 0.0397,-5.03488 -1.81251,-2.76625 -6.87555,-5.62532 -13.42898,-7.58328 -5.58661,-1.66911 -6.13595,-0.84483 -6.15609,9.23709 -0.0149,7.45921 0.0591,7.69384 2.73469,8.67105 4.35051,1.58894 8.48896,1.31397 11.94567,-0.79372 z"
         id="path2039" />
      <path
         style="fill:#008080"
         d="m 182.04506,389.1646 c 1.93081,-1.56348 2.33665,-3.04506 2.73927,-10 0.25995,-4.49053 0.23722,-8.1646 -0.0505,-8.1646 -0.28773,0 -3.40058,0.88875 -6.91744,1.97499 -4.0903,1.26337 -7.45401,3.08112 -9.33536,5.04483 -2.79042,2.91256 -2.86479,3.2084 -1.45175,5.775 1.38725,2.51976 8.91225,7.20518 11.57184,7.20518 0.64753,0 2.1973,-0.82593 3.44395,-1.8354 z"
         id="path2037" />
      <path
         style="fill:#ff0000"
         d="M 275.75,394.37592 295,393.69658 v -5.94978 -5.94978 l -7.25,0.69597 c -19.89716,1.91007 -43.54013,6.83057 -44.47986,9.25701 -0.26627,0.6875 -0.20162,1.98618 0.14366,2.88596 0.52493,1.36794 1.64835,1.5363 6.85699,1.02764 3.42607,-0.33458 14.89171,-0.91404 25.47921,-1.28768 z"
         id="path2035" />
      <path
         style="fill:#ff9955"
         d="m 238.59798,395.73535 c 0.31835,-0.31835 0.42654,-1.26152 0.24042,-2.09593 -0.29032,-1.30157 -1.01328,-1.22354 -5.0884,0.54921 -2.6125,1.13649 -4.75,2.38763 -4.75,2.78032 0,0.79513 8.68559,-0.32121 9.59798,-1.2336 z"
         id="path2033" />
      <path
         style="fill:#ff9955"
         d="m 369.58104,396.46708 c 7.5428,-1.3931 14.37761,-2.90419 15.18847,-3.35797 2.43905,-1.36496 -27.16267,-7.66294 -30.32095,-6.451 -2.0606,0.79073 -2.07476,12.34189 -0.0151,12.34189 0.78838,0 7.60481,-1.13981 15.14761,-2.53292 z"
         id="path2031" />
      <path
         style="fill:#008080"
         d="m 348.5,392 v -6.5 l -6.5,-0.74259 c -9.27938,-1.06012 -39.17006,-2.48155 -41.25,-1.96161 -1.39234,0.34806 -1.75,1.52392 -1.75,5.75344 0,4.20891 0.36444,5.41836 1.75,5.80755 0.9625,0.27037 7.825,0.7992 15.25,1.1752 7.425,0.37599 16.875,1.26126 21,1.96727 11.71426,2.00494 11.5,2.1074 11.5,-5.49926 z"
         id="path2029" />
      <path
         style="fill:#008080"
         d="m 425.28984,397.86942 c 6.52321,-3.30112 9.60354,-5.76256 11.28808,-9.02009 C 439.33391,383.51982 437.8665,383 420.06561,383 h -15.68949 l -2.212,2.99189 c -2.43261,3.29027 -7.2547,6.06088 -14.16412,8.13822 l -4.5,1.35294 14.5,2.11841 c 19.22214,2.80829 22.21197,2.83765 27.28984,0.26796 z"
         id="path2027" />
      <path
         style="fill:#ff0000"
         d="m 169.65054,397.96965 c 15.37613,-2.25416 16.50909,-2.51082 14.34946,-3.25068 -11.0779,-3.79511 -14.74897,-5.53461 -17.5124,-8.29804 l -3.22938,-3.22937 -16.37911,-0.29669 -16.37911,-0.2967 0.18978,2.71197 c 0.29325,4.19073 3.64051,8.03454 10.00177,11.4855 7.05342,3.82646 10.04015,3.94754 28.95899,1.17401 z"
         id="path2025" />
      <path
         style="fill:#ffeeaa"
         d="m 317.5,402.15786 c 9.84434,-1.31308 2.22339,-2.60403 -18.5,-3.1338 -25.3181,-0.64723 -28,-0.44791 -28,2.08098 0,1.80188 1.01923,1.89066 20.75,1.80735 11.4125,-0.0482 23,-0.38772 25.75,-0.75453 z"
         id="path2023" />
      <path
         style="fill:#ffeeaa"
         d="m 266,401.00844 c 0,-1.91168 -0.4913,-1.96847 -12.25,-1.41598 -20.28669,0.95317 -17.51635,2.06689 8,3.21612 3.6414,0.16401 4.25,-0.0938 4.25,-1.80014 z"
         id="path2021" />
      <path
         style="fill:#ff9955"
         d="m 380.94427,410.48311 c 17.00374,-3.15919 33.64014,-7.59434 31.88761,-8.50101 -0.73253,-0.37897 -8.98746,-1.69799 -18.34428,-2.93116 l -17.01239,-2.24211 -12.48761,2.07518 c -6.86818,1.14135 -15.5251,2.37151 -19.2376,2.73368 -3.7125,0.36217 -6.75,0.97242 -6.75,1.3561 0,1.20219 22.34664,9.94553 25.5,9.97713 1.65,0.0165 9.04992,-1.09398 16.44427,-2.46781 z"
         id="path2019" />
      <path
         style="fill:#ff9955"
         d="m 219.82433,407.75 c 11.9091,-4.9325 12.43377,-5.26418 8.67567,-5.48439 -7.63424,-0.44736 -22.02906,-2.47398 -27.4601,-3.86607 -7.35779,-1.88596 -14.65424,-1.66248 -33.0399,1.01198 -14.30414,2.08075 -15.26854,2.35033 -12.5,3.49418 8.18981,3.3837 38.43811,9.76724 47.32433,9.98724 3.11257,0.0771 7.87631,-1.36409 17,-5.14294 z"
         id="path2017" />
      <path
         style="fill:#ff0000"
         d="m 336.5,415.87614 c 23.10139,-1.74798 22.85803,-1.507 7.85448,-7.77772 L 331.5,402.7259 l -18,1.15501 c -9.9,0.63525 -20.3625,1.14693 -23.25,1.13705 L 285,405 v 6.63299 6.633 l 18.75,-0.66527 c 10.3125,-0.36589 25.05,-1.14195 32.75,-1.72458 z"
         id="path2015" />
      <path
         style="fill:#008080"
         d="m 283,412.03518 c 0,-6.61315 -1.36978,-8.26064 -6.11412,-7.3537 -1.42607,0.27261 -11.32128,0.004 -21.98936,-0.59732 L 235.5,402.99117 l -12.87965,5.25442 c -12.71239,5.18617 -12.82927,5.26277 -9,5.89838 7.35899,1.2215 41.8761,3.38276 58.62965,3.67105 L 283,418 Z"
         id="path2013" />
      <path
         style="fill:#008080"
         d="M 426.8848,419.5 C 436.75238,412.74878 437,412.30903 437,401.53645 v -9.61739 l -2.63961,2.44759 c -1.45179,1.34617 -5.05179,3.66804 -8,5.15969 L 421,402.23845 v 10.46411 c 0,5.75526 0.3375,10.31411 0.75,10.13077 0.4125,-0.18333 2.72316,-1.68333 5.1348,-3.33333 z"
         id="path2011" />
      <path
         style="fill:#ff0000"
         d="M 147.30308,412.11869 147.5,402.0102 l -6,-3.14373 c -3.3,-1.72905 -7.0125,-4.05979 -8.25,-5.17941 L 131,391.65137 v 9.67144 c 0,9.66309 0.003,9.67479 3.52799,13.5765 3.01188,3.33378 11.3381,8.49834 12.27509,7.61394 0.16669,-0.15734 0.39169,-4.83489 0.5,-10.39456 z"
         id="path2009" />
      <path
         style="fill:#ff9955"
         d="m 375.81212,435.53444 c 4.57167,-0.80455 13.12167,-2.61084 19,-4.01398 24.20288,-5.77715 22.99599,-4.795 22.88341,-18.62216 -0.0701,-8.60616 -0.29337,-9.87766 -1.63833,-9.32861 -9.39133,3.83382 -27.06718,8.05897 -43.8072,10.47145 -9.30835,1.34147 -8.43463,0.052 -8.781,12.95886 -0.19573,7.29372 0.59055,10.00144 2.90344,9.99863 0.62016,-7.5e-4 4.86802,-0.65964 9.43968,-1.46419 z"
         id="path2007" />
      <path
         style="fill:#ff9955"
         d="m 204.424,426.02434 c 0.0887,-12.23171 1.73445,-10.8332 -15.924,-13.53206 -6.05,-0.92466 -16.175,-3.02996 -22.5,-4.67844 -6.325,-1.64848 -12.5125,-3.23343 -13.75,-3.52212 -2.21936,-0.51773 -2.25,-0.38746 -2.25,9.56602 v 10.0909 l 2.89496,1.49704 c 1.59223,0.82337 4.62973,1.93216 6.75,2.46398 2.12027,0.53182 7.65008,1.94943 12.28846,3.15025 10.77239,2.78885 26.85373,5.78697 29.99058,5.5913 2.39622,-0.14948 2.42486,-0.27121 2.5,-10.62687 z"
         id="path2005" />
      <path
         style="fill:#ff0000"
         d="M 331.46199,440.49201 C 338.04109,439.6714 346.63384,439 350.55701,439 c 9.96573,0 10.50468,-0.73098 9.98982,-13.54919 -0.21983,-5.47295 -0.77029,-9.92854 -1.22326,-9.90131 -0.45296,0.0272 -2.84857,0.37431 -5.32357,0.77131 -10.78882,1.73054 -40.4945,3.86797 -51.53705,3.70827 -6.62038,-0.0957 -13.25788,0.13233 -14.75,0.50683 L 285,421.21682 V 431.60841 442 l 17.25,-0.008 c 9.4875,-0.004 22.6329,-0.67939 29.21199,-1.5 z"
         id="path2003" />
      <path
         style="fill:#008080"
         d="m 154.47319,437.25 c -0.35715,-2.6125 -1.39723,-5.32981 -2.31128,-6.03848 C 148.6231,428.46789 142.86152,425 141.84205,425 c -1.59871,0 -5.1e-4,9.11724 1.99682,11.39123 1.54267,1.75636 8.62927,5.53691 10.4724,5.58681 0.4462,0.0121 0.51906,-2.11554 0.16192,-4.72804 z"
         id="path2001" />
      <path
         style="fill:#008080"
         d="m 281.64015,441.77324 c 0.86,-1.39151 1.50778,-18.43265 0.79314,-20.86509 -0.40583,-1.38136 -3.19841,-1.6164 -21.11926,-1.77755 -11.35838,-0.10213 -23.61314,-0.60029 -27.23281,-1.10702 -3.61967,-0.50673 -11.16019,-1.23136 -16.7567,-1.61028 l -10.17549,-0.68894 -0.34102,9.38782 c -0.18756,5.1633 -0.0302,10.33993 0.34971,11.50363 0.73129,2.24002 1.41625,2.33646 28.34228,3.9905 4.4,0.27028 12.5,0.85021 18,1.28872 16.4084,1.30823 27.28544,1.26116 28.14015,-0.12179 z"
         id="path1999" />
      <path
         style="fill:#ff9955"
         d="m 405.62701,445.9621 c 10.96361,-3.37348 13.7948,-5.1494 10.73965,-6.73666 -3.80072,-1.97462 -10.83128,-2.32561 -15.26304,-0.762 -2.37412,0.83764 -4.73838,1.26229 -5.2539,0.94368 -1.3926,-0.86067 -3.84972,1.55263 -3.84972,3.78107 0,2.33772 1.74081,5.81181 2.9122,5.81181 0.463,0 5.28467,-1.36706 10.71481,-3.0379 z"
         id="path1997" />
      <path
         style="fill:#ff0000"
         d="m 203.42857,452.42857 c 1.81112,-1.81111 2.10409,-6.98133 0.45341,-8.00151 -0.61491,-0.38004 -8.15241,-1.97399 -16.75,-3.54212 -8.59759,-1.56813 -16.53198,-3.29455 -17.63198,-3.83649 -1.1,-0.54194 -4.41882,-1.87771 -7.37516,-2.96838 l -5.37516,-1.98304 0.55192,4.11491 c 0.81837,6.1014 3.48892,8.98262 10.29841,11.11082 20.41604,6.38068 32.79028,8.1441 35.82856,5.10581 z"
         id="path1995" />
      <path
         style="fill:#ff0000"
         d="m 360,456.05111 c 8.09314,-1.0733 21.90659,-3.69255 24.27778,-4.60346 2.53136,-0.97244 3.87731,-3.98153 3.1238,-6.98377 -0.62543,-2.4919 -0.83299,-2.55567 -6.2742,-1.92766 -8.49989,0.98103 -21.07687,3.18427 -26.12738,4.577 -2.475,0.68251 -7.425,1.31153 -11,1.39782 -3.575,0.0863 -7.0625,0.23161 -7.75,0.32293 -2.13061,0.283 -1.37802,4.12892 1.3398,6.84674 2.8068,2.8068 3.90212,2.8249 22.4102,0.3704 z"
         id="path1993" />
      <path
         style="fill:#008080"
         d="M 326.31096,459.07187 C 329.41728,457.89085 332,454.30272 332,451.16819 c 0,-2.36088 -0.0841,-2.38042 -7.75,-1.80005 -4.2625,0.32271 -18.2125,0.88236 -31,1.24366 L 270,451.26872 v 3.66564 c 0,6.30866 -0.25422,6.25774 28.16188,5.64053 14.11403,-0.30656 26.78112,-0.98292 28.14908,-1.50302 z"
         id="path1991" />
      <path
         style="fill:#ff9955"
         d="m 265.93061,459.25727 c 1.99047,-1.61179 2.25171,-2.47188 1.67862,-5.5267 -0.87415,-4.65966 -2.39875,-5.10452 -14.52032,-4.23693 -7.78934,0.55751 -10.45534,0.3801 -13.51804,-0.89958 -2.09832,-0.87673 -6.12266,-1.59657 -8.94299,-1.59964 -2.82034,-0.003 -6.70288,-0.41878 -8.62788,-0.9238 -1.925,-0.50503 -6.3125,-1.2217 -9.75,-1.59261 L 206,443.80363 v 3.55113 c 0,8.37579 2.65337,10.03279 18,11.24082 4.675,0.36799 9.04445,0.94703 9.70989,1.28675 0.66544,0.33972 7.65693,0.76755 15.53664,0.95073 12.90305,0.29996 14.56101,0.14337 16.68408,-1.57579 z"
         id="path1989" />
      <path
         style="fill:#ff9955"
         d="m 420.84563,465.16273 c 1.4599,-1.01051 3.44187,-2.12138 4.40437,-2.46862 2.31509,-0.83521 2.22243,-4.34063 -0.25,-9.45797 -1.1,-2.27674 -2,-5.00617 -2,-6.06539 0,-1.05922 -0.72654,-2.52884 -1.61454,-3.26581 -1.39063,-1.15412 -1.94535,-0.95534 -4,1.43332 -2.14979,2.49929 -2.38546,3.70629 -2.38546,12.2175 0,10.42935 0.61389,11.22821 5.84563,7.60697 z"
         id="path1987" />
      <path
         style="fill:#008080"
         d="m 176.89575,472.19479 c 0.56812,-1.06154 0.6856,-5.49012 0.28519,-10.75 L 176.5,452.5 172,451.19371 c -4.39243,-1.27506 -19.29565,-6.65821 -25.71183,-9.2873 -1.76651,-0.72384 -3.56134,-0.96657 -3.98852,-0.5394 -1.09827,1.09828 -0.40504,16.56755 0.84732,18.9076 1.60488,2.99875 25.62724,13.58563 31.06785,13.6919 0.94315,0.0184 2.14957,-0.77886 2.68093,-1.77172 z"
         id="path1985" />
      <path
         style="fill:#ff0000"
         d="m 391.55556,475.98567 c 6.42369,-1.65627 12.96929,-3.77335 14.54578,-4.7046 4.69043,-2.77071 6.17201,-7.18495 5.35126,-15.9436 -0.81766,-8.7257 0.8908,-8.29761 -15.9526,-3.9973 -5.5,1.40422 -12.55974,3.05327 -15.68832,3.66457 -3.12858,0.61129 -7.17858,2.113 -9,3.33712 -3.13673,2.10809 -3.34211,2.62011 -3.88771,9.69191 -0.42727,5.53793 -0.2064,8.0797 0.85516,9.84155 1.30948,2.17331 1.88476,2.32202 6.76411,1.74854 2.93309,-0.34472 10.58864,-1.98191 17.01232,-3.63819 z"
         id="path1983" />
      <path
         style="fill:#ff0000"
         d="M 232.61807,484.13027 235.5,483.36294 236,472.34578 c 0.31527,-6.9468 0.13054,-11.09291 -0.5,-11.2222 -0.55,-0.11277 -4.91736,-0.37271 -9.70525,-0.57764 -4.78789,-0.20492 -9.15546,-0.65084 -9.70573,-0.99092 -0.55026,-0.34008 -7.4329,-1.74075 -15.29475,-3.1126 -7.86185,-1.37185 -15.05875,-2.73062 -15.99312,-3.0195 -0.9553,-0.29535 -2.59659,0.37252 -3.75,1.52593 C 179.3047,456.6953 179,458.26267 179,465.5 c 0,9.28101 1.57113,12.43777 6.25,12.55765 1.2375,0.0317 5.4,0.96081 9.25,2.06469 19.15729,5.49278 28.7522,6.50164 38.11807,4.00793 z"
         id="path1981" />
      <path
         style="fill:#008080"
         d="m 333.5,485.44296 c 22.38614,-2.23337 26.20287,-3.30064 28.30531,-7.91502 0.65708,-1.44212 1.19469,-5.69577 1.19469,-9.45255 0,-9.5118 -0.22978,-9.63999 -14.77918,-8.24463 -6.44645,0.61825 -16.97999,1.35961 -23.40786,1.64748 -12.46897,0.5584 -15.98988,1.41559 -19.56296,4.76269 -1.97581,1.85085 -2.25,3.09792 -2.25,10.23338 0,4.81085 0.47119,8.59688 1.15502,9.28071 1.11984,1.11984 16.64743,0.95472 29.34498,-0.31206 z"
         id="path1979" />
      <path
         style="fill:#ff9955"
         d="m 297,485.70867 c 2.33911,-1.18064 2.51856,-1.82079 2.78837,-9.94689 0.43097,-12.97951 1.89979,-12.29999 -28.3811,-13.12978 C 239.05181,461.74537 237,462.28341 237,471.65456 c 0,5.68256 1.86424,11.50815 4.14797,12.96202 3.40931,2.17045 51.83941,3.11742 55.85203,1.09209 z"
         id="path1977" />
      <path
         style="fill:#ff9955"
         d="m 154.51694,481.25 c -0.39649,-5.3625 -1.2074,-10.34539 -1.80202,-11.07309 C 151.49906,468.68893 144.62324,465 143.06564,465 c -1.51742,0 -1.0853,15.99256 0.51685,19.12817 1.53039,2.99517 7.00501,6.82991 9.78643,6.85498 1.74738,0.0157 1.82204,-0.61719 1.14802,-9.73315 z"
         id="path1975" />
      <path
         style="fill:#ff0000"
         d="m 406.29533,497.08048 c 7.59833,-2.83866 14.50696,-7.13167 15.18554,-9.43627 0.1853,-0.62932 1.50291,-4.79362 2.92802,-9.25401 2.65379,-8.30597 3.17218,-11.91305 1.83119,-12.74182 -0.41796,-0.25831 -3.65994,1.27457 -7.2044,3.40642 -3.54446,2.13184 -7.81499,4.1481 -9.49007,4.48057 -7.16045,1.42122 -15.63039,4.75453 -16.57736,6.52395 -1.10704,2.06852 -0.78715,16.80666 0.40672,18.73837 1.16005,1.877 4.48113,1.43561 12.92036,-1.71721 z"
         id="path1973" />
      <path
         style="fill:#008080"
         d="M 202.41821,506.39301 C 203.69792,505.90194 204,504.073 204,496.81609 c 0,-8.46928 -0.15472,-9.12465 -2.77196,-11.7419 -2.06657,-2.06657 -4.80218,-3.21358 -10.75,-4.50739 -4.38792,-0.95449 -12.54519,-3.04749 -18.12726,-4.65112 -11.83552,-3.40012 -11.73344,-3.39016 -13.77935,-1.34425 -3.27443,3.27443 -1.38759,18.04307 2.66811,20.8838 2.74351,1.92163 14.90964,5.98392 26.94112,8.99568 10.3951,2.60214 11.96092,2.81573 14.23755,1.9421 z"
         id="path1971" />
      <path
         style="fill:#008080"
         d="M 353.38666,509.95192 C 358.399,509.37547 364.525,508.49709 367,507.99995 c 2.475,-0.49713 7.17145,-1.42482 10.43655,-2.06154 4.17083,-0.81333 6.77336,-1.99447 8.75,-3.97111 2.57917,-2.57917 2.81345,-3.43149 2.81345,-10.23539 0,-6.19161 -0.33694,-7.72686 -2.03259,-9.2614 -1.95279,-1.76726 -2.45334,-1.77383 -12.75,-0.16748 -5.89458,0.9196 -14.70402,2.15091 -19.57655,2.73625 C 338.69873,486.95441 335,489.8312 335,500.31548 c 0,3.96381 0.55538,6.12086 2.07258,8.04966 2.35596,2.99512 3.28365,3.08535 16.31408,1.58678 z"
         id="path1969" />
      <path
         style="fill:#ff9955"
         d="m 316.80456,513.11652 c 9.01054,-0.67426 10.60698,-1.07532 12.71291,-3.1938 2.12567,-2.13835 2.42859,-3.41037 2.58079,-10.83716 0.2219,-10.82779 -0.56775,-11.60807 -10.59826,-10.47245 -3.85,0.43588 -14.875,0.65576 -24.5,0.48861 -14.72123,-0.25565 -18.17948,-0.0306 -21.77917,1.41744 -5.42888,2.18383 -6.22946,3.76441 -5.60326,11.06255 0.75846,8.83953 1.13067,9.99288 3.61069,11.1881 2.65955,1.28173 28.34936,1.48613 43.5763,0.34671 z"
         id="path1967" />
      <path
         style="fill:#ff0000"
         d="M 264.91155,511.58005 C 266.70487,509.95711 267,508.53538 267,501.51933 c 0,-7.37076 -0.23909,-8.39531 -2.44206,-10.4649 -3.24901,-3.05228 -12.11683,-3.89738 -38.05211,-3.62634 l -19.99418,0.20895 -0.64755,3.93148 c -0.35615,2.16231 -0.29922,6.15917 0.12651,8.88189 1.12568,7.19914 3.61736,8.93867 15.03945,10.49957 24.89612,3.40222 40.56963,3.62726 43.88149,0.63007 z"
         id="path1965" />
      <path
         style="fill:#ff0000"
         d="m 416.41555,511.77219 c 0.94218,-10.10064 2.04888,-12.95539 6.68541,-17.24527 2.21667,-2.05094 3.8303,-3.92899 3.58584,-4.17345 -0.57807,-0.57807 -10.96279,5.5291 -11.92149,7.01094 -1.04469,1.61476 -0.9459,22.86523 0.10329,22.2168 0.47773,-0.29526 1.17386,-3.80931 1.54695,-7.80902 z"
         id="path1963" />
      <path
         style="fill:#ff9955"
         d="m 175.8,525.8 c 1.70752,-1.70752 1.63497,-20.19412 -0.0849,-21.62145 -0.70667,-0.58648 -4.64417,-2.26597 -8.75,-3.7322 -4.10583,-1.46622 -10.96899,-4.47512 -15.25147,-6.68644 -4.28248,-2.21132 -8.01784,-3.78907 -8.3008,-3.50612 -0.97271,0.97272 -0.6408,16.24839 0.41062,18.89794 1.45082,3.65603 6.81621,7.5197 18.0943,13.02989 10.29089,5.02787 12.02161,5.47898 13.88221,3.61838 z"
         id="path1961" />
      <path
         style="fill:#008080"
         d="m 381.5,532.51618 c 8.79038,-2.20629 16.09608,-5.46398 20.42801,-9.10906 4.62151,-3.88874 8.05004,-11.61021 8.06222,-18.15712 0.0115,-6.18634 -0.48615,-6.35294 -9.58368,-3.20843 -3.2486,1.12286 -10.18155,2.97164 -15.40655,4.10839 -11.54442,2.51162 -16.74379,4.5028 -18.02917,6.90455 -1.45342,2.71573 -1.23125,19.28089 0.27917,20.81555 1.4131,1.43577 4.18449,1.17246 14.25,-1.35388 z"
         id="path1959" />
      <path
         style="fill:#008080"
         d="m 233.71023,538 c 0.73866,-1.46527 1.26639,-6.32848 1.27503,-11.75 0.0126,-7.9286 -0.27097,-9.53571 -1.98526,-11.25 -1.1,-1.1 -3.0125,-2.02311 -4.25,-2.05135 -3.05441,-0.0697 -14.66469,-1.5915 -17.75,-2.32654 -7.17728,-1.7099 -23.87171,-4.77751 -26.39904,-4.85084 C 180.25118,505.64508 179,508.18158 179,517.12603 c 0,9.86167 1.04766,12.57811 5.5817,14.47256 6.32109,2.64111 25.07259,6.40023 32.10876,6.43685 4.06923,0.0212 7.81559,0.61867 9.30954,1.48477 3.44073,1.9947 6.21395,1.44791 7.71023,-1.52021 z"
         id="path1957" />
      <path
         style="fill:#ff9955"
         d="m 332.57015,541.0908 c 24.57858,-1.51409 31.95468,-4.93596 29.52245,-13.69585 -0.59479,-2.14222 -1.08396,-6.20931 -1.08702,-9.03796 -0.004,-3.91646 -0.41139,-5.29874 -1.70716,-5.79597 -0.93587,-0.35913 -8.69837,0.0341 -17.25,0.87379 -8.55163,0.83971 -20.0247,1.93343 -25.49571,2.43049 -11.80835,1.07284 -12.93576,1.96493 -13.9635,11.049 -0.77936,6.88856 0.62098,13.50208 3.19042,15.06782 0.9462,0.57659 3.74537,0.83466 6.22037,0.57349 2.475,-0.26117 11.73157,-0.92034 20.57015,-1.46481 z"
         id="path1955" />
      <path
         style="fill:#ff0000"
         d="m 298.232,542.22242 c 2.27637,-1.88922 3.21484,-20.89152 1.18477,-23.98979 -1.48183,-2.26156 -1.89567,-2.3218 -14.22151,-2.07015 -6.98239,0.14255 -19.89526,-0.12034 -28.69526,-0.58422 -15.8135,-0.83357 -16.02331,-0.81733 -18,1.39344 -1.57973,1.76682 -2.07309,3.97648 -2.34781,10.51556 -0.38929,9.2659 0.56638,12.06578 4.65861,13.64866 3.08824,1.19452 32.05443,2.74626 46.32244,2.48151 5.83955,-0.10835 10.21038,-0.65772 11.09876,-1.39501 z"
         id="path1953" />
      <path
         style="fill:#ff0000"
         d="m 155,535.43426 c 0,-5.81116 -0.47339,-11.45028 -1.05198,-12.53138 -1.35166,-2.5256 -8.92629,-8.03434 -10.07295,-7.32567 -1.0483,0.64789 -1.02781,9.81913 0.0387,17.32924 0.64927,4.57184 1.40389,5.9998 4.88828,9.25 C 151.06834,544.2704 153.38998,546 153.96128,546 154.61403,546 155,542.07401 155,535.43426 Z"
         id="path1951" />
      <path
         style="fill:#008080"
         d="m 395.16526,551.69077 c 0.3659,-3.65597 1.17637,-8.19589 1.80105,-10.08869 1.48022,-4.48512 7.65503,-10.08644 19.47787,-17.66886 5.2557,-3.37068 9.55582,-6.53456 9.55582,-7.03086 0,-1.36921 -0.51812,-1.15991 -5.57192,2.25086 -4.85903,3.27932 -23.0213,11.83348 -25.1429,11.84194 -2.44022,0.01 -3.28518,4.13075 -3.28518,16.02243 0,9.27357 0.29586,12.05101 1.25,11.73475 0.73547,-0.24379 1.52384,-3.1505 1.91526,-7.06157 z"
         id="path1949" />
      <path
         style="fill:#ff9955"
         d="m 202.4433,564.77749 c 2.11906,-3.02538 2.14595,-17.73347 0.0405,-22.1703 -2.03215,-4.28245 -5.09693,-5.9189 -18.94797,-10.11733 -6.45416,-1.95635 -13.97726,-4.69332 -16.718,-6.08215 -2.74073,-1.38883 -5.95846,-2.38623 -7.15051,-2.21643 -2.04701,0.29158 -2.18139,0.89178 -2.41999,10.80872 -0.16776,6.9724 0.17309,11.32982 1.01456,12.96998 1.66528,3.24589 7.02961,6.79079 12.13911,8.02187 2.25443,0.54318 6.22344,2.10983 8.82003,3.48143 2.59659,1.37161 6.5134,2.78044 8.70402,3.13073 2.19063,0.3503 4.74839,1.4827 5.68392,2.51645 2.35201,2.59894 6.89729,2.42248 8.83429,-0.34297 z"
         id="path1947" />
      <path
         style="fill:#ff9955"
         d="m 351,569.45291 c 14.02659,-3.75328 18.84193,-6.27839 24.41685,-12.80391 2.65436,-3.10695 5.44005,-5.649 6.19044,-5.649 0.75038,0 2.53939,-1.77563 3.97557,-3.94584 2.18133,-3.29622 2.49847,-4.6133 1.92629,-8 -0.80837,-4.78471 -0.76018,-4.77689 -13.05597,-2.11833 -4.92425,1.0647 -12.77818,2.44131 -17.45318,3.05912 -11.01805,1.45607 -15.50672,2.81855 -18.53661,5.62656 -2.32616,2.15581 -2.46339,2.88731 -2.46339,13.13074 0,10.99631 0.67226,13.25056 3.95,13.24523 0.8525,-10e-4 5.825,-1.14644 11.05,-2.54457 z"
         id="path1945" />
      <path
         style="fill:#ff0000"
         d="m 295.18462,574.45287 c 4.94428,-1.04567 11.27428,-1.45083 19.52945,-1.25 15.76058,0.38341 16.40873,-0.0985 17.42367,-12.95417 0.79393,-10.05622 0.27015,-13.98101 -2.01984,-15.13511 -2.48318,-1.25145 -53.02016,0.39629 -56.87393,1.85435 -4.03722,1.52748 -4.40443,2.94052 -4.03632,15.53206 l 0.29235,10 3.5,1.74845 c 4.37447,2.18529 12.46585,2.25985 22.18462,0.20442 z"
         id="path1943" />
      <path
         style="fill:#008080"
         d="m 263.18498,573.73494 c 0.43142,-0.67922 0.79129,-2.50202 0.79971,-4.05068 0.008,-1.54866 0.42834,-3.5875 0.93315,-4.53075 0.50482,-0.94325 1.23275,-4.91074 1.61762,-8.81664 0.87929,-8.92339 -0.59667,-10.90519 -8.70323,-11.686 C 254.8995,544.3684 244.85,543.36307 235.5,542.4168 c -9.35,-0.94627 -19.03472,-1.91366 -21.52161,-2.14975 -6.42053,-0.60955 -8.29763,1.69095 -8.81234,10.80003 C 204.39819,564.65632 207.25992,570 215.30532,570 c 2.41793,0 5.82433,0.49784 7.56978,1.1063 4.30578,1.50101 32.89911,4.87266 36.57519,4.31286 1.62266,-0.2471 3.30327,-1.005 3.73469,-1.68422 z"
         id="path1941" />
    </g>
    <path
       style="display:inline;fill:#0000ff;stroke:none;stroke-width:4.55811"
       d="m 338.34937,400.30629 -22.51142,-3.45292 -32.70084,-0.93083 -31.84392,1.85212 -17.09794,1.42639 -5.27302,0.69805 12.16105,2.40544 15.3206,1.22851 13.19475,0.48931 15.65534,-0.1953 26.93037,-0.30443 17.09712,-1.96324 z"
       id="path2894" />
  </g>
</svg>
